<svg width="24" height="24" viewBox="0 0 24 24" fill="none" xmlns="http://www.w3.org/2000/svg">
<path d="M3 5C3 4.30964 3.55964 3.75 4.25 3.75H19.75C20.4404 3.75 21 4.30964 21 5C21 5.69036 20.4404 6.25 19.75 6.25H4.25C3.55964 6.25 3 5.69036 3 5Z" fill="black"/>
<path d="M3 12C3 11.3096 3.55964 10.75 4.25 10.75H19.75C20.4404 10.75 21 11.3096 21 12C21 12.6904 20.4404 13.25 19.75 13.25H4.25C3.55964 13.25 3 12.6904 3 12Z" fill="black"/>
<path d="M4.25 17.75C3.55964 17.75 3 18.3096 3 19C3 19.6904 3.55964 20.25 4.25 20.25H19.75C20.4404 20.25 21 19.6904 21 19C21 18.3096 20.4404 17.75 19.75 17.75H4.25Z" fill="black"/>
</svg>
