<svg width="393" height="852" viewBox="0 0 393 852" fill="none" xmlns="http://www.w3.org/2000/svg">
<g clip-path="url(#clip0_2_4395)">
<rect width="393" height="852" fill="white"/>
<g filter="url(#filter0_d_2_4395)">
<rect x="16" y="118" width="361" height="48" rx="10" fill="white"/>
<path d="M41.9956 132.852C42.1155 132.352 42.5623 132 43.076 132H44.924C45.4378 132 45.8846 132.352 46.0045 132.852L46.3653 134.355C46.8416 134.503 47.2988 134.693 47.7325 134.922L49.0514 134.114C49.4894 133.845 50.0544 133.912 50.4177 134.276L51.7244 135.582C52.0877 135.946 52.1546 136.511 51.8861 136.949L51.0777 138.268C51.3069 138.701 51.4974 139.158 51.6446 139.635L53.1482 139.996C53.6478 140.115 54 140.562 54 141.076V142.924C54 143.438 53.6478 143.885 53.1482 144.004L51.6446 144.365C51.4974 144.842 51.3069 145.299 51.0778 145.732L51.8861 147.051C52.1546 147.489 52.0877 148.054 51.7245 148.418L50.4177 149.724C50.0544 150.088 49.4895 150.155 49.0514 149.886L47.7326 149.078C47.2989 149.307 46.8416 149.497 46.3653 149.645L46.0044 151.148C45.8845 151.648 45.4377 152 44.924 152H43.076C42.5622 152 42.1154 151.648 41.9955 151.148L41.6347 149.645C41.1584 149.497 40.7012 149.307 40.2675 149.078L38.9486 149.886C38.5106 150.155 37.9456 150.088 37.5823 149.724L36.2756 148.418C35.9123 148.054 35.8454 147.489 36.1139 147.051L36.9223 145.732C36.6931 145.299 36.5026 144.842 36.3554 144.365L34.8518 144.004C34.3522 143.885 34 143.438 34 142.924V141.076C34 140.562 34.3522 140.115 34.8518 139.996L36.3555 139.635C36.5027 139.158 36.6931 138.701 36.9223 138.268L36.1139 136.949C35.8454 136.511 35.9123 135.946 36.2755 135.582L37.5823 134.276C37.9456 133.912 38.5105 133.845 38.9486 134.114L40.2675 134.922C40.7012 134.693 41.1584 134.503 41.6347 134.355L41.9956 132.852Z" stroke="#18BC9C" stroke-width="2"/>
<circle cx="44.0001" cy="142" r="3.33333" stroke="#18BC9C" stroke-width="2"/>
<path d="M71.936 135.072H73.088V137.024C73.088 138.416 72.736 140.112 71.024 141.248C70.864 141.024 70.4 140.608 70.16 140.448C71.696 139.456 71.936 138.128 71.936 137.008V135.072ZM75.84 135.072H76.976V139.008C76.976 139.36 77.024 139.424 77.28 139.424C77.408 139.424 77.936 139.424 78.096 139.424C78.368 139.424 78.432 139.216 78.464 137.68C78.688 137.856 79.168 138.032 79.472 138.112C79.376 139.984 79.088 140.48 78.224 140.48C78.016 140.48 77.312 140.48 77.104 140.48C76.128 140.48 75.84 140.16 75.84 139.024V135.072ZM72.8 142.624C73.904 145.376 76.288 147.424 79.504 148.24C79.232 148.496 78.88 148.976 78.72 149.28C75.392 148.304 73.008 146.096 71.728 142.96L72.8 142.624ZM77.28 141.504H77.52L77.728 141.456L78.496 141.76C77.36 145.952 74.352 148.256 70.848 149.28C70.72 148.992 70.416 148.48 70.192 148.224C73.424 147.408 76.32 145.248 77.28 141.696V141.504ZM70.896 141.504H77.744V142.592H70.896V141.504ZM72.416 135.072H76.416V136.144H72.416V135.072ZM65.36 139.408H70.128V140.368H65.36V139.408ZM65.44 135.136H70.096V136.096H65.44V135.136ZM65.36 141.552H70.128V142.512H65.36V141.552ZM64.608 137.232H70.688V138.224H64.608V137.232ZM65.936 143.712H70.128V148.384H65.936V147.376H69.072V144.704H65.936V143.712ZM65.344 143.712H66.384V149.12H65.344V143.712ZM83.376 139.456H92.704V140.608H83.376V139.456ZM87.984 143.28H93.376V144.416H87.984V143.28ZM87.344 140.048H88.592V148.144L87.344 147.984V140.048ZM83.552 141.984L84.8 142.112C84.352 145.344 83.344 147.792 81.536 149.36C81.344 149.152 80.832 148.736 80.544 148.56C82.336 147.168 83.2 144.88 83.552 141.984ZM84.304 144.048C85.44 147.312 87.936 147.872 91.184 147.872C91.776 147.872 94.544 147.872 95.328 147.856C95.136 148.144 94.928 148.72 94.88 149.072H91.12C87.312 149.072 84.704 148.32 83.328 144.416L84.304 144.048ZM87.328 134.576H88.592V137.168H87.328V134.576ZM81.312 136.4H94.688V139.888H93.456V137.552H82.496V139.888H81.312V136.4Z" fill="black"/>
<path d="M360.85 142.007C360.85 142.151 360.822 142.284 360.767 142.405C360.711 142.527 360.625 142.646 360.509 142.762L355.537 147.685C355.354 147.867 355.133 147.958 354.873 147.958C354.602 147.958 354.372 147.867 354.184 147.685C353.996 147.496 353.902 147.27 353.902 147.004C353.902 146.738 354.004 146.503 354.209 146.298L358.567 142.007L354.209 137.715C354.004 137.511 353.902 137.275 353.902 137.01C353.902 136.744 353.996 136.52 354.184 136.337C354.372 136.149 354.602 136.055 354.873 136.055C355.133 136.055 355.354 136.146 355.537 136.329L360.509 141.251C360.736 141.467 360.85 141.719 360.85 142.007Z" fill="#3C3C43" fill-opacity="0.3"/>
</g>
<g filter="url(#filter1_d_2_4395)">
<rect x="16" y="174" width="361" height="48" rx="10" fill="white"/>
<path d="M48.5625 189C46.6791 189 45.0075 189.743 43.875 191.021C42.7425 189.743 41.0709 189 39.1875 189C37.5471 189.002 35.9744 189.655 34.8145 190.814C33.6545 191.974 33.002 193.547 33 195.188C33 201.969 42.9197 207.388 43.3416 207.616C43.5055 207.704 43.6888 207.75 43.875 207.75C44.0612 207.75 44.2445 207.704 44.4084 207.616C44.8303 207.388 54.75 201.969 54.75 195.188C54.748 193.547 54.0955 191.974 52.9355 190.814C51.7756 189.655 50.2029 189.002 48.5625 189ZM48.0478 202.346C46.7421 203.454 45.3464 204.451 43.875 205.327C42.4036 204.451 41.0079 203.454 39.7022 202.346C37.6706 200.603 35.25 197.946 35.25 195.188C35.25 194.143 35.6648 193.142 36.4033 192.403C37.1417 191.665 38.1432 191.25 39.1875 191.25C40.8562 191.25 42.2531 192.131 42.8334 193.551C42.9179 193.758 43.0621 193.935 43.2476 194.059C43.4331 194.184 43.6515 194.25 43.875 194.25C44.0985 194.25 44.3169 194.184 44.5024 194.059C44.6879 193.935 44.8321 193.758 44.9166 193.551C45.4969 192.131 46.8938 191.25 48.5625 191.25C49.6068 191.25 50.6083 191.665 51.3467 192.403C52.0852 193.142 52.5 194.143 52.5 195.188C52.5 197.946 50.0794 200.603 48.0478 202.346Z" fill="#18BC9C"/>
<path d="M72.592 195.376H75.92V196.32H72.592V195.376ZM71.568 200.016H76.96V200.88H71.568V200.016ZM66.208 191.248H70.688V192.224H66.208V191.248ZM70.352 191.248H70.56L70.768 191.2L71.52 191.568C70.32 194.256 67.68 196.048 65.088 196.944C64.944 196.672 64.656 196.256 64.432 196.048C66.832 195.328 69.376 193.616 70.352 191.44V191.248ZM72.88 190.56C74.032 193.04 76.464 194.992 79.44 195.776C79.184 196.016 78.88 196.432 78.704 196.72C75.648 195.776 73.2 193.664 71.904 190.864L72.88 190.56ZM76.144 190.672L77.04 191.296C76.256 192.032 75.248 192.8 74.48 193.328L73.776 192.768C74.512 192.224 75.568 191.328 76.144 190.672ZM78.064 192.288L78.944 192.896C78.176 193.632 77.136 194.4 76.352 194.896L75.616 194.336C76.384 193.808 77.472 192.912 78.064 192.288ZM66.704 195.44H70.624V199.28H69.552V196.384H66.704V195.44ZM66.288 198.064H67.328C67.104 199.312 66.784 200.88 66.528 201.872L65.52 201.696C65.792 200.736 66.112 199.232 66.288 198.064ZM69.552 200.496H70.656C70.656 200.496 70.64 200.832 70.624 200.976C70.416 203.408 70.208 204.432 69.792 204.848C69.504 205.12 69.216 205.2 68.72 205.248C68.304 205.264 67.456 205.248 66.576 205.216C66.544 204.896 66.416 204.464 66.224 204.176C67.12 204.256 67.984 204.272 68.288 204.272C68.592 204.272 68.768 204.256 68.896 204.128C69.184 203.856 69.36 202.944 69.552 200.656V200.496ZM72.16 195.376H73.2V196.64C73.2 197.68 72.864 198.88 71.44 199.712C71.28 199.488 70.896 199.104 70.672 198.96C71.952 198.272 72.16 197.392 72.16 196.624V195.376ZM76.688 200.016H76.896L77.088 199.968L77.776 200.224C76.72 203.2 74.208 204.624 71.184 205.296C71.088 205.04 70.848 204.64 70.656 204.416C73.408 203.904 75.808 202.592 76.688 200.176V200.016ZM73.088 200.816C74.016 202.672 76.16 203.888 78.992 204.288C78.736 204.528 78.432 204.992 78.272 205.28C75.344 204.736 73.2 203.312 72.144 201.072L73.088 200.816ZM66.816 198.064H69.952V199.008H66.656L66.816 198.064ZM66.336 200.496H69.856V201.424H66.16L66.336 200.496ZM75.36 195.376H76.416V197.872C76.416 198.096 76.416 198.256 76.48 198.304C76.544 198.352 76.624 198.352 76.752 198.352C76.864 198.352 77.072 198.352 77.216 198.352C77.36 198.352 77.52 198.352 77.568 198.336C77.632 198.304 77.712 198.224 77.76 198.112C77.792 197.968 77.808 197.664 77.824 197.264C78.032 197.44 78.416 197.632 78.704 197.712C78.672 198.128 78.624 198.592 78.512 198.784C78.432 198.96 78.24 199.088 78.032 199.152C77.872 199.216 77.552 199.232 77.328 199.232C77.152 199.232 76.704 199.232 76.544 199.232C76.224 199.232 75.872 199.168 75.664 198.992C75.44 198.784 75.36 198.544 75.36 197.776V195.376ZM65.776 193.152L66.48 192.496C67.216 192.928 68.128 193.6 68.56 194.064L67.824 194.8C67.408 194.304 66.528 193.616 65.776 193.152ZM90.32 202.304L91.184 201.68C92.496 202.384 94.192 203.44 95.072 204.192L94.144 204.896C93.344 204.176 91.664 203.056 90.32 202.304ZM82.8 198.176H93.232V199.136H82.8V198.176ZM80.848 200.24H95.168V201.232H80.848V200.24ZM81.024 191.216H94.864V192.192H81.024V191.216ZM87.392 200.432H88.608V204.016C88.608 204.64 88.496 204.944 88 205.104C87.52 205.296 86.768 205.296 85.616 205.296C85.552 204.976 85.376 204.528 85.232 204.224C86.128 204.256 86.864 204.256 87.12 204.24C87.344 204.224 87.392 204.16 87.392 203.984V200.432ZM84.336 201.632L85.44 202.016C84.48 203.2 82.96 204.32 81.632 205.04C81.424 204.832 80.976 204.416 80.704 204.24C82.064 203.616 83.488 202.656 84.336 201.632ZM83.104 194.352V196.192H92.896V194.352H83.104ZM81.984 193.424H94.08V197.136H81.984V193.424ZM85.536 191.584H86.656V196.704H85.536V191.584ZM89.2 191.584H90.32V196.704H89.2V191.584ZM104.384 192.096V194.24H109.136V192.096H104.384ZM103.264 191.088H110.304V195.232H103.264V191.088ZM102.8 196.416H110.32V197.44H103.984V205.264H102.8V196.416ZM103.28 198.784H110.128V199.808H103.28V198.784ZM103.28 201.184H110.128V202.208H103.28V201.184ZM109.568 196.416H110.784V203.872C110.784 204.544 110.64 204.88 110.192 205.072C109.728 205.248 108.96 205.264 107.808 205.264C107.76 204.928 107.6 204.464 107.44 204.144C108.272 204.176 109.056 204.16 109.28 204.144C109.504 204.144 109.568 204.08 109.568 203.872V196.416ZM96.56 199.04C98 198.688 100.128 198.08 102.16 197.504L102.32 198.592C100.432 199.168 98.432 199.76 96.912 200.192L96.56 199.04ZM96.752 193.792H102.272V194.928H96.752V193.792ZM99.008 190.576H100.176V203.856C100.176 204.544 100.032 204.864 99.6 205.056C99.184 205.232 98.512 205.28 97.408 205.264C97.36 204.976 97.2 204.48 97.056 204.176C97.792 204.192 98.496 204.192 98.704 204.176C98.928 204.176 99.008 204.096 99.008 203.872V190.576ZM119.84 196.144V197.568H125.76V196.144H119.84ZM119.84 193.92V195.312H125.76V193.92H119.84ZM118.768 193.024H126.848V198.464H118.768V193.024ZM119.456 199.44H126.24V205.28H125.088V200.384H120.544V205.28H119.456V199.44ZM125.088 190.544L126.272 190.928C125.824 191.744 125.328 192.592 124.912 193.168L123.936 192.816C124.32 192.192 124.832 191.216 125.088 190.544ZM119.456 190.992L120.464 190.624C120.912 191.28 121.408 192.192 121.584 192.768L120.528 193.216C120.352 192.624 119.904 191.696 119.456 190.992ZM120.08 201.632H125.584V202.528H120.08V201.632ZM120.08 203.808H125.584V204.736H120.08V203.808ZM122.208 193.44H123.296V197.984H122.208V193.44ZM114.112 201.584L115.2 201.84C114.816 203.152 114.144 204.448 113.408 205.296C113.2 205.136 112.752 204.816 112.496 204.656C113.216 203.888 113.808 202.752 114.112 201.584ZM116.128 201.984L117.024 201.568C117.552 202.352 118.128 203.392 118.368 204.048L117.408 204.512C117.168 203.84 116.624 202.768 116.128 201.984ZM114.368 195.168V197.232H116.768V195.168H114.368ZM114.368 198.16V200.256H116.768V198.16H114.368ZM114.368 192.176V194.224H116.768V192.176H114.368ZM113.312 191.168H117.84V201.248H113.312V191.168Z" fill="black"/>
<path d="M360.85 198.007C360.85 198.151 360.822 198.284 360.767 198.405C360.711 198.527 360.625 198.646 360.509 198.762L355.537 203.685C355.354 203.867 355.133 203.958 354.873 203.958C354.602 203.958 354.372 203.867 354.184 203.685C353.996 203.496 353.902 203.27 353.902 203.004C353.902 202.738 354.004 202.503 354.209 202.298L358.567 198.007L354.209 193.715C354.004 193.511 353.902 193.275 353.902 193.01C353.902 192.744 353.996 192.52 354.184 192.337C354.372 192.149 354.602 192.055 354.873 192.055C355.133 192.055 355.354 192.146 355.537 192.329L360.509 197.251C360.736 197.467 360.85 197.719 360.85 198.007Z" fill="#3C3C43" fill-opacity="0.3"/>
</g>
<g filter="url(#filter2_d_2_4395)">
<rect x="16" y="230" width="361" height="48" rx="10" fill="white"/>
<path d="M46 250.5C46 250.224 46.2239 250 46.5 250H50.5C50.7761 250 51 250.224 51 250.5V251.5C51 251.776 50.7761 252 50.5 252H46.5C46.2239 252 46 251.776 46 251.5V250.5Z" fill="#18BC9C"/>
<path d="M46.5 253C46.2239 253 46 253.224 46 253.5V254.5C46 254.776 46.2239 255 46.5 255H50.5C50.7761 255 51 254.776 51 254.5V253.5C51 253.224 50.7761 253 50.5 253H46.5Z" fill="#18BC9C"/>
<path d="M43 252C43 253.105 42.1046 254 41 254C39.8954 254 39 253.105 39 252C39 250.895 39.8954 250 41 250C42.1046 250 43 250.895 43 252Z" fill="#18BC9C"/>
<path d="M37.0245 257.6C37.2866 255.532 39.587 255 41 255C42.413 255 44.7134 255.532 44.9755 257.6C45.0032 257.82 44.8209 258 44.6 258H37.4C37.1791 258 36.9968 257.82 37.0245 257.6Z" fill="#18BC9C"/>
<path fill-rule="evenodd" clip-rule="evenodd" d="M37 246H51C52.6569 246 54 247.343 54 249V259C54 260.657 52.6569 262 51 262H37C35.3431 262 34 260.657 34 259V249C34 247.343 35.3431 246 37 246ZM37 248C36.4477 248 36 248.448 36 249V259C36 259.552 36.4477 260 37 260H51C51.5523 260 52 259.552 52 259V249C52 248.448 51.5523 248 51 248H37Z" fill="#18BC9C"/>
<path d="M67.632 252.032V254.448H76.416V252.032H67.632ZM66.608 251.216H77.504V255.264H66.608V251.216ZM69.232 249.488H74.816V250.336H69.232V249.488ZM71.424 251.472H72.448V254.816H71.424V251.472ZM71.92 247.536C70.496 248.992 67.824 250.624 65.168 251.616C65.024 251.344 64.752 250.928 64.528 250.672C67.248 249.744 69.952 248.112 71.28 246.56H72.416C74.224 248.304 77.008 249.776 79.488 250.512C79.232 250.768 78.96 251.2 78.784 251.504C76.432 250.688 73.552 249.104 71.92 247.536ZM68.608 252.512L69.472 252.224C69.888 252.784 70.272 253.536 70.432 254.048L69.504 254.384C69.376 253.872 69.008 253.088 68.608 252.512ZM74.368 252.16L75.392 252.48C75.024 253.168 74.624 253.904 74.304 254.384L73.456 254.096C73.76 253.552 74.176 252.704 74.368 252.16ZM67.552 256.032H76.592V261.264H75.376V256.88H68.736V261.28H67.552V256.032ZM68.256 257.952H75.904V258.832H68.256V257.952ZM68.256 259.92H75.904V260.784H68.256V259.92ZM84.224 248.16V249.808H91.824V248.16H84.224ZM83.024 247.184H93.088V250.8H83.024V247.184ZM83.536 254.592V255.728H92.496V254.592H83.536ZM83.536 256.576V257.728H92.496V256.576H83.536ZM83.536 252.624V253.744H92.496V252.624H83.536ZM82.336 251.728H93.728V258.608H82.336V251.728ZM85.392 258.592L86.512 259.328C85.232 260.112 83.152 260.88 81.504 261.296C81.296 261.04 80.896 260.656 80.608 260.416C82.288 260.016 84.384 259.248 85.392 258.592ZM89.296 259.424L90.336 258.64C92 259.136 94.144 259.92 95.392 260.448L94.352 261.312C93.168 260.752 90.992 259.92 89.296 259.424ZM96.832 252.464H111.184V253.648H96.832V252.464ZM103.776 248.864H109.456V250.032H103.776V248.864ZM103.056 246.56H104.304V253.024H103.056V246.56ZM103.056 253.264H104.304V261.28H103.056V253.264ZM103.952 255.936L104.544 254.976C106.304 255.44 108.736 256.24 110.032 256.864L109.408 257.936C108.176 257.328 105.76 256.448 103.952 255.936Z" fill="black"/>
<path d="M360.85 254.007C360.85 254.151 360.822 254.284 360.767 254.405C360.711 254.527 360.625 254.646 360.509 254.762L355.537 259.685C355.354 259.867 355.133 259.958 354.873 259.958C354.602 259.958 354.372 259.867 354.184 259.685C353.996 259.496 353.902 259.27 353.902 259.004C353.902 258.738 354.004 258.503 354.209 258.298L358.567 254.007L354.209 249.715C354.004 249.511 353.902 249.275 353.902 249.01C353.902 248.744 353.996 248.52 354.184 248.337C354.372 248.149 354.602 248.055 354.873 248.055C355.133 248.055 355.354 248.146 355.537 248.329L360.509 253.251C360.736 253.467 360.85 253.719 360.85 254.007Z" fill="#3C3C43" fill-opacity="0.3"/>
</g>
<g filter="url(#filter3_d_2_4395)">
<rect x="16" y="286" width="361" height="48" rx="10" fill="white"/>
<path fill-rule="evenodd" clip-rule="evenodd" d="M35 302H34V318H35V302ZM37.5 302H36V318H37.5V302ZM38 302H39V318H38V302ZM40.5 302H40V318H40.5V302ZM41 302H41.5V318H41V302ZM43.5 302H42V318H43.5V302ZM48 302H49V310H48.2V313.2H48V302ZM49.5 302V310H50V302H49.5ZM47 302V313.2H46V302H47ZM45.5 302V313.2H45V302H45.5ZM45 318V316.8H45.5V318H45ZM46 318V316.8H47V318H46ZM48 318V316.8H48.2V318H48ZM44 302H44.5V318H44V302ZM49.2 319V315.8H46V314.2H49.2V311H50.8V314.2H54V315.8H50.8V319H49.2Z" fill="#18BC9C"/>
<path d="M75.68 303.376L76.528 302.768C77.36 303.424 78.32 304.32 78.784 304.976L77.872 305.632C77.44 304.992 76.496 304.032 75.68 303.376ZM64.848 306.112H79.2V307.12H64.848V306.112ZM65.568 303.856H72.528V304.816H65.568V303.856ZM65.296 308.192H72.816V309.088H65.296V308.192ZM65.04 314.768H72.88V315.696H65.04V314.768ZM68.48 302.56H69.632V306.96H68.48V302.56ZM66.576 312.256V313.168H71.536V312.256H66.576ZM66.576 310.672V311.568H71.536V310.672H66.576ZM65.664 309.968H72.464V313.872H65.664V309.968ZM68.56 310.384H69.488V313.616H69.568V317.296H68.496V313.616H68.56V310.384ZM68.48 307.168H69.584V310.208H68.48V307.168ZM73.408 302.592H74.624C74.544 310.224 75.744 316.112 77.728 316.112C78.16 316.112 78.336 315.344 78.432 313.376C78.688 313.632 79.104 313.872 79.408 313.984C79.216 316.528 78.8 317.28 77.616 317.28C74.48 317.28 73.456 310.544 73.408 302.592ZM77.408 308L78.48 308.336C77.296 312.064 75.216 315.328 72.288 317.296C72.112 317.008 71.744 316.64 71.44 316.4C74.272 314.64 76.32 311.52 77.408 308ZM84.384 306.624V308.144H91.712V306.624H84.384ZM84.384 309.056V310.592H91.712V309.056H84.384ZM84.384 304.192V305.712H91.712V304.192H84.384ZM83.2 303.232H92.944V311.552H83.2V303.232ZM80.896 312.656H95.104V313.776H80.896V312.656ZM89.328 315.088L90.192 314.288C92.032 314.944 94.048 315.808 95.28 316.464L94.128 317.28C93.008 316.624 91.136 315.76 89.328 315.088ZM85.616 314.208L86.704 314.976C85.344 315.84 83.28 316.736 81.648 317.28C81.456 317.024 81.088 316.608 80.816 316.352C82.464 315.856 84.544 314.96 85.616 314.208ZM106.512 309.488H107.616V317.232H106.512V309.488ZM99.488 310.464H100.512V315.6H99.488V310.464ZM97.376 311.808H98.336V315.936H97.376V311.808ZM103.776 311.12H109.792V312.08H104.816V316.032H103.776V311.12ZM104.064 303.152H110.016V307.808H104.016V306.912H108.896V304.048H104.064V303.152ZM97.904 303.904H102.464V306.976H97.904V306.08H101.456V304.8H97.904V303.904ZM102.928 305.024H111.36V305.92H102.928V305.024ZM99.984 312.32H102.704V313.312H99.984V312.32ZM109.392 311.12H110.464V314.848C110.464 315.344 110.384 315.6 110.048 315.776C109.712 315.92 109.2 315.936 108.416 315.936C108.368 315.648 108.24 315.296 108.112 315.024C108.64 315.04 109.056 315.04 109.2 315.024C109.36 315.024 109.392 314.992 109.392 314.848V311.12ZM103.232 308.624H111.024V310.832H109.984V309.552H104.224V310.832H103.232V308.624ZM99.2 302.56L100.416 302.752C100.176 303.344 99.936 303.936 99.728 304.368L98.768 304.16C98.912 303.68 99.12 303.008 99.2 302.56ZM97.424 303.904H98.464V310.528H97.424V303.904ZM96.592 315.616C98.192 315.376 100.608 314.976 102.944 314.56L103.008 315.616C100.784 316.016 98.448 316.432 96.768 316.72L96.592 315.616ZM97.424 310H101.504V308.688H97.936V307.776H102.528V310.912H97.424V310ZM115.456 311.056H124.688V312.176H115.456V311.056ZM115.568 306.736H125.392V313.04H124.192V307.856H115.568V306.736ZM123.936 302.608L124.928 303.504C122.464 304.304 118.752 304.944 115.552 305.36C115.504 305.088 115.344 304.656 115.2 304.4C118.32 303.984 121.92 303.312 123.936 302.608ZM114.832 304.064L116.384 304.512C116.368 304.64 116.272 304.704 116.048 304.736V309.248C116.048 311.632 115.744 314.976 113.536 317.28C113.36 317.024 112.912 316.608 112.608 316.464C114.624 314.368 114.832 311.504 114.832 309.232V304.064Z" fill="black"/>
<path d="M360.85 310.007C360.85 310.151 360.822 310.284 360.767 310.405C360.711 310.527 360.625 310.646 360.509 310.762L355.537 315.685C355.354 315.867 355.133 315.958 354.873 315.958C354.602 315.958 354.372 315.867 354.184 315.685C353.996 315.496 353.902 315.27 353.902 315.004C353.902 314.738 354.004 314.503 354.209 314.298L358.567 310.007L354.209 305.715C354.004 305.511 353.902 305.275 353.902 305.01C353.902 304.744 353.996 304.52 354.184 304.337C354.372 304.149 354.602 304.055 354.873 304.055C355.133 304.055 355.354 304.146 355.537 304.329L360.509 309.251C360.736 309.467 360.85 309.719 360.85 310.007Z" fill="#3C3C43" fill-opacity="0.3"/>
</g>
<g filter="url(#filter4_d_2_4395)">
<rect x="16" y="342" width="361" height="48" rx="10" fill="white"/>
<path d="M34 364.502C34 363.674 34.6716 363.002 35.5 363.002H38V369.002H35.5C34.6716 369.002 34 368.331 34 367.502V364.502Z" fill="#18BC9C"/>
<path fill-rule="evenodd" clip-rule="evenodd" d="M47.9385 357.307L39 362.894V369.111L47.9385 374.697C49.2708 375.53 51 374.573 51 373.001V369.002C52.6569 369.002 54 367.659 54 366.002C54 364.345 52.6569 363.002 51 363.002V359.004C51 357.432 49.2706 356.475 47.9385 357.307ZM51 365.002V367.002C51.5523 367.002 52 366.555 52 366.002C52 365.45 51.5523 365.002 51 365.002ZM41 364.002V368.002L48.9985 373.001L49 373.001V359.004L48.9985 359.003L41 364.002Z" fill="#18BC9C"/>
<path d="M67.248 362.576H76.704V363.568H67.248V362.576ZM64.976 371.76H78.992V372.848H64.976V371.76ZM68.656 368.144V369.68H75.216V368.144H68.656ZM68.656 365.712V367.232H75.216V365.712H68.656ZM67.504 364.752H76.432V370.64H67.504V364.752ZM71.344 358.576H72.576V360.704H71.344V358.576ZM65.28 360.064H78.72V363.168H77.504V361.136H66.464V363.168H65.28V360.064ZM80.736 369.072H95.264V370.048H80.736V369.072ZM84.736 360.032H95.184V360.912H84.736V360.032ZM90.592 367.968H91.76V372C91.76 372.64 91.616 372.944 91.12 373.12C90.608 373.28 89.792 373.296 88.464 373.28C88.416 372.976 88.224 372.56 88.08 372.256C89.088 372.288 90 372.272 90.256 372.256C90.528 372.256 90.592 372.192 90.592 371.984V367.968ZM83.488 370.736L84.288 370.048C85.152 370.544 86.192 371.328 86.704 371.888L85.824 372.656C85.36 372.08 84.336 371.264 83.488 370.736ZM81.28 359.536L82.08 358.88C82.896 359.44 83.856 360.256 84.272 360.88L83.44 361.616C83.024 361.008 82.08 360.128 81.28 359.536ZM86.704 358.816L87.696 358.576C88.08 359.024 88.48 359.664 88.64 360.112L87.6 360.4C87.44 359.952 87.072 359.296 86.704 358.816ZM87.152 363.696V364.416H92.688V363.696H87.152ZM87.152 365.056V365.776H92.688V365.056H87.152ZM87.152 362.368V363.056H92.688V362.368H87.152ZM86.032 361.712H93.856V366.448H86.032V361.712ZM84.032 362.736V366.192H82.928V363.712H80.8V362.736H84.032ZM89.264 360.336L90.448 360.464C90.24 361.072 90.032 361.648 89.856 362.064L88.912 361.904C89.04 361.44 89.2 360.768 89.264 360.336ZM92.192 358.544L93.328 358.8C92.944 359.376 92.528 359.92 92.176 360.336L91.248 360.096C91.552 359.632 91.984 358.976 92.192 358.544ZM84.032 365.776C84.656 366.704 85.84 367.12 87.312 367.168C89.168 367.232 93.328 367.184 95.376 367.072C95.264 367.296 95.104 367.744 95.056 368.048C93.12 368.128 89.216 368.144 87.344 368.08C85.648 368.032 84.448 367.616 83.616 366.624C82.832 367.168 82.032 367.696 81.184 368.256L80.704 367.248C81.456 366.864 82.384 366.32 83.2 365.776H84.032ZM96.736 368.72H111.264V369.712H96.736V368.72ZM97.2 359.808H110.608V360.768H97.2V359.808ZM106.272 367.68H107.424V372C107.424 372.624 107.296 372.944 106.8 373.12C106.288 373.28 105.472 373.28 104.176 373.28C104.128 372.976 103.968 372.544 103.808 372.24C104.768 372.272 105.664 372.272 105.936 372.256C106.192 372.24 106.272 372.176 106.272 371.968V367.68ZM103.376 358.592H104.56V367.168H103.376V358.592ZM99.296 370.384L100.112 369.68C101.056 370.224 102.24 371.072 102.8 371.696L101.92 372.496C101.376 371.856 100.256 370.976 99.296 370.384ZM99.568 364.24V365.232H108.464V364.24H99.568ZM99.568 362.48V363.456H108.464V362.48H99.568ZM98.432 361.68H109.632V366.048H98.432V361.68ZM106.368 366.384L107.056 365.776C108.336 366.208 109.856 367.008 110.656 367.6L109.936 368.288C109.152 367.648 107.632 366.816 106.368 366.384ZM97.376 366.976C100.288 366.976 104.944 366.928 109.328 366.848L109.264 367.664C104.992 367.776 100.448 367.872 97.424 367.92L97.376 366.976ZM118.912 362.288V364.128H122.592V362.288H118.912ZM117.792 361.424H123.776V364.992H117.792V361.424ZM117.056 366.96V369.328H119.184V366.96H117.056ZM116.032 366.08H120.24V370.208H116.032V366.08ZM122.352 366.96V369.328H124.592V366.96H122.352ZM121.328 366.08H125.648V370.208H121.328V366.08ZM113.488 359.264H126.864V360.336H114.656V373.296H113.488V359.264ZM114.256 371.408H127.28V372.512H114.256V371.408Z" fill="black"/>
<path d="M360.85 366.007C360.85 366.151 360.822 366.284 360.767 366.405C360.711 366.527 360.625 366.646 360.509 366.762L355.537 371.685C355.354 371.867 355.133 371.958 354.873 371.958C354.602 371.958 354.372 371.867 354.184 371.685C353.996 371.496 353.902 371.27 353.902 371.004C353.902 370.738 354.004 370.503 354.209 370.298L358.567 366.007L354.209 361.715C354.004 361.511 353.902 361.275 353.902 361.01C353.902 360.744 353.996 360.52 354.184 360.337C354.372 360.149 354.602 360.055 354.873 360.055C355.133 360.055 355.354 360.146 355.537 360.329L360.509 365.251C360.736 365.467 360.85 365.719 360.85 366.007Z" fill="#3C3C43" fill-opacity="0.3"/>
</g>
<g filter="url(#filter5_d_2_4395)">
<rect x="16" y="398" width="361" height="48" rx="10" fill="white"/>
<path fill-rule="evenodd" clip-rule="evenodd" d="M35.5 413C34.6716 413 34 413.672 34 414.5V422.269C34 423.098 34.6716 423.769 35.5 423.769H35.9868C36.0549 423.769 36.1031 423.836 36.0818 423.9L35.2743 426.356C35.2017 426.577 35.4431 426.769 35.6417 426.648L37 425.822L40.2553 423.842C40.3336 423.794 40.4235 423.769 40.5151 423.769H42.5H49.5C50.3284 423.769 51 423.098 51 422.269V417V414.5C51 413.672 50.3284 413 49.5 413H35.5ZM52.5 417H52V422.269C52 423.65 50.8807 424.769 49.5 424.769H40.6552L37.1415 426.906C37.381 427.416 37.8993 427.769 38.5 427.769H45.5H47.4849C47.5765 427.769 47.6664 427.794 47.7447 427.842L52.3583 430.648C52.5569 430.769 52.7983 430.577 52.7257 430.356L51.9182 427.9C51.8969 427.836 51.9451 427.769 52.0132 427.769H52.5C53.3284 427.769 54 427.098 54 426.269V418.5C54 417.672 53.3284 417 52.5 417Z" fill="#18BC9C"/>
<path d="M71.584 422.352H72.8V429.296H71.584V422.352ZM69.008 420.16V421.712H75.056V420.16H69.008ZM67.84 419.248H76.288V422.64H67.84V419.248ZM66.416 423.968H77.136V425.056H67.616V428.56H66.416V423.968ZM76.544 423.968H77.76V427.312C77.76 427.936 77.632 428.272 77.136 428.448C76.624 428.64 75.808 428.64 74.56 428.64C74.496 428.32 74.32 427.872 74.144 427.552C75.104 427.584 75.968 427.584 76.224 427.568C76.464 427.552 76.544 427.488 76.544 427.312V423.968ZM71.472 414.56H72.704V417.472H71.472V414.56ZM65.36 417.04H78.736V420.496H77.536V418.112H66.528V420.496H65.36V417.04ZM66.688 415.152L67.76 414.72C68.288 415.296 68.848 416.064 69.12 416.592L67.968 417.12C67.728 416.576 67.184 415.744 66.688 415.152ZM76.192 414.688L77.44 415.12C76.912 415.824 76.304 416.56 75.824 417.056L74.848 416.656C75.296 416.128 75.888 415.264 76.192 414.688ZM84.112 418.864V420.512H91.872V418.864H84.112ZM84.112 421.52V423.184H91.872V421.52H84.112ZM84.112 416.208V417.84H91.872V416.208H84.112ZM82.944 415.136H93.088V424.272H82.944V415.136ZM89.024 423.488H90.24V427.472C90.24 427.936 90.368 428.016 91.056 428.016C91.392 428.016 93.008 428.016 93.44 428.016C94.096 428.016 94.208 427.744 94.272 425.744C94.528 425.968 95.056 426.16 95.392 426.24C95.248 428.576 94.896 429.168 93.536 429.168C93.2 429.168 91.264 429.168 90.944 429.168C89.424 429.168 89.024 428.8 89.024 427.472V423.488ZM85.168 423.824H86.464C86.128 426.672 85.168 428.416 81.312 429.296C81.2 428.992 80.864 428.496 80.624 428.24C84.144 427.536 84.896 426.16 85.168 423.824ZM101.456 422.336H106.928V427.024H101.456V426.016H105.808V423.344H101.456V422.336ZM100.928 422.336H102.048V427.984H100.928V422.336ZM98.032 417.568H102.48V418.464H98.032V417.568ZM105.408 417.568H109.936V418.464H105.408V417.568ZM109.408 415.248H110.608V427.68C110.608 428.48 110.416 428.864 109.904 429.072C109.36 429.264 108.432 429.28 107.024 429.28C106.976 428.944 106.768 428.384 106.592 428.048C107.648 428.096 108.704 428.08 109.008 428.064C109.312 428.064 109.408 427.968 109.408 427.664V415.248ZM98.128 415.248H103.248V420.896H98.128V419.92H102.112V416.224H98.128V415.248ZM110.032 415.248V416.208H105.84V419.936H110.032V420.896H104.688V415.248H110.032ZM97.456 415.248H98.64V429.296H97.456V415.248ZM114.752 418.16V419.376H117.872V418.16H114.752ZM114.752 416.112V417.312H117.872V416.112H114.752ZM113.68 415.248H118.992V420.272H113.68V415.248ZM112.72 421.456H119.936V422.384H112.72V421.456ZM119.84 415.36H127.136V416.256H119.84V415.36ZM115.92 421.744H116.944V427.84L115.92 427.2V421.744ZM116.464 424.112H119.664V425.024H116.464V424.112ZM123.008 415.584L124.144 415.808C123.84 416.624 123.52 417.536 123.232 418.128L122.336 417.92C122.592 417.264 122.864 416.272 123.008 415.584ZM121.552 420.432V421.632H125.376V420.432H121.552ZM121.552 422.464V423.696H125.376V422.464H121.552ZM121.552 418.384V419.568H125.376V418.384H121.552ZM120.464 417.504H126.496V424.576H120.464V417.504ZM121.792 424.864L122.816 425.168C122.112 426.064 120.944 426.976 119.952 427.52C119.776 427.344 119.376 426.96 119.152 426.784C120.144 426.32 121.184 425.6 121.792 424.864ZM113.84 423.264H114.848C114.752 425.568 114.432 427.968 113.296 429.328C113.136 429.088 112.784 428.736 112.528 428.56C113.504 427.392 113.76 425.232 113.84 423.264ZM114.592 424.832C115.728 427.584 118.224 427.936 121.824 427.936C122.544 427.936 126.512 427.936 127.456 427.904C127.28 428.16 127.088 428.624 127.024 428.944H121.824C117.744 428.944 115.168 428.416 113.84 425.104L114.592 424.832ZM124.032 425.296L124.848 424.832C125.776 425.392 126.832 426.288 127.36 426.896L126.48 427.456C125.968 426.816 124.896 425.888 124.032 425.296Z" fill="black"/>
<path d="M360.85 422.007C360.85 422.151 360.822 422.284 360.767 422.405C360.711 422.527 360.625 422.646 360.509 422.762L355.537 427.685C355.354 427.867 355.133 427.958 354.873 427.958C354.602 427.958 354.372 427.867 354.184 427.685C353.996 427.496 353.902 427.27 353.902 427.004C353.902 426.738 354.004 426.503 354.209 426.298L358.567 422.007L354.209 417.715C354.004 417.511 353.902 417.275 353.902 417.01C353.902 416.744 353.996 416.52 354.184 416.337C354.372 416.149 354.602 416.055 354.873 416.055C355.133 416.055 355.354 416.146 355.537 416.329L360.509 421.251C360.736 421.467 360.85 421.719 360.85 422.007Z" fill="#3C3C43" fill-opacity="0.3"/>
</g>
<g filter="url(#filter6_d_2_4395)">
<rect x="16" y="454" width="361" height="48" rx="10" fill="white"/>
<path fill-rule="evenodd" clip-rule="evenodd" d="M44 470C40.6863 470 38 472.686 38 476C38 477.028 38.3639 478.177 38.9815 479.368C39.5946 480.55 40.4236 481.709 41.2719 482.739C42.1178 483.766 42.9665 484.646 43.6048 485.269C43.7483 485.409 43.8809 485.536 44 485.648C44.1191 485.536 44.2517 485.409 44.3952 485.269C45.0335 484.646 45.8822 483.766 46.7281 482.739C47.5764 481.709 48.4054 480.55 49.0185 479.368C49.6361 478.177 50 477.028 50 476C50 472.686 47.3137 470 44 470ZM44 487C43.3492 487.759 43.349 487.759 43.3488 487.759L43.3467 487.757L43.3417 487.753L43.3241 487.738C43.3092 487.725 43.2878 487.706 43.2604 487.682C43.2055 487.633 43.1266 487.563 43.0269 487.473C42.8277 487.292 42.5454 487.03 42.2077 486.7C41.5335 486.042 40.6322 485.109 39.7281 484.011C38.8264 482.916 37.9054 481.637 37.206 480.288C36.5111 478.948 36 477.472 36 476C36 471.582 39.5817 468 44 468C48.4183 468 52 471.582 52 476C52 477.472 51.4889 478.948 50.794 480.288C50.0946 481.637 49.1736 482.916 48.2719 484.011C47.3678 485.109 46.4665 486.042 45.7923 486.7C45.4546 487.03 45.1723 487.292 44.9731 487.473C44.8734 487.563 44.7945 487.633 44.7396 487.682C44.7122 487.706 44.6908 487.725 44.6759 487.738L44.6583 487.753L44.6533 487.757L44.6517 487.758C44.6515 487.759 44.6508 487.759 44 487ZM44 487L44.6508 487.759L44 488.317L43.3488 487.759L44 487Z" fill="#18BC9C"/>
<path fill-rule="evenodd" clip-rule="evenodd" d="M44 474C42.8954 474 42 474.895 42 476C42 477.105 42.8954 478 44 478C45.1046 478 46 477.105 46 476C46 474.895 45.1046 474 44 474ZM40 476C40 473.791 41.7909 472 44 472C46.2091 472 48 473.791 48 476C48 478.209 46.2091 480 44 480C41.7909 480 40 478.209 40 476Z" fill="#18BC9C"/>
<path d="M64.944 477.248H70.304V478.32H64.944V477.248ZM66.176 474.672H70.16V475.712H66.176V474.672ZM66.656 477.808H67.744V485.264H66.656V477.808ZM69.76 477.248H70.832V482C70.832 482.528 70.752 482.848 70.368 483.04C69.984 483.216 69.408 483.232 68.544 483.232C68.528 482.912 68.4 482.48 68.256 482.192C68.896 482.208 69.392 482.208 69.568 482.192C69.728 482.176 69.76 482.128 69.76 481.984V477.248ZM71.136 471.312H79.216V472.352H71.136V471.312ZM72.864 477.264V478.832H77.552V477.264H72.864ZM72.864 479.712V481.296H77.552V479.712H72.864ZM72.864 474.816V476.368H77.552V474.816H72.864ZM71.744 473.888H78.72V482.24H71.744V473.888ZM74.576 471.824L75.936 471.984C75.664 472.912 75.376 473.92 75.12 474.592L74.064 474.384C74.256 473.664 74.48 472.56 74.576 471.824ZM73.344 482.528L74.4 483.152C73.52 484 72.016 484.864 70.736 485.344C70.56 485.104 70.176 484.736 69.936 484.528C71.216 484.064 72.656 483.232 73.344 482.528ZM75.824 483.216L76.736 482.608C77.712 483.168 78.944 484.032 79.6 484.64L78.64 485.328C78.048 484.736 76.816 483.824 75.824 483.216ZM67.472 470.576H68.128V470.832H68.496V471.152C67.84 472.512 66.752 474.384 65.024 475.952C64.864 475.696 64.544 475.264 64.32 475.088C65.856 473.76 66.912 471.968 67.472 470.576ZM67.616 470.576H68.528C69.6 471.488 70.928 472.848 71.552 473.744L70.768 474.752C70.16 473.856 68.912 472.352 67.856 471.472H67.616V470.576ZM80.832 480.8H95.184V481.824H80.832V480.8ZM88.8 481.152C89.68 483.232 91.92 484.016 95.536 484.192C95.264 484.448 94.976 484.944 94.832 485.28C90.96 484.96 88.72 483.92 87.632 481.344L88.8 481.152ZM89.92 480.032L90.416 479.296C91.488 479.536 92.912 480 93.68 480.336L93.152 481.184C92.416 480.816 91.008 480.32 89.92 480.032ZM86.096 475.616H95.376V476.528H86.096V475.616ZM91.856 474.432H92.992V478.064C92.992 478.624 92.88 478.896 92.448 479.04C91.984 479.2 91.312 479.2 90.256 479.2C90.192 478.896 90.048 478.528 89.888 478.272C90.688 478.288 91.376 478.288 91.584 478.272C91.792 478.272 91.856 478.224 91.856 478.048V474.432ZM80.736 475.504H84.96V476.496H80.736V475.504ZM84.32 470.56H85.44V479.504H84.32V470.56ZM81.552 471.04H82.576V473.376H84.96V474.336H81.552V471.04ZM87.312 477.104L88.112 476.592C88.752 477.04 89.488 477.712 89.84 478.192L88.992 478.768C88.672 478.272 87.952 477.568 87.312 477.104ZM87.04 472.8L87.76 472.464C88.512 472.896 89.424 473.584 89.856 474.096L89.12 474.448C88.704 473.952 87.808 473.264 87.04 472.8ZM88.608 472.16L89.248 471.792C90.144 472.224 91.232 472.912 91.76 473.456L91.088 473.856C90.576 473.328 89.52 472.608 88.608 472.16ZM93.456 471.328H93.664L93.872 471.296L94.512 471.632C93.136 474.016 89.968 475.056 86.752 475.52C86.656 475.28 86.432 474.912 86.256 474.704C89.248 474.368 92.288 473.408 93.456 471.488V471.328ZM90.448 470.56L91.504 470.784C90.368 471.84 88.72 472.688 86.496 473.36C86.352 473.136 86.064 472.816 85.856 472.656C87.968 472.128 89.568 471.36 90.448 470.56ZM89.824 471.328H93.776V472.08H88.88L89.824 471.328ZM81.808 475.968H82.896V476.752C82.896 477.6 82.64 479.04 81.536 479.936C81.328 479.744 80.88 479.52 80.592 479.376C81.632 478.608 81.808 477.408 81.808 476.736V475.968ZM87.312 479.2H88.512V480.384C88.512 482.144 87.664 484.352 81.136 485.328C80.992 485.04 80.688 484.608 80.464 484.336C86.56 483.44 87.312 481.648 87.312 480.352V479.2ZM106.16 470.56H107.296V481.712H106.16V470.56ZM101.12 477.168L109.744 473.536L110.192 474.56L101.584 478.224L101.12 477.168ZM102.848 472.064H104V482.768C104 483.648 104.192 483.84 105.264 483.84C105.792 483.84 108.48 483.84 109.12 483.84C110.064 483.84 110.224 483.408 110.336 481.568C110.624 481.76 111.088 481.952 111.424 482.016C111.232 484.224 110.848 484.928 109.168 484.928C108.736 484.928 105.632 484.928 105.232 484.928C103.392 484.928 102.848 484.496 102.848 482.752V472.064ZM109.536 473.696H109.392L109.68 473.456L109.888 473.28L110.736 473.6L110.688 473.824C110.688 476.832 110.64 479.232 110.528 479.856C110.432 480.496 110.128 480.8 109.664 480.912C109.232 481.024 108.592 481.024 108.16 481.024C108.112 480.704 108.016 480.256 107.872 479.984C108.24 480 108.768 480 108.944 480C109.184 480 109.344 479.936 109.424 479.568C109.52 479.152 109.536 476.88 109.536 473.696ZM96.656 474.416H101.744V475.552H96.656V474.416ZM98.72 470.752H99.856V481.136H98.72V470.752ZM96.512 481.552C97.808 481.072 99.776 480.24 101.68 479.424L101.936 480.496C100.224 481.312 98.416 482.128 96.992 482.736L96.512 481.552ZM120.448 478.176H126.736V485.216H125.584V479.28H121.552V485.28H120.448V478.176ZM122.768 470.592H123.952V478.528H122.768V470.592ZM123.456 474.064H127.376V475.184H123.456V474.064ZM121.024 483.424H126.144V484.528H121.024V483.424ZM114.176 472.032V475.904H118.576V472.032H114.176ZM113.232 471.152H119.552V476.784H113.232V471.152ZM114.4 472.816L115.008 472.656C115.28 473.44 115.488 474.448 115.536 475.088L114.912 475.28C114.88 474.608 114.672 473.6 114.4 472.816ZM114.944 481.984L115.728 481.872C115.984 482.752 116.144 483.904 116.16 484.656L115.328 484.768C115.328 484.016 115.168 482.864 114.944 481.984ZM116.48 481.888L117.248 481.728C117.616 482.528 117.968 483.6 118.08 484.304L117.264 484.48C117.168 483.776 116.832 482.704 116.48 481.888ZM118 481.664L118.752 481.376C119.328 482.112 119.904 483.104 120.144 483.76L119.344 484.128C119.104 483.44 118.544 482.416 118 481.664ZM113.584 481.92L114.432 482.144C114.272 483.328 114.016 484.576 113.328 485.296L112.512 484.848C113.136 484.192 113.44 483.024 113.584 481.92ZM117.68 472.608L118.384 472.88C118.096 473.696 117.776 474.736 117.504 475.376L116.976 475.168C117.216 474.48 117.536 473.344 117.68 472.608ZM112.768 480.224C114.544 480.144 117.264 480.016 119.92 479.856L119.888 480.816C117.328 481.008 114.672 481.168 112.832 481.28L112.768 480.224ZM113.12 477.872H119.664V478.848H113.12V477.872ZM115.92 471.568H116.736V476.368H116.864V480.496H115.792V476.368H115.92V471.568Z" fill="black"/>
<path d="M360.85 478.007C360.85 478.151 360.822 478.284 360.767 478.405C360.711 478.527 360.625 478.646 360.509 478.762L355.537 483.685C355.354 483.867 355.133 483.958 354.873 483.958C354.602 483.958 354.372 483.867 354.184 483.685C353.996 483.496 353.902 483.27 353.902 483.004C353.902 482.738 354.004 482.503 354.209 482.298L358.567 478.007L354.209 473.715C354.004 473.511 353.902 473.275 353.902 473.01C353.902 472.744 353.996 472.52 354.184 472.337C354.372 472.149 354.602 472.055 354.873 472.055C355.133 472.055 355.354 472.146 355.537 472.329L360.509 477.251C360.736 477.467 360.85 477.719 360.85 478.007Z" fill="#3C3C43" fill-opacity="0.3"/>
</g>
<g filter="url(#filter7_d_2_4395)">
<rect x="16" y="510" width="361" height="48" rx="10" fill="white"/>
<path fill-rule="evenodd" clip-rule="evenodd" d="M38 525C36.3431 525 35 526.343 35 528V540C35 541.657 36.3431 543 38 543H43C44.6569 543 46 541.657 46 540V536H44V540C44 540.552 43.5523 541 43 541H38C37.4477 541 37 540.552 37 540V528C37 527.448 37.4477 527 38 527H43C43.5523 527 44 527.448 44 528V532H46V528C46 526.343 44.6569 525 43 525H38ZM49 531L53 534L49 537V535H42V533H49V531Z" fill="#18BC9C"/>
<path d="M69.024 531.024H74.96V532.064H69.024V531.024ZM65.04 539.904H78.976V540.912H65.04V539.904ZM66 527.184H70.736V528.192H66V527.184ZM70.352 527.184H70.56L70.784 527.12L71.552 527.52C70.352 530.592 67.68 532.88 65.136 534.064C64.976 533.808 64.656 533.392 64.416 533.184C66.768 532.192 69.36 529.952 70.352 527.408V527.184ZM73.056 526.608C74.288 529.328 76.736 531.808 79.504 532.88C79.216 533.12 78.88 533.552 78.688 533.872C75.856 532.592 73.408 529.984 72.048 526.944L73.056 526.608ZM65.568 529.44L66.208 528.784C67.056 529.264 68.048 530 68.512 530.576L67.84 531.312C67.36 530.752 66.4 529.952 65.568 529.44ZM76.272 526.704L77.184 527.344C76.352 528.128 75.248 528.992 74.416 529.552L73.68 528.976C74.496 528.384 75.632 527.408 76.272 526.704ZM78.064 528.592L78.96 529.232C78.112 530.032 76.96 530.896 76.08 531.44L75.344 530.864C76.208 530.288 77.392 529.312 78.064 528.592ZM68.736 534.368V536.48H75.216V534.368H68.736ZM67.552 533.376H76.448V537.472H67.552V533.376ZM68.48 537.728L69.584 537.424C70.032 538.112 70.448 539.056 70.608 539.68L69.472 540.032C69.312 539.408 68.912 538.432 68.48 537.728ZM74.432 537.376L75.6 537.696C75.168 538.544 74.688 539.424 74.288 540.048L73.264 539.744C73.664 539.12 74.176 538.08 74.432 537.376ZM82.384 539.104H93.68V540.288H82.384V539.104ZM87.296 526.656H88.528V539.776H87.296V526.656ZM81.792 534.64H83.008V541.296H81.792V534.64ZM93.04 534.64H94.272V541.248H93.04V534.64ZM82.416 528.096H83.6V532.448H92.384V528.096H93.632V533.616H82.416V528.096Z" fill="black"/>
<path d="M360.85 534.007C360.85 534.151 360.822 534.284 360.767 534.405C360.711 534.527 360.625 534.646 360.509 534.762L355.537 539.685C355.354 539.867 355.133 539.958 354.873 539.958C354.602 539.958 354.372 539.867 354.184 539.685C353.996 539.496 353.902 539.27 353.902 539.004C353.902 538.738 354.004 538.503 354.209 538.298L358.567 534.007L354.209 529.715C354.004 529.511 353.902 529.275 353.902 529.01C353.902 528.744 353.996 528.52 354.184 528.337C354.372 528.149 354.602 528.055 354.873 528.055C355.133 528.055 355.354 528.146 355.537 528.329L360.509 533.251C360.736 533.467 360.85 533.719 360.85 534.007Z" fill="#3C3C43" fill-opacity="0.3"/>
</g>
<rect width="393" height="102" fill="#18BC9C"/>
<g filter="url(#filter8_d_2_4395)">
<rect width="393" height="48" transform="translate(0 54)" fill="#18BC9C"/>
<path d="M163.52 70.332H178.497V72.151H163.52V70.332ZM170.065 71.114H172.207V77.982C172.207 81.416 170.796 84.272 164.387 85.547C164.166 85.088 163.588 84.204 163.146 83.745C169.283 82.81 170.065 80.668 170.065 77.948V71.114ZM166.92 77.421V78.543H175.386V77.421H166.92ZM166.92 74.803V75.891H175.386V74.803H166.92ZM164.999 73.154H177.426V80.175H164.999V73.154ZM167.022 80.107C169.402 83.15 173.38 83.388 179.177 83.337C178.82 83.813 178.429 84.68 178.327 85.36C172.326 85.241 167.838 84.68 165.237 80.821L167.022 80.107ZM183.58 73.783L184.957 72.644C185.977 73.137 187.337 73.919 188 74.514L186.555 75.772C185.943 75.177 184.617 74.327 183.58 73.783ZM191.247 70.842H191.638L191.961 70.757L193.287 71.522C191.077 75.619 186.266 77.829 181.319 78.832C181.149 78.322 180.741 77.523 180.384 77.081C184.974 76.35 189.564 74.31 191.247 71.131V70.842ZM185.875 70.842H191.706V72.508H185.875V70.842ZM186.81 69.516L189.037 69.992C187.303 71.964 185.059 73.562 181.88 74.82C181.591 74.344 180.962 73.647 180.52 73.324C183.546 72.338 185.654 70.91 186.81 69.516ZM185.892 80.226L187.371 79.087C188.408 79.648 189.768 80.515 190.448 81.178L188.867 82.436C188.272 81.79 186.946 80.838 185.892 80.226ZM193.389 77.047H193.797L194.154 76.962L195.514 77.659C193.44 82.725 188.527 84.731 182.679 85.547C182.526 84.986 182.152 84.153 181.812 83.694C187.201 83.133 191.808 81.348 193.389 77.336V77.047ZM188.391 77.047H193.933V78.747H188.391V77.047ZM189.581 75.398L191.808 75.908C189.904 78.135 187.286 79.937 183.529 81.297C183.291 80.821 182.713 80.073 182.288 79.716C185.841 78.645 188.272 77.013 189.581 75.398ZM197.18 71.403H203.589V73.324H197.18V71.403ZM203.844 73.188H211.46V75.143H203.844V73.188ZM199.39 72.185H201.396V80.736H199.39V72.185ZM210.508 73.188H212.514C212.514 73.188 212.514 73.851 212.497 74.106C212.31 81.025 212.123 83.541 211.511 84.357C211.069 84.969 210.644 85.156 209.998 85.258C209.42 85.36 208.485 85.343 207.55 85.309C207.516 84.731 207.278 83.864 206.921 83.303C207.822 83.388 208.638 83.388 209.029 83.388C209.352 83.388 209.522 83.32 209.709 83.099C210.168 82.572 210.355 80.056 210.508 73.596V73.188ZM196.942 80.515C198.659 80.158 201.311 79.478 203.759 78.832L204.031 80.77C201.753 81.433 199.305 82.13 197.418 82.64L196.942 80.515ZM206.241 69.839H208.315C208.281 76.928 208.247 82.521 203.164 85.564C202.875 85.037 202.229 84.272 201.719 83.898C206.411 81.263 206.207 76.418 206.241 69.839ZM216.577 69.482L218.702 69.941C218.09 71.505 217.325 73.171 216.679 74.259L214.911 73.8C215.523 72.644 216.22 70.842 216.577 69.482ZM214.01 72.967C215.846 72.916 218.6 72.797 221.235 72.678L221.218 74.446C218.719 74.633 216.101 74.786 214.163 74.905L214.01 72.967ZM215.013 75.704H220.419V77.387H216.9V85.513H215.013V75.704ZM219.45 75.704H221.473V83.473C221.473 84.34 221.303 84.85 220.725 85.156C220.13 85.462 219.365 85.496 218.328 85.496C218.226 84.952 217.937 84.17 217.682 83.677C218.277 83.711 218.957 83.711 219.178 83.694C219.382 83.694 219.45 83.643 219.45 83.422V75.704ZM215.88 78.271H220.589V79.784H215.88V78.271ZM215.88 80.77H220.589V82.283H215.88V80.77ZM222.799 69.635H224.839V74.735C224.839 75.33 224.941 75.415 225.587 75.415C225.859 75.415 227.083 75.415 227.44 75.415C228.001 75.415 228.103 75.16 228.171 73.664C228.596 73.987 229.429 74.293 229.99 74.412C229.769 76.622 229.225 77.234 227.644 77.234C227.219 77.234 225.689 77.234 225.298 77.234C223.292 77.234 222.799 76.656 222.799 74.769V69.635ZM227.899 70.638L229.191 72.117C227.678 72.848 225.706 73.494 224.023 73.953C223.938 73.545 223.666 72.933 223.445 72.542C225.026 72.049 226.777 71.284 227.899 70.638ZM222.799 77.574H224.822V82.929C224.822 83.558 224.941 83.626 225.604 83.626C225.893 83.626 227.168 83.626 227.542 83.626C228.137 83.626 228.239 83.32 228.324 81.586C228.749 81.892 229.565 82.215 230.126 82.334C229.905 84.731 229.361 85.411 227.729 85.411C227.304 85.411 225.723 85.411 225.315 85.411C223.309 85.411 222.799 84.833 222.799 82.946V77.574ZM228.035 78.288L229.361 79.784C227.814 80.617 225.757 81.331 224.006 81.824C223.904 81.433 223.615 80.787 223.411 80.396C225.06 79.869 226.879 79.036 228.035 78.288ZM218.889 71.352L220.623 70.706C221.456 71.93 222.34 73.545 222.663 74.667L220.81 75.415C220.521 74.327 219.705 72.627 218.889 71.352Z" fill="white"/>
<path fill-rule="evenodd" clip-rule="evenodd" d="M353 70H354V86H353V70ZM355 70H356.5V86H355V70ZM358 70H357V86H358V70ZM359 70H359.5V86H359V70ZM360.5 70H360V86H360.5V70ZM365 70H366.5V86H365V70ZM362.5 70H361V86H362.5V70ZM363 70H364V86H363V70ZM372 70H371V86H372V70ZM369 70H370V86H369V70ZM367.5 70H367V86H367.5V70ZM368 70H368.5V86H368V70ZM373 70H372.5V86H373V70Z" fill="white"/>
</g>
<rect width="393" height="54" fill="#18BC9C"/>
<path d="M57.6904 23.0627C58.3324 23.0627 58.9411 23.1817 59.5166 23.4197C60.0921 23.6521 60.6012 24.0173 61.0439 24.5154C61.4922 25.0079 61.8436 25.6415 62.0981 26.4163C62.3527 27.1855 62.48 28.1124 62.48 29.197V29.2136C62.48 30.5583 62.2863 31.7094 61.8989 32.6667C61.5116 33.6241 60.9554 34.3601 60.2305 34.8748C59.5111 35.3839 58.6506 35.6384 57.6489 35.6384C56.9129 35.6384 56.2489 35.5056 55.6567 35.24C55.0701 34.9688 54.5832 34.5981 54.1958 34.1277C53.814 33.6518 53.5566 33.1095 53.4238 32.5007L53.4072 32.4094H55.5073L55.5405 32.4924C55.6457 32.7691 55.7951 33.0126 55.9888 33.2229C56.188 33.4332 56.4259 33.5964 56.7026 33.7126C56.9849 33.8233 57.3003 33.8787 57.6489 33.8787C58.2798 33.8787 58.7944 33.6933 59.1929 33.3225C59.5968 32.9462 59.8984 32.4454 60.0977 31.8201C60.3024 31.1892 60.4186 30.4919 60.4463 29.7283C60.4518 29.6453 60.4546 29.565 60.4546 29.4875C60.4546 29.4045 60.4546 29.3243 60.4546 29.2468L60.0811 27.2463C60.0811 26.7926 59.9759 26.3803 59.7656 26.0095C59.5553 25.6388 59.2703 25.3455 58.9106 25.1296C58.5565 24.9138 58.1553 24.8059 57.707 24.8059C57.2754 24.8059 56.8797 24.9111 56.52 25.1213C56.1603 25.3316 55.8726 25.6194 55.6567 25.9846C55.4409 26.3443 55.333 26.7483 55.333 27.1965V27.2131C55.333 27.678 55.4354 28.0903 55.6401 28.45C55.8449 28.8041 56.1243 29.0836 56.4785 29.2883C56.8327 29.4931 57.2367 29.5955 57.6904 29.5955C58.1442 29.5955 58.5509 29.4958 58.9106 29.2966C59.2703 29.0974 59.5553 28.8207 59.7656 28.4666C59.9759 28.1124 60.0811 27.7112 60.0811 27.2629V27.2463H60.5791V29.4543H60.2886C60.1447 29.7698 59.9316 30.0631 59.6494 30.3342C59.3672 30.6054 59.0186 30.824 58.6035 30.99C58.194 31.156 57.7126 31.239 57.1592 31.239C56.3955 31.239 55.7204 31.0675 55.1338 30.7244C54.5472 30.3813 54.0851 29.9109 53.7476 29.3132C53.4155 28.7156 53.2495 28.0404 53.2495 27.2878V27.2712C53.2495 26.4578 53.4377 25.7356 53.814 25.1047C54.1958 24.4683 54.7215 23.9703 55.3911 23.6106C56.0662 23.2454 56.8327 23.0627 57.6904 23.0627ZM66.2485 33.7292C65.8722 33.7292 65.5568 33.6047 65.3022 33.3557C65.0532 33.1012 64.9287 32.7913 64.9287 32.426C64.9287 32.0553 65.0532 31.7454 65.3022 31.4963C65.5568 31.2418 65.8722 31.1145 66.2485 31.1145C66.6304 31.1145 66.9458 31.2418 67.1948 31.4963C67.4438 31.7454 67.5684 32.0553 67.5684 32.426C67.5684 32.7913 67.4438 33.1012 67.1948 33.3557C66.9458 33.6047 66.6304 33.7292 66.2485 33.7292ZM66.2485 27.5701C65.8722 27.5701 65.5568 27.4456 65.3022 27.1965C65.0532 26.942 64.9287 26.6321 64.9287 26.2668C64.9287 25.8961 65.0532 25.5862 65.3022 25.3372C65.5568 25.0826 65.8722 24.9553 66.2485 24.9553C66.6304 24.9553 66.9458 25.0826 67.1948 25.3372C67.4438 25.5862 67.5684 25.8961 67.5684 26.2668C67.5684 26.6321 67.4438 26.942 67.1948 27.1965C66.9458 27.4456 66.6304 27.5701 66.2485 27.5701ZM75.8276 35.3396V33.0403H69.9673V31.2888C70.2827 30.752 70.5981 30.2125 70.9136 29.6702C71.2345 29.1278 71.5583 28.5883 71.8848 28.0515C72.2168 27.5092 72.5461 26.9752 72.8726 26.4495C73.2046 25.9182 73.5339 25.3953 73.8604 24.8806C74.1924 24.3604 74.5244 23.8541 74.8564 23.3616H77.8696V31.2722H79.4883V33.0403H77.8696V35.3396H75.8276ZM71.9595 31.322H75.8608V25.0715H75.7363C75.4928 25.4478 75.241 25.8352 74.981 26.2336C74.7264 26.6321 74.4691 27.0388 74.209 27.4539C73.9489 27.8689 73.6916 28.2867 73.437 28.7073C73.1825 29.1223 72.9307 29.5401 72.6816 29.9607C72.4326 30.3757 72.1919 30.788 71.9595 31.1975V31.322ZM84.4438 35.3396V25.47H84.2944L81.3145 27.5701V25.5613L84.4438 23.3616H86.5771V35.3396H84.4438Z" fill="white"/>
<rect opacity="0.35" x="334" y="23.5" width="24" height="12" rx="3.8" stroke="white"/>
<path opacity="0.4" d="M359.5 27.7812V31.8567C360.305 31.5116 360.828 30.7086 360.828 29.819C360.828 28.9294 360.305 28.1264 359.5 27.7812Z" fill="white"/>
<rect x="335.5" y="25" width="21" height="9" rx="2.5" fill="white"/>
<path fill-rule="evenodd" clip-rule="evenodd" d="M317.771 26.104C320.258 26.1041 322.65 27.0262 324.452 28.6796C324.588 28.8073 324.805 28.8057 324.939 28.676L326.236 27.4126C326.304 27.3468 326.341 27.2577 326.341 27.165C326.34 27.0724 326.302 26.9837 326.233 26.9187C321.502 22.544 314.038 22.544 309.307 26.9187C309.239 26.9837 309.2 27.0723 309.199 27.165C309.199 27.2577 309.236 27.3468 309.304 27.4126L310.602 28.676C310.735 28.8059 310.952 28.8075 311.088 28.6796C312.891 27.0261 315.283 26.104 317.771 26.104ZM317.767 30.3243C319.124 30.3242 320.433 30.8359 321.439 31.76C321.576 31.8912 321.79 31.8883 321.923 31.7536L323.21 30.4343C323.278 30.3651 323.315 30.2712 323.314 30.1737C323.313 30.0761 323.274 29.9831 323.205 29.9153C320.141 27.0244 315.396 27.0244 312.332 29.9153C312.263 29.9831 312.224 30.0762 312.223 30.1738C312.222 30.2714 312.26 30.3652 312.327 30.4343L313.614 31.7536C313.747 31.8883 313.961 31.8912 314.097 31.76C315.103 30.8365 316.411 30.3248 317.767 30.3243ZM320.292 33.1178C320.294 33.2232 320.256 33.3247 320.189 33.3985L318.012 35.8533C317.949 35.9254 317.862 35.966 317.771 35.966C317.68 35.966 317.593 35.9254 317.529 35.8533L315.352 33.3985C315.285 33.3247 315.248 33.2231 315.25 33.1177C315.252 33.0124 315.293 32.9126 315.363 32.842C316.753 31.5281 318.789 31.5281 320.179 32.842C320.249 32.9127 320.29 33.0125 320.292 33.1178Z" fill="white"/>
<path fill-rule="evenodd" clip-rule="evenodd" d="M301.7 24.6821C301.7 24.0491 301.222 23.5359 300.633 23.5359H299.567C298.978 23.5359 298.5 24.0491 298.5 24.6821V34.6161C298.5 35.2491 298.978 35.7623 299.567 35.7623H300.633C301.222 35.7623 301.7 35.2491 301.7 34.6161V24.6821ZM294.266 25.9812H295.333C295.922 25.9812 296.399 26.5067 296.399 27.1549V34.5886C296.399 35.2368 295.922 35.7623 295.333 35.7623H294.266C293.677 35.7623 293.199 35.2368 293.199 34.5886V27.1549C293.199 26.5067 293.677 25.9812 294.266 25.9812ZM289.934 28.6302H288.867C288.278 28.6302 287.801 29.1624 287.801 29.8189V34.5736C287.801 35.2301 288.278 35.7623 288.867 35.7623H289.934C290.523 35.7623 291.001 35.2301 291.001 34.5736V29.8189C291.001 29.1624 290.523 28.6302 289.934 28.6302ZM284.633 31.0755H283.567C282.978 31.0755 282.5 31.6001 282.5 32.2472V34.5906C282.5 35.2377 282.978 35.7623 283.567 35.7623H284.633C285.222 35.7623 285.7 35.2377 285.7 34.5906V32.2472C285.7 31.6001 285.222 31.0755 284.633 31.0755Z" fill="white"/>
<rect width="393" height="83" transform="translate(0 769)" fill="#18BC9C"/>
<path d="M27.683 786.402L34.6707 780.288C34.8593 780.123 35.1407 780.123 35.3293 780.288L42.317 786.402C42.751 786.782 43 787.331 43 787.908V796.917C43 797.515 42.5153 798 41.9173 798H38.705C38.2367 798 37.8571 797.62 37.8571 797.152V794.357C37.8571 792.779 36.578 791.5 35 791.5C33.422 791.5 32.1429 792.779 32.1429 794.357V797.152C32.1429 797.62 31.7633 798 31.295 798H28.0827C27.4847 798 27 797.515 27 796.917V787.908C27 787.331 27.249 786.782 27.683 786.402Z" fill="white" stroke="white" stroke-width="2"/>
<path d="M27.26 810.27H32.76V810.88H27.26V810.27ZM27.26 811.91H32.76V812.51H27.26V811.91ZM27.26 813.56H32.79V814.23H27.26V813.56ZM25.53 806.99H34.48V807.69H25.53V806.99ZM26.67 808.62H33.32V814.8H32.55V809.28H27.42V814.8H26.67V808.62ZM29.63 807.35L30.55 807.41C30.36 808 30.12 808.63 29.94 809.06L29.21 808.95C29.38 808.5 29.55 807.82 29.63 807.35ZM32.01 805.59L32.84 805.81C32.48 806.35 32.04 806.91 31.68 807.29L31.03 807.08C31.37 806.67 31.78 806.04 32.01 805.59ZM27.27 805.86L27.93 805.57C28.3 805.92 28.69 806.42 28.89 806.76L28.19 807.12C28.02 806.77 27.62 806.24 27.27 805.86ZM37.54 809.81V810.73H42.59V809.81H37.54ZM37.54 811.31V812.23H42.59V811.31H37.54ZM37.54 808.33V809.23H42.59V808.33H37.54ZM36.76 807.73H43.39V812.83H36.76V807.73ZM40.74 813.49L41.27 813C42.45 813.39 43.73 813.91 44.51 814.3L43.81 814.81C43.1 814.42 41.91 813.89 40.74 813.49ZM35.81 806.12H44.16V806.81H35.81V806.12ZM39.62 806.41L40.5 806.52C40.33 807.09 40.14 807.7 39.98 808.11L39.27 807.98C39.41 807.54 39.56 806.87 39.62 806.41ZM38.59 812.95L39.27 813.44C38.4 813.97 37.04 814.5 35.97 814.8C35.85 814.64 35.62 814.38 35.45 814.22C36.53 813.93 37.9 813.41 38.59 812.95Z" fill="white"/>
<path fill-rule="evenodd" clip-rule="evenodd" d="M107.75 779H120.75V796H107.75V779ZM109.75 781V794H118.75V781H109.75Z" fill="white"/>
<path fill-rule="evenodd" clip-rule="evenodd" d="M110.75 782H123.75V799H110.75V782ZM112.75 784V797H121.75V784H112.75Z" fill="white"/>
<path d="M112.75 784H121.75V797H112.75V784Z" fill="#18BC9C"/>
<path fill-rule="evenodd" clip-rule="evenodd" d="M115.75 794H114.75V795H115.75V794ZM113.75 793V796H116.75V793H113.75Z" fill="white"/>
<path fill-rule="evenodd" clip-rule="evenodd" d="M119.75 794H118.75V795H119.75V794ZM117.75 793V796H120.75V793H117.75Z" fill="white"/>
<path d="M113.75 790H120.75V791H113.75V790Z" fill="white"/>
<path d="M113.75 787H120.75V789H113.75V787Z" fill="white"/>
<path d="M113.75 785H120.75V786H113.75V785Z" fill="white"/>
<path d="M101.12 808.61H103.2V809.2H101.12V808.61ZM100.48 811.51H103.85V812.05H100.48V811.51ZM97.13 806.03H99.93V806.64H97.13V806.03ZM99.72 806.03H99.85L99.98 806L100.45 806.23C99.7 807.91 98.05 809.03 96.43 809.59C96.34 809.42 96.16 809.16 96.02 809.03C97.52 808.58 99.11 807.51 99.72 806.15V806.03ZM101.3 805.6C102.02 807.15 103.54 808.37 105.4 808.86C105.24 809.01 105.05 809.27 104.94 809.45C103.03 808.86 101.5 807.54 100.69 805.79L101.3 805.6ZM103.34 805.67L103.9 806.06C103.41 806.52 102.78 807 102.3 807.33L101.86 806.98C102.32 806.64 102.98 806.08 103.34 805.67ZM104.54 806.68L105.09 807.06C104.61 807.52 103.96 808 103.47 808.31L103.01 807.96C103.49 807.63 104.17 807.07 104.54 806.68ZM97.44 808.65H99.89V811.05H99.22V809.24H97.44V808.65ZM97.18 810.29H97.83C97.69 811.07 97.49 812.05 97.33 812.67L96.7 812.56C96.87 811.96 97.07 811.02 97.18 810.29ZM99.22 811.81H99.91C99.91 811.81 99.9 812.02 99.89 812.11C99.76 813.63 99.63 814.27 99.37 814.53C99.19 814.7 99.01 814.75 98.7 814.78C98.44 814.79 97.91 814.78 97.36 814.76C97.34 814.56 97.26 814.29 97.14 814.11C97.7 814.16 98.24 814.17 98.43 814.17C98.62 814.17 98.73 814.16 98.81 814.08C98.99 813.91 99.1 813.34 99.22 811.91V811.81ZM100.85 808.61H101.5V809.4C101.5 810.05 101.29 810.8 100.4 811.32C100.3 811.18 100.06 810.94 99.92 810.85C100.72 810.42 100.85 809.87 100.85 809.39V808.61ZM103.68 811.51H103.81L103.93 811.48L104.36 811.64C103.7 813.5 102.13 814.39 100.24 814.81C100.18 814.65 100.03 814.4 99.91 814.26C101.63 813.94 103.13 813.12 103.68 811.61V811.51ZM101.43 812.01C102.01 813.17 103.35 813.93 105.12 814.18C104.96 814.33 104.77 814.62 104.67 814.8C102.84 814.46 101.5 813.57 100.84 812.17L101.43 812.01ZM97.51 810.29H99.47V810.88H97.41L97.51 810.29ZM97.21 811.81H99.41V812.39H97.1L97.21 811.81ZM102.85 808.61H103.51V810.17C103.51 810.31 103.51 810.41 103.55 810.44C103.59 810.47 103.64 810.47 103.72 810.47C103.79 810.47 103.92 810.47 104.01 810.47C104.1 810.47 104.2 810.47 104.23 810.46C104.27 810.44 104.32 810.39 104.35 810.32C104.37 810.23 104.38 810.04 104.39 809.79C104.52 809.9 104.76 810.02 104.94 810.07C104.92 810.33 104.89 810.62 104.82 810.74C104.77 810.85 104.65 810.93 104.52 810.97C104.42 811.01 104.22 811.02 104.08 811.02C103.97 811.02 103.69 811.02 103.59 811.02C103.39 811.02 103.17 810.98 103.04 810.87C102.9 810.74 102.85 810.59 102.85 810.11V808.61ZM96.86 807.22L97.3 806.81C97.76 807.08 98.33 807.5 98.6 807.79L98.14 808.25C97.88 807.94 97.33 807.51 96.86 807.22ZM112.2 812.94L112.74 812.55C113.56 812.99 114.62 813.65 115.17 814.12L114.59 814.56C114.09 814.11 113.04 813.41 112.2 812.94ZM107.5 810.36H114.02V810.96H107.5V810.36ZM106.28 811.65H115.23V812.27H106.28V811.65ZM106.39 806.01H115.04V806.62H106.39V806.01ZM110.37 811.77H111.13V814.01C111.13 814.4 111.06 814.59 110.75 814.69C110.45 814.81 109.98 814.81 109.26 814.81C109.22 814.61 109.11 814.33 109.02 814.14C109.58 814.16 110.04 814.16 110.2 814.15C110.34 814.14 110.37 814.1 110.37 813.99V811.77ZM108.46 812.52L109.15 812.76C108.55 813.5 107.6 814.2 106.77 814.65C106.64 814.52 106.36 814.26 106.19 814.15C107.04 813.76 107.93 813.16 108.46 812.52ZM107.69 807.97V809.12H113.81V807.97H107.69ZM106.99 807.39H114.55V809.71H106.99V807.39ZM109.21 806.24H109.91V809.44H109.21V806.24ZM111.5 806.24H112.2V809.44H111.5V806.24ZM119.1 811.35H125.32V812.05H119.1V811.35ZM119.95 808.76H124.07V809.45H119.95V808.76ZM121.9 810.42H122.65V813.92C122.65 814.36 122.56 814.57 122.22 814.69C121.89 814.8 121.34 814.8 120.48 814.8C120.44 814.59 120.34 814.3 120.24 814.09C120.91 814.11 121.5 814.1 121.68 814.1C121.85 814.09 121.9 814.05 121.9 813.91V810.42ZM123.87 808.76H124.05L124.21 808.72L124.69 809.08C124.1 809.77 123.22 810.5 122.45 810.96C122.35 810.83 122.16 810.62 122.03 810.52C122.7 810.12 123.49 809.42 123.87 808.9V808.76ZM116.37 806.91H125.13V807.63H116.37V806.91ZM119.6 805.6L120.38 805.8C119.68 808.1 118.46 810.43 116.46 811.86C116.38 811.67 116.19 811.34 116.06 811.16C117.88 809.89 119.04 807.67 119.6 805.6ZM117.63 809.69H118.38V814.78H117.63V809.69ZM129.21 805.94H131.81V810H131.16V806.57H129.21V805.94ZM132.25 805.94H135V810.02H134.33V806.57H132.25V805.94ZM130.44 806.73L131 806.91C130.62 807.42 130.04 807.98 129.53 808.32C129.44 808.22 129.22 808 129.09 807.9C129.59 807.6 130.11 807.17 130.44 806.73ZM130.68 808.1L131.26 808.28C130.85 808.96 130.17 809.63 129.56 810.06C129.47 809.94 129.25 809.72 129.11 809.62C129.72 809.23 130.32 808.68 130.68 808.1ZM133.41 806.71L133.97 806.89C133.57 807.4 132.98 807.95 132.45 808.3C132.36 808.2 132.15 807.97 132.02 807.88C132.54 807.57 133.07 807.14 133.41 806.71ZM133.72 808L134.31 808.18C133.91 808.83 133.24 809.47 132.63 809.89C132.54 809.78 132.32 809.55 132.18 809.44C132.79 809.08 133.37 808.56 133.72 808ZM129.69 810.73H134.64V814.76H133.94V811.34H130.37V814.81H129.69V810.73ZM130.05 812.26H134.32V812.85H130.05V812.26ZM130.04 813.83H134.27V814.44H130.04V813.83ZM131.84 809.77L132.6 809.96C132.39 810.41 132.19 810.88 132.01 811.2L131.43 811.02C131.58 810.67 131.77 810.13 131.84 809.77ZM126.02 810.77C126.78 810.55 127.93 810.2 129.06 809.84L129.16 810.53C128.13 810.87 127.05 811.23 126.21 811.5L126.02 810.77ZM126.16 807.62H128.99V808.32H126.16V807.62ZM127.39 805.61H128.07V813.95C128.07 814.35 127.98 814.55 127.73 814.67C127.5 814.79 127.11 814.81 126.49 814.81C126.46 814.63 126.37 814.32 126.27 814.12C126.71 814.13 127.09 814.13 127.21 814.13C127.33 814.13 127.39 814.09 127.39 813.95V805.61Z" fill="white"/>
<path fill-rule="evenodd" clip-rule="evenodd" d="M195.5 781C191.634 781 188.5 784.134 188.5 788C188.5 791.866 191.634 795 195.5 795C199.366 795 202.5 791.866 202.5 788C202.5 784.134 199.366 781 195.5 781ZM186.5 788C186.5 783.029 190.529 779 195.5 779C200.471 779 204.5 783.029 204.5 788C204.5 790.125 203.764 792.078 202.532 793.618L206.207 797.293C206.598 797.683 206.598 798.317 206.207 798.707C205.817 799.098 205.183 799.098 204.793 798.707L201.118 795.032C199.578 796.264 197.625 797 195.5 797C190.529 797 186.5 792.971 186.5 788Z" fill="white"/>
<path d="M191.95 808.3H196.1V809H191.95V808.3ZM186.92 807.73H192.06V808.37H186.92V807.73ZM187.28 809.92H191.69V810.55H187.28V809.92ZM187.55 811.57H191.49V812.2H187.55V811.57ZM194.31 805.67H195.03V813.88C195.03 814.34 194.91 814.55 194.63 814.67C194.33 814.8 193.84 814.82 193.03 814.81C192.99 814.62 192.86 814.3 192.76 814.1C193.36 814.12 193.91 814.12 194.07 814.11C194.24 814.11 194.31 814.05 194.31 813.88V805.67ZM192.27 810.01L192.9 809.79C193.33 810.52 193.72 811.46 193.82 812.07L193.15 812.31C193.05 811.71 192.67 810.75 192.27 810.01ZM187.02 806.13L187.56 805.9C187.89 806.37 188.19 806.99 188.3 807.4L187.72 807.67C187.62 807.25 187.33 806.61 187.02 806.13ZM187.75 808.59L188.35 808.39C188.6 808.81 188.83 809.36 188.9 809.72L188.27 809.95C188.21 809.59 187.99 809.01 187.75 808.59ZM188.49 805.65H189.1V808.04H188.49V805.65ZM189.13 810.12H189.84V813.73H189.13V810.12ZM189.87 805.65H190.49V808.04H189.87V805.65ZM186.95 813.66C188.2 813.51 190.13 813.27 191.96 813.02L191.98 813.68C190.22 813.94 188.34 814.19 187.06 814.37L186.95 813.66ZM191.44 805.84L192.11 806.1C191.81 806.64 191.45 807.27 191.17 807.68L190.65 807.45C190.92 807.03 191.27 806.32 191.44 805.84ZM190.59 808.37L191.28 808.56C191.07 809.05 190.82 809.58 190.62 809.93L190.02 809.76C190.22 809.39 190.47 808.78 190.59 808.37ZM197.02 812H205.99V812.64H197.02V812ZM202 812.22C202.55 813.52 203.95 814.01 206.21 814.12C206.04 814.28 205.86 814.59 205.77 814.8C203.35 814.6 201.95 813.95 201.27 812.34L202 812.22ZM202.7 811.52L203.01 811.06C203.68 811.21 204.57 811.5 205.05 811.71L204.72 812.24C204.26 812.01 203.38 811.7 202.7 811.52ZM200.31 808.76H206.11V809.33H200.31V808.76ZM203.91 808.02H204.62V810.29C204.62 810.64 204.55 810.81 204.28 810.9C203.99 811 203.57 811 202.91 811C202.87 810.81 202.78 810.58 202.68 810.42C203.18 810.43 203.61 810.43 203.74 810.42C203.87 810.42 203.91 810.39 203.91 810.28V808.02ZM196.96 808.69H199.6V809.31H196.96V808.69ZM199.2 805.6H199.9V811.19H199.2V805.6ZM197.47 805.9H198.11V807.36H199.6V807.96H197.47V805.9ZM201.07 809.69L201.57 809.37C201.97 809.65 202.43 810.07 202.65 810.37L202.12 810.73C201.92 810.42 201.47 809.98 201.07 809.69ZM200.9 807L201.35 806.79C201.82 807.06 202.39 807.49 202.66 807.81L202.2 808.03C201.94 807.72 201.38 807.29 200.9 807ZM201.88 806.6L202.28 806.37C202.84 806.64 203.52 807.07 203.85 807.41L203.43 807.66C203.11 807.33 202.45 806.88 201.88 806.6ZM204.91 806.08H205.04L205.17 806.06L205.57 806.27C204.71 807.76 202.73 808.41 200.72 808.7C200.66 808.55 200.52 808.32 200.41 808.19C202.28 807.98 204.18 807.38 204.91 806.18V806.08ZM203.03 805.6L203.69 805.74C202.98 806.4 201.95 806.93 200.56 807.35C200.47 807.21 200.29 807.01 200.16 806.91C201.48 806.58 202.48 806.1 203.03 805.6ZM202.64 806.08H205.11V806.55H202.05L202.64 806.08ZM197.63 808.98H198.31V809.47C198.31 810 198.15 810.9 197.46 811.46C197.33 811.34 197.05 811.2 196.87 811.11C197.52 810.63 197.63 809.88 197.63 809.46V808.98ZM201.07 811H201.82V811.74C201.82 812.84 201.29 814.22 197.21 814.83C197.12 814.65 196.93 814.38 196.79 814.21C200.6 813.65 201.07 812.53 201.07 811.72V811Z" fill="white"/>
<path d="M276.52 795.251C276.52 795.665 276.855 796 277.269 796C277.682 796 278.017 795.665 278.017 795.251V794.367C278.791 794.25 279.44 793.952 279.964 793.472C280.488 792.993 280.75 792.293 280.75 791.372C280.75 790.634 280.529 789.983 280.086 789.418C279.643 788.854 278.991 788.443 278.13 788.183C277.206 787.911 276.557 787.652 276.183 787.406C275.809 787.159 275.622 786.822 275.622 786.394C275.622 786.019 275.765 785.705 276.052 785.452C276.339 785.199 276.757 785.072 277.306 785.072C277.78 785.072 278.155 785.176 278.429 785.383C278.514 785.448 278.593 785.522 278.666 785.606C278.956 785.94 279.41 786.162 279.813 785.981C280.174 785.819 280.359 785.401 280.154 785.063C279.993 784.796 279.796 784.557 279.562 784.343C279.156 783.974 278.641 783.737 278.017 783.633V782.749C278.017 782.335 277.682 782 277.269 782C276.855 782 276.52 782.335 276.52 782.749V783.633C275.971 783.698 275.434 783.964 274.91 784.431C274.386 784.897 274.124 785.552 274.124 786.394C274.124 787.095 274.324 787.688 274.723 788.174C275.123 788.66 275.859 789.078 276.932 789.428C277.93 789.765 278.566 790.067 278.841 790.332C279.115 790.598 279.253 790.957 279.253 791.411C279.253 791.917 279.075 792.29 278.72 792.53C278.364 792.769 277.93 792.889 277.418 792.889C276.82 792.889 276.337 792.727 275.968 792.403C275.772 792.23 275.601 792.014 275.456 791.756C275.236 791.366 274.775 791.135 274.362 791.309C274.012 791.456 273.82 791.844 273.967 792.194C274.181 792.702 274.461 793.115 274.808 793.433C275.288 793.874 275.859 794.172 276.52 794.328V795.251Z" fill="white"/>
<path fill-rule="evenodd" clip-rule="evenodd" d="M277.25 779C271.727 779 267.25 783.477 267.25 789C267.25 794.523 271.727 799 277.25 799C282.773 799 287.25 794.523 287.25 789C287.25 783.477 282.773 779 277.25 779ZM269.25 789C269.25 784.582 272.832 781 277.25 781C281.668 781 285.25 784.582 285.25 789C285.25 793.418 281.668 797 277.25 797C272.832 797 269.25 793.418 269.25 789Z" fill="white"/>
<path d="M267.84 809.78H271.19V810.45H267.84V809.78ZM268.61 808.17H271.1V808.82H268.61V808.17ZM268.91 810.13H269.59V814.79H268.91V810.13ZM270.85 809.78H271.52V812.75C271.52 813.08 271.47 813.28 271.23 813.4C270.99 813.51 270.63 813.52 270.09 813.52C270.08 813.32 270 813.05 269.91 812.87C270.31 812.88 270.62 812.88 270.73 812.87C270.83 812.86 270.85 812.83 270.85 812.74V809.78ZM271.71 806.07H276.76V806.72H271.71V806.07ZM272.79 809.79V810.77H275.72V809.79H272.79ZM272.79 811.32V812.31H275.72V811.32H272.79ZM272.79 808.26V809.23H275.72V808.26H272.79ZM272.09 807.68H276.45V812.9H272.09V807.68ZM273.86 806.39L274.71 806.49C274.54 807.07 274.36 807.7 274.2 808.12L273.54 807.99C273.66 807.54 273.8 806.85 273.86 806.39ZM273.09 813.08L273.75 813.47C273.2 814 272.26 814.54 271.46 814.84C271.35 814.69 271.11 814.46 270.96 814.33C271.76 814.04 272.66 813.52 273.09 813.08ZM274.64 813.51L275.21 813.13C275.82 813.48 276.59 814.02 277 814.4L276.4 814.83C276.03 814.46 275.26 813.89 274.64 813.51ZM269.42 805.61H269.83V805.77H270.06V805.97C269.65 806.82 268.97 807.99 267.89 808.97C267.79 808.81 267.59 808.54 267.45 808.43C268.41 807.6 269.07 806.48 269.42 805.61ZM269.51 805.61H270.08C270.75 806.18 271.58 807.03 271.97 807.59L271.48 808.22C271.1 807.66 270.32 806.72 269.66 806.17H269.51V805.61ZM277.77 812H286.74V812.64H277.77V812ZM282.75 812.22C283.3 813.52 284.7 814.01 286.96 814.12C286.79 814.28 286.61 814.59 286.52 814.8C284.1 814.6 282.7 813.95 282.02 812.34L282.75 812.22ZM283.45 811.52L283.76 811.06C284.43 811.21 285.32 811.5 285.8 811.71L285.47 812.24C285.01 812.01 284.13 811.7 283.45 811.52ZM281.06 808.76H286.86V809.33H281.06V808.76ZM284.66 808.02H285.37V810.29C285.37 810.64 285.3 810.81 285.03 810.9C284.74 811 284.32 811 283.66 811C283.62 810.81 283.53 810.58 283.43 810.42C283.93 810.43 284.36 810.43 284.49 810.42C284.62 810.42 284.66 810.39 284.66 810.28V808.02ZM277.71 808.69H280.35V809.31H277.71V808.69ZM279.95 805.6H280.65V811.19H279.95V805.6ZM278.22 805.9H278.86V807.36H280.35V807.96H278.22V805.9ZM281.82 809.69L282.32 809.37C282.72 809.65 283.18 810.07 283.4 810.37L282.87 810.73C282.67 810.42 282.22 809.98 281.82 809.69ZM281.65 807L282.1 806.79C282.57 807.06 283.14 807.49 283.41 807.81L282.95 808.03C282.69 807.72 282.13 807.29 281.65 807ZM282.63 806.6L283.03 806.37C283.59 806.64 284.27 807.07 284.6 807.41L284.18 807.66C283.86 807.33 283.2 806.88 282.63 806.6ZM285.66 806.08H285.79L285.92 806.06L286.32 806.27C285.46 807.76 283.48 808.41 281.47 808.7C281.41 808.55 281.27 808.32 281.16 808.19C283.03 807.98 284.93 807.38 285.66 806.18V806.08ZM283.78 805.6L284.44 805.74C283.73 806.4 282.7 806.93 281.31 807.35C281.22 807.21 281.04 807.01 280.91 806.91C282.23 806.58 283.23 806.1 283.78 805.6ZM283.39 806.08H285.86V806.55H282.8L283.39 806.08ZM278.38 808.98H279.06V809.47C279.06 810 278.9 810.9 278.21 811.46C278.08 811.34 277.8 811.2 277.62 811.11C278.27 810.63 278.38 809.88 278.38 809.46V808.98ZM281.82 811H282.57V811.74C282.57 812.84 282.04 814.22 277.96 814.83C277.87 814.65 277.68 814.38 277.54 814.21C281.35 813.65 281.82 812.53 281.82 811.72V811Z" fill="white"/>
<g filter="url(#filter9_i_2_4395)">
<rect x="338" y="776" width="40" height="40" rx="20" fill="#F4F4F4"/>
<path d="M349 789.5C349 789.224 349.224 789 349.5 789H366.5C366.776 789 367 789.224 367 789.5V790.5C367 790.776 366.776 791 366.5 791H349.5C349.224 791 349 790.776 349 790.5V789.5Z" fill="#18BC9C"/>
<path d="M349 795.5C349 795.224 349.224 795 349.5 795H366.5C366.776 795 367 795.224 367 795.5V796.5C367 796.776 366.776 797 366.5 797H349.5C349.224 797 349 796.776 349 796.5V795.5Z" fill="#18BC9C"/>
<path d="M349.5 801C349.224 801 349 801.224 349 801.5V802.5C349 802.776 349.224 803 349.5 803H366.5C366.776 803 367 802.776 367 802.5V801.5C367 801.224 366.776 801 366.5 801H349.5Z" fill="#18BC9C"/>
</g>
<rect width="393" height="34" transform="translate(0 818)" fill="#18BC9C"/>
<g filter="url(#filter10_b_2_4395)">
<rect x="126.5" y="839" width="140" height="5" rx="2.5" fill="white"/>
</g>
</g>
<defs>
<filter id="filter0_d_2_4395" x="0" y="104" width="393" height="80" filterUnits="userSpaceOnUse" color-interpolation-filters="sRGB">
<feFlood flood-opacity="0" result="BackgroundImageFix"/>
<feColorMatrix in="SourceAlpha" type="matrix" values="0 0 0 0 0 0 0 0 0 0 0 0 0 0 0 0 0 0 127 0" result="hardAlpha"/>
<feOffset dy="2"/>
<feGaussianBlur stdDeviation="8"/>
<feComposite in2="hardAlpha" operator="out"/>
<feColorMatrix type="matrix" values="0 0 0 0 0 0 0 0 0 0 0 0 0 0 0 0 0 0 0.15 0"/>
<feBlend mode="normal" in2="BackgroundImageFix" result="effect1_dropShadow_2_4395"/>
<feBlend mode="normal" in="SourceGraphic" in2="effect1_dropShadow_2_4395" result="shape"/>
</filter>
<filter id="filter1_d_2_4395" x="0" y="160" width="393" height="80" filterUnits="userSpaceOnUse" color-interpolation-filters="sRGB">
<feFlood flood-opacity="0" result="BackgroundImageFix"/>
<feColorMatrix in="SourceAlpha" type="matrix" values="0 0 0 0 0 0 0 0 0 0 0 0 0 0 0 0 0 0 127 0" result="hardAlpha"/>
<feOffset dy="2"/>
<feGaussianBlur stdDeviation="8"/>
<feComposite in2="hardAlpha" operator="out"/>
<feColorMatrix type="matrix" values="0 0 0 0 0 0 0 0 0 0 0 0 0 0 0 0 0 0 0.15 0"/>
<feBlend mode="normal" in2="BackgroundImageFix" result="effect1_dropShadow_2_4395"/>
<feBlend mode="normal" in="SourceGraphic" in2="effect1_dropShadow_2_4395" result="shape"/>
</filter>
<filter id="filter2_d_2_4395" x="0" y="216" width="393" height="80" filterUnits="userSpaceOnUse" color-interpolation-filters="sRGB">
<feFlood flood-opacity="0" result="BackgroundImageFix"/>
<feColorMatrix in="SourceAlpha" type="matrix" values="0 0 0 0 0 0 0 0 0 0 0 0 0 0 0 0 0 0 127 0" result="hardAlpha"/>
<feOffset dy="2"/>
<feGaussianBlur stdDeviation="8"/>
<feComposite in2="hardAlpha" operator="out"/>
<feColorMatrix type="matrix" values="0 0 0 0 0 0 0 0 0 0 0 0 0 0 0 0 0 0 0.15 0"/>
<feBlend mode="normal" in2="BackgroundImageFix" result="effect1_dropShadow_2_4395"/>
<feBlend mode="normal" in="SourceGraphic" in2="effect1_dropShadow_2_4395" result="shape"/>
</filter>
<filter id="filter3_d_2_4395" x="0" y="272" width="393" height="80" filterUnits="userSpaceOnUse" color-interpolation-filters="sRGB">
<feFlood flood-opacity="0" result="BackgroundImageFix"/>
<feColorMatrix in="SourceAlpha" type="matrix" values="0 0 0 0 0 0 0 0 0 0 0 0 0 0 0 0 0 0 127 0" result="hardAlpha"/>
<feOffset dy="2"/>
<feGaussianBlur stdDeviation="8"/>
<feComposite in2="hardAlpha" operator="out"/>
<feColorMatrix type="matrix" values="0 0 0 0 0 0 0 0 0 0 0 0 0 0 0 0 0 0 0.15 0"/>
<feBlend mode="normal" in2="BackgroundImageFix" result="effect1_dropShadow_2_4395"/>
<feBlend mode="normal" in="SourceGraphic" in2="effect1_dropShadow_2_4395" result="shape"/>
</filter>
<filter id="filter4_d_2_4395" x="0" y="328" width="393" height="80" filterUnits="userSpaceOnUse" color-interpolation-filters="sRGB">
<feFlood flood-opacity="0" result="BackgroundImageFix"/>
<feColorMatrix in="SourceAlpha" type="matrix" values="0 0 0 0 0 0 0 0 0 0 0 0 0 0 0 0 0 0 127 0" result="hardAlpha"/>
<feOffset dy="2"/>
<feGaussianBlur stdDeviation="8"/>
<feComposite in2="hardAlpha" operator="out"/>
<feColorMatrix type="matrix" values="0 0 0 0 0 0 0 0 0 0 0 0 0 0 0 0 0 0 0.15 0"/>
<feBlend mode="normal" in2="BackgroundImageFix" result="effect1_dropShadow_2_4395"/>
<feBlend mode="normal" in="SourceGraphic" in2="effect1_dropShadow_2_4395" result="shape"/>
</filter>
<filter id="filter5_d_2_4395" x="0" y="384" width="393" height="80" filterUnits="userSpaceOnUse" color-interpolation-filters="sRGB">
<feFlood flood-opacity="0" result="BackgroundImageFix"/>
<feColorMatrix in="SourceAlpha" type="matrix" values="0 0 0 0 0 0 0 0 0 0 0 0 0 0 0 0 0 0 127 0" result="hardAlpha"/>
<feOffset dy="2"/>
<feGaussianBlur stdDeviation="8"/>
<feComposite in2="hardAlpha" operator="out"/>
<feColorMatrix type="matrix" values="0 0 0 0 0 0 0 0 0 0 0 0 0 0 0 0 0 0 0.15 0"/>
<feBlend mode="normal" in2="BackgroundImageFix" result="effect1_dropShadow_2_4395"/>
<feBlend mode="normal" in="SourceGraphic" in2="effect1_dropShadow_2_4395" result="shape"/>
</filter>
<filter id="filter6_d_2_4395" x="0" y="440" width="393" height="80" filterUnits="userSpaceOnUse" color-interpolation-filters="sRGB">
<feFlood flood-opacity="0" result="BackgroundImageFix"/>
<feColorMatrix in="SourceAlpha" type="matrix" values="0 0 0 0 0 0 0 0 0 0 0 0 0 0 0 0 0 0 127 0" result="hardAlpha"/>
<feOffset dy="2"/>
<feGaussianBlur stdDeviation="8"/>
<feComposite in2="hardAlpha" operator="out"/>
<feColorMatrix type="matrix" values="0 0 0 0 0 0 0 0 0 0 0 0 0 0 0 0 0 0 0.15 0"/>
<feBlend mode="normal" in2="BackgroundImageFix" result="effect1_dropShadow_2_4395"/>
<feBlend mode="normal" in="SourceGraphic" in2="effect1_dropShadow_2_4395" result="shape"/>
</filter>
<filter id="filter7_d_2_4395" x="0" y="496" width="393" height="80" filterUnits="userSpaceOnUse" color-interpolation-filters="sRGB">
<feFlood flood-opacity="0" result="BackgroundImageFix"/>
<feColorMatrix in="SourceAlpha" type="matrix" values="0 0 0 0 0 0 0 0 0 0 0 0 0 0 0 0 0 0 127 0" result="hardAlpha"/>
<feOffset dy="2"/>
<feGaussianBlur stdDeviation="8"/>
<feComposite in2="hardAlpha" operator="out"/>
<feColorMatrix type="matrix" values="0 0 0 0 0 0 0 0 0 0 0 0 0 0 0 0 0 0 0.15 0"/>
<feBlend mode="normal" in2="BackgroundImageFix" result="effect1_dropShadow_2_4395"/>
<feBlend mode="normal" in="SourceGraphic" in2="effect1_dropShadow_2_4395" result="shape"/>
</filter>
<filter id="filter8_d_2_4395" x="-4" y="52" width="401" height="56" filterUnits="userSpaceOnUse" color-interpolation-filters="sRGB">
<feFlood flood-opacity="0" result="BackgroundImageFix"/>
<feColorMatrix in="SourceAlpha" type="matrix" values="0 0 0 0 0 0 0 0 0 0 0 0 0 0 0 0 0 0 127 0" result="hardAlpha"/>
<feOffset dy="2"/>
<feGaussianBlur stdDeviation="2"/>
<feComposite in2="hardAlpha" operator="out"/>
<feColorMatrix type="matrix" values="0 0 0 0 0 0 0 0 0 0 0 0 0 0 0 0 0 0 0.25 0"/>
<feBlend mode="normal" in2="BackgroundImageFix" result="effect1_dropShadow_2_4395"/>
<feBlend mode="normal" in="SourceGraphic" in2="effect1_dropShadow_2_4395" result="shape"/>
</filter>
<filter id="filter9_i_2_4395" x="338" y="776" width="40" height="40" filterUnits="userSpaceOnUse" color-interpolation-filters="sRGB">
<feFlood flood-opacity="0" result="BackgroundImageFix"/>
<feBlend mode="normal" in="SourceGraphic" in2="BackgroundImageFix" result="shape"/>
<feColorMatrix in="SourceAlpha" type="matrix" values="0 0 0 0 0 0 0 0 0 0 0 0 0 0 0 0 0 0 127 0" result="hardAlpha"/>
<feMorphology radius="0.8" operator="erode" in="SourceAlpha" result="effect1_innerShadow_2_4395"/>
<feOffset/>
<feComposite in2="hardAlpha" operator="arithmetic" k2="-1" k3="1"/>
<feColorMatrix type="matrix" values="0 0 0 0 1 0 0 0 0 1 0 0 0 0 1 0 0 0 1 0"/>
<feBlend mode="normal" in2="shape" result="effect1_innerShadow_2_4395"/>
</filter>
<filter id="filter10_b_2_4395" x="46.5" y="759" width="300" height="165" filterUnits="userSpaceOnUse" color-interpolation-filters="sRGB">
<feFlood flood-opacity="0" result="BackgroundImageFix"/>
<feGaussianBlur in="BackgroundImageFix" stdDeviation="40"/>
<feComposite in2="SourceAlpha" operator="in" result="effect1_backgroundBlur_2_4395"/>
<feBlend mode="normal" in="SourceGraphic" in2="effect1_backgroundBlur_2_4395" result="shape"/>
</filter>
<clipPath id="clip0_2_4395">
<rect width="393" height="852" fill="white"/>
</clipPath>
</defs>
</svg>
