<svg width="24" height="24" viewBox="0 0 24 24" fill="none" xmlns="http://www.w3.org/2000/svg">
<path d="M11.3488 21.4506C11.3488 21.4506 11.3492 21.4509 12 20.7035L12.6508 21.4509L12 22L11.3488 21.4506Z" fill="#BB986C"/>
<path fill-rule="evenodd" clip-rule="evenodd" d="M12 5.93757C9.79086 5.93757 8 7.70049 8 9.87515C8 12.0498 9.79086 13.8127 12 13.8127C14.2091 13.8127 16 12.0498 16 9.87515C16 7.70049 14.2091 5.93757 12 5.93757ZM10 9.87515C10 8.78782 10.8954 7.90636 12 7.90636C13.1046 7.90636 14 8.78782 14 9.87515C14 10.9625 13.1046 11.8439 12 11.8439C10.8954 11.8439 10 10.9625 10 9.87515Z" fill="#BB986C"/>
<path fill-rule="evenodd" clip-rule="evenodd" d="M11.3488 21.4506L12 20.7035C12.6508 21.4509 12.6517 21.4501 12.6517 21.4501L12.6533 21.4488L12.6583 21.4445L12.6759 21.4295C12.6908 21.4168 12.7122 21.3984 12.7396 21.3746C12.7945 21.327 12.8734 21.2579 12.9731 21.1688C13.1723 20.9907 13.4546 20.7326 13.7923 20.4081C14.4665 19.7602 15.3678 18.8415 16.2719 17.7608C17.1736 16.683 18.0946 15.4245 18.794 14.0967C19.4889 12.7773 20 11.3243 20 9.87515C20 5.52582 16.4183 2 12 2C7.58172 2 4 5.52582 4 9.87515C4 11.3243 4.51106 12.7773 5.206 14.0967C5.90543 15.4245 6.8264 16.683 7.72807 17.7608C8.63218 18.8415 9.5335 19.7602 10.2077 20.4081C10.5454 20.7326 10.8277 20.9907 11.0269 21.1688C11.1266 21.2579 11.2055 21.327 11.2604 21.3746C11.2878 21.3984 11.3092 21.4168 11.3241 21.4295L11.3417 21.4445L11.3467 21.4488L11.3488 21.4506ZM6 9.87515C6 6.61316 8.68629 3.96879 12 3.96879C15.3137 3.96879 18 6.61316 18 9.87515C18 10.887 17.6361 12.018 17.0185 13.1904C16.4054 14.3543 15.5764 15.4952 14.7281 16.5093C13.8822 17.5204 13.0335 18.3859 12.3952 18.9993C12.2517 19.1372 12.1191 19.2621 12 19.3727C11.8809 19.2621 11.7483 19.1372 11.6048 18.9993C10.9665 18.3859 10.1178 17.5204 9.27193 16.5093C8.4236 15.4952 7.59457 14.3543 6.9815 13.1904C6.36394 12.018 6 10.887 6 9.87515Z" fill="#BB986C"/>
</svg>
