<svg width="24" height="24" viewBox="0 0 24 24" fill="none" xmlns="http://www.w3.org/2000/svg">
<path d="M7.5 6C7.5 7.10457 6.60457 8 5.5 8C4.39543 8 3.5 7.10457 3.5 6C3.5 4.89543 4.39543 4 5.5 4C6.60457 4 7.5 4.89543 7.5 6Z" fill="#BB986C"/>
<path d="M14 6C14 7.10457 13.1046 8 12 8C10.8954 8 10 7.10457 10 6C10 4.89543 10.8954 4 12 4C13.1046 4 14 4.89543 14 6Z" fill="#BB986C"/>
<path d="M5.33333 9C3.49238 9 2 10.4924 2 12.3333V18.1667C2 19.1792 2.82081 20 3.83333 20H6.83333C7.84586 20 8.66667 19.1792 8.66667 18.1667V12.3333C8.66667 10.4924 7.17428 9 5.33333 9Z" fill="#BB986C"/>
<path fill-rule="evenodd" clip-rule="evenodd" d="M8.66667 12.3333C8.66667 10.4924 10.1591 9 12.0001 9C13.8299 9 15.3154 10.4744 15.3333 12.3V12C15.3333 10.3431 16.8256 9 18.6666 9C20.5075 9 21.9999 10.3431 21.9999 12V17.7308C21.9999 18.984 20.8711 20 19.4786 20H17.8546C16.4718 20 15.3489 18.9981 15.3334 17.7568V18.1667C15.3334 19.1792 14.5126 20 13.5001 20H10.5001C9.48756 20 8.66667 19.1792 8.66667 18.1667V12.3333ZM18.6666 11C19.2802 11 19.7777 11.4477 19.7777 12V17.7308C19.7777 17.8795 19.6438 18 19.4786 18H17.8546C17.6894 18 17.5555 17.8795 17.5555 17.7308V12C17.5555 11.4477 18.0529 11 18.6666 11Z" fill="#BB986C"/>
</svg>
