<svg width="24" height="24" viewBox="0 0 24 24" fill="none" xmlns="http://www.w3.org/2000/svg">
<path fill-rule="evenodd" clip-rule="evenodd" d="M15.8431 2.5H8.15686C6.96566 2.5 6 3.46566 6 4.65686V5.5H4.02777C3.46015 5.5 3 5.96015 3 6.52777V8.69722C3 9.53311 3.41775 10.3137 4.11325 10.7774C4.7236 11.1842 5.41006 11.2809 6.03434 11.1414C6.21102 12.786 7.06156 14.2962 8.4 15.3C9.18493 15.8887 10.0782 16.2608 11 16.4163V18.5H7.5C7.22386 18.5 7 18.7239 7 19V21C7 21.2761 7.22386 21.5 7.5 21.5H16.5C16.7761 21.5 17 21.2761 17 21V19C17 18.7239 16.7761 18.5 16.5 18.5H13V16.4163C13.9218 16.2608 14.8151 15.8887 15.6 15.3C16.9384 14.2962 17.789 12.786 17.9657 11.1414C18.5899 11.2809 19.2764 11.1842 19.8868 10.7774C20.5822 10.3137 21 9.53311 21 8.69722V6.52777C21 5.96015 20.5399 5.5 19.9722 5.5H18V4.65686C18 3.46566 17.0343 2.5 15.8431 2.5ZM8 8.69722V5.5V4.65686C8 4.57023 8.07023 4.5 8.15686 4.5H15.8431C15.9298 4.5 16 4.57023 16 4.65686V5.5V8.69722V10.5C16 11.759 15.4072 12.9446 14.4 13.7C12.9778 14.7667 11.0222 14.7667 9.6 13.7C8.59278 12.9446 8 11.759 8 10.5V8.69722ZM4.02777 6.5H6V10.1118C5.58118 10.2614 5.0937 10.2291 4.66795 9.9453C4.25065 9.6671 4 9.19875 4 8.69722V6.52777C4 6.51243 4.01243 6.5 4.02777 6.5ZM18 10.1118V6.5H19.9722C19.9876 6.5 20 6.51243 20 6.52777V8.69722C20 9.19875 19.7493 9.6671 19.3321 9.9453C18.9063 10.2291 18.4188 10.2614 18 10.1118Z" fill="#BB986C"/>
</svg>
