<svg width="24" height="24" viewBox="0 0 24 24" fill="none" xmlns="http://www.w3.org/2000/svg">
<path d="M5.5 5C5.22386 5 5 5.22386 5 5.5V6.5C5 6.77614 5.22386 7 5.5 7H8.5C8.77614 7 9 6.77614 9 6.5V5.5C9 5.22386 8.77614 5 8.5 5H5.5Z" fill="#BB986C"/>
<path d="M5 11.5C5 11.2239 5.22386 11 5.5 11H8.5C8.77614 11 9 11.2239 9 11.5V12.5C9 12.7761 8.77614 13 8.5 13H5.5C5.22386 13 5 12.7761 5 12.5V11.5Z" fill="#BB986C"/>
<path d="M5 14.5C5 14.2239 5.22386 14 5.5 14H8.5C8.77614 14 9 14.2239 9 14.5V15.5C9 15.7761 8.77614 16 8.5 16H5.5C5.22386 16 5 15.7761 5 15.5V14.5Z" fill="#BB986C"/>
<path d="M5.5 17C5.22386 17 5 17.2239 5 17.5V18.5C5 18.7761 5.22386 19 5.5 19H8.5C8.77614 19 9 18.7761 9 18.5V17.5C9 17.2239 8.77614 17 8.5 17H5.5Z" fill="#BB986C"/>
<path d="M10 11.5C10 11.2239 10.2239 11 10.5 11H13.5C13.7761 11 14 11.2239 14 11.5V12.5C14 12.7761 13.7761 13 13.5 13H10.5C10.2239 13 10 12.7761 10 12.5V11.5Z" fill="#BB986C"/>
<path d="M10.5 14C10.2239 14 10 14.2239 10 14.5V15.5C10 15.7761 10.2239 16 10.5 16H13.5C13.7761 16 14 15.7761 14 15.5V14.5C14 14.2239 13.7761 14 13.5 14H10.5Z" fill="#BB986C"/>
<path d="M10 17.5C10 17.2239 10.2239 17 10.5 17H13.5C13.7761 17 14 17.2239 14 17.5V18.5C14 18.7761 13.7761 19 13.5 19H10.5C10.2239 19 10 18.7761 10 18.5V17.5Z" fill="#BB986C"/>
<path d="M15.5 11C15.2239 11 15 11.2239 15 11.5V12.5C15 12.7761 15.2239 13 15.5 13H18.5C18.7761 13 19 12.7761 19 12.5V11.5C19 11.2239 18.7761 11 18.5 11H15.5Z" fill="#BB986C"/>
<path d="M15 14.5C15 14.2239 15.2239 14 15.5 14H18.5C18.7761 14 19 14.2239 19 14.5V15.5C19 15.7761 18.7761 16 18.5 16H15.5C15.2239 16 15 15.7761 15 15.5V14.5Z" fill="#BB986C"/>
<path d="M15.5 17C15.2239 17 15 17.2239 15 17.5V18.5C15 18.7761 15.2239 19 15.5 19H18.5C18.7761 19 19 18.7761 19 18.5V17.5C19 17.2239 18.7761 17 18.5 17H15.5Z" fill="#BB986C"/>
<path fill-rule="evenodd" clip-rule="evenodd" d="M19 2H5C3.34315 2 2 3.34315 2 5V19C2 20.6569 3.34315 22 5 22H19C20.6569 22 22 20.6569 22 19V5C22 3.34315 20.6569 2 19 2ZM4 5C4 4.44772 4.44772 4 5 4H19C19.5523 4 20 4.44772 20 5V8H4V5ZM4 10V19C4 19.5523 4.44772 20 5 20H19C19.5523 20 20 19.5523 20 19V10H4Z" fill="#BB986C"/>
</svg>
