<svg width="24" height="24" viewBox="0 0 24 24" fill="none" xmlns="http://www.w3.org/2000/svg">
<path fill-rule="evenodd" clip-rule="evenodd" d="M3 6C3 4.34315 4.34315 3 6 3H18C19.6569 3 21 4.34315 21 6V22H19V6C19 5.44772 18.5523 5 18 5H6C5.44772 5 5 5.44772 5 6V22H3V6ZM8 7C8 6.44772 8.44772 6 9 6H15C15.5523 6 16 6.44772 16 7C16 7.55228 15.5523 8 15 8H9C8.44772 8 8 7.55228 8 7ZM11.3401 9.24407C11.7189 8.91864 12.2811 8.91864 12.6599 9.24407L16.1519 12.2441C16.5727 12.6056 16.6184 13.2372 16.254 13.6546C15.8895 14.0721 15.2529 14.1175 14.832 13.7559L13 12.182V21.1538C13 21.6212 12.5523 22 12 22C11.4477 22 11 21.6212 11 21.1538V12.182L9.16797 13.7559C8.74713 14.1175 8.11051 14.0721 7.74605 13.6546C7.38159 13.2372 7.42729 12.6056 7.84814 12.2441L11.3401 9.24407Z" fill="#BB986C"/>
</svg>
