<svg width="24" height="24" viewBox="0 0 24 24" fill="none" xmlns="http://www.w3.org/2000/svg">
<path fill-rule="evenodd" clip-rule="evenodd" d="M11.9998 4.18173C11.9848 4.22089 11.9691 4.26616 11.9533 4.31834L11.9527 4.32048L10.1674 10.1671L4.26924 10.1287C4.17503 10.1272 4.10634 10.1333 4.05802 10.1411C4.09842 10.1856 4.1608 10.2441 4.25575 10.3142L4.26236 10.3191L9.03157 13.8994L7.16462 19.6882C7.13587 19.7769 7.1185 19.849 7.10828 19.9062C7.14481 19.8835 7.18591 19.8555 7.23167 19.8212L11.9954 16.1532L16.7681 19.821C16.8134 19.855 16.8542 19.8827 16.8905 19.9054C16.8812 19.8499 16.8646 19.7782 16.8354 19.6882L16.8349 19.6867L14.9685 13.8994L19.7443 10.3141C19.8392 10.2441 19.9016 10.1856 19.942 10.1411C19.8937 10.1333 19.825 10.1271 19.7308 10.1287L19.7207 10.1289L13.8327 10.1671L12.0467 4.31834C12.0308 4.26584 12.015 4.22059 11.9998 4.18173ZM7.09662 20.0708C7.097 20.0718 7.09683 20.0715 7.09635 20.0696ZM10.6735 2.57632C11.0167 2.21755 11.4714 2 11.996 2C12.5149 2 12.973 2.20925 13.3184 2.57616C13.6355 2.90206 13.8328 3.31625 13.9604 3.73711C13.9605 3.73758 13.9607 3.73806 13.9608 3.73853L15.3102 8.15745L19.703 8.12888C20.1428 8.12221 20.6024 8.19199 21.0116 8.41961C21.4464 8.65559 21.7526 9.03072 21.9045 9.4956L21.9067 9.5023C22.0592 9.98057 22.0238 10.472 21.808 10.9232L21.8038 10.9321C21.6048 11.3378 21.2868 11.6609 20.9354 11.9208L17.3096 14.6427L18.7379 19.0713C18.7379 19.0715 18.7378 19.0712 18.7379 19.0713C18.8738 19.4907 18.9467 19.9449 18.8693 20.3955C18.7943 20.8693 18.5622 21.2896 18.1742 21.5966C17.7651 21.9323 17.2574 22.0682 16.7281 21.9675C16.2955 21.8853 15.905 21.6746 15.5617 21.4162L15.5537 21.4102L11.9966 18.6765L8.43841 21.4163C8.09511 21.6747 7.7045 21.8853 7.2719 21.9675C6.74263 22.0681 6.23496 21.9323 5.82585 21.5967C5.4398 21.2913 5.20601 20.8744 5.12419 20.404L5.12268 20.3952L5.12131 20.3865C5.05188 19.9406 5.12627 19.4906 5.2619 19.0721C5.26198 19.0718 5.26182 19.0723 5.2619 19.0721L6.69041 14.6427L3.06461 11.9208C2.7132 11.6609 2.39529 11.3377 2.19632 10.9321L2.19194 10.9232C1.97615 10.472 1.94088 9.98058 2.09338 9.5023L2.09552 9.49559C2.24737 9.03072 2.55367 8.6556 2.98845 8.41961C3.39767 8.19199 3.8572 8.12221 4.29701 8.12888L8.68987 8.15745L10.0392 3.73853C10.0393 3.73813 10.0394 3.73773 10.0396 3.73733C10.167 3.31716 10.3615 2.90249 10.6735 2.57632Z" fill="#BB986C"/>
</svg>
