<svg width="24" height="52" viewBox="0 0 24 52" fill="none" xmlns="http://www.w3.org/2000/svg">
<path d="M4.85 6.375C4.54624 6.375 4.3 6.62684 4.3 6.9375V8.0625C4.3 8.37316 4.54624 8.625 4.85 8.625H7.6V10.875H4.85C4.54624 10.875 4.3 11.1268 4.3 11.4375V12.5625C4.3 12.8732 4.54624 13.125 4.85 13.125H7.6V15.375H4.85C4.54624 15.375 4.3 15.6268 4.3 15.9375V17.0625C4.3 17.3732 4.54624 17.625 4.85 17.625H9.25C9.55376 17.625 9.8 17.3732 9.8 17.0625V6.9375C9.8 6.62684 9.55376 6.375 9.25 6.375H4.85Z" fill="#999999"/>
<path d="M14.75 6.375C14.4462 6.375 14.2 6.62684 14.2 6.9375V8.0625C14.2 8.37316 14.4462 8.625 14.75 8.625H17.5V10.875H14.75C14.4462 10.875 14.2 11.1268 14.2 11.4375V17.0625C14.2 17.3732 14.4462 17.625 14.75 17.625H19.15C19.4538 17.625 19.7 17.3732 19.7 17.0625V15.9375C19.7 15.6268 19.4538 15.375 19.15 15.375H16.4V13.125H19.15C19.4538 13.125 19.7 12.8732 19.7 12.5625V6.9375C19.7 6.62684 19.4538 6.375 19.15 6.375H14.75Z" fill="#999999"/>
<path d="M10.9 9.1875C10.9 8.87684 11.1462 8.625 11.45 8.625H12.55C12.8538 8.625 13.1 8.87684 13.1 9.1875V10.3125C13.1 10.6232 12.8538 10.875 12.55 10.875H11.45C11.1462 10.875 10.9 10.6232 10.9 10.3125V9.1875Z" fill="#999999"/>
<path d="M11.45 13.125C11.1462 13.125 10.9 13.3768 10.9 13.6875V14.8125C10.9 15.1232 11.1462 15.375 11.45 15.375H12.55C12.8538 15.375 13.1 15.1232 13.1 14.8125V13.6875C13.1 13.3768 12.8538 13.125 12.55 13.125H11.45Z" fill="#999999"/>
<path fill-rule="evenodd" clip-rule="evenodd" d="M4.3 3H19.7C21.5225 3 23 4.51104 23 6.375V17.625C23 19.489 21.5225 21 19.7 21H4.3C2.47746 21 1 19.489 1 17.625V6.375C1 4.51104 2.47746 3 4.3 3ZM4.3 5.25C3.69249 5.25 3.2 5.75368 3.2 6.375V17.625C3.2 18.2463 3.69249 18.75 4.3 18.75H19.7C20.3075 18.75 20.8 18.2463 20.8 17.625V6.375C20.8 5.75368 20.3075 5.25 19.7 5.25H4.3Z" fill="#999999"/>
<path fill-rule="evenodd" clip-rule="evenodd" d="M5 32C3.34315 32 2 33.3431 2 35V45C2 46.6569 3.34315 48 5 48H19C20.6569 48 22 46.6569 22 45V35C22 33.3431 20.6569 32 19 32H5ZM5.5 35C5.22386 35 5 35.2239 5 35.5V36.5C5 36.7761 5.22386 37 5.5 37H8V39H5.5C5.22386 39 5 39.2239 5 39.5V40.5C5 40.7761 5.22386 41 5.5 41H8V43H5.5C5.22386 43 5 43.2239 5 43.5V44.5C5 44.7761 5.22386 45 5.5 45H9.5C9.77614 45 10 44.7761 10 44.5V35.5C10 35.2239 9.77614 35 9.5 35H5.5ZM14 35.5C14 35.2239 14.2239 35 14.5 35H18.5C18.7761 35 19 35.2239 19 35.5V40.5C19 40.7761 18.7761 41 18.5 41H16V43H18.5C18.7761 43 19 43.2239 19 43.5V44.5C19 44.7761 18.7761 45 18.5 45H14.5C14.2239 45 14 44.7761 14 44.5V39.5C14 39.2239 14.2239 39 14.5 39H17V37H14.5C14.2239 37 14 36.7761 14 36.5V35.5ZM11.5 37C11.2239 37 11 37.2239 11 37.5V38.5C11 38.7761 11.2239 39 11.5 39H12.5C12.7761 39 13 38.7761 13 38.5V37.5C13 37.2239 12.7761 37 12.5 37H11.5ZM11 41.5C11 41.2239 11.2239 41 11.5 41H12.5C12.7761 41 13 41.2239 13 41.5V42.5C13 42.7761 12.7761 43 12.5 43H11.5C11.2239 43 11 42.7761 11 42.5V41.5Z" fill="#BB986C"/>
</svg>
