<svg width="24" height="52" viewBox="0 0 24 52" fill="none" xmlns="http://www.w3.org/2000/svg">
<path fill-rule="evenodd" clip-rule="evenodd" d="M22 11.2775V18.9499C22 20.6344 20.6569 22 19 22H14V14.883C14 14.3215 13.5523 13.8663 13 13.8663H11C10.4477 13.8663 10 14.3215 10 14.883V22H5C3.34315 22 2 20.6344 2 18.9499V11.2775C2 10.398 2.37344 9.56124 3.02449 8.98205L10.0245 2.75468C11.1556 1.74844 12.8444 1.74844 13.9755 2.75468L20.9755 8.98205C21.6266 9.56124 22 10.398 22 11.2775ZM4.3415 10.5124C4.12448 10.7054 4 10.9843 4 11.2775V18.9499C4 19.5114 4.44772 19.9666 5 19.9666H8V14.883C8 13.1984 9.34315 11.8329 11 11.8329H13C14.6569 11.8329 16 13.1984 16 14.883V19.9666H19C19.5523 19.9666 20 19.5114 20 18.9499V11.2775C20 10.9843 19.8755 10.7054 19.6585 10.5124L12.6585 4.28499C12.2815 3.94958 11.7185 3.94958 11.3415 4.28499L4.3415 10.5124Z" fill="#999999"/>
<path d="M2.99311 37.0701C2.36096 37.639 2 38.4495 2 39.3V46.9639C2 48.6208 3.34315 49.9639 5 49.9639H9V41.9639C9 41.4116 9.44772 40.9639 10 40.9639H14C14.5523 40.9639 15 41.4116 15 41.9639V49.9639H19C20.6569 49.9639 22 48.6208 22 46.9639V39.3C22 38.4495 21.639 37.639 21.0069 37.0701L14.0069 30.7701C12.866 29.7433 11.134 29.7433 9.99311 30.7701L2.99311 37.0701Z" fill="#BB986C"/>
</svg>
