<svg width="24" height="24" viewBox="0 0 24 24" fill="none" xmlns="http://www.w3.org/2000/svg">
<path fill-rule="evenodd" clip-rule="evenodd" d="M12 4C7.58172 4 4 7.58172 4 12C4 16.4183 7.58172 20 12 20C16.4183 20 20 16.4183 20 12C20 7.58172 16.4183 4 12 4ZM2 12C2 6.47715 6.47715 2 12 2C17.5228 2 22 6.47715 22 12C22 17.5228 17.5228 22 12 22C6.47715 22 2 17.5228 2 12ZM8.5 9.40192C8.5 7.86233 10.1667 6.90007 11.5 7.66987L16 10.2679C17.3333 11.0377 17.3333 12.9622 16 13.732L11.5 16.3301C10.1667 17.0999 8.5 16.1377 8.5 14.5981V9.40192ZM15 12L10.5 9.40192V14.5981L15 12Z" fill="#BB986C"/>
</svg>
