<svg width="24" height="52" viewBox="0 0 24 52" fill="none" xmlns="http://www.w3.org/2000/svg">
<path d="M3 5C3 4.30964 3.55964 3.75 4.25 3.75H19.75C20.4404 3.75 21 4.30964 21 5C21 5.69036 20.4404 6.25 19.75 6.25H4.25C3.55964 6.25 3 5.69036 3 5Z" fill="#999999"/>
<path d="M3 12C3 11.3096 3.55964 10.75 4.25 10.75H19.75C20.4404 10.75 21 11.3096 21 12C21 12.6904 20.4404 13.25 19.75 13.25H4.25C3.55964 13.25 3 12.6904 3 12Z" fill="#999999"/>
<path d="M4.25 17.75C3.55964 17.75 3 18.3096 3 19C3 19.6904 3.55964 20.25 4.25 20.25H19.75C20.4404 20.25 21 19.6904 21 19C21 18.3096 20.4404 17.75 19.75 17.75H4.25Z" fill="#999999"/>
<path d="M3 33C3 32.3096 3.55964 31.75 4.25 31.75H19.75C20.4404 31.75 21 32.3096 21 33C21 33.6904 20.4404 34.25 19.75 34.25H4.25C3.55964 34.25 3 33.6904 3 33Z" fill="#BB986C"/>
<path d="M3 40C3 39.3096 3.55964 38.75 4.25 38.75H19.75C20.4404 38.75 21 39.3096 21 40C21 40.6904 20.4404 41.25 19.75 41.25H4.25C3.55964 41.25 3 40.6904 3 40Z" fill="#BB986C"/>
<path d="M4.25 45.75C3.55964 45.75 3 46.3096 3 47C3 47.6904 3.55964 48.25 4.25 48.25H19.75C20.4404 48.25 21 47.6904 21 47C21 46.3096 20.4404 45.75 19.75 45.75H4.25Z" fill="#BB986C"/>
</svg>
