<svg width="24" height="52" viewBox="0 0 24 52" fill="none" xmlns="http://www.w3.org/2000/svg">
<path d="M7.5 7C7.5 6.44772 7.94772 6 8.5 6H15.5C16.0523 6 16.5 6.44772 16.5 7C16.5 7.55228 16.0523 8 15.5 8H8.5C7.94772 8 7.5 7.55228 7.5 7Z" fill="#999999"/>
<path d="M8.5 9C7.94772 9 7.5 9.44772 7.5 10C7.5 10.5523 7.94772 11 8.5 11H15.5C16.0523 11 16.5 10.5523 16.5 10C16.5 9.44772 16.0523 9 15.5 9H8.5Z" fill="#999999"/>
<path d="M7.5 13C7.5 12.4477 7.94772 12 8.5 12H15.5C16.0523 12 16.5 12.4477 16.5 13C16.5 13.5523 16.0523 14 15.5 14H8.5C7.94772 14 7.5 13.5523 7.5 13Z" fill="#999999"/>
<path d="M8.5 15C7.94772 15 7.5 15.4477 7.5 16C7.5 16.5523 7.94772 17 8.5 17H13.5C14.0523 17 14.5 16.5523 14.5 16C14.5 15.4477 14.0523 15 13.5 15H8.5Z" fill="#999999"/>
<path fill-rule="evenodd" clip-rule="evenodd" d="M7 2H17C18.6569 2 20 3.34315 20 5V19C20 20.6569 18.6569 22 17 22H7C5.34314 22 4 20.6569 4 19V5C4 3.34315 5.34315 2 7 2ZM7 4C6.44772 4 6 4.44772 6 5V19C6 19.5523 6.44772 20 7 20H17C17.5523 20 18 19.5523 18 19V5C18 4.44772 17.5523 4 17 4H7Z" fill="#999999"/>
<path fill-rule="evenodd" clip-rule="evenodd" d="M7 30C5.34315 30 4 31.3431 4 33V47C4 48.6569 5.34315 50 7 50H17C18.6569 50 20 48.6569 20 47V33C20 31.3431 18.6569 30 17 30H7ZM7.5 35C7.5 34.4477 7.94772 34 8.5 34H15.5C16.0523 34 16.5 34.4477 16.5 35C16.5 35.5523 16.0523 36 15.5 36H8.5C7.94772 36 7.5 35.5523 7.5 35ZM7.5 38C7.5 37.4477 7.94772 37 8.5 37H15.5C16.0523 37 16.5 37.4477 16.5 38C16.5 38.5523 16.0523 39 15.5 39H8.5C7.94772 39 7.5 38.5523 7.5 38ZM8.5 40C7.94772 40 7.5 40.4477 7.5 41C7.5 41.5523 7.94772 42 8.5 42H15.5C16.0523 42 16.5 41.5523 16.5 41C16.5 40.4477 16.0523 40 15.5 40H8.5ZM7.5 44C7.5 43.4477 7.94772 43 8.5 43H13.5C14.0523 43 14.5 43.4477 14.5 44C14.5 44.5523 14.0523 45 13.5 45H8.5C7.94772 45 7.5 44.5523 7.5 44Z" fill="#BB986C"/>
</svg>
