<svg width="24" height="52" viewBox="0 0 24 52" fill="none" xmlns="http://www.w3.org/2000/svg">
<path fill-rule="evenodd" clip-rule="evenodd" d="M2 15.5V19.5C2 20.8807 3.11929 22 4.5 22H8.5C9.88071 22 11 20.8807 11 19.5V15.5C11 14.1193 9.88071 13 8.5 13H7V12.5H17V13H15.5C14.1193 13 13 14.1193 13 15.5V19.5C13 20.8807 14.1193 22 15.5 22H19.5C20.8807 22 22 20.8807 22 19.5V15.5C22 14.1193 20.8807 13 19.5 13H18V12.5C18 11.9477 17.5523 11.5 17 11.5H12.5V11H14C15.3807 11 16.5 9.88071 16.5 8.5V4.5C16.5 3.11929 15.3807 2 14 2H10C8.61929 2 7.5 3.11929 7.5 4.5V8.5C7.5 9.88071 8.61929 11 10 11H11.5V11.5H7C6.44772 11.5 6 11.9477 6 12.5V13H4.5C3.11929 13 2 14.1193 2 15.5ZM6 15H4.5C4.22386 15 4 15.2239 4 15.5V19.5C4 19.7761 4.22386 20 4.5 20H6V15ZM7 20H8.5C8.77614 20 9 19.7761 9 19.5V15.5C9 15.2239 8.77614 15 8.5 15H7V20ZM12.5 9H14C14.2761 9 14.5 8.77614 14.5 8.5V4.5C14.5 4.22386 14.2761 4 14 4H12.5V9ZM11.5 4V9H10C9.72386 9 9.5 8.77614 9.5 8.5V4.5C9.5 4.22386 9.72386 4 10 4H11.5ZM17 15H15.5C15.2239 15 15 15.2239 15 15.5V19.5C15 19.7761 15.2239 20 15.5 20H17V15ZM18 20V15H19.5C19.7761 15 20 15.2239 20 15.5V19.5C20 19.7761 19.7761 20 19.5 20H18Z" fill="#999999"/>
<path fill-rule="evenodd" clip-rule="evenodd" d="M2 43.5V47.5C2 48.8807 3.11929 50 4.5 50H8.5C9.88071 50 11 48.8807 11 47.5V43.5C11 42.1193 9.88071 41 8.5 41H7V40.5H17V41H15.5C14.1193 41 13 42.1193 13 43.5V47.5C13 48.8807 14.1193 50 15.5 50H19.5C20.8807 50 22 48.8807 22 47.5V43.5C22 42.1193 20.8807 41 19.5 41H18V40.5C18 39.9477 17.5523 39.5 17 39.5H12.5V39H14C15.3807 39 16.5 37.8807 16.5 36.5V32.5C16.5 31.1193 15.3807 30 14 30H10C8.61929 30 7.5 31.1193 7.5 32.5V36.5C7.5 37.8807 8.61929 39 10 39H11.5V39.5H7C6.44772 39.5 6 39.9477 6 40.5V41H4.5C3.11929 41 2 42.1193 2 43.5ZM6 43H4.5C4.22386 43 4 43.2239 4 43.5V47.5C4 47.7761 4.22386 48 4.5 48H6V43ZM7 48H8.5C8.77614 48 9 47.7761 9 47.5V43.5C9 43.2239 8.77614 43 8.5 43H7V48ZM12.5 37H14C14.2761 37 14.5 36.7761 14.5 36.5V32.5C14.5 32.2239 14.2761 32 14 32H12.5V37ZM11.5 32V37H10C9.72386 37 9.5 36.7761 9.5 36.5V32.5C9.5 32.2239 9.72386 32 10 32H11.5ZM17 43H15.5C15.2239 43 15 43.2239 15 43.5V47.5C15 47.7761 15.2239 48 15.5 48H17V43ZM18 48V43H19.5C19.7761 43 20 43.2239 20 43.5V47.5C20 47.7761 19.7761 48 19.5 48H18Z" fill="#BB986C"/>
</svg>
