<svg width="24" height="24" viewBox="0 0 24 24" fill="none" xmlns="http://www.w3.org/2000/svg">
<path fill-rule="evenodd" clip-rule="evenodd" d="M8.25091 2.0986C8.32589 2.03834 8.42881 2.02646 8.51556 2.06803L9.85805 2.71148C9.9448 2.75305 9.99978 2.84074 10.0008 2.93693C10.0091 3.71375 10.0829 4.22953 10.2953 4.56551C10.4498 4.80996 10.8076 5.15451 12 5.15451C13.1924 5.15451 13.5502 4.80996 13.7047 4.56551C13.9171 4.22953 13.9909 3.71375 13.9992 2.93693C14.0002 2.84074 14.0552 2.75305 14.1419 2.71148L15.4844 2.06803C15.5712 2.02646 15.6741 2.03834 15.7491 2.0986L19.6334 5.21992C19.7304 5.29785 19.7553 5.43523 19.6919 5.54225L19.3603 6.10181C18.898 6.88198 18.625 7.56923 18.625 8.30607C18.625 9.03148 18.8911 9.95247 19.8036 11.1843L19.9509 11.3832C19.9828 11.4262 20 11.4784 20 11.532V21.5295C20 21.6676 19.8881 21.7795 19.75 21.7795H4.25C4.11193 21.7795 4 21.6676 4 21.5295V11.532C4 11.4784 4.01722 11.4262 4.04911 11.3832L4.19644 11.1843C5.1089 9.95247 5.375 9.03148 5.375 8.30607C5.375 7.56923 5.10203 6.88198 4.63971 6.10181L4.30812 5.54225C4.24469 5.43523 4.26962 5.29785 4.36659 5.21992L8.25091 2.0986ZM6.92877 5.72675C6.8383 5.79945 6.81018 5.92463 6.85756 6.03058C7.16074 6.70857 7.375 7.46161 7.375 8.30607C7.375 9.47928 6.963 10.7015 6.04493 12.0368C6.01594 12.079 6 12.1291 6 12.1803V19.5295C6 19.6676 6.11193 19.7795 6.25 19.7795H17.75C17.8881 19.7795 18 19.6676 18 19.5295V12.1803C18 12.1291 17.9841 12.079 17.9551 12.0368C17.037 10.7015 16.625 9.47928 16.625 8.30607C16.625 7.46161 16.8393 6.70857 17.1424 6.03058C17.1898 5.92463 17.1617 5.79945 17.0712 5.72675L16.0943 4.94175C15.9544 4.82929 15.7444 4.89676 15.6798 5.06426C15.6041 5.2602 15.5107 5.45157 15.3953 5.63413C14.7498 6.65531 13.6076 7.15451 12 7.15451C10.3924 7.15451 9.2502 6.65531 8.60471 5.63413C8.48931 5.45157 8.39587 5.2602 8.32022 5.06426C8.25555 4.89676 8.04561 4.82929 7.90565 4.94175L6.92877 5.72675Z" fill="#BB986C"/>
<path fill-rule="evenodd" clip-rule="evenodd" d="M9 12.0295C9 11.8914 8.88807 11.7795 8.75 11.7795H8.25C8.11193 11.7795 8 11.6676 8 11.5295V10.0295C8 9.89144 8.11193 9.77951 8.25 9.77951H10.75C10.8881 9.77951 11 9.89144 11 10.0295V17.5295C11 17.6676 10.8881 17.7795 10.75 17.7795H9.25C9.11193 17.7795 9 17.6676 9 17.5295V12.0295ZM14 12.0295C14 11.8914 13.8881 11.7795 13.75 11.7795H12.25C12.1119 11.7795 12 11.6676 12 11.5295V10.0295C12 9.89144 12.1119 9.77951 12.25 9.77951H15.75C15.8881 9.77951 16 9.89144 16 10.0295V14.5295C16 14.6676 15.8881 14.7795 15.75 14.7795H14.25C14.1119 14.7795 14 14.8914 14 15.0295V15.5295C14 15.6676 14.1119 15.7795 14.25 15.7795H15.75C15.8881 15.7795 16 15.8914 16 16.0295V17.5295C16 17.6676 15.8881 17.7795 15.75 17.7795H12.25C12.1119 17.7795 12 17.6676 12 17.5295V13.0295C12 12.8914 12.1119 12.7795 12.25 12.7795H13.75C13.8881 12.7795 14 12.6676 14 12.5295V12.0295Z" fill="#BB986C"/>
</svg>
