<svg width="24" height="24" viewBox="0 0 24 24" fill="none" xmlns="http://www.w3.org/2000/svg">
<path fill-rule="evenodd" clip-rule="evenodd" d="M10 5C10 3.89543 10.8954 3 12 3C13.1046 3 14 3.89543 14 5V7H10V5ZM16 7H17C18.6569 7 20 8.34315 20 10V20C20 21.6569 18.6569 23 17 23H7C5.34314 23 4 21.6569 4 20V10C4 8.34314 5.34315 7 7 7H8V5C8 2.79086 9.79086 1 12 1C14.2091 1 16 2.79086 16 5V7ZM14 9V11C14 11.5523 14.4477 12 15 12C15.5523 12 16 11.5523 16 11V9H17C17.5523 9 18 9.44772 18 10V20C18 20.5523 17.5523 21 17 21H7C6.44772 21 6 20.5523 6 20V10C6 9.44771 6.44772 9 7 9H8V11C8 11.5523 8.44772 12 9 12C9.55228 12 10 11.5523 10 11V9H14Z" fill="#BB986C"/>
</svg>
