<svg width="24" height="24" viewBox="0 0 24 24" fill="none" xmlns="http://www.w3.org/2000/svg">
<path fill-rule="evenodd" clip-rule="evenodd" d="M16 9C16 11.2091 14.2091 13 12 13C9.79086 13 8 11.2091 8 9C8 6.79086 9.79086 5 12 5C14.2091 5 16 6.79086 16 9ZM12 11C13.1046 11 14 10.1046 14 9C14 7.89543 13.1046 7 12 7C10.8954 7 10 7.89543 10 9C10 10.1046 10.8954 11 12 11Z" fill="#BB986C"/>
<path fill-rule="evenodd" clip-rule="evenodd" d="M12 22C17.5228 22 22 17.5228 22 12C22 6.47715 17.5228 2 12 2C6.47715 2 2 6.47715 2 12C2 17.5228 6.47715 22 12 22ZM17.0781 18.1819C15.6968 19.3179 13.928 20 12 20C10.0719 20 8.3032 19.3179 6.92188 18.1819C8.19838 16.8368 10.0015 16 12 16C13.9986 16 15.8016 16.8368 17.0781 18.1819ZM18.4543 16.7277C16.8199 15.0464 14.5321 14 12 14C9.46788 14 7.18013 15.0464 5.54575 16.7277C4.57395 15.4033 4 13.7687 4 12C4 7.58172 7.58172 4 12 4C16.4183 4 20 7.58172 20 12C20 13.7687 19.4261 15.4032 18.4543 16.7277Z" fill="#BB986C"/>
</svg>
