<svg width="24" height="24" viewBox="0 0 24 24" fill="none" xmlns="http://www.w3.org/2000/svg">
<path fill-rule="evenodd" clip-rule="evenodd" d="M14.271 11.5407C13.8272 11.722 13.5858 12.1934 13.5983 12.6725C13.5994 12.7149 13.6 12.7574 13.6 12.8C13.6 15.451 11.451 17.6 8.8 17.6C6.14903 17.6 4 15.451 4 12.8C4 10.1491 6.14899 8.00005 8.79991 8H19.4999C19.7761 8 19.9999 8.22386 19.9999 8.5V8.86416C19.9999 9.06727 19.877 9.2502 19.689 9.32702L14.271 11.5407ZM15.528 13.7932C15.5841 13.4101 15.8193 13.0686 16.1777 12.9221L20.7564 11.0514C21.5084 10.7441 21.9999 10.0124 21.9999 9.2V8C21.9999 6.89543 21.1045 6 19.9999 6H8.8C5.04452 6.00007 2 9.0445 2 12.8C2 16.5555 5.04446 19.6 8.8 19.6C12.2182 19.6 15.0473 17.078 15.528 13.7932Z" fill="#BB986C"/>
<path fill-rule="evenodd" clip-rule="evenodd" d="M9 12C8.44772 12 8 12.4477 8 13C8 13.5523 8.44772 14 9 14C9.55228 14 10 13.5523 10 13C10 12.4477 9.55228 12 9 12ZM12 13C12 14.6569 10.6569 16 9 16C7.34315 16 6 14.6569 6 13C6 11.3431 7.34315 10 9 10C10.6569 10 12 11.3431 12 13Z" fill="#BB986C"/>
</svg>
