<svg width="24" height="24" viewBox="0 0 24 24" fill="none" xmlns="http://www.w3.org/2000/svg">
<path fill-rule="evenodd" clip-rule="evenodd" d="M5.49727 8.8C5.49727 5.16645 8.29089 2 12.0009 2C15.7109 2 18.5045 5.16645 18.5045 8.8C18.5045 10.0663 19.0045 11.2464 19.8388 12.0615L19.9787 12.1982C21.0447 13.2397 21.1988 14.6902 20.7881 15.8155C20.3753 16.9464 19.2853 18 17.7157 18H6.42182C4.82638 18 3.69601 16.9488 3.24574 15.7902C2.79759 14.6371 2.92138 13.154 3.9592 12.0479L4.44647 11.5286C5.10624 10.8254 5.49727 9.84593 5.49727 8.8ZM7.49727 8.8C7.49727 6.14903 9.51362 4 12.0009 4C14.4882 4 16.5045 6.14903 16.5045 8.8C16.5045 10.5842 17.2071 12.2864 18.4411 13.492L18.5811 13.6288C19.4421 14.47 18.8837 16 17.7157 16H6.42182C5.15673 16 4.52318 14.3698 5.41773 13.4164L5.90499 12.8971C6.92451 11.8105 7.49727 10.3367 7.49727 8.8Z" fill="#BB986C"/>
<path d="M8.12498 19C8.56902 20.7252 10.1351 22 11.999 22C13.8628 22 15.4289 20.7252 15.8729 19H13.7314C13.3856 19.5978 12.7392 20 11.999 20C11.2587 20 10.6123 19.5978 10.2665 19H8.12498Z" fill="#BB986C"/>
</svg>
