<svg width="24" height="24" viewBox="0 0 24 24" fill="none" xmlns="http://www.w3.org/2000/svg">
<path fill-rule="evenodd" clip-rule="evenodd" d="M11.9998 7.66663C9.6066 7.66663 7.6665 9.60673 7.6665 12C7.6665 14.3932 9.6066 16.3333 11.9998 16.3333C14.3931 16.3333 16.3332 14.3932 16.3332 12C16.3332 9.60673 14.3931 7.66663 11.9998 7.66663ZM9.6665 12C9.6665 10.7113 10.7112 9.66663 11.9998 9.66663C13.2885 9.66663 14.3332 10.7113 14.3332 12C14.3332 13.2886 13.2885 14.3333 11.9998 14.3333C10.7112 14.3333 9.6665 13.2886 9.6665 12Z" fill="#BB986C"/>
<path fill-rule="evenodd" clip-rule="evenodd" d="M11.076 1C10.0999 1 9.25101 1.66924 9.0232 2.61843L8.79013 3.58959C8.63216 3.64991 8.47634 3.71455 8.32281 3.78335L7.47114 3.26135C6.63887 2.75126 5.56542 2.87827 4.87517 3.56851L3.56844 4.87525C2.87819 5.56549 2.75118 6.63895 3.26128 7.47121L3.7833 8.32293C3.71452 8.4764 3.64991 8.63216 3.58961 8.79007L2.61843 9.02315C1.66924 9.25096 1 10.0998 1 11.076V12.924C1 13.9001 1.66924 14.749 2.61843 14.9768L3.58957 15.2099C3.64988 15.3678 3.71451 15.5236 3.78331 15.6771L3.26129 16.5289C2.75119 17.3611 2.8782 18.4346 3.56845 19.1248L4.87518 20.4316C5.56543 21.1218 6.63888 21.2488 7.47115 20.7387L8.32284 20.2167C8.47634 20.2855 8.63214 20.3501 8.79008 20.4104L9.02315 21.3816C9.25096 22.3308 10.0998 23 11.076 23H12.924C13.9001 23 14.749 22.3308 14.9768 21.3816L15.2099 20.4105C15.3679 20.3502 15.5237 20.2855 15.6773 20.2167L16.5289 20.7386C17.3611 21.2487 18.4346 21.1217 19.1248 20.4315L20.4316 19.1248C21.1218 18.4345 21.2488 17.3611 20.7387 16.5288L20.2167 15.6771C20.2855 15.5236 20.3502 15.3679 20.4105 15.2099L21.3816 14.9768C22.3308 14.749 23 13.9002 23 12.924V11.076C23 10.0999 22.3308 9.25101 21.3816 9.0232L20.4105 8.79014C20.3501 8.63217 20.2855 8.47635 20.2167 8.32282L20.7387 7.47114C21.2488 6.63887 21.1218 5.56542 20.4316 4.87517L19.1248 3.56844C18.4346 2.87819 17.3611 2.75118 16.5289 3.26128L15.6771 3.7833C15.5236 3.71452 15.3679 3.6499 15.2099 3.58959L14.9768 2.61844C14.749 1.66924 13.9002 1 12.924 1H11.076ZM10.968 3.08518C10.98 3.03522 11.0246 3 11.076 3H12.924C12.9754 3 13.0201 3.03522 13.0321 3.08518L13.5259 5.14269L14.0701 5.31087C14.4863 5.4395 14.886 5.60599 15.2652 5.80641L15.7691 6.07268L17.574 4.96648C17.6178 4.93964 17.6743 4.94632 17.7106 4.98265L19.0173 6.28939C19.0537 6.32572 19.0604 6.38222 19.0335 6.42602L17.9273 8.23085L18.1936 8.73473C18.394 9.11402 18.5605 9.51377 18.6892 9.93001L18.8574 10.4742L20.9148 10.968C20.9648 10.98 21 11.0246 21 11.076V12.924C21 12.9754 20.9648 13.0201 20.9148 13.0321L18.8574 13.5259L18.6892 14.07C18.5606 14.4863 18.3941 14.886 18.1936 15.2653L17.9274 15.7691L19.0335 17.5739C19.0604 17.6177 19.0537 17.6742 19.0174 17.7105L17.7106 19.0173C17.6743 19.0536 17.6178 19.0603 17.574 19.0334L15.7692 17.9273L15.2653 18.1936C14.886 18.394 14.4863 18.5606 14.07 18.6892L13.5258 18.8574L13.032 20.9148C13.02 20.9648 12.9754 21 12.924 21H11.076C11.0246 21 10.9799 20.9648 10.9679 20.9148L10.4741 18.8574L9.92996 18.6892C9.51375 18.5605 9.11402 18.394 8.73474 18.1936L8.23086 17.9273L6.42603 19.0335C6.38222 19.0604 6.32573 19.0537 6.2894 19.0174L4.98266 17.7106C4.94633 17.6743 4.93965 17.6178 4.96649 17.574L6.07269 15.7691L5.80642 15.2653C5.60599 14.886 5.43949 14.4862 5.31086 14.07L5.14267 13.5258L3.08518 13.032C3.03522 13.02 3 12.9754 3 12.924V11.076C3 11.0246 3.03522 10.9799 3.08518 10.9679L5.1427 10.4741L5.31089 9.92995C5.43951 9.51377 5.606 9.11406 5.80641 8.73481L6.07268 8.23093L4.96648 6.42609C4.93964 6.38229 4.94632 6.32579 4.98265 6.28946L6.28939 4.98272C6.32572 4.94639 6.38221 4.93971 6.42602 4.96656L8.23084 6.07274L8.73472 5.80646C9.11401 5.60602 9.51376 5.43951 9.92999 5.31087L10.4742 5.14269L10.968 3.08518Z" fill="#BB986C"/>
</svg>
