<svg width="24" height="52" viewBox="0 0 24 52" fill="none" xmlns="http://www.w3.org/2000/svg">
<path fill-rule="evenodd" clip-rule="evenodd" d="M5 22H19C20.6569 22 22 20.6569 22 19V14C22 12.3431 20.6569 11 19 11H16V5C16 3.34315 14.6569 2 13 2H11C9.34315 2 8 3.34315 8 5V8H5C3.34315 8 2 9.34315 2 11V19C2 20.6569 3.34315 22 5 22ZM16 13V20H19C19.5523 20 20 19.5523 20 19V14C20 13.4477 19.5523 13 19 13H16ZM14 5C14 4.44772 13.5523 4 13 4H11C10.4477 4 10 4.44772 10 5V20H14V5ZM5 10H8V20H5C4.44772 20 4 19.5523 4 19V11C4 10.4477 4.44772 10 5 10Z" fill="#999999"/>
<path fill-rule="evenodd" clip-rule="evenodd" d="M10 30C8.89543 30 8 30.8954 8 32V36H4C2.89543 36 2 36.8954 2 38V48C2 49.1046 2.89543 50 4 50H8H9H15H16H20C21.1046 50 22 49.1046 22 48V41C22 39.8954 21.1046 39 20 39H16V32C16 30.8954 15.1046 30 14 30H10ZM11 37.25C11 37.1119 11.1119 37 11.25 37H11.5H12.25C12.3881 37 12.5 37.1119 12.5 37.25V38V41H13.25C13.3881 41 13.5 41.1119 13.5 41.25V41.75C13.5 41.8881 13.3881 42 13.25 42H12.5H11.5H10.75C10.6119 42 10.5 41.8881 10.5 41.75V41.25C10.5 41.1119 10.6119 41 10.75 41H11.5V38H11.25C11.1119 38 11 37.8881 11 37.75V37.25ZM4.25 40C4.11193 40 4 40.1119 4 40.25V40.75C4 40.8881 4.11193 41 4.25 41H6V42H5H4.25C4.11193 42 4 42.1119 4 42.25V43V44V44.75C4 44.8881 4.11193 45 4.25 45H5H6.75C6.88807 45 7 44.8881 7 44.75V44.25C7 44.1119 6.88807 44 6.75 44H5V43H6H6.75C6.88807 43 7 42.8881 7 42.75V42V41V40.25C7 40.1119 6.88807 40 6.75 40H6H4.25ZM17.25 42H19H19.75C19.8881 42 20 42.1119 20 42.25V43V44V45V46V46.75C20 46.8881 19.8881 47 19.75 47H19H17.25C17.1119 47 17 46.8881 17 46.75V46.25C17 46.1119 17.1119 46 17.25 46H19V45H17.25C17.1119 45 17 44.8881 17 44.75V44.25C17 44.1119 17.1119 44 17.25 44H19V43H17.25C17.1119 43 17 42.8881 17 42.75V42.25C17 42.1119 17.1119 42 17.25 42Z" fill="#BB986C"/>
</svg>
