<svg width="24" height="24" viewBox="0 0 24 24" fill="none" xmlns="http://www.w3.org/2000/svg">
<path d="M14 11C14 10.4477 14.4477 10 15 10C15.5523 10 16 10.4477 16 11V13C16 13.5523 15.5523 14 15 14C14.4477 14 14 13.5523 14 13V11Z" fill="#BB986C"/>
<path d="M5.25 9C5.11193 9 5 9.11193 5 9.25V10.75C5 10.8881 5.11193 11 5.25 11H10.75C10.8881 11 11 10.8881 11 10.75V9.25C11 9.11193 10.8881 9 10.75 9H5.25Z" fill="#BB986C"/>
<path d="M5 12.25C5 12.1119 5.11193 12 5.25 12H8.75C8.88807 12 9 12.1119 9 12.25V12.75C9 12.8881 8.88807 13 8.75 13H5.25C5.11193 13 5 12.8881 5 12.75V12.25Z" fill="#BB986C"/>
<path d="M5.25 14C5.11193 14 5 14.1119 5 14.25V14.75C5 14.8881 5.11193 15 5.25 15H8.75C8.88807 15 9 14.8881 9 14.75V14.25C9 14.1119 8.88807 14 8.75 14H5.25Z" fill="#BB986C"/>
<path fill-rule="evenodd" clip-rule="evenodd" d="M14 5H4C2.34315 5 1 6.567 1 8.5V15.5C1 17.433 2.34315 19 4 19H14C14 18.4477 14.4477 18 15 18C15.5523 18 16 18.4477 16 19H20C21.6569 19 23 17.433 23 15.5V8.5C23 6.567 21.6569 5 20 5H16C16 5.55228 15.5523 6 15 6C14.4477 6 14 5.55228 14 5ZM16 16V16.6667H20C20.5523 16.6667 21 16.1443 21 15.5V8.5C21 7.85567 20.5523 7.33333 20 7.33333H16V8C16 8.55228 15.5523 9 15 9C14.4477 9 14 8.55228 14 8V7.33333H4C3.44772 7.33333 3 7.85567 3 8.5V15.5C3 16.1443 3.44772 16.6667 4 16.6667H14V16C14 15.4477 14.4477 15 15 15C15.5523 15 16 15.4477 16 16Z" fill="#BB986C"/>
</svg>
