<svg width="393" height="852" viewBox="0 0 393 852" fill="none" xmlns="http://www.w3.org/2000/svg">
<g clip-path="url(#clip0_1_8)">
<rect width="393" height="852" fill="#F2F2F7"/>
<g filter="url(#filter0_d_1_8)">
<rect width="393" height="83" transform="translate(0 769.813)" fill="white"/>
<g clip-path="url(#clip1_1_8)">
<path fill-rule="evenodd" clip-rule="evenodd" d="M38 798.813H33C31.3431 798.813 30 797.47 30 795.813V788.267C30 787.402 30.3734 786.579 31.0245 786.009L38.0245 779.884C39.1556 778.895 40.8444 778.895 41.9755 779.884L48.9755 786.009C49.6266 786.579 50 787.402 50 788.267V795.813C50 797.47 48.6569 798.813 47 798.813H42V792.813C42 791.709 41.1046 790.813 40 790.813C38.8954 790.813 38 791.709 38 792.813V798.813ZM32.3415 787.515C32.1245 787.705 32 787.979 32 788.267V795.813C32 796.366 32.4477 796.813 33 796.813H36V792.813C36 790.604 37.7909 788.813 40 788.813C42.2091 788.813 44 790.604 44 792.813V796.813H47C47.5523 796.813 48 796.366 48 795.813V788.267C48 787.979 47.8755 787.705 47.6585 787.515L40.6585 781.39C40.2815 781.06 39.7185 781.06 39.3415 781.39L32.3415 787.515Z" fill="#999999"/>
<path d="M32.43 811.043H37.55V811.963H32.43V811.043ZM32.43 812.613H37.55V813.523H32.43V812.613ZM32.43 814.203H37.56V815.243H32.43V814.203ZM30.48 807.663H39.55V808.773H30.48V807.663ZM31.46 809.393H38.48V815.713H37.23V810.433H32.66V815.713H31.46V809.393ZM34.38 808.323L35.9 808.363C35.67 809.003 35.35 809.603 35.12 810.033L33.95 809.893C34.13 809.433 34.3 808.793 34.38 808.323ZM36.72 806.293L38.1 806.593C37.71 807.173 37.27 807.723 36.93 808.093L35.86 807.793C36.17 807.373 36.52 806.753 36.72 806.293ZM32.04 806.723L33.11 806.253C33.49 806.603 33.89 807.093 34.1 807.433L32.98 808.013C32.81 807.663 32.4 807.113 32.04 806.723ZM42.88 810.803V811.353H47.15V810.803H42.88ZM42.88 812.213V812.773H47.15V812.213H42.88ZM42.88 809.393V809.943H47.15V809.393H42.88ZM41.62 808.483H48.46V813.683H41.62V808.483ZM45.48 814.413L46.38 813.633C47.52 814.013 48.83 814.543 49.6 814.913L48.4 815.713C47.74 815.343 46.59 814.793 45.48 814.413ZM40.77 806.783H49.16V807.873H40.77V806.783ZM44.35 807.313L45.81 807.463C45.62 808.083 45.41 808.673 45.25 809.083L44.09 808.893C44.2 808.433 44.32 807.783 44.35 807.313ZM43.48 813.563L44.52 814.383C43.62 814.883 42.26 815.413 41.21 815.703C41.01 815.443 40.66 815.033 40.38 814.783C41.44 814.513 42.79 813.993 43.48 813.563Z" fill="#999999"/>
</g>
<g clip-path="url(#clip2_1_8)">
<path d="M108 795.035C111.436 795.035 114.222 792.25 114.222 788.813C114.222 788.324 114.165 787.848 114.059 787.391L112.116 789.334C111.86 791.379 110.115 792.961 108 792.961C105.709 792.961 103.852 791.104 103.852 788.813C103.852 786.523 105.709 784.665 108 784.665C108.831 784.665 109.604 784.91 110.253 785.33L111.399 784.184C111.519 784.064 111.65 783.962 111.789 783.878C110.739 783.071 109.426 782.591 108 782.591C104.564 782.591 101.778 785.377 101.778 788.813C101.778 792.25 104.564 795.035 108 795.035Z" fill="#A70719"/>
<path d="M106.995 787.117C106.591 786.712 105.934 786.712 105.529 787.117C105.124 787.522 105.124 788.178 105.529 788.583L108.462 791.516L113.595 786.384C114 785.979 114 785.322 113.595 784.917C113.19 784.512 112.533 784.512 112.128 784.917L108.462 788.583L106.995 787.117Z" fill="#A70719"/>
<path fill-rule="evenodd" clip-rule="evenodd" d="M109.945 779.16C108.824 778.205 107.176 778.205 106.055 779.16L104.783 780.243C104.623 780.38 104.424 780.462 104.214 780.479L102.55 780.612C101.081 780.729 99.9155 781.895 99.7983 783.363L99.6655 785.028C99.6487 785.238 99.5663 785.437 99.4298 785.597L98.3465 786.868C97.3912 787.989 97.3912 789.638 98.3465 790.759L99.4298 792.03C99.5663 792.19 99.6487 792.389 99.6655 792.599L99.7983 794.264C99.9155 795.732 101.081 796.898 102.55 797.015L104.214 797.148C104.424 797.165 104.623 797.247 104.783 797.384L106.055 798.467C107.176 799.422 108.824 799.422 109.945 798.467L111.217 797.384C111.377 797.247 111.576 797.165 111.786 797.148L113.45 797.015C114.919 796.898 116.085 795.732 116.202 794.264L116.335 792.599C116.351 792.389 116.434 792.19 116.57 792.03L117.654 790.759C118.609 789.638 118.609 787.989 117.654 786.868L116.57 785.597C116.434 785.437 116.351 785.238 116.335 785.028L116.202 783.363C116.085 781.895 114.919 780.729 113.45 780.612L111.786 780.479C111.576 780.462 111.377 780.38 111.217 780.243L109.945 779.16ZM107.352 780.682C107.725 780.363 108.275 780.363 108.648 780.682L109.92 781.765C110.4 782.174 110.997 782.422 111.627 782.472L113.291 782.605C113.781 782.644 114.169 783.033 114.208 783.522L114.341 785.187C114.392 785.816 114.639 786.413 115.048 786.894L116.132 788.165C116.45 788.539 116.45 789.088 116.132 789.462L115.048 790.733C114.639 791.213 114.392 791.811 114.341 792.44L114.208 794.105C114.169 794.594 113.781 794.983 113.291 795.022L111.627 795.155C110.997 795.205 110.4 795.452 109.92 795.862L108.648 796.945C108.275 797.263 107.725 797.263 107.352 796.945L106.08 795.862C105.6 795.452 105.003 795.205 104.374 795.155L102.709 795.022C102.219 794.983 101.831 794.594 101.792 794.105L101.659 792.44C101.608 791.811 101.361 791.213 100.952 790.733L99.8684 789.462C99.55 789.088 99.55 788.539 99.8684 788.165L100.952 786.894C101.361 786.413 101.608 785.816 101.659 785.187L101.792 783.522C101.831 783.033 102.219 782.644 102.709 782.605L104.374 782.472C105.003 782.422 105.6 782.174 106.08 781.765L107.352 780.682Z" fill="#A70719"/>
<path d="M93.48 812.473H102.52V813.433H93.48V812.473ZM95.4 808.753H101.46V809.533H95.4V808.753ZM95.4 809.953H101.47V810.733H95.4V809.953ZM95.16 807.403H101.96V808.343H95.16V807.403ZM97.65 807.993H98.8V811.503H97.65V807.993ZM97.37 811.833H98.57V815.703H97.37V811.833ZM97.28 812.873L98.18 813.313C97.15 814.333 95.43 815.213 93.91 815.653C93.74 815.353 93.4 814.913 93.14 814.663C94.66 814.343 96.39 813.643 97.28 812.873ZM98.7 812.843C99.56 813.603 101.25 814.303 102.75 814.633C102.5 814.873 102.17 815.313 102 815.603C100.49 815.173 98.81 814.293 97.79 813.293L98.7 812.843ZM98.15 806.323L99.5 806.483C99.18 807.083 98.82 807.643 98.54 808.033L97.48 807.823C97.73 807.393 98.01 806.773 98.15 806.323ZM95.59 806.303L96.82 806.543C96.15 807.713 95.27 808.863 94.04 809.853C93.85 809.583 93.46 809.213 93.19 809.043C94.31 808.233 95.13 807.183 95.59 806.303ZM94.62 808.013H95.76V811.163H102.25V812.073H94.62V808.013ZM108.25 811.053H112.34V815.663H111.2V812.133H109.34V815.703H108.25V811.053ZM109.58 806.333H110.75V811.343H109.58V806.333ZM110.28 808.393H112.69V809.503H110.28V808.393ZM108.82 814.233H111.73V815.323H108.82V814.233ZM104.55 807.433V809.613H106.98V807.433H104.55ZM103.66 806.623H107.91V810.423H103.66V806.623ZM104.53 807.863L105.02 807.713C105.18 808.173 105.31 808.773 105.34 809.153L104.82 809.323C104.8 808.923 104.68 808.323 104.53 807.863ZM104.77 813.593L105.5 813.503C105.63 814.063 105.71 814.783 105.71 815.263L104.94 815.353C104.96 814.873 104.88 814.153 104.77 813.593ZM105.77 813.553L106.48 813.423C106.68 813.943 106.87 814.623 106.92 815.073L106.18 815.233C106.14 814.783 105.96 814.083 105.77 813.553ZM106.75 813.463L107.46 813.203C107.79 813.683 108.11 814.323 108.23 814.763L107.48 815.073C107.36 814.633 107.05 813.963 106.75 813.463ZM103.9 813.533L104.7 813.773C104.58 814.493 104.4 815.253 103.99 815.713L103.21 815.313C103.58 814.893 103.8 814.193 103.9 813.533ZM106.49 807.703L107.09 807.913C106.9 808.393 106.7 808.973 106.53 809.333L106.09 809.173C106.23 808.763 106.41 808.123 106.49 807.703ZM103.42 812.293C104.59 812.263 106.36 812.203 108.05 812.133L108.02 813.063C106.39 813.163 104.68 813.243 103.46 813.303L103.42 812.293ZM103.67 810.853H107.88V811.763H103.67V810.853ZM105.38 807.033H106.11V810.053H106.27V812.663H105.22V810.053H105.38V807.033ZM113.45 809.853H122.56V811.043H113.45V809.853ZM117.92 807.543H121.48V808.693H117.92V807.543ZM117.14 806.323H118.41V810.423H117.14V806.323ZM117.14 810.623H118.41V815.703H117.14V810.623ZM118.05 812.533L118.65 811.563C119.65 811.853 121.18 812.383 121.96 812.763L121.32 813.843C120.59 813.463 119.1 812.873 118.05 812.533Z" fill="#A70719"/>
</g>
<g clip-path="url(#clip3_1_8)">
<path d="M281 786.313C281 786.037 281.224 785.813 281.5 785.813H288.5C288.776 785.813 289 786.037 289 786.313V787.313C289 787.59 288.776 787.813 288.5 787.813H281.5C281.224 787.813 281 787.59 281 787.313V786.313Z" fill="#999999"/>
<path d="M281.5 789.813C281.224 789.813 281 790.037 281 790.313V791.313C281 791.59 281.224 791.813 281.5 791.813H288.5C288.776 791.813 289 791.59 289 791.313V790.313C289 790.037 288.776 789.813 288.5 789.813H281.5Z" fill="#999999"/>
<path fill-rule="evenodd" clip-rule="evenodd" d="M275 783.813C275 782.709 275.895 781.813 277 781.813H293C294.105 781.813 295 782.709 295 783.813V786.813C293.895 786.813 293 787.709 293 788.813C293 789.918 293.895 790.813 295 790.813V793.813C295 794.918 294.105 795.813 293 795.813H277C275.895 795.813 275 794.918 275 793.813V790.813C276.105 790.813 277 789.918 277 788.813C277 787.709 276.105 786.813 275 786.813V783.813ZM277 785.349C278.196 786.04 279 787.333 279 788.813C279 790.294 278.196 791.587 277 792.278V793.813H293V792.278C291.804 791.587 291 790.294 291 788.813C291 787.333 291.804 786.04 293 785.349V783.813H277V785.349Z" fill="#999999"/>
<path d="M273.3 806.723H279.46V807.583H273.3V806.723ZM274.48 808.813H278.25V809.303H274.48V808.813ZM274.48 809.613H278.25V810.103H274.48V809.613ZM273.87 807.933H278.84V810.713H277.72V808.523H274.94V810.713H273.87V807.933ZM272.96 810.423H279.69V811.853H278.62V811.093H273.97V811.853H272.96V810.423ZM274.22 811.263L274.97 811.673C274.7 812.063 274.32 812.513 273.9 812.813L273.19 812.233C273.59 812.013 273.98 811.613 274.22 811.263ZM274.85 811.253H275.8V811.763C275.8 811.973 275.85 812.003 276.12 812.003C276.24 812.003 276.84 812.003 277.01 812.003C277.2 812.003 277.25 811.943 277.29 811.663C277.46 811.753 277.81 811.853 278.04 811.893C277.96 812.473 277.73 812.633 277.14 812.633C276.94 812.633 276.18 812.633 275.98 812.633C275.08 812.633 274.85 812.453 274.85 811.763V811.253ZM275.64 811.063L276.32 810.663C276.67 810.893 277.07 811.233 277.25 811.503L276.53 811.933C276.36 811.663 275.98 811.303 275.64 811.063ZM277.67 811.603L278.4 811.223C278.78 811.553 279.25 812.023 279.45 812.373L278.68 812.783C278.49 812.453 278.05 811.953 277.67 811.603ZM275.32 812.343L276.37 812.573C275.66 813.333 274.74 813.903 273.46 814.393C273.32 814.153 273.01 813.813 272.8 813.663C273.98 813.323 274.84 812.833 275.32 812.343ZM277.81 812.933H278.03L278.23 812.893L278.95 813.283C278.09 814.603 276.14 815.383 273.38 815.753C273.27 815.493 273.02 815.123 272.82 814.893C275.42 814.633 277.23 813.993 277.81 813.103V812.933ZM274.98 813.293C275.83 814.213 277.65 814.663 279.81 814.783C279.59 815.013 279.31 815.443 279.18 815.733C276.89 815.513 275.09 814.883 274.03 813.613L274.98 813.293ZM275.13 812.933H278.09V813.603H274.46L275.13 812.933ZM275.68 807.123L276.98 807.263C276.8 807.693 276.63 808.073 276.5 808.353L275.47 808.183C275.55 807.853 275.65 807.423 275.68 807.123ZM272.09 806.343L273.2 806.663C272.63 808.413 271.71 810.313 270.69 811.513C270.59 811.213 270.3 810.533 270.11 810.213C270.92 809.273 271.66 807.803 272.09 806.343ZM271.3 809.083L272.41 807.983L272.44 808.003V815.703H271.3V809.083ZM280.65 806.803H289.29V807.743H280.65V806.803ZM284.29 806.323H285.52V812.103H284.29V806.323ZM282.37 809.993V810.443H287.41V809.993H282.37ZM282.37 808.883V809.333H287.41V808.883H282.37ZM281.24 808.183H288.6V811.163H281.24V808.183ZM286.32 811.473L287.14 810.923C287.94 811.293 288.88 811.933 289.36 812.413L288.53 813.053C288.05 812.543 287.12 811.863 286.32 811.473ZM280.68 811.723C282.56 811.733 285.52 811.733 288.26 811.703L288.2 812.613C285.51 812.673 282.63 812.713 280.73 812.723L280.68 811.723ZM282.54 813.143H283.73V814.273C283.73 814.553 283.83 814.583 284.41 814.583C284.67 814.583 285.81 814.583 286.16 814.583C286.61 814.583 286.7 814.473 286.74 813.713C287 813.873 287.47 814.033 287.78 814.093C287.64 815.273 287.31 815.553 286.26 815.553C285.96 815.553 284.59 815.553 284.3 815.553C282.9 815.553 282.54 815.263 282.54 814.283V813.143ZM284.06 813.093L284.84 812.463C285.38 812.783 286.05 813.273 286.37 813.633L285.55 814.333C285.26 813.963 284.6 813.433 284.06 813.093ZM287.43 813.433L288.47 813.093C288.93 813.693 289.38 814.493 289.52 815.063L288.41 815.423C288.28 814.883 287.87 814.053 287.43 813.433ZM281.27 813.043L282.31 813.473C282.09 814.123 281.77 814.903 281.38 815.433L280.34 814.843C280.73 814.383 281.08 813.653 281.27 813.043ZM290.48 809.823H299.49V810.913H290.48V809.823ZM291.14 807.973H298.93V809.023H291.14V807.973ZM292.21 811.753H296.92V812.833H292.21V811.753ZM296.38 808.443C296.94 810.133 298.11 811.583 299.74 812.263C299.47 812.483 299.11 812.943 298.95 813.243C297.18 812.393 296.01 810.773 295.31 808.723L296.38 808.443ZM291.61 806.793L292.61 806.433C292.92 806.863 293.25 807.453 293.38 807.853L292.31 808.253C292.21 807.863 291.9 807.253 291.61 806.793ZM297.08 806.383L298.27 806.733C297.96 807.303 297.62 807.873 297.35 808.243L296.32 807.913C296.58 807.503 296.91 806.853 297.08 806.383ZM296.6 811.753H297.83C297.83 811.753 297.82 812.063 297.8 812.213C297.68 814.123 297.53 814.963 297.25 815.273C297.02 815.543 296.78 815.623 296.45 815.673C296.16 815.703 295.67 815.703 295.15 815.693C295.13 815.343 294.99 814.873 294.8 814.563C295.24 814.603 295.66 814.613 295.86 814.613C296.02 814.613 296.12 814.593 296.22 814.493C296.39 814.323 296.51 813.633 296.6 811.923V811.753ZM293.83 812.113H295.08C294.88 813.853 294.39 815.073 291.84 815.733C291.73 815.433 291.42 814.943 291.17 814.703C293.37 814.243 293.67 813.373 293.83 812.113ZM294.21 806.293L295.48 806.513C294.84 809.333 293.68 811.893 290.98 813.233C290.81 812.953 290.47 812.503 290.23 812.263C292.72 811.113 293.78 808.773 294.21 806.293Z" fill="#999999"/>
</g>
<g clip-path="url(#clip4_1_8)">
<path d="M343 781.813C343 781.261 343.448 780.813 344 780.813H362C362.552 780.813 363 781.261 363 781.813C363 782.366 362.552 782.813 362 782.813H344C343.448 782.813 343 782.366 343 781.813Z" fill="#999999"/>
<path d="M343 788.813C343 788.261 343.448 787.813 344 787.813H362C362.552 787.813 363 788.261 363 788.813C363 789.366 362.552 789.813 362 789.813H344C343.448 789.813 343 789.366 343 788.813Z" fill="#999999"/>
<path d="M344 794.813C343.448 794.813 343 795.261 343 795.813C343 796.366 343.448 796.813 344 796.813H362C362.552 796.813 363 796.366 363 795.813C363 795.261 362.552 794.813 362 794.813H344Z" fill="#999999"/>
<path d="M338.4 807.403H342.17V808.533H338.4V807.403ZM342.32 808.453H346.8V809.603H342.32V808.453ZM339.7 807.863H340.88V812.893H339.7V807.863ZM346.24 808.453H347.42C347.42 808.453 347.42 808.843 347.41 808.993C347.3 813.063 347.19 814.543 346.83 815.023C346.57 815.383 346.32 815.493 345.94 815.553C345.6 815.613 345.05 815.603 344.5 815.583C344.48 815.243 344.34 814.733 344.13 814.403C344.66 814.453 345.14 814.453 345.37 814.453C345.56 814.453 345.66 814.413 345.77 814.283C346.04 813.973 346.15 812.493 346.24 808.693V808.453ZM338.26 812.763C339.27 812.553 340.83 812.153 342.27 811.773L342.43 812.913C341.09 813.303 339.65 813.713 338.54 814.013L338.26 812.763ZM343.73 806.483H344.95C344.93 810.653 344.91 813.943 341.92 815.733C341.75 815.423 341.37 814.973 341.07 814.753C343.83 813.203 343.71 810.353 343.73 806.483ZM349.81 806.273L351.06 806.543C350.7 807.463 350.25 808.443 349.87 809.083L348.83 808.813C349.19 808.133 349.6 807.073 349.81 806.273ZM348.3 808.323C349.38 808.293 351 808.223 352.55 808.153L352.54 809.193C351.07 809.303 349.53 809.393 348.39 809.463L348.3 808.323ZM348.89 809.933H352.07V810.923H350V815.703H348.89V809.933ZM351.5 809.933H352.69V814.503C352.69 815.013 352.59 815.313 352.25 815.493C351.9 815.673 351.45 815.693 350.84 815.693C350.78 815.373 350.61 814.913 350.46 814.623C350.81 814.643 351.21 814.643 351.34 814.633C351.46 814.633 351.5 814.603 351.5 814.473V809.933ZM349.4 811.443H352.17V812.333H349.4V811.443ZM349.4 812.913H352.17V813.803H349.4V812.913ZM353.47 806.363H354.67V809.363C354.67 809.713 354.73 809.763 355.11 809.763C355.27 809.763 355.99 809.763 356.2 809.763C356.53 809.763 356.59 809.613 356.63 808.733C356.88 808.923 357.37 809.103 357.7 809.173C357.57 810.473 357.25 810.833 356.32 810.833C356.07 810.833 355.17 810.833 354.94 810.833C353.76 810.833 353.47 810.493 353.47 809.383V806.363ZM356.47 806.953L357.23 807.823C356.34 808.253 355.18 808.633 354.19 808.903C354.14 808.663 353.98 808.303 353.85 808.073C354.78 807.783 355.81 807.333 356.47 806.953ZM353.47 811.033H354.66V814.183C354.66 814.553 354.73 814.593 355.12 814.593C355.29 814.593 356.04 814.593 356.26 814.593C356.61 814.593 356.67 814.413 356.72 813.393C356.97 813.573 357.45 813.763 357.78 813.833C357.65 815.243 357.33 815.643 356.37 815.643C356.12 815.643 355.19 815.643 354.95 815.643C353.77 815.643 353.47 815.303 353.47 814.193V811.033ZM356.55 811.453L357.33 812.333C356.42 812.823 355.21 813.243 354.18 813.533C354.12 813.303 353.95 812.923 353.83 812.693C354.8 812.383 355.87 811.893 356.55 811.453ZM351.17 807.373L352.19 806.993C352.68 807.713 353.2 808.663 353.39 809.323L352.3 809.763C352.13 809.123 351.65 808.123 351.17 807.373ZM358.92 806.983H367.11V808.003H358.92V806.983ZM359.38 808.513H366.72V809.473H359.38V808.513ZM358.55 810.023H367.43V811.043H358.55V810.023ZM362.36 806.323H363.58V810.883H362.36V806.323ZM362.37 810.403L363.41 810.893C362.34 812.043 360.57 813.053 358.94 813.563C358.76 813.273 358.42 812.833 358.17 812.583C359.75 812.173 361.49 811.313 362.37 810.403ZM364.1 810.593C364.62 812.583 365.73 814.033 367.79 814.623C367.52 814.863 367.18 815.363 367.01 815.693C364.77 814.913 363.66 813.253 363.01 810.803L364.1 810.593ZM366.41 811.193L367.4 811.943C366.65 812.483 365.75 813.033 365.06 813.373L364.3 812.733C364.97 812.343 365.87 811.703 366.41 811.193ZM359.23 814.583C360.44 814.373 362.28 813.993 363.99 813.623L364.1 814.703C362.53 815.063 360.83 815.433 359.59 815.703L359.23 814.583ZM360.6 812.553L361.39 811.763L361.8 811.873V814.753H360.6V812.553Z" fill="#999999"/>
</g>
<rect width="139" height="5" rx="2.5" transform="matrix(-1 0 0 1 266 839.813)" fill="black"/>
</g>
<g filter="url(#filter1_d_1_8)">
<rect x="160.5" y="744.813" width="72" height="72" rx="36" fill="url(#paint0_radial_1_8)"/>
<rect x="162.5" y="746.813" width="68" height="68" rx="34" stroke="#A70719" stroke-width="4"/>
<g clip-path="url(#clip5_1_8)">
<g filter="url(#filter2_i_1_8)">
<path fill-rule="evenodd" clip-rule="evenodd" d="M199.5 762.813H190.5C188.291 762.813 186.5 764.604 186.5 766.813V775.813C186.5 778.023 188.291 779.813 190.5 779.813H194.174C193.878 779.192 193.672 778.52 193.571 777.813H190.5C189.395 777.813 188.5 776.918 188.5 775.813V768.813H201.5V769.884C202.206 769.985 202.878 770.192 203.5 770.487V766.813C203.5 764.604 201.709 762.813 199.5 762.813ZM193.571 775.813C193.672 775.107 193.878 774.435 194.174 773.813H192.5V775.813H193.571ZM195.5 771.914C195.915 771.491 196.382 771.121 196.892 770.813H195.5V771.914ZM188.5 766.813C188.5 765.709 189.395 764.813 190.5 764.813H199.5C200.605 764.813 201.5 765.709 201.5 766.813H188.5ZM191.5 770.813V772.813H189.5V770.813H191.5ZM191.5 775.813V773.813H189.5V775.813H191.5ZM194.5 770.813V772.813H192.5V770.813H194.5ZM206.5 776.813C206.5 780.127 203.814 782.813 200.5 782.813C197.186 782.813 194.5 780.127 194.5 776.813C194.5 773.5 197.186 770.813 200.5 770.813C203.814 770.813 206.5 773.5 206.5 776.813ZM200.5 780.813C202.709 780.813 204.5 779.023 204.5 776.813C204.5 774.604 202.709 772.813 200.5 772.813C198.291 772.813 196.5 774.604 196.5 776.813C196.5 779.023 198.291 780.813 200.5 780.813ZM199.5 774.813C199.5 774.261 199.948 773.813 200.5 773.813C201.052 773.813 201.5 774.261 201.5 774.813V775.813H202.5C203.052 775.813 203.5 776.261 203.5 776.813C203.5 777.366 203.052 777.813 202.5 777.813H199.5V774.813Z" fill="#A70719"/>
</g>
<g filter="url(#filter3_i_1_8)">
<path d="M175.413 790.743H178.603V791.783H175.413V790.743ZM175.183 793.963H178.983V795.023H175.183V793.963ZM176.673 794.543H177.823V798.433C177.823 798.983 177.733 799.303 177.353 799.483C176.993 799.673 176.493 799.693 175.813 799.693C175.773 799.353 175.613 798.863 175.453 798.543C175.883 798.553 176.353 798.553 176.493 798.553C176.633 798.553 176.673 798.523 176.673 798.403V794.543ZM178.243 790.743H178.493L178.713 790.683L179.443 791.203C178.953 791.993 178.243 792.903 177.603 793.473C177.443 793.263 177.133 792.933 176.933 792.763C177.433 792.293 177.993 791.493 178.243 790.963V790.743ZM178.633 793.963H178.783L178.943 793.923L179.683 794.093C179.473 794.933 179.193 795.873 178.973 796.473L178.083 796.273C178.263 795.733 178.493 794.833 178.633 794.103V793.963ZM175.593 792.913L176.193 792.123C177.013 792.503 178.073 793.113 178.583 793.593L177.933 794.483C177.453 793.983 176.423 793.323 175.593 792.913ZM179.393 790.713H184.513V791.723H179.393V790.713ZM180.833 794.723V795.363H183.063V794.723H180.833ZM180.833 796.183V796.823H183.063V796.183H180.833ZM180.833 793.273V793.903H183.063V793.273H180.833ZM179.733 792.393H184.213V797.703H179.733V792.393ZM181.343 791.263L182.713 791.413C182.523 792.043 182.313 792.673 182.143 793.103L181.103 792.913C181.203 792.433 181.313 791.753 181.343 791.263ZM180.713 797.713L181.693 798.353C181.143 798.883 180.193 799.443 179.413 799.743C179.223 799.523 178.873 799.163 178.613 798.963C179.393 798.683 180.273 798.143 180.713 797.713ZM182.163 798.383L183.053 797.783C183.613 798.143 184.373 798.693 184.763 799.073L183.823 799.743C183.473 799.373 182.733 798.783 182.163 798.383ZM189.853 794.853L190.813 794.363C191.333 795.053 191.903 795.983 192.123 796.623L191.073 797.163C190.893 796.543 190.363 795.573 189.853 794.853ZM190.183 792.023H193.773V793.153H190.183V792.023ZM193.263 792.023H194.423C194.423 792.023 194.423 792.423 194.413 792.573C194.263 796.983 194.133 798.573 193.713 799.103C193.433 799.483 193.163 799.593 192.743 799.663C192.373 799.713 191.763 799.713 191.173 799.683C191.153 799.343 190.993 798.823 190.773 798.483C191.403 798.533 191.983 798.533 192.243 798.533C192.443 798.533 192.563 798.503 192.673 798.363C193.003 798.023 193.143 796.333 193.263 792.263V792.023ZM190.243 790.313L191.483 790.583C191.063 792.073 190.373 793.543 189.613 794.453C189.373 794.253 188.843 793.893 188.543 793.723C189.303 792.933 189.913 791.623 190.243 790.313ZM186.723 790.333L187.783 790.703C187.373 791.483 186.903 792.373 186.513 792.923L185.703 792.593C186.063 791.993 186.493 791.033 186.723 790.333ZM187.923 791.513L188.933 791.933C188.193 793.083 187.213 794.473 186.443 795.323L185.713 794.953C186.483 794.053 187.393 792.583 187.923 791.513ZM185.183 792.703L185.743 791.873C186.283 792.333 186.903 792.973 187.163 793.413L186.553 794.353C186.303 793.873 185.693 793.183 185.183 792.703ZM187.673 793.923L188.523 793.553C188.923 794.223 189.323 795.093 189.453 795.673L188.543 796.093C188.423 795.523 188.053 794.613 187.673 793.923ZM185.173 794.733C186.103 794.703 187.483 794.643 188.823 794.573V795.523C187.563 795.623 186.263 795.713 185.273 795.773L185.173 794.733ZM187.853 796.433L188.733 796.143C188.993 796.743 189.263 797.523 189.383 798.033L188.443 798.373C188.353 797.853 188.093 797.043 187.853 796.433ZM185.603 796.203L186.593 796.373C186.493 797.333 186.273 798.333 185.983 798.973C185.773 798.843 185.323 798.633 185.073 798.533C185.363 797.943 185.523 797.053 185.603 796.203ZM186.763 795.263H187.833V799.723H186.763V795.263ZM196.5 796.685C196.298 796.685 196.127 796.616 195.987 796.479C195.851 796.339 195.782 796.17 195.782 795.972C195.782 795.773 195.851 795.605 195.987 795.469C196.127 795.329 196.298 795.259 196.5 795.259C196.705 795.259 196.876 795.329 197.013 795.469C197.149 795.605 197.218 795.773 197.218 795.972C197.218 796.17 197.149 796.339 197.013 796.479C196.876 796.616 196.705 796.685 196.5 796.685ZM203.557 795.183H207.307V796.053H203.557V795.183ZM203.557 796.763H207.307V797.643H203.557V796.763ZM203.537 798.343H207.767V799.333H203.537V798.343ZM202.067 791.253H207.717V793.083H206.657V792.263H203.087V793.083H202.067V791.253ZM204.917 794.343H206.017V798.813H204.917V794.343ZM203.927 793.513H207.527V794.513H203.927V799.723H202.807V794.553L203.817 793.513H203.927ZM204.457 790.313L205.597 790.523C205.057 792.693 204.057 794.423 202.587 795.503C202.427 795.273 202.017 794.803 201.777 794.603C203.147 793.703 204.037 792.183 204.457 790.313ZM205.527 792.503L206.637 792.733C206.377 793.283 206.107 793.823 205.887 794.193L204.987 793.963C205.187 793.553 205.417 792.943 205.527 792.503ZM198.547 790.913H202.157V792.003H198.547V790.913ZM199.677 793.853H201.997V798.513H199.677V797.483H200.987V794.893H199.677V793.853ZM199.577 791.493L200.707 791.673C200.407 793.833 199.867 795.953 198.847 797.313C198.737 797.033 198.417 796.423 198.207 796.153C198.987 795.053 199.377 793.323 199.577 791.493ZM199.207 793.853H200.177V799.283H199.207V793.853ZM214.057 791.123H215.137C214.947 792.753 214.507 794.403 212.667 795.373C212.537 795.103 212.227 794.713 211.987 794.523C213.607 793.753 213.907 792.373 214.057 791.123ZM212.327 792.833L212.887 792.003C213.877 792.303 215.047 792.853 215.717 793.283L215.147 794.203C214.497 793.733 213.307 793.143 212.327 792.833ZM216.337 790.713H217.457C217.457 790.713 217.457 791.013 217.447 791.153C217.347 793.433 217.247 794.373 216.977 794.693C216.787 794.943 216.597 795.033 216.307 795.073C216.067 795.113 215.657 795.113 215.217 795.103C215.207 794.773 215.087 794.323 214.927 794.033C215.267 794.063 215.567 794.063 215.717 794.063C215.847 794.073 215.937 794.043 216.017 793.943C216.177 793.753 216.267 792.993 216.337 790.893V790.713ZM213.427 796.103H214.527V798.293C214.527 798.573 214.547 798.603 214.737 798.603C214.827 798.603 215.157 798.603 215.257 798.603C215.447 798.603 215.487 798.483 215.517 797.553C215.727 797.733 216.197 797.903 216.497 797.983C216.387 799.303 216.097 799.643 215.377 799.643C215.197 799.643 214.737 799.643 214.547 799.643C213.617 799.643 213.427 799.313 213.427 798.313V796.103ZM212.407 796.493L213.347 796.743C213.257 797.643 213.067 798.593 212.587 799.183L211.707 798.643C212.117 798.143 212.317 797.313 212.407 796.493ZM213.647 795.413L214.337 794.723C214.977 795.043 215.767 795.563 216.137 795.983L215.397 796.763C215.047 796.353 214.287 795.783 213.647 795.413ZM215.857 796.653L216.827 796.263C217.347 797.023 217.787 798.043 217.917 798.753L216.867 799.183C216.757 798.483 216.347 797.423 215.857 796.653ZM212.457 790.713H216.847V791.713H212.457V790.713ZM208.827 793.393H211.757V794.293H208.827V793.393ZM208.857 790.633H211.727V791.543H208.857V790.633ZM208.827 794.753H211.757V795.663H208.827V794.753ZM208.367 791.983H212.027V792.933H208.367V791.983ZM209.347 796.143H211.767V799.183H209.347V798.233H210.767V797.093H209.347V796.143ZM208.807 796.143H209.787V799.583H208.807V796.143Z" fill="#A70719"/>
</g>
</g>
</g>
<rect width="393" height="54" fill="white"/>
<path d="M57.6906 23.0628C58.3325 23.0628 58.9412 23.1817 59.5167 23.4197C60.0922 23.6521 60.6014 24.0174 61.0441 24.5154C61.4923 25.0079 61.8437 25.6415 62.0983 26.4163C62.3528 27.1855 62.4801 28.1124 62.4801 29.197V29.2136C62.4801 30.5584 62.2864 31.7094 61.899 32.6668C61.5117 33.6241 60.9555 34.3601 60.2306 34.8748C59.5112 35.3839 58.6507 35.6385 57.649 35.6385C56.913 35.6385 56.249 35.5056 55.6569 35.24C55.0703 34.9689 54.5833 34.5981 54.1959 34.1277C53.8141 33.6518 53.5568 33.1095 53.424 32.5008L53.4073 32.4094H55.5074L55.5406 32.4925C55.6458 32.7691 55.7952 33.0126 55.9889 33.2229C56.1881 33.4332 56.4261 33.5965 56.7028 33.7127C56.985 33.8233 57.3004 33.8787 57.649 33.8787C58.2799 33.8787 58.7946 33.6933 59.193 33.3225C59.597 32.9462 59.8986 32.4454 60.0978 31.8201C60.3025 31.1892 60.4187 30.492 60.4464 29.7283C60.4519 29.6453 60.4547 29.565 60.4547 29.4876C60.4547 29.4046 60.4547 29.3243 60.4547 29.2468L60.0812 27.2464C60.0812 26.7926 59.976 26.3803 59.7657 26.0095C59.5555 25.6388 59.2705 25.3455 58.9108 25.1297C58.5566 24.9138 58.1554 24.8059 57.7072 24.8059C57.2755 24.8059 56.8798 24.9111 56.5201 25.1214C56.1604 25.3316 55.8727 25.6194 55.6569 25.9846C55.441 26.3443 55.3331 26.7483 55.3331 27.1966V27.2132C55.3331 27.678 55.4355 28.0903 55.6403 28.45C55.845 28.8041 56.1245 29.0836 56.4786 29.2884C56.8328 29.4931 57.2368 29.5955 57.6906 29.5955C58.1443 29.5955 58.5511 29.4959 58.9108 29.2967C59.2705 29.0974 59.5555 28.8207 59.7657 28.4666C59.976 28.1124 60.0812 27.7112 60.0812 27.263V27.2464H60.5792V29.4544H60.2887C60.1448 29.7698 59.9318 30.0631 59.6495 30.3343C59.3673 30.6054 59.0187 30.824 58.6036 30.99C58.1941 31.156 57.7127 31.239 57.1593 31.239C56.3956 31.239 55.7205 31.0675 55.1339 30.7244C54.5473 30.3813 54.0852 29.9109 53.7477 29.3133C53.4156 28.7156 53.2496 28.0405 53.2496 27.2879V27.2713C53.2496 26.4578 53.4378 25.7356 53.8141 25.1048C54.1959 24.4684 54.7216 23.9703 55.3912 23.6106C56.0664 23.2454 56.8328 23.0628 57.6906 23.0628ZM66.2487 33.7293C65.8724 33.7293 65.5569 33.6048 65.3024 33.3557C65.0533 33.1012 64.9288 32.7913 64.9288 32.426C64.9288 32.0553 65.0533 31.7454 65.3024 31.4964C65.5569 31.2418 65.8724 31.1145 66.2487 31.1145C66.6305 31.1145 66.9459 31.2418 67.1949 31.4964C67.444 31.7454 67.5685 32.0553 67.5685 32.426C67.5685 32.7913 67.444 33.1012 67.1949 33.3557C66.9459 33.6048 66.6305 33.7293 66.2487 33.7293ZM66.2487 27.5701C65.8724 27.5701 65.5569 27.4456 65.3024 27.1966C65.0533 26.942 64.9288 26.6321 64.9288 26.2669C64.9288 25.8961 65.0533 25.5862 65.3024 25.3372C65.5569 25.0826 65.8724 24.9553 66.2487 24.9553C66.6305 24.9553 66.9459 25.0826 67.1949 25.3372C67.444 25.5862 67.5685 25.8961 67.5685 26.2669C67.5685 26.6321 67.444 26.942 67.1949 27.1966C66.9459 27.4456 66.6305 27.5701 66.2487 27.5701ZM75.8278 35.3396V33.0403H69.9674V31.2888C70.2828 30.7521 70.5983 30.2125 70.9137 29.6702C71.2347 29.1279 71.5584 28.5883 71.8849 28.0515C72.2169 27.5092 72.5462 26.9752 72.8727 26.4495C73.2047 25.9182 73.534 25.3953 73.8605 24.8806C74.1925 24.3605 74.5245 23.8541 74.8566 23.3616H77.8698V31.2722H79.4884V33.0403H77.8698V35.3396H75.8278ZM71.9596 31.322H75.861V25.0716H75.7365C75.493 25.4479 75.2412 25.8352 74.9811 26.2337C74.7265 26.6321 74.4692 27.0388 74.2091 27.4539C73.949 27.8689 73.6917 28.2867 73.4371 28.7073C73.1826 29.1223 72.9308 29.5401 72.6818 29.9607C72.4327 30.3758 72.192 30.788 71.9596 31.1975V31.322ZM84.444 35.3396V25.47H84.2946L81.3146 27.5701V25.5613L84.444 23.3616H86.5773V35.3396H84.444Z" fill="black"/>
<rect opacity="0.35" x="334" y="23.5" width="24" height="12" rx="3.8" stroke="black"/>
<path opacity="0.4" d="M359.5 27.7811V31.8566C360.305 31.5114 360.828 30.7085 360.828 29.8189C360.828 28.9293 360.305 28.1263 359.5 27.7811Z" fill="black"/>
<rect x="335.5" y="25" width="21" height="9" rx="2.5" fill="black"/>
<path fill-rule="evenodd" clip-rule="evenodd" d="M317.771 26.104C320.258 26.1041 322.65 27.0262 324.452 28.6797C324.588 28.8074 324.805 28.8058 324.939 28.6761L326.236 27.4126C326.304 27.3469 326.341 27.2578 326.341 27.1651C326.34 27.0724 326.302 26.9838 326.233 26.9188C321.502 22.5441 314.038 22.5441 309.307 26.9188C309.239 26.9837 309.2 27.0724 309.199 27.165C309.199 27.2577 309.236 27.3468 309.304 27.4126L310.602 28.6761C310.735 28.8059 310.952 28.8076 311.088 28.6797C312.891 27.0261 315.283 26.104 317.771 26.104ZM317.767 30.3243C319.124 30.3242 320.433 30.836 321.439 31.7601C321.576 31.8913 321.79 31.8884 321.923 31.7537L323.21 30.4344C323.278 30.3652 323.315 30.2713 323.314 30.1738C323.313 30.0762 323.274 29.9831 323.205 29.9153C320.141 27.0245 315.396 27.0245 312.332 29.9153C312.263 29.9831 312.224 30.0762 312.223 30.1738C312.222 30.2714 312.26 30.3653 312.327 30.4344L313.614 31.7537C313.747 31.8884 313.961 31.8913 314.097 31.7601C315.103 30.8366 316.411 30.3249 317.767 30.3243ZM320.292 33.1179C320.294 33.2232 320.256 33.3248 320.189 33.3986L318.012 35.8533C317.949 35.9255 317.862 35.9661 317.771 35.9661C317.68 35.9661 317.593 35.9255 317.529 35.8533L315.352 33.3986C315.285 33.3247 315.248 33.2231 315.25 33.1178C315.252 33.0124 315.293 32.9127 315.363 32.842C316.753 31.5282 318.789 31.5282 320.179 32.842C320.249 32.9127 320.29 33.0125 320.292 33.1179Z" fill="black"/>
<path fill-rule="evenodd" clip-rule="evenodd" d="M301.7 24.6821C301.7 24.049 301.222 23.5358 300.633 23.5358H299.567C298.978 23.5358 298.5 24.049 298.5 24.6821V34.616C298.5 35.2491 298.978 35.7622 299.567 35.7622H300.633C301.222 35.7622 301.7 35.2491 301.7 34.616V24.6821ZM294.266 25.9811H295.333C295.922 25.9811 296.399 26.5066 296.399 27.1548V34.5885C296.399 35.2367 295.922 35.7622 295.333 35.7622H294.266C293.677 35.7622 293.199 35.2367 293.199 34.5885V27.1548C293.199 26.5066 293.677 25.9811 294.266 25.9811ZM289.934 28.6302H288.867C288.278 28.6302 287.801 29.1623 287.801 29.8188V34.5735C287.801 35.23 288.278 35.7622 288.867 35.7622H289.934C290.523 35.7622 291.001 35.23 291.001 34.5735V29.8188C291.001 29.1623 290.523 28.6302 289.934 28.6302ZM284.633 31.0754H283.567C282.978 31.0754 282.5 31.6 282.5 32.2471V34.5905C282.5 35.2377 282.978 35.7622 283.567 35.7622H284.633C285.222 35.7622 285.7 35.2377 285.7 34.5905V32.2471C285.7 31.6 285.222 31.0754 284.633 31.0754Z" fill="black"/>
<mask id="path-20-inside-1_1_8" fill="white">
<path d="M0 54H393V102H0V54Z"/>
</mask>
<path d="M0 54H393V102H0V54Z" fill="white"/>
<path d="M393 101.67H0V102.33H393V101.67Z" fill="black" fill-opacity="0.3" mask="url(#path-20-inside-1_1_8)"/>
<path fill-rule="evenodd" clip-rule="evenodd" d="M17.3965 85.6818L10.3254 78.7682C9.89152 78.3439 9.89152 77.6561 10.3254 77.2318L17.3965 70.3182C17.8304 69.8939 18.5339 69.8939 18.9679 70.3182C19.4018 70.7424 19.4018 71.4303 18.9679 71.8546L13.7936 76.9136H28.8889C29.5025 76.9136 30 77.4 30 78C30 78.6 29.5025 79.0864 28.8889 79.0864H13.7936L18.9679 84.1454C19.4018 84.5697 19.4018 85.2576 18.9679 85.6818C18.5339 86.1061 17.8304 86.1061 17.3965 85.6818Z" fill="#A70719"/>
<path d="M174.468 71.08L175.998 70.026C176.933 70.825 178.038 71.964 178.548 72.763L176.899 73.919C176.457 73.103 175.386 71.913 174.468 71.08ZM163.333 74.395H178.684V76.333H163.333V74.395ZM163.01 79.206C165.067 78.9 168.297 78.339 171.272 77.795L171.425 79.648C168.671 80.226 165.713 80.821 163.52 81.263L163.01 79.206ZM166.563 71.658H168.62V83.15C168.62 84.255 168.399 84.816 167.702 85.139C167.022 85.462 166.019 85.53 164.625 85.53C164.54 84.952 164.2 84.034 163.894 83.456C164.863 83.507 165.849 83.507 166.155 83.49C166.461 83.49 166.563 83.405 166.563 83.116V71.658ZM170.048 69.669L171.425 71.403C169.215 72.083 166.308 72.542 163.843 72.814C163.741 72.338 163.486 71.573 163.248 71.114C165.645 70.791 168.297 70.264 170.048 69.669ZM171.714 69.703H173.856C173.737 76.554 175.267 83.524 176.814 83.524C177.171 83.524 177.358 82.691 177.46 80.668C177.885 81.144 178.582 81.62 179.126 81.841C178.803 84.85 178.157 85.598 176.61 85.598C173.091 85.598 171.765 77.336 171.714 69.703ZM176.338 76.894L178.14 77.659C176.372 80.821 173.601 83.354 170.524 84.986C170.218 84.476 169.657 83.796 169.147 83.337C172.054 82.011 174.825 79.699 176.338 76.894ZM181.931 72.321H187.15V83.779H181.931V81.977H185.297V74.106H181.931V72.321ZM180.741 72.321H182.594V85.037H180.741V72.321ZM181.846 76.86H186.198V78.628H181.846V76.86ZM183.155 69.55L185.382 69.873C184.991 71.029 184.566 72.236 184.226 73.035L182.594 72.678C182.832 71.794 183.07 70.485 183.155 69.55ZM189.394 72.202H194.358V74.055H189.394V72.202ZM193.661 72.202H195.548C195.548 72.202 195.548 72.865 195.531 73.12C195.31 80.77 195.106 83.473 194.409 84.374C193.933 85.037 193.457 85.224 192.76 85.326C192.114 85.428 191.077 85.411 190.091 85.36C190.057 84.799 189.785 83.932 189.411 83.388C190.516 83.473 191.536 83.49 191.961 83.49C192.301 83.49 192.488 83.422 192.709 83.184C193.253 82.606 193.474 79.682 193.661 72.593V72.202ZM189.445 69.567L191.4 70.026C190.737 72.542 189.632 75.126 188.476 76.758C188.102 76.418 187.269 75.84 186.793 75.568C187.932 74.14 188.901 71.828 189.445 69.567ZM188.612 77.098L190.21 76.197C191.043 77.37 192.165 79.002 192.692 80.005L190.958 81.059C190.499 80.022 189.428 78.356 188.612 77.098ZM205.425 77.608H212.378V85.445H210.44V79.444H207.278V85.513H205.425V77.608ZM207.686 69.584H209.675V78.101H207.686V69.584ZM208.876 73.086H212.973V74.973H208.876V73.086ZM206.394 83.014H211.341V84.867H206.394V83.014ZM199.135 71.454V75.16H203.266V71.454H199.135ZM197.622 70.077H204.847V76.537H197.622V70.077ZM199.101 72.185L199.934 71.93C200.206 72.712 200.427 73.732 200.478 74.378L199.594 74.667C199.56 73.987 199.356 72.967 199.101 72.185ZM199.509 81.926L200.75 81.773C200.971 82.725 201.107 83.949 201.107 84.765L199.798 84.918C199.832 84.102 199.696 82.878 199.509 81.926ZM201.209 81.858L202.416 81.637C202.756 82.521 203.079 83.677 203.164 84.442L201.906 84.714C201.838 83.949 201.532 82.759 201.209 81.858ZM202.875 81.705L204.082 81.263C204.643 82.079 205.187 83.167 205.391 83.915L204.116 84.442C203.912 83.694 203.385 82.555 202.875 81.705ZM198.03 81.824L199.39 82.232C199.186 83.456 198.88 84.748 198.183 85.53L196.857 84.85C197.486 84.136 197.86 82.946 198.03 81.824ZM202.433 71.913L203.453 72.27C203.13 73.086 202.79 74.072 202.501 74.684L201.753 74.412C201.991 73.715 202.297 72.627 202.433 71.913ZM197.214 79.716C199.203 79.665 202.212 79.563 205.085 79.444L205.034 81.025C202.263 81.195 199.356 81.331 197.282 81.433L197.214 79.716ZM197.639 77.268H204.796V78.815H197.639V77.268ZM200.546 70.774H201.787V75.908H202.059V80.345H200.274V75.908H200.546V70.774ZM224.329 72.678H229.973V74.548H224.329V72.678ZM224.499 69.55L226.454 69.839C225.961 73.341 225.077 76.741 223.581 78.883C223.309 78.509 222.561 77.744 222.136 77.404C223.445 75.568 224.142 72.61 224.499 69.55ZM227.253 73.766L229.14 73.919C228.545 79.546 227.117 83.303 223.343 85.598C223.173 85.173 222.595 84.323 222.255 83.932C225.621 82.079 226.828 78.679 227.253 73.766ZM225.4 74.242C225.978 78.543 227.236 82.266 230.075 83.949C229.633 84.306 229.021 85.071 228.732 85.564C225.638 83.507 224.363 79.512 223.666 74.48L225.4 74.242ZM217.75 69.567H219.501V78.645H217.75V69.567ZM216.764 71.692V74.157H220.572V71.692H216.764ZM215.098 70.4H222.34V75.449H215.098V70.4ZM216.424 77.217V77.914H220.912V77.217H216.424ZM214.741 75.976H222.68V79.138H214.741V75.976ZM214.061 79.852C216.441 79.852 220.062 79.801 223.462 79.75L223.411 81.178C220.045 81.263 216.492 81.314 214.112 81.348L214.061 79.852ZM217.342 78.781L219.025 79.172C218.294 80.549 217.325 82.181 216.645 83.252L214.996 82.844C215.71 81.773 216.679 80.09 217.342 78.781ZM216.305 82.844L217.274 81.671C219.229 82.334 221.337 83.32 222.561 84.102L221.303 85.343C220.181 84.544 218.209 83.541 216.305 82.844ZM220.249 80.566L221.949 80.753C221.252 83.779 219.212 84.935 215.166 85.598C215.064 85.071 214.741 84.425 214.452 84.034C217.886 83.728 219.603 82.895 220.249 80.566ZM214.01 72.185H215.727V72.304H221.507V72.185H223.462V73.647H221.507V73.528H215.727V73.647H214.01V72.185Z" fill="#A70719"/>
<rect x="16" y="118" width="361" height="121" rx="10" fill="white"/>
<path d="M106.56 140.02L107.7 139.24C108.88 140.24 110.28 141.66 110.94 142.58L109.7 143.46C109.1 142.5 107.74 141.06 106.56 140.02ZM93.6 144.62H111.42V146.06H93.6V144.62ZM93.3 150.5C95.68 150.06 99.44 149.26 102.96 148.5L103.08 149.86C99.8 150.62 96.26 151.44 93.74 152L93.3 150.5ZM97.9 140.74H99.4V155.18C99.4 156.16 99.16 156.6 98.52 156.84C97.88 157.08 96.82 157.14 95.16 157.12C95.08 156.72 94.82 156.04 94.6 155.6C95.88 155.66 97.06 155.64 97.42 155.62C97.78 155.62 97.9 155.52 97.9 155.16V140.74ZM101.7 138.94L102.76 140.2C100.44 141 97.04 141.62 94.18 142.02C94.1 141.68 93.92 141.12 93.72 140.78C96.54 140.34 99.78 139.66 101.7 138.94ZM103.7 138.88H105.26C105.22 148.06 107.18 155.66 109.62 155.66C110.16 155.66 110.4 154.62 110.52 152.04C110.84 152.38 111.38 152.72 111.8 152.88C111.52 156.2 110.98 157.18 109.48 157.18C105.56 157.18 103.78 148.4 103.7 138.88ZM109.12 146.98L110.46 147.54C108.5 151.2 105.2 154.42 101.52 156.36C101.28 155.98 100.86 155.5 100.48 155.16C104.04 153.44 107.34 150.36 109.12 146.98ZM115.12 141.92H121.2V155H115.12V153.64H119.8V143.26H115.12V141.92ZM114.22 141.92H115.62V156.6H114.22V141.92ZM115.02 147.48H120.54V148.82H115.02V147.48ZM117.28 138.66L118.9 138.96C118.5 140.2 118 141.58 117.6 142.48L116.4 142.18C116.74 141.22 117.12 139.7 117.28 138.66ZM124.04 141.86H130.18V143.26H124.04V141.86ZM129.66 141.86H131.06C131.06 141.86 131.06 142.42 131.06 142.64C130.74 151.82 130.46 154.92 129.66 155.9C129.22 156.48 128.76 156.66 128.06 156.72C127.38 156.8 126.2 156.76 125.08 156.7C125.04 156.26 124.86 155.64 124.58 155.24C125.88 155.34 127.08 155.36 127.54 155.36C127.94 155.36 128.18 155.3 128.4 155.04C129.06 154.32 129.38 151 129.66 142.18V141.86ZM124.46 138.62L125.9 138.96C125.16 141.94 123.98 144.88 122.6 146.78C122.34 146.54 121.72 146.12 121.36 145.92C122.72 144.16 123.82 141.4 124.46 138.62ZM123.54 147.06L124.7 146.38C125.84 147.8 127.22 149.74 127.86 150.92L126.58 151.72C125.98 150.5 124.64 148.52 123.54 147.06ZM141.72 139.9H143.2V145.78H141.72V139.9ZM141.7 151.94H143.2V157.1H141.7V151.94ZM140.8 145.8L142.18 146.44C141.04 147.44 139.58 148.5 138.46 149.2L137.42 148.6C138.54 147.86 139.98 146.66 140.8 145.8ZM145.54 146.72L146.86 147.46C144.46 149.18 141.18 151.1 138.6 152.32L137.62 151.62C140.18 150.38 143.56 148.3 145.54 146.72ZM135.42 148.32L136.48 147.52C138.04 148.26 140.02 149.42 141.04 150.28L139.92 151.18C138.96 150.34 137 149.12 135.42 148.32ZM145.2 150.04L146.3 149.28C148.1 150.18 150.3 151.6 151.42 152.64L150.26 153.48C149.2 152.44 147.02 150.98 145.2 150.04ZM145.12 153.96L146.22 153.18C147.88 153.94 150.06 155.18 151.2 156.06L150.04 156.94C149 156.08 146.84 154.78 145.12 153.96ZM133.84 151.5C137.56 151.5 143.6 151.4 149.28 151.28L149.2 152.42C143.64 152.58 137.68 152.72 133.9 152.76L133.84 151.5ZM138.22 153.22L139.56 153.74C138.28 154.96 136.3 156.16 134.64 156.94C134.4 156.68 133.84 156.18 133.5 155.94C135.2 155.28 137.06 154.26 138.22 153.22ZM136.56 143.46V145.22H148.46V143.46H136.56ZM136.56 140.6V142.32H148.46V140.6H136.56ZM135.14 139.4H149.94V146.42H135.14V139.4ZM156.58 140.36H158.04V157.06H156.58V140.36ZM153.5 144.26H160.32V145.68H153.5V144.26ZM156.68 144.88L157.62 145.28C156.82 148.1 155.26 151.6 153.74 153.46C153.58 153.04 153.22 152.42 152.98 152.08C154.4 150.48 155.98 147.36 156.68 144.88ZM159.54 139L160.58 140.16C158.78 140.86 156.08 141.38 153.84 141.64C153.78 141.34 153.56 140.82 153.38 140.48C155.56 140.16 158.12 139.62 159.54 139ZM157.9 146.8C158.42 147.24 160.28 149.16 160.7 149.64L159.8 150.82C159.32 150.02 157.82 148.1 157.2 147.42L157.9 146.8ZM165.12 138.72H166.6V144.78H165.12V138.72ZM160.82 139.82H171.18V140.84H160.82V139.82ZM161.28 141.86H170.66V142.86H161.28V141.86ZM160.22 143.92H171.68V144.96H160.22V143.92ZM162.92 149.26V150.58H169.12V149.26H162.92ZM162.92 151.54V152.86H169.12V151.54H162.92ZM162.92 147.02V148.28H169.12V147.02H162.92ZM161.56 145.98H170.54V153.9H161.56V145.98ZM166.98 154.8L168.02 154.06C169.36 154.82 170.92 155.74 171.84 156.4L170.52 157.14C169.7 156.52 168.28 155.56 166.98 154.8ZM163.82 154L165.08 154.76C163.88 155.72 161.94 156.68 160.3 157.2C160.08 156.9 159.62 156.46 159.32 156.22C160.96 155.72 162.88 154.8 163.82 154ZM183.06 148.22H190.92V157.02H189.48V149.6H184.44V157.1H183.06V148.22ZM185.96 138.74H187.44V148.66H185.96V138.74ZM186.82 143.08H191.72V144.48H186.82V143.08ZM183.78 154.78H190.18V156.16H183.78V154.78ZM175.22 140.54V145.38H180.72V140.54H175.22ZM174.04 139.44H181.94V146.48H174.04V139.44ZM175.5 141.52L176.26 141.32C176.6 142.3 176.86 143.56 176.92 144.36L176.14 144.6C176.1 143.76 175.84 142.5 175.5 141.52ZM176.18 152.98L177.16 152.84C177.48 153.94 177.68 155.38 177.7 156.32L176.66 156.46C176.66 155.52 176.46 154.08 176.18 152.98ZM178.1 152.86L179.06 152.66C179.52 153.66 179.96 155 180.1 155.88L179.08 156.1C178.96 155.22 178.54 153.88 178.1 152.86ZM180 152.58L180.94 152.22C181.66 153.14 182.38 154.38 182.68 155.2L181.68 155.66C181.38 154.8 180.68 153.52 180 152.58ZM174.48 152.9L175.54 153.18C175.34 154.66 175.02 156.22 174.16 157.12L173.14 156.56C173.92 155.74 174.3 154.28 174.48 152.9ZM179.6 141.26L180.48 141.6C180.12 142.62 179.72 143.92 179.38 144.72L178.72 144.46C179.02 143.6 179.42 142.18 179.6 141.26ZM173.46 150.78C175.68 150.68 179.08 150.52 182.4 150.32L182.36 151.52C179.16 151.76 175.84 151.96 173.54 152.1L173.46 150.78ZM173.9 147.84H182.08V149.06H173.9V147.84ZM177.4 139.96H178.42V145.96H178.58V151.12H177.24V145.96H177.4V139.96ZM205.24 142.42H211.7V143.82H205.24V142.42ZM205.64 138.7L207.1 138.92C206.52 142.72 205.56 146.4 204.06 148.78C203.84 148.52 203.26 147.98 202.92 147.74C204.34 145.56 205.18 142.16 205.64 138.7ZM209.18 143.16L210.6 143.3C209.78 149.94 208.02 154.36 203.68 157.16C203.54 156.84 203.1 156.22 202.84 155.92C206.9 153.52 208.5 149.26 209.18 143.16ZM205.98 143.68C206.74 149.16 208.4 153.92 211.8 155.94C211.46 156.22 211 156.76 210.76 157.12C207.22 154.8 205.56 149.86 204.7 143.88L205.98 143.68ZM197.92 138.7H199.26V149.2H197.92V138.7ZM195.94 140.98V144.32H201.4V140.98H195.94ZM194.66 139.92H202.72V145.38H194.66V139.92ZM195.46 147.32V148.62H201.86V147.32H195.46ZM194.16 146.3H203.2V149.64H194.16V146.3ZM193.3 150.92C196 150.92 200.2 150.86 204.26 150.78L204.2 151.92C200.22 152.02 196.08 152.08 193.34 152.12L193.3 150.92ZM197.3 149.32L198.58 149.62C197.74 151.24 196.6 153.24 195.8 154.54L194.56 154.18C195.38 152.9 196.52 150.86 197.3 149.32ZM195.7 153.82L196.44 152.92C198.78 153.72 201.24 154.86 202.7 155.84L201.74 156.78C200.36 155.8 198.02 154.66 195.7 153.82ZM200.9 151.4L202.2 151.62C201.4 154.88 198.92 156.4 194.36 157.18C194.28 156.8 194.02 156.3 193.78 156C197.92 155.5 200.16 154.22 200.9 151.4ZM193.28 142.06H195.2V142.14H202.1V142.06H204.14V143.22H202.1V143.14H195.2V143.22H193.28V142.06Z" fill="#3C3C43" fill-opacity="0.6"/>
<path d="M260.211 157.316C258.836 157.316 257.652 156.961 256.66 156.25C255.676 155.531 254.918 154.52 254.387 153.215C253.863 151.902 253.602 150.348 253.602 148.551V148.527C253.602 146.73 253.863 145.18 254.387 143.875C254.918 142.562 255.676 141.551 256.66 140.84C257.652 140.129 258.836 139.773 260.211 139.773C261.578 139.773 262.754 140.129 263.738 140.84C264.73 141.551 265.492 142.562 266.023 143.875C266.555 145.18 266.82 146.73 266.82 148.527V148.551C266.82 150.348 266.555 151.902 266.023 153.215C265.492 154.52 264.73 155.531 263.738 156.25C262.754 156.961 261.578 157.316 260.211 157.316ZM260.211 154.855C260.961 154.855 261.602 154.602 262.133 154.094C262.664 153.586 263.07 152.863 263.352 151.926C263.633 150.98 263.773 149.855 263.773 148.551V148.527C263.773 147.215 263.633 146.094 263.352 145.164C263.07 144.227 262.664 143.508 262.133 143.008C261.602 142.5 260.961 142.246 260.211 142.246C259.453 142.246 258.809 142.5 258.277 143.008C257.746 143.508 257.34 144.227 257.059 145.164C256.785 146.094 256.648 147.215 256.648 148.527V148.551C256.648 149.855 256.785 150.98 257.059 151.926C257.34 152.863 257.746 153.586 258.277 154.094C258.809 154.602 259.453 154.855 260.211 154.855ZM288.522 147.976H298.338V159.04H295.602V150.568H291.138V159.136H288.522V147.976ZM291.714 136.648H294.522V148.672H291.714V136.648ZM293.394 141.592H299.178V144.256H293.394V141.592ZM289.89 155.608H296.874V158.224H289.89V155.608ZM279.642 139.288V144.52H285.474V139.288H279.642ZM277.506 137.344H287.706V146.464H277.506V137.344ZM279.594 140.32L280.77 139.96C281.154 141.064 281.466 142.504 281.538 143.416L280.29 143.824C280.242 142.864 279.954 141.424 279.594 140.32ZM280.17 154.072L281.922 153.856C282.234 155.2 282.426 156.928 282.426 158.08L280.578 158.296C280.626 157.144 280.434 155.416 280.17 154.072ZM282.57 153.976L284.274 153.664C284.754 154.912 285.21 156.544 285.33 157.624L283.554 158.008C283.458 156.928 283.026 155.248 282.57 153.976ZM284.922 153.76L286.626 153.136C287.418 154.288 288.186 155.824 288.474 156.88L286.674 157.624C286.386 156.568 285.642 154.96 284.922 153.76ZM278.082 153.928L280.002 154.504C279.714 156.232 279.282 158.056 278.298 159.16L276.426 158.2C277.314 157.192 277.842 155.512 278.082 153.928ZM284.298 139.936L285.738 140.44C285.282 141.592 284.802 142.984 284.394 143.848L283.338 143.464C283.674 142.48 284.106 140.944 284.298 139.936ZM276.93 150.952C279.738 150.88 283.986 150.736 288.042 150.568L287.97 152.8C284.058 153.04 279.954 153.232 277.026 153.376L276.93 150.952ZM277.53 147.496H287.634V149.68H277.53V147.496ZM281.634 138.328H283.386V145.576H283.77V151.84H281.25V145.576H281.634V138.328Z" fill="#A70719"/>
<rect x="32" y="187" width="329" height="44" rx="8" fill="#A70719"/>
<path d="M147.124 210.958H158.876V212.206H147.124V210.958ZM149.62 206.122H157.498V207.136H149.62V206.122ZM149.62 207.682H157.511V208.696H149.62V207.682ZM149.308 204.367H158.148V205.589H149.308V204.367ZM152.545 205.134H154.04V209.697H152.545V205.134ZM152.181 210.126H153.741V215.157H152.181V210.126ZM152.064 211.478L153.234 212.05C151.895 213.376 149.659 214.52 147.683 215.092C147.462 214.702 147.02 214.13 146.682 213.805C148.658 213.389 150.907 212.479 152.064 211.478ZM153.91 211.439C155.028 212.427 157.225 213.337 159.175 213.766C158.85 214.078 158.421 214.65 158.2 215.027C156.237 214.468 154.053 213.324 152.727 212.024L153.91 211.439ZM153.195 202.963L154.95 203.171C154.534 203.951 154.066 204.679 153.702 205.186L152.324 204.913C152.649 204.354 153.013 203.548 153.195 202.963ZM149.867 202.937L151.466 203.249C150.595 204.77 149.451 206.265 147.852 207.552C147.605 207.201 147.098 206.72 146.747 206.499C148.203 205.446 149.269 204.081 149.867 202.937ZM148.606 205.16H150.088V209.255H158.525V210.438H148.606V205.16ZM166.325 209.112H171.642V215.105H170.16V210.516H167.742V215.157H166.325V209.112ZM168.054 202.976H169.575V209.489H168.054V202.976ZM168.964 205.654H172.097V207.097H168.964V205.654ZM167.066 213.246H170.849V214.663H167.066V213.246ZM161.515 204.406V207.24H164.674V204.406H161.515ZM160.358 203.353H165.883V208.293H160.358V203.353ZM161.489 204.965L162.126 204.77C162.334 205.368 162.503 206.148 162.542 206.642L161.866 206.863C161.84 206.343 161.684 205.563 161.489 204.965ZM161.801 212.414L162.75 212.297C162.919 213.025 163.023 213.961 163.023 214.585L162.022 214.702C162.048 214.078 161.944 213.142 161.801 212.414ZM163.101 212.362L164.024 212.193C164.284 212.869 164.531 213.753 164.596 214.338L163.634 214.546C163.582 213.961 163.348 213.051 163.101 212.362ZM164.375 212.245L165.298 211.907C165.727 212.531 166.143 213.363 166.299 213.935L165.324 214.338C165.168 213.766 164.765 212.895 164.375 212.245ZM160.67 212.336L161.71 212.648C161.554 213.584 161.32 214.572 160.787 215.17L159.773 214.65C160.254 214.104 160.54 213.194 160.67 212.336ZM164.037 204.757L164.817 205.03C164.57 205.654 164.31 206.408 164.089 206.876L163.517 206.668C163.699 206.135 163.933 205.303 164.037 204.757ZM160.046 210.724C161.567 210.685 163.868 210.607 166.065 210.516L166.026 211.725C163.907 211.855 161.684 211.959 160.098 212.037L160.046 210.724ZM160.371 208.852H165.844V210.035H160.371V208.852ZM162.594 203.886H163.543V207.812H163.751V211.205H162.386V207.812H162.594V203.886ZM179.585 210.282H181.197V213.168C181.197 213.584 181.275 213.649 181.743 213.649C181.951 213.649 182.822 213.649 183.095 213.649C183.537 213.649 183.602 213.415 183.667 211.972C183.992 212.219 184.668 212.479 185.084 212.583C184.928 214.559 184.499 215.079 183.238 215.079C182.913 215.079 181.821 215.079 181.509 215.079C179.962 215.079 179.585 214.611 179.585 213.181V210.282ZM176.582 210.789H178.233C177.934 212.947 177.154 214.403 173.657 215.196C173.514 214.806 173.111 214.169 172.812 213.844C175.854 213.298 176.335 212.297 176.582 210.789ZM176.374 207.838V209.58H181.613V207.838H176.374ZM174.866 206.447H183.225V210.971H174.866V206.447ZM177.752 203.275H181.262V204.679H177.752V203.275ZM175.932 203.808L177.505 204.315C176.699 205.784 175.347 207.188 174.073 208.059C173.8 207.734 173.215 207.123 172.851 206.837C174.099 206.161 175.282 205.017 175.932 203.808ZM180.027 203.275H181.704C182.393 204.64 183.758 206.018 185.227 206.759C184.85 207.032 184.278 207.604 184.005 207.981C182.51 207.032 181.171 205.511 180.365 204.055H180.027V203.275ZM191.961 202.937L193.404 203.158C192.845 204.562 192.026 205.888 190.596 206.954C190.375 206.629 189.894 206.187 189.569 205.992C190.83 205.147 191.597 203.99 191.961 202.937ZM192.325 203.886H194.873V205.082H191.61L192.325 203.886ZM192.533 206.902H193.638C193.547 208.163 193.274 209.047 192.13 209.593C192 209.32 191.701 208.943 191.467 208.761C192.299 208.397 192.494 207.799 192.533 206.902ZM194.132 206.954H195.263V208.02C195.263 208.254 195.276 208.28 195.471 208.28C195.549 208.28 195.874 208.28 195.965 208.28C196.121 208.28 196.173 208.241 196.199 208.124C196.407 208.28 196.849 208.436 197.161 208.488C197.044 209.06 196.732 209.242 196.134 209.242C195.952 209.242 195.471 209.242 195.289 209.242C194.327 209.242 194.132 208.969 194.132 208.02V206.954ZM189.842 210.75H197.941V212.037H189.842V210.75ZM194.678 211.179C195.133 212.661 196.173 213.545 198.149 213.844C197.824 214.13 197.447 214.741 197.265 215.131C194.964 214.65 193.911 213.428 193.326 211.322L194.678 211.179ZM191.714 206.018H196.524V207.24H191.714V210.347H190.414V206.018H191.714ZM196.186 206.018H197.512V210.321H196.186V206.018ZM194.366 203.886H194.678L194.899 203.834L195.887 204.458C195.51 205.251 194.886 206.252 194.405 206.889C194.119 206.681 193.664 206.395 193.352 206.239C193.742 205.654 194.171 204.718 194.366 204.146V203.886ZM193.157 209.684H194.574C194.379 212.622 193.794 214.338 190.024 215.209C189.894 214.845 189.543 214.286 189.257 214C192.637 213.35 193.001 212.063 193.157 209.684ZM185.76 209.502C186.8 209.268 188.347 208.852 189.816 208.436L190.024 209.84C188.685 210.256 187.255 210.672 186.111 210.997L185.76 209.502ZM185.968 205.433H189.946V206.863H185.968V205.433ZM187.346 202.976H188.776V213.519C188.776 214.247 188.646 214.65 188.243 214.884C187.853 215.131 187.294 215.183 186.449 215.183C186.41 214.793 186.228 214.156 186.046 213.727C186.514 213.753 186.969 213.753 187.125 213.74C187.281 213.74 187.346 213.701 187.346 213.519V202.976ZM199.046 211.179H210.954V212.414H199.046V211.179ZM199.41 203.795H210.486V204.978H199.41V203.795ZM206.521 210.425H208.029V213.675C208.029 214.377 207.886 214.754 207.366 214.962C206.833 215.157 206.105 215.17 205.104 215.17C205.052 214.767 204.857 214.195 204.662 213.818C205.286 213.844 206.04 213.844 206.248 213.844C206.456 213.831 206.521 213.779 206.521 213.623V210.425ZM204.207 202.963H205.741V209.97H204.207V202.963ZM201.126 212.856L202.192 211.959C202.907 212.414 203.817 213.103 204.233 213.61L203.089 214.598C202.699 214.091 201.841 213.35 201.126 212.856ZM201.906 207.76V208.254H208.146V207.76H201.906ZM201.906 206.382V206.876H208.146V206.382H201.906ZM200.437 205.446H209.68V209.203H200.437V205.446ZM206.833 209.411L207.743 208.709C208.705 209.099 209.849 209.775 210.473 210.256L209.537 211.049C208.926 210.529 207.782 209.814 206.833 209.411ZM199.605 209.684C201.997 209.697 205.832 209.684 209.42 209.645L209.355 210.607C205.871 210.711 202.153 210.776 199.657 210.802L199.605 209.684ZM217.649 206.408V207.487H219.781V206.408H217.649ZM216.193 205.394H221.328V208.514H216.193V205.394ZM216.115 210.126V211.556H217.129V210.126H216.115ZM214.854 209.073H218.455V212.596H214.854V209.073ZM220.327 210.126V211.556H221.38V210.126H220.327ZM219.04 209.073H222.732V212.596H219.04V209.073ZM212.553 203.418H223.668V204.783H214.074V215.17H212.553V203.418ZM213.541 213.246H224.019V214.65H213.541V213.246Z" fill="white"/>
<path d="M245.569 209.417C245.569 209.527 245.548 209.629 245.505 209.722C245.463 209.815 245.4 209.904 245.315 209.988L240.37 214.825C240.23 214.969 240.057 215.041 239.85 215.041C239.714 215.041 239.589 215.007 239.475 214.939C239.361 214.876 239.27 214.787 239.202 214.673C239.139 214.563 239.107 214.44 239.107 214.305C239.107 214.102 239.183 213.922 239.335 213.765L243.792 209.417L239.335 205.069C239.183 204.912 239.107 204.735 239.107 204.536C239.107 204.396 239.139 204.271 239.202 204.161C239.27 204.051 239.361 203.964 239.475 203.901C239.589 203.833 239.714 203.799 239.85 203.799C240.057 203.799 240.23 203.869 240.37 204.009L245.315 208.846C245.4 208.93 245.463 209.019 245.505 209.112C245.548 209.205 245.569 209.307 245.569 209.417Z" fill="white"/>
<rect x="16" y="263" width="361" height="55" rx="10" fill="white"/>
<path d="M33.0596 284V282.954L36.3408 279.522C36.7783 279.067 37.1178 278.693 37.3594 278.401C37.6009 278.105 37.7695 277.841 37.8652 277.608C37.9655 277.376 38.0156 277.125 38.0156 276.856V276.843C38.0156 276.519 37.945 276.232 37.8037 275.981C37.667 275.726 37.4688 275.528 37.209 275.387C36.9492 275.241 36.6393 275.168 36.2793 275.168C35.9147 275.168 35.5934 275.243 35.3154 275.394C35.0374 275.544 34.821 275.754 34.666 276.022C34.5111 276.291 34.4336 276.606 34.4336 276.966V276.993L32.9844 276.986L32.9775 276.973C32.9821 276.371 33.1279 275.84 33.415 275.38C33.7021 274.915 34.1009 274.553 34.6113 274.293C35.1217 274.029 35.7074 273.896 36.3682 273.896C36.9788 273.896 37.5234 274.017 38.002 274.259C38.485 274.496 38.8656 274.826 39.1436 275.25C39.4215 275.669 39.5605 276.15 39.5605 276.692V276.713C39.5605 277.087 39.4922 277.449 39.3555 277.8C39.2188 278.151 38.9818 278.536 38.6445 278.955C38.3118 279.374 37.847 279.88 37.25 280.473L34.7617 282.954L35.1582 282.264V282.954L34.7686 282.688H39.7178V284H33.0596ZM45.2002 284.239C44.4391 284.239 43.7874 284.03 43.2451 283.61C42.7028 283.191 42.2858 282.596 41.9941 281.826C41.7025 281.051 41.5566 280.133 41.5566 279.071V279.058C41.5566 277.996 41.7025 277.08 41.9941 276.31C42.2858 275.539 42.7028 274.945 43.2451 274.525C43.7874 274.106 44.4391 273.896 45.2002 273.896C45.9613 273.896 46.613 274.106 47.1553 274.525C47.6976 274.945 48.1146 275.539 48.4062 276.31C48.7025 277.08 48.8506 277.996 48.8506 279.058V279.071C48.8506 280.133 48.7025 281.051 48.4062 281.826C48.1146 282.596 47.6976 283.191 47.1553 283.61C46.613 284.03 45.9613 284.239 45.2002 284.239ZM45.2002 282.961C45.6423 282.961 46.0182 282.804 46.3281 282.489C46.6426 282.175 46.8818 281.728 47.0459 281.149C47.2145 280.566 47.2988 279.873 47.2988 279.071V279.058C47.2988 278.256 47.2145 277.565 47.0459 276.986C46.8818 276.408 46.6426 275.963 46.3281 275.653C46.0182 275.339 45.6423 275.182 45.2002 275.182C44.7627 275.182 44.3867 275.339 44.0723 275.653C43.7624 275.963 43.5231 276.408 43.3545 276.986C43.1904 277.565 43.1084 278.256 43.1084 279.058V279.071C43.1084 279.873 43.1904 280.566 43.3545 281.149C43.5231 281.728 43.7624 282.175 44.0723 282.489C44.3867 282.804 44.7627 282.961 45.2002 282.961ZM50.8193 284V282.954L54.1006 279.522C54.5381 279.067 54.8776 278.693 55.1191 278.401C55.3607 278.105 55.5293 277.841 55.625 277.608C55.7253 277.376 55.7754 277.125 55.7754 276.856V276.843C55.7754 276.519 55.7048 276.232 55.5635 275.981C55.4268 275.726 55.2285 275.528 54.9688 275.387C54.709 275.241 54.3991 275.168 54.0391 275.168C53.6745 275.168 53.3532 275.243 53.0752 275.394C52.7972 275.544 52.5807 275.754 52.4258 276.022C52.2708 276.291 52.1934 276.606 52.1934 276.966V276.993L50.7441 276.986L50.7373 276.973C50.7419 276.371 50.8877 275.84 51.1748 275.38C51.4619 274.915 51.8607 274.553 52.3711 274.293C52.8815 274.029 53.4671 273.896 54.1279 273.896C54.7386 273.896 55.2832 274.017 55.7617 274.259C56.2448 274.496 56.6253 274.826 56.9033 275.25C57.1813 275.669 57.3203 276.15 57.3203 276.692V276.713C57.3203 277.087 57.252 277.449 57.1152 277.8C56.9785 278.151 56.7415 278.536 56.4043 278.955C56.0716 279.374 55.6068 279.88 55.0098 280.473L52.5215 282.954L52.918 282.264V282.954L52.5283 282.688H57.4775V284H50.8193ZM63.8418 284V282.045H59.0293V280.739C59.2891 280.293 59.5534 279.844 59.8223 279.393C60.0957 278.941 60.3691 278.49 60.6426 278.039C60.9206 277.588 61.1986 277.144 61.4766 276.706C61.7546 276.264 62.0326 275.829 62.3105 275.4C62.5885 274.967 62.862 274.546 63.1309 274.136H65.3252V280.739H66.6855V282.045H65.3252V284H63.8418ZM60.5059 280.767H63.8623V275.435H63.7734C63.5592 275.754 63.3428 276.084 63.124 276.426C62.9053 276.763 62.682 277.109 62.4541 277.465C62.2308 277.82 62.0075 278.178 61.7842 278.538C61.5609 278.898 61.3421 279.258 61.1279 279.618C60.9137 279.974 60.7064 280.325 60.5059 280.671V280.767ZM71.9082 273.664L68.8867 286.475H67.4922L70.5068 273.664H71.9082ZM76.4541 284.239C75.693 284.239 75.0413 284.03 74.499 283.61C73.9567 283.191 73.5397 282.596 73.248 281.826C72.9564 281.051 72.8105 280.133 72.8105 279.071V279.058C72.8105 277.996 72.9564 277.08 73.248 276.31C73.5397 275.539 73.9567 274.945 74.499 274.525C75.0413 274.106 75.693 273.896 76.4541 273.896C77.2152 273.896 77.8669 274.106 78.4092 274.525C78.9515 274.945 79.3685 275.539 79.6602 276.31C79.9564 277.08 80.1045 277.996 80.1045 279.058V279.071C80.1045 280.133 79.9564 281.051 79.6602 281.826C79.3685 282.596 78.9515 283.191 78.4092 283.61C77.8669 284.03 77.2152 284.239 76.4541 284.239ZM76.4541 282.961C76.8962 282.961 77.2721 282.804 77.582 282.489C77.8965 282.175 78.1357 281.728 78.2998 281.149C78.4684 280.566 78.5527 279.873 78.5527 279.071V279.058C78.5527 278.256 78.4684 277.565 78.2998 276.986C78.1357 276.408 77.8965 275.963 77.582 275.653C77.2721 275.339 76.8962 275.182 76.4541 275.182C76.0166 275.182 75.6406 275.339 75.3262 275.653C75.0163 275.963 74.777 276.408 74.6084 276.986C74.4443 277.565 74.3623 278.256 74.3623 279.058V279.071C74.3623 279.873 74.4443 280.566 74.6084 281.149C74.777 281.728 75.0163 282.175 75.3262 282.489C75.6406 282.804 76.0166 282.961 76.4541 282.961ZM85.5596 284.239C84.7985 284.239 84.1468 284.03 83.6045 283.61C83.0622 283.191 82.6452 282.596 82.3535 281.826C82.0618 281.051 81.916 280.133 81.916 279.071V279.058C81.916 277.996 82.0618 277.08 82.3535 276.31C82.6452 275.539 83.0622 274.945 83.6045 274.525C84.1468 274.106 84.7985 273.896 85.5596 273.896C86.3206 273.896 86.9723 274.106 87.5146 274.525C88.057 274.945 88.474 275.539 88.7656 276.31C89.0618 277.08 89.21 277.996 89.21 279.058V279.071C89.21 280.133 89.0618 281.051 88.7656 281.826C88.474 282.596 88.057 283.191 87.5146 283.61C86.9723 284.03 86.3206 284.239 85.5596 284.239ZM85.5596 282.961C86.0016 282.961 86.3776 282.804 86.6875 282.489C87.002 282.175 87.2412 281.728 87.4053 281.149C87.5739 280.566 87.6582 279.873 87.6582 279.071V279.058C87.6582 278.256 87.5739 277.565 87.4053 276.986C87.2412 276.408 87.002 275.963 86.6875 275.653C86.3776 275.339 86.0016 275.182 85.5596 275.182C85.1221 275.182 84.7461 275.339 84.4316 275.653C84.1217 275.963 83.8825 276.408 83.7139 276.986C83.5498 277.565 83.4678 278.256 83.4678 279.058V279.071C83.4678 279.873 83.5498 280.566 83.7139 281.149C83.8825 281.728 84.1217 282.175 84.4316 282.489C84.7461 282.804 85.1221 282.961 85.5596 282.961ZM94.5352 273.664L91.5137 286.475H90.1191L93.1338 273.664H94.5352ZM99.0811 284.239C98.32 284.239 97.6683 284.03 97.126 283.61C96.5837 283.191 96.1667 282.596 95.875 281.826C95.5833 281.051 95.4375 280.133 95.4375 279.071V279.058C95.4375 277.996 95.5833 277.08 95.875 276.31C96.1667 275.539 96.5837 274.945 97.126 274.525C97.6683 274.106 98.32 273.896 99.0811 273.896C99.8421 273.896 100.494 274.106 101.036 274.525C101.578 274.945 101.995 275.539 102.287 276.31C102.583 277.08 102.731 277.996 102.731 279.058V279.071C102.731 280.133 102.583 281.051 102.287 281.826C101.995 282.596 101.578 283.191 101.036 283.61C100.494 284.03 99.8421 284.239 99.0811 284.239ZM99.0811 282.961C99.5231 282.961 99.8991 282.804 100.209 282.489C100.523 282.175 100.763 281.728 100.927 281.149C101.095 280.566 101.18 279.873 101.18 279.071V279.058C101.18 278.256 101.095 277.565 100.927 276.986C100.763 276.408 100.523 275.963 100.209 275.653C99.8991 275.339 99.5231 275.182 99.0811 275.182C98.6436 275.182 98.2676 275.339 97.9531 275.653C97.6432 275.963 97.404 276.408 97.2354 276.986C97.0713 277.565 96.9893 278.256 96.9893 279.058V279.071C96.9893 279.873 97.0713 280.566 97.2354 281.149C97.404 281.728 97.6432 282.175 97.9531 282.489C98.2676 282.804 98.6436 282.961 99.0811 282.961ZM108.187 284.239C107.425 284.239 106.774 284.03 106.231 283.61C105.689 283.191 105.272 282.596 104.98 281.826C104.689 281.051 104.543 280.133 104.543 279.071V279.058C104.543 277.996 104.689 277.08 104.98 276.31C105.272 275.539 105.689 274.945 106.231 274.525C106.774 274.106 107.425 273.896 108.187 273.896C108.948 273.896 109.599 274.106 110.142 274.525C110.684 274.945 111.101 275.539 111.393 276.31C111.689 277.08 111.837 277.996 111.837 279.058V279.071C111.837 280.133 111.689 281.051 111.393 281.826C111.101 282.596 110.684 283.191 110.142 283.61C109.599 284.03 108.948 284.239 108.187 284.239ZM108.187 282.961C108.629 282.961 109.005 282.804 109.314 282.489C109.629 282.175 109.868 281.728 110.032 281.149C110.201 280.566 110.285 279.873 110.285 279.071V279.058C110.285 278.256 110.201 277.565 110.032 276.986C109.868 276.408 109.629 275.963 109.314 275.653C109.005 275.339 108.629 275.182 108.187 275.182C107.749 275.182 107.373 275.339 107.059 275.653C106.749 275.963 106.509 276.408 106.341 276.986C106.177 277.565 106.095 278.256 106.095 279.058V279.071C106.095 279.873 106.177 280.566 106.341 281.149C106.509 281.728 106.749 282.175 107.059 282.489C107.373 282.804 107.749 282.961 108.187 282.961Z" fill="#A70719"/>
<path d="M125.546 284.239C124.785 284.239 124.133 284.03 123.591 283.61C123.049 283.191 122.632 282.596 122.34 281.826C122.048 281.051 121.902 280.133 121.902 279.071V279.058C121.902 277.996 122.048 277.08 122.34 276.31C122.632 275.539 123.049 274.945 123.591 274.525C124.133 274.106 124.785 273.896 125.546 273.896C126.307 273.896 126.959 274.106 127.501 274.525C128.043 274.945 128.46 275.539 128.752 276.31C129.048 277.08 129.196 277.996 129.196 279.058V279.071C129.196 280.133 129.048 281.051 128.752 281.826C128.46 282.596 128.043 283.191 127.501 283.61C126.959 284.03 126.307 284.239 125.546 284.239ZM125.546 282.961C125.988 282.961 126.364 282.804 126.674 282.489C126.988 282.175 127.228 281.728 127.392 281.149C127.56 280.566 127.645 279.873 127.645 279.071V279.058C127.645 278.256 127.56 277.565 127.392 276.986C127.228 276.408 126.988 275.963 126.674 275.653C126.364 275.339 125.988 275.182 125.546 275.182C125.108 275.182 124.732 275.339 124.418 275.653C124.108 275.963 123.869 276.408 123.7 276.986C123.536 277.565 123.454 278.256 123.454 279.058V279.071C123.454 279.873 123.536 280.566 123.7 281.149C123.869 281.728 124.108 282.175 124.418 282.489C124.732 282.804 125.108 282.961 125.546 282.961ZM134.651 284.239C133.89 284.239 133.239 284.03 132.696 283.61C132.154 283.191 131.737 282.596 131.445 281.826C131.154 281.051 131.008 280.133 131.008 279.071V279.058C131.008 277.996 131.154 277.08 131.445 276.31C131.737 275.539 132.154 274.945 132.696 274.525C133.239 274.106 133.89 273.896 134.651 273.896C135.412 273.896 136.064 274.106 136.606 274.525C137.149 274.945 137.566 275.539 137.857 276.31C138.154 277.08 138.302 277.996 138.302 279.058V279.071C138.302 280.133 138.154 281.051 137.857 281.826C137.566 282.596 137.149 283.191 136.606 283.61C136.064 284.03 135.412 284.239 134.651 284.239ZM134.651 282.961C135.093 282.961 135.469 282.804 135.779 282.489C136.094 282.175 136.333 281.728 136.497 281.149C136.666 280.566 136.75 279.873 136.75 279.071V279.058C136.75 278.256 136.666 277.565 136.497 276.986C136.333 276.408 136.094 275.963 135.779 275.653C135.469 275.339 135.093 275.182 134.651 275.182C134.214 275.182 133.838 275.339 133.523 275.653C133.214 275.963 132.974 276.408 132.806 276.986C132.642 277.565 132.56 278.256 132.56 279.058V279.071C132.56 279.873 132.642 280.566 132.806 281.149C132.974 281.728 133.214 282.175 133.523 282.489C133.838 282.804 134.214 282.961 134.651 282.961ZM141.378 282.646C141.095 282.646 140.856 282.549 140.66 282.353C140.469 282.157 140.373 281.922 140.373 281.648C140.373 281.366 140.469 281.129 140.66 280.938C140.856 280.746 141.095 280.65 141.378 280.65C141.665 280.65 141.904 280.746 142.096 280.938C142.287 281.129 142.383 281.366 142.383 281.648C142.383 281.922 142.287 282.157 142.096 282.353C141.904 282.549 141.665 282.646 141.378 282.646ZM141.378 277.479C141.095 277.479 140.856 277.381 140.66 277.185C140.469 276.989 140.373 276.754 140.373 276.48C140.373 276.198 140.469 275.961 140.66 275.77C140.856 275.578 141.095 275.482 141.378 275.482C141.665 275.482 141.904 275.578 142.096 275.77C142.287 275.961 142.383 276.198 142.383 276.48C142.383 276.754 142.287 276.989 142.096 277.185C141.904 277.381 141.665 277.479 141.378 277.479ZM148.091 284.239C147.33 284.239 146.678 284.03 146.136 283.61C145.593 283.191 145.176 282.596 144.885 281.826C144.593 281.051 144.447 280.133 144.447 279.071V279.058C144.447 277.996 144.593 277.08 144.885 276.31C145.176 275.539 145.593 274.945 146.136 274.525C146.678 274.106 147.33 273.896 148.091 273.896C148.852 273.896 149.504 274.106 150.046 274.525C150.588 274.945 151.005 275.539 151.297 276.31C151.593 277.08 151.741 277.996 151.741 279.058V279.071C151.741 280.133 151.593 281.051 151.297 281.826C151.005 282.596 150.588 283.191 150.046 283.61C149.504 284.03 148.852 284.239 148.091 284.239ZM148.091 282.961C148.533 282.961 148.909 282.804 149.219 282.489C149.533 282.175 149.772 281.728 149.937 281.149C150.105 280.566 150.189 279.873 150.189 279.071V279.058C150.189 278.256 150.105 277.565 149.937 276.986C149.772 276.408 149.533 275.963 149.219 275.653C148.909 275.339 148.533 275.182 148.091 275.182C147.653 275.182 147.277 275.339 146.963 275.653C146.653 275.963 146.414 276.408 146.245 276.986C146.081 277.565 145.999 278.256 145.999 279.058V279.071C145.999 279.873 146.081 280.566 146.245 281.149C146.414 281.728 146.653 282.175 146.963 282.489C147.277 282.804 147.653 282.961 148.091 282.961ZM157.196 284.239C156.435 284.239 155.784 284.03 155.241 283.61C154.699 283.191 154.282 282.596 153.99 281.826C153.699 281.051 153.553 280.133 153.553 279.071V279.058C153.553 277.996 153.699 277.08 153.99 276.31C154.282 275.539 154.699 274.945 155.241 274.525C155.784 274.106 156.435 273.896 157.196 273.896C157.957 273.896 158.609 274.106 159.151 274.525C159.694 274.945 160.111 275.539 160.402 276.31C160.699 277.08 160.847 277.996 160.847 279.058V279.071C160.847 280.133 160.699 281.051 160.402 281.826C160.111 282.596 159.694 283.191 159.151 283.61C158.609 284.03 157.957 284.239 157.196 284.239ZM157.196 282.961C157.638 282.961 158.014 282.804 158.324 282.489C158.639 282.175 158.878 281.728 159.042 281.149C159.211 280.566 159.295 279.873 159.295 279.071V279.058C159.295 278.256 159.211 277.565 159.042 276.986C158.878 276.408 158.639 275.963 158.324 275.653C158.014 275.339 157.638 275.182 157.196 275.182C156.759 275.182 156.383 275.339 156.068 275.653C155.758 275.963 155.519 276.408 155.351 276.986C155.187 277.565 155.104 278.256 155.104 279.058V279.071C155.104 279.873 155.187 280.566 155.351 281.149C155.519 281.728 155.758 282.175 156.068 282.489C156.383 282.804 156.759 282.961 157.196 282.961Z" fill="#A70719"/>
<path d="M41.639 296.347H48.065V298.149H41.639V296.347ZM38.001 304.116H45.991V305.918H38.001V304.116ZM40.67 294.749H42.744V301.056H40.67V294.749ZM36.93 300.002H47.079V306.513H44.988V301.804H38.919V306.53H36.93V300.002ZM39.973 290.567H42.098V293.661H39.973V290.567ZM34.873 292.556H48.303V294.494H34.873V292.556ZM33.87 292.556H35.91V296.857C35.91 299.611 35.655 303.827 34.108 306.496C33.734 306.156 32.833 305.561 32.34 305.357C33.768 302.909 33.87 299.322 33.87 296.857V292.556ZM56.446 292.811H65.405V294.63H56.446V292.811ZM56.633 295.667H63.756V297.384H58.418V306.513H56.633V295.667ZM63.178 295.667H65.065V304.439C65.065 305.255 64.963 305.816 64.453 306.139C63.96 306.462 63.348 306.513 62.498 306.513C62.447 305.969 62.175 305.119 61.92 304.609C62.362 304.643 62.821 304.643 62.974 304.626C63.127 304.626 63.178 304.575 63.178 304.405V295.667ZM59.829 290.567H61.682V306.53H59.829V290.567ZM57.67 298.523H64.011V300.07H57.67V298.523ZM57.67 301.226H64.011V302.943H57.67V301.226ZM61.886 291.553L62.872 290.448C63.688 290.839 64.674 291.468 65.167 291.978L64.13 293.202C63.671 292.692 62.702 291.995 61.886 291.553ZM50.7 294.8H55.613V296.5H50.7V294.8ZM49.884 297.741H56.089V299.475H49.884V297.741ZM50.054 300.427L51.346 300.104C51.635 301.056 51.873 302.246 51.958 303.062L50.581 303.419C50.547 302.603 50.309 301.379 50.054 300.427ZM49.697 304.32C51.38 304.048 53.913 303.572 56.293 303.096L56.463 304.779C54.236 305.272 51.873 305.782 50.088 306.156L49.697 304.32ZM54.763 299.968L56.225 300.325C55.919 301.294 55.647 302.365 55.392 303.079L54.168 302.739C54.389 301.974 54.644 300.784 54.763 299.968ZM52.213 295.48H53.964V304.643L52.213 304.949V295.48ZM52.128 290.567H53.199V290.941H53.777V291.468C53.114 292.76 52.077 294.511 50.394 296.041C50.122 295.633 49.544 294.987 49.17 294.715C50.598 293.491 51.601 291.893 52.128 290.567ZM52.451 290.567H53.862C54.865 291.417 56.106 292.641 56.718 293.525L55.409 295.089C54.882 294.222 53.726 292.777 52.808 292.012H52.451V290.567ZM72.477 304.014H80.093V305.867H72.477V304.014ZM71.627 292.233H77.645V294.035H71.627V292.233ZM72.069 290.465L74.364 290.924C72.919 293.406 70.879 295.684 67.819 297.52C67.53 297.01 66.85 296.262 66.391 295.905C69.196 294.426 71.083 292.352 72.069 290.465ZM76.999 292.233H77.39L77.73 292.131L79.141 292.879C77.152 298.166 72.613 301.634 67.547 303.334C67.292 302.773 66.782 301.94 66.357 301.515C71.049 300.155 75.435 296.857 76.999 292.573V292.233ZM69.4 295.973L70.913 294.647C72.086 295.48 73.633 296.687 74.381 297.571L72.732 299.05C72.086 298.166 70.573 296.857 69.4 295.973ZM79.141 298.829H81.266V306.547H79.141V298.829ZM73.344 298.829H80.161V300.682H73.344V306.513H71.304V300.342L72.851 298.829H73.344Z" fill="black"/>
<path d="M336.523 293.445V290.844H344.141V293.445H336.523ZM353.293 299.316C351.926 299.316 350.754 298.961 349.777 298.25C348.801 297.531 348.051 296.52 347.527 295.215C347.004 293.902 346.742 292.348 346.742 290.551V290.527C346.742 288.73 347.004 287.18 347.527 285.875C348.051 284.562 348.801 283.551 349.777 282.84C350.754 282.129 351.926 281.773 353.293 281.773C354.66 281.773 355.832 282.129 356.809 282.84C357.785 283.551 358.535 284.562 359.059 285.875C359.582 287.18 359.844 288.73 359.844 290.527V290.551C359.844 292.348 359.582 293.902 359.059 295.215C358.535 296.52 357.785 297.531 356.809 298.25C355.832 298.961 354.66 299.316 353.293 299.316ZM353.293 296.855C354.035 296.855 354.668 296.602 355.191 296.094C355.715 295.586 356.113 294.863 356.387 293.926C356.668 292.98 356.809 291.855 356.809 290.551V290.527C356.809 289.215 356.668 288.094 356.387 287.164C356.113 286.227 355.715 285.508 355.191 285.008C354.668 284.5 354.035 284.246 353.293 284.246C352.551 284.246 351.918 284.5 351.395 285.008C350.871 285.508 350.469 286.227 350.188 287.164C349.914 288.094 349.777 289.215 349.777 290.527V290.551C349.777 291.855 349.914 292.98 350.188 293.926C350.469 294.863 350.871 295.586 351.395 296.094C351.918 296.602 352.551 296.855 353.293 296.855Z" fill="#3C3C43" fill-opacity="0.6"/>
<rect x="16" y="326" width="361" height="55" rx="10" fill="white"/>
<path d="M33.0596 347V345.954L36.3408 342.522C36.7783 342.067 37.1178 341.693 37.3594 341.401C37.6009 341.105 37.7695 340.841 37.8652 340.608C37.9655 340.376 38.0156 340.125 38.0156 339.856V339.843C38.0156 339.519 37.945 339.232 37.8037 338.981C37.667 338.726 37.4688 338.528 37.209 338.387C36.9492 338.241 36.6393 338.168 36.2793 338.168C35.9147 338.168 35.5934 338.243 35.3154 338.394C35.0374 338.544 34.821 338.754 34.666 339.022C34.5111 339.291 34.4336 339.606 34.4336 339.966V339.993L32.9844 339.986L32.9775 339.973C32.9821 339.371 33.1279 338.84 33.415 338.38C33.7021 337.915 34.1009 337.553 34.6113 337.293C35.1217 337.029 35.7074 336.896 36.3682 336.896C36.9788 336.896 37.5234 337.017 38.002 337.259C38.485 337.496 38.8656 337.826 39.1436 338.25C39.4215 338.669 39.5605 339.15 39.5605 339.692V339.713C39.5605 340.087 39.4922 340.449 39.3555 340.8C39.2188 341.151 38.9818 341.536 38.6445 341.955C38.3118 342.374 37.847 342.88 37.25 343.473L34.7617 345.954L35.1582 345.264V345.954L34.7686 345.688H39.7178V347H33.0596ZM45.2002 347.239C44.4391 347.239 43.7874 347.03 43.2451 346.61C42.7028 346.191 42.2858 345.596 41.9941 344.826C41.7025 344.051 41.5566 343.133 41.5566 342.071V342.058C41.5566 340.996 41.7025 340.08 41.9941 339.31C42.2858 338.539 42.7028 337.945 43.2451 337.525C43.7874 337.106 44.4391 336.896 45.2002 336.896C45.9613 336.896 46.613 337.106 47.1553 337.525C47.6976 337.945 48.1146 338.539 48.4062 339.31C48.7025 340.08 48.8506 340.996 48.8506 342.058V342.071C48.8506 343.133 48.7025 344.051 48.4062 344.826C48.1146 345.596 47.6976 346.191 47.1553 346.61C46.613 347.03 45.9613 347.239 45.2002 347.239ZM45.2002 345.961C45.6423 345.961 46.0182 345.804 46.3281 345.489C46.6426 345.175 46.8818 344.728 47.0459 344.149C47.2145 343.566 47.2988 342.873 47.2988 342.071V342.058C47.2988 341.256 47.2145 340.565 47.0459 339.986C46.8818 339.408 46.6426 338.963 46.3281 338.653C46.0182 338.339 45.6423 338.182 45.2002 338.182C44.7627 338.182 44.3867 338.339 44.0723 338.653C43.7624 338.963 43.5231 339.408 43.3545 339.986C43.1904 340.565 43.1084 341.256 43.1084 342.058V342.071C43.1084 342.873 43.1904 343.566 43.3545 344.149C43.5231 344.728 43.7624 345.175 44.0723 345.489C44.3867 345.804 44.7627 345.961 45.2002 345.961ZM50.8193 347V345.954L54.1006 342.522C54.5381 342.067 54.8776 341.693 55.1191 341.401C55.3607 341.105 55.5293 340.841 55.625 340.608C55.7253 340.376 55.7754 340.125 55.7754 339.856V339.843C55.7754 339.519 55.7048 339.232 55.5635 338.981C55.4268 338.726 55.2285 338.528 54.9688 338.387C54.709 338.241 54.3991 338.168 54.0391 338.168C53.6745 338.168 53.3532 338.243 53.0752 338.394C52.7972 338.544 52.5807 338.754 52.4258 339.022C52.2708 339.291 52.1934 339.606 52.1934 339.966V339.993L50.7441 339.986L50.7373 339.973C50.7419 339.371 50.8877 338.84 51.1748 338.38C51.4619 337.915 51.8607 337.553 52.3711 337.293C52.8815 337.029 53.4671 336.896 54.1279 336.896C54.7386 336.896 55.2832 337.017 55.7617 337.259C56.2448 337.496 56.6253 337.826 56.9033 338.25C57.1813 338.669 57.3203 339.15 57.3203 339.692V339.713C57.3203 340.087 57.252 340.449 57.1152 340.8C56.9785 341.151 56.7415 341.536 56.4043 341.955C56.0716 342.374 55.6068 342.88 55.0098 343.473L52.5215 345.954L52.918 345.264V345.954L52.5283 345.688H57.4775V347H50.8193ZM63.8418 347V345.045H59.0293V343.739C59.2891 343.293 59.5534 342.844 59.8223 342.393C60.0957 341.941 60.3691 341.49 60.6426 341.039C60.9206 340.588 61.1986 340.144 61.4766 339.706C61.7546 339.264 62.0326 338.829 62.3105 338.4C62.5885 337.967 62.862 337.546 63.1309 337.136H65.3252V343.739H66.6855V345.045H65.3252V347H63.8418ZM60.5059 343.767H63.8623V338.435H63.7734C63.5592 338.754 63.3428 339.084 63.124 339.426C62.9053 339.763 62.682 340.109 62.4541 340.465C62.2308 340.82 62.0075 341.178 61.7842 341.538C61.5609 341.898 61.3421 342.258 61.1279 342.618C60.9137 342.974 60.7064 343.325 60.5059 343.671V343.767ZM71.9082 336.664L68.8867 349.475H67.4922L70.5068 336.664H71.9082ZM76.4541 347.239C75.693 347.239 75.0413 347.03 74.499 346.61C73.9567 346.191 73.5397 345.596 73.248 344.826C72.9564 344.051 72.8105 343.133 72.8105 342.071V342.058C72.8105 340.996 72.9564 340.08 73.248 339.31C73.5397 338.539 73.9567 337.945 74.499 337.525C75.0413 337.106 75.693 336.896 76.4541 336.896C77.2152 336.896 77.8669 337.106 78.4092 337.525C78.9515 337.945 79.3685 338.539 79.6602 339.31C79.9564 340.08 80.1045 340.996 80.1045 342.058V342.071C80.1045 343.133 79.9564 344.051 79.6602 344.826C79.3685 345.596 78.9515 346.191 78.4092 346.61C77.8669 347.03 77.2152 347.239 76.4541 347.239ZM76.4541 345.961C76.8962 345.961 77.2721 345.804 77.582 345.489C77.8965 345.175 78.1357 344.728 78.2998 344.149C78.4684 343.566 78.5527 342.873 78.5527 342.071V342.058C78.5527 341.256 78.4684 340.565 78.2998 339.986C78.1357 339.408 77.8965 338.963 77.582 338.653C77.2721 338.339 76.8962 338.182 76.4541 338.182C76.0166 338.182 75.6406 338.339 75.3262 338.653C75.0163 338.963 74.777 339.408 74.6084 339.986C74.4443 340.565 74.3623 341.256 74.3623 342.058V342.071C74.3623 342.873 74.4443 343.566 74.6084 344.149C74.777 344.728 75.0163 345.175 75.3262 345.489C75.6406 345.804 76.0166 345.961 76.4541 345.961ZM85.5596 347.239C84.7985 347.239 84.1468 347.03 83.6045 346.61C83.0622 346.191 82.6452 345.596 82.3535 344.826C82.0618 344.051 81.916 343.133 81.916 342.071V342.058C81.916 340.996 82.0618 340.08 82.3535 339.31C82.6452 338.539 83.0622 337.945 83.6045 337.525C84.1468 337.106 84.7985 336.896 85.5596 336.896C86.3206 336.896 86.9723 337.106 87.5146 337.525C88.057 337.945 88.474 338.539 88.7656 339.31C89.0618 340.08 89.21 340.996 89.21 342.058V342.071C89.21 343.133 89.0618 344.051 88.7656 344.826C88.474 345.596 88.057 346.191 87.5146 346.61C86.9723 347.03 86.3206 347.239 85.5596 347.239ZM85.5596 345.961C86.0016 345.961 86.3776 345.804 86.6875 345.489C87.002 345.175 87.2412 344.728 87.4053 344.149C87.5739 343.566 87.6582 342.873 87.6582 342.071V342.058C87.6582 341.256 87.5739 340.565 87.4053 339.986C87.2412 339.408 87.002 338.963 86.6875 338.653C86.3776 338.339 86.0016 338.182 85.5596 338.182C85.1221 338.182 84.7461 338.339 84.4316 338.653C84.1217 338.963 83.8825 339.408 83.7139 339.986C83.5498 340.565 83.4678 341.256 83.4678 342.058V342.071C83.4678 342.873 83.5498 343.566 83.7139 344.149C83.8825 344.728 84.1217 345.175 84.4316 345.489C84.7461 345.804 85.1221 345.961 85.5596 345.961ZM94.5352 336.664L91.5137 349.475H90.1191L93.1338 336.664H94.5352ZM99.0811 347.239C98.32 347.239 97.6683 347.03 97.126 346.61C96.5837 346.191 96.1667 345.596 95.875 344.826C95.5833 344.051 95.4375 343.133 95.4375 342.071V342.058C95.4375 340.996 95.5833 340.08 95.875 339.31C96.1667 338.539 96.5837 337.945 97.126 337.525C97.6683 337.106 98.32 336.896 99.0811 336.896C99.8421 336.896 100.494 337.106 101.036 337.525C101.578 337.945 101.995 338.539 102.287 339.31C102.583 340.08 102.731 340.996 102.731 342.058V342.071C102.731 343.133 102.583 344.051 102.287 344.826C101.995 345.596 101.578 346.191 101.036 346.61C100.494 347.03 99.8421 347.239 99.0811 347.239ZM99.0811 345.961C99.5231 345.961 99.8991 345.804 100.209 345.489C100.523 345.175 100.763 344.728 100.927 344.149C101.095 343.566 101.18 342.873 101.18 342.071V342.058C101.18 341.256 101.095 340.565 100.927 339.986C100.763 339.408 100.523 338.963 100.209 338.653C99.8991 338.339 99.5231 338.182 99.0811 338.182C98.6436 338.182 98.2676 338.339 97.9531 338.653C97.6432 338.963 97.404 339.408 97.2354 339.986C97.0713 340.565 96.9893 341.256 96.9893 342.058V342.071C96.9893 342.873 97.0713 343.566 97.2354 344.149C97.404 344.728 97.6432 345.175 97.9531 345.489C98.2676 345.804 98.6436 345.961 99.0811 345.961ZM108.187 347.239C107.425 347.239 106.774 347.03 106.231 346.61C105.689 346.191 105.272 345.596 104.98 344.826C104.689 344.051 104.543 343.133 104.543 342.071V342.058C104.543 340.996 104.689 340.08 104.98 339.31C105.272 338.539 105.689 337.945 106.231 337.525C106.774 337.106 107.425 336.896 108.187 336.896C108.948 336.896 109.599 337.106 110.142 337.525C110.684 337.945 111.101 338.539 111.393 339.31C111.689 340.08 111.837 340.996 111.837 342.058V342.071C111.837 343.133 111.689 344.051 111.393 344.826C111.101 345.596 110.684 346.191 110.142 346.61C109.599 347.03 108.948 347.239 108.187 347.239ZM108.187 345.961C108.629 345.961 109.005 345.804 109.314 345.489C109.629 345.175 109.868 344.728 110.032 344.149C110.201 343.566 110.285 342.873 110.285 342.071V342.058C110.285 341.256 110.201 340.565 110.032 339.986C109.868 339.408 109.629 338.963 109.314 338.653C109.005 338.339 108.629 338.182 108.187 338.182C107.749 338.182 107.373 338.339 107.059 338.653C106.749 338.963 106.509 339.408 106.341 339.986C106.177 340.565 106.095 341.256 106.095 342.058V342.071C106.095 342.873 106.177 343.566 106.341 344.149C106.509 344.728 106.749 345.175 107.059 345.489C107.373 345.804 107.749 345.961 108.187 345.961Z" fill="#A70719"/>
<path d="M125.546 347.239C124.785 347.239 124.133 347.03 123.591 346.61C123.049 346.191 122.632 345.596 122.34 344.826C122.048 344.051 121.902 343.133 121.902 342.071V342.058C121.902 340.996 122.048 340.08 122.34 339.31C122.632 338.539 123.049 337.945 123.591 337.525C124.133 337.106 124.785 336.896 125.546 336.896C126.307 336.896 126.959 337.106 127.501 337.525C128.043 337.945 128.46 338.539 128.752 339.31C129.048 340.08 129.196 340.996 129.196 342.058V342.071C129.196 343.133 129.048 344.051 128.752 344.826C128.46 345.596 128.043 346.191 127.501 346.61C126.959 347.03 126.307 347.239 125.546 347.239ZM125.546 345.961C125.988 345.961 126.364 345.804 126.674 345.489C126.988 345.175 127.228 344.728 127.392 344.149C127.56 343.566 127.645 342.873 127.645 342.071V342.058C127.645 341.256 127.56 340.565 127.392 339.986C127.228 339.408 126.988 338.963 126.674 338.653C126.364 338.339 125.988 338.182 125.546 338.182C125.108 338.182 124.732 338.339 124.418 338.653C124.108 338.963 123.869 339.408 123.7 339.986C123.536 340.565 123.454 341.256 123.454 342.058V342.071C123.454 342.873 123.536 343.566 123.7 344.149C123.869 344.728 124.108 345.175 124.418 345.489C124.732 345.804 125.108 345.961 125.546 345.961ZM134.651 347.239C133.89 347.239 133.239 347.03 132.696 346.61C132.154 346.191 131.737 345.596 131.445 344.826C131.154 344.051 131.008 343.133 131.008 342.071V342.058C131.008 340.996 131.154 340.08 131.445 339.31C131.737 338.539 132.154 337.945 132.696 337.525C133.239 337.106 133.89 336.896 134.651 336.896C135.412 336.896 136.064 337.106 136.606 337.525C137.149 337.945 137.566 338.539 137.857 339.31C138.154 340.08 138.302 340.996 138.302 342.058V342.071C138.302 343.133 138.154 344.051 137.857 344.826C137.566 345.596 137.149 346.191 136.606 346.61C136.064 347.03 135.412 347.239 134.651 347.239ZM134.651 345.961C135.093 345.961 135.469 345.804 135.779 345.489C136.094 345.175 136.333 344.728 136.497 344.149C136.666 343.566 136.75 342.873 136.75 342.071V342.058C136.75 341.256 136.666 340.565 136.497 339.986C136.333 339.408 136.094 338.963 135.779 338.653C135.469 338.339 135.093 338.182 134.651 338.182C134.214 338.182 133.838 338.339 133.523 338.653C133.214 338.963 132.974 339.408 132.806 339.986C132.642 340.565 132.56 341.256 132.56 342.058V342.071C132.56 342.873 132.642 343.566 132.806 344.149C132.974 344.728 133.214 345.175 133.523 345.489C133.838 345.804 134.214 345.961 134.651 345.961ZM141.378 345.646C141.095 345.646 140.856 345.549 140.66 345.353C140.469 345.157 140.373 344.922 140.373 344.648C140.373 344.366 140.469 344.129 140.66 343.938C140.856 343.746 141.095 343.65 141.378 343.65C141.665 343.65 141.904 343.746 142.096 343.938C142.287 344.129 142.383 344.366 142.383 344.648C142.383 344.922 142.287 345.157 142.096 345.353C141.904 345.549 141.665 345.646 141.378 345.646ZM141.378 340.479C141.095 340.479 140.856 340.381 140.66 340.185C140.469 339.989 140.373 339.754 140.373 339.48C140.373 339.198 140.469 338.961 140.66 338.77C140.856 338.578 141.095 338.482 141.378 338.482C141.665 338.482 141.904 338.578 142.096 338.77C142.287 338.961 142.383 339.198 142.383 339.48C142.383 339.754 142.287 339.989 142.096 340.185C141.904 340.381 141.665 340.479 141.378 340.479ZM148.091 347.239C147.33 347.239 146.678 347.03 146.136 346.61C145.593 346.191 145.176 345.596 144.885 344.826C144.593 344.051 144.447 343.133 144.447 342.071V342.058C144.447 340.996 144.593 340.08 144.885 339.31C145.176 338.539 145.593 337.945 146.136 337.525C146.678 337.106 147.33 336.896 148.091 336.896C148.852 336.896 149.504 337.106 150.046 337.525C150.588 337.945 151.005 338.539 151.297 339.31C151.593 340.08 151.741 340.996 151.741 342.058V342.071C151.741 343.133 151.593 344.051 151.297 344.826C151.005 345.596 150.588 346.191 150.046 346.61C149.504 347.03 148.852 347.239 148.091 347.239ZM148.091 345.961C148.533 345.961 148.909 345.804 149.219 345.489C149.533 345.175 149.772 344.728 149.937 344.149C150.105 343.566 150.189 342.873 150.189 342.071V342.058C150.189 341.256 150.105 340.565 149.937 339.986C149.772 339.408 149.533 338.963 149.219 338.653C148.909 338.339 148.533 338.182 148.091 338.182C147.653 338.182 147.277 338.339 146.963 338.653C146.653 338.963 146.414 339.408 146.245 339.986C146.081 340.565 145.999 341.256 145.999 342.058V342.071C145.999 342.873 146.081 343.566 146.245 344.149C146.414 344.728 146.653 345.175 146.963 345.489C147.277 345.804 147.653 345.961 148.091 345.961ZM157.196 347.239C156.435 347.239 155.784 347.03 155.241 346.61C154.699 346.191 154.282 345.596 153.99 344.826C153.699 344.051 153.553 343.133 153.553 342.071V342.058C153.553 340.996 153.699 340.08 153.99 339.31C154.282 338.539 154.699 337.945 155.241 337.525C155.784 337.106 156.435 336.896 157.196 336.896C157.957 336.896 158.609 337.106 159.151 337.525C159.694 337.945 160.111 338.539 160.402 339.31C160.699 340.08 160.847 340.996 160.847 342.058V342.071C160.847 343.133 160.699 344.051 160.402 344.826C160.111 345.596 159.694 346.191 159.151 346.61C158.609 347.03 157.957 347.239 157.196 347.239ZM157.196 345.961C157.638 345.961 158.014 345.804 158.324 345.489C158.639 345.175 158.878 344.728 159.042 344.149C159.211 343.566 159.295 342.873 159.295 342.071V342.058C159.295 341.256 159.211 340.565 159.042 339.986C158.878 339.408 158.639 338.963 158.324 338.653C158.014 338.339 157.638 338.182 157.196 338.182C156.759 338.182 156.383 338.339 156.068 338.653C155.758 338.963 155.519 339.408 155.351 339.986C155.187 340.565 155.104 341.256 155.104 342.058V342.071C155.104 342.873 155.187 343.566 155.351 344.149C155.519 344.728 155.758 345.175 156.068 345.489C156.383 345.804 156.759 345.961 157.196 345.961Z" fill="#A70719"/>
<path d="M41.639 359.347H48.065V361.149H41.639V359.347ZM38.001 367.116H45.991V368.918H38.001V367.116ZM40.67 357.749H42.744V364.056H40.67V357.749ZM36.93 363.002H47.079V369.513H44.988V364.804H38.919V369.53H36.93V363.002ZM39.973 353.567H42.098V356.661H39.973V353.567ZM34.873 355.556H48.303V357.494H34.873V355.556ZM33.87 355.556H35.91V359.857C35.91 362.611 35.655 366.827 34.108 369.496C33.734 369.156 32.833 368.561 32.34 368.357C33.768 365.909 33.87 362.322 33.87 359.857V355.556ZM56.446 355.811H65.405V357.63H56.446V355.811ZM56.633 358.667H63.756V360.384H58.418V369.513H56.633V358.667ZM63.178 358.667H65.065V367.439C65.065 368.255 64.963 368.816 64.453 369.139C63.96 369.462 63.348 369.513 62.498 369.513C62.447 368.969 62.175 368.119 61.92 367.609C62.362 367.643 62.821 367.643 62.974 367.626C63.127 367.626 63.178 367.575 63.178 367.405V358.667ZM59.829 353.567H61.682V369.53H59.829V353.567ZM57.67 361.523H64.011V363.07H57.67V361.523ZM57.67 364.226H64.011V365.943H57.67V364.226ZM61.886 354.553L62.872 353.448C63.688 353.839 64.674 354.468 65.167 354.978L64.13 356.202C63.671 355.692 62.702 354.995 61.886 354.553ZM50.7 357.8H55.613V359.5H50.7V357.8ZM49.884 360.741H56.089V362.475H49.884V360.741ZM50.054 363.427L51.346 363.104C51.635 364.056 51.873 365.246 51.958 366.062L50.581 366.419C50.547 365.603 50.309 364.379 50.054 363.427ZM49.697 367.32C51.38 367.048 53.913 366.572 56.293 366.096L56.463 367.779C54.236 368.272 51.873 368.782 50.088 369.156L49.697 367.32ZM54.763 362.968L56.225 363.325C55.919 364.294 55.647 365.365 55.392 366.079L54.168 365.739C54.389 364.974 54.644 363.784 54.763 362.968ZM52.213 358.48H53.964V367.643L52.213 367.949V358.48ZM52.128 353.567H53.199V353.941H53.777V354.468C53.114 355.76 52.077 357.511 50.394 359.041C50.122 358.633 49.544 357.987 49.17 357.715C50.598 356.491 51.601 354.893 52.128 353.567ZM52.451 353.567H53.862C54.865 354.417 56.106 355.641 56.718 356.525L55.409 358.089C54.882 357.222 53.726 355.777 52.808 355.012H52.451V353.567ZM72.477 367.014H80.093V368.867H72.477V367.014ZM71.627 355.233H77.645V357.035H71.627V355.233ZM72.069 353.465L74.364 353.924C72.919 356.406 70.879 358.684 67.819 360.52C67.53 360.01 66.85 359.262 66.391 358.905C69.196 357.426 71.083 355.352 72.069 353.465ZM76.999 355.233H77.39L77.73 355.131L79.141 355.879C77.152 361.166 72.613 364.634 67.547 366.334C67.292 365.773 66.782 364.94 66.357 364.515C71.049 363.155 75.435 359.857 76.999 355.573V355.233ZM69.4 358.973L70.913 357.647C72.086 358.48 73.633 359.687 74.381 360.571L72.732 362.05C72.086 361.166 70.573 359.857 69.4 358.973ZM79.141 361.829H81.266V369.547H79.141V361.829ZM73.344 361.829H80.161V363.682H73.344V369.513H71.304V363.342L72.851 361.829H73.344Z" fill="black"/>
<path d="M331.383 356.445V353.844H343.887V356.445H331.383ZM336.328 361.156V349.121H338.93V361.156H336.328ZM352.887 362.316C351.52 362.316 350.348 361.961 349.371 361.25C348.395 360.531 347.645 359.52 347.121 358.215C346.598 356.902 346.336 355.348 346.336 353.551V353.527C346.336 351.73 346.598 350.18 347.121 348.875C347.645 347.562 348.395 346.551 349.371 345.84C350.348 345.129 351.52 344.773 352.887 344.773C354.254 344.773 355.426 345.129 356.402 345.84C357.379 346.551 358.129 347.562 358.652 348.875C359.176 350.18 359.438 351.73 359.438 353.527V353.551C359.438 355.348 359.176 356.902 358.652 358.215C358.129 359.52 357.379 360.531 356.402 361.25C355.426 361.961 354.254 362.316 352.887 362.316ZM352.887 359.855C353.629 359.855 354.262 359.602 354.785 359.094C355.309 358.586 355.707 357.863 355.98 356.926C356.262 355.98 356.402 354.855 356.402 353.551V353.527C356.402 352.215 356.262 351.094 355.98 350.164C355.707 349.227 355.309 348.508 354.785 348.008C354.262 347.5 353.629 347.246 352.887 347.246C352.145 347.246 351.512 347.5 350.988 348.008C350.465 348.508 350.062 349.227 349.781 350.164C349.508 351.094 349.371 352.215 349.371 353.527V353.551C349.371 354.855 349.508 355.98 349.781 356.926C350.062 357.863 350.465 358.586 350.988 359.094C351.512 359.602 352.145 359.855 352.887 359.855Z" fill="#A70719"/>
</g>
<defs>
<filter id="filter0_d_1_8" x="-4" y="765.483" width="401" height="91" filterUnits="userSpaceOnUse" color-interpolation-filters="sRGB">
<feFlood flood-opacity="0" result="BackgroundImageFix"/>
<feColorMatrix in="SourceAlpha" type="matrix" values="0 0 0 0 0 0 0 0 0 0 0 0 0 0 0 0 0 0 127 0" result="hardAlpha"/>
<feOffset dy="-0.33"/>
<feGaussianBlur stdDeviation="2"/>
<feComposite in2="hardAlpha" operator="out"/>
<feColorMatrix type="matrix" values="0 0 0 0 0 0 0 0 0 0 0 0 0 0 0 0 0 0 0.3 0"/>
<feBlend mode="normal" in2="BackgroundImageFix" result="effect1_dropShadow_1_8"/>
<feBlend mode="normal" in="SourceGraphic" in2="effect1_dropShadow_1_8" result="shape"/>
</filter>
<filter id="filter1_d_1_8" x="156.5" y="741.813" width="80" height="80" filterUnits="userSpaceOnUse" color-interpolation-filters="sRGB">
<feFlood flood-opacity="0" result="BackgroundImageFix"/>
<feColorMatrix in="SourceAlpha" type="matrix" values="0 0 0 0 0 0 0 0 0 0 0 0 0 0 0 0 0 0 127 0" result="hardAlpha"/>
<feOffset dy="1"/>
<feGaussianBlur stdDeviation="2"/>
<feComposite in2="hardAlpha" operator="out"/>
<feColorMatrix type="matrix" values="0 0 0 0 0 0 0 0 0 0 0 0 0 0 0 0 0 0 0.6 0"/>
<feBlend mode="normal" in2="BackgroundImageFix" result="effect1_dropShadow_1_8"/>
<feBlend mode="normal" in="SourceGraphic" in2="effect1_dropShadow_1_8" result="shape"/>
</filter>
<filter id="filter2_i_1_8" x="186.5" y="762.813" width="21" height="21" filterUnits="userSpaceOnUse" color-interpolation-filters="sRGB">
<feFlood flood-opacity="0" result="BackgroundImageFix"/>
<feBlend mode="normal" in="SourceGraphic" in2="BackgroundImageFix" result="shape"/>
<feColorMatrix in="SourceAlpha" type="matrix" values="0 0 0 0 0 0 0 0 0 0 0 0 0 0 0 0 0 0 127 0" result="hardAlpha"/>
<feOffset dx="1" dy="1"/>
<feGaussianBlur stdDeviation="0.5"/>
<feComposite in2="hardAlpha" operator="arithmetic" k2="-1" k3="1"/>
<feColorMatrix type="matrix" values="0 0 0 0 0 0 0 0 0 0 0 0 0 0 0 0 0 0 0.25 0"/>
<feBlend mode="normal" in2="shape" result="effect1_innerShadow_1_8"/>
</filter>
<filter id="filter3_i_1_8" x="175.183" y="790.313" width="43.7343" height="10.43" filterUnits="userSpaceOnUse" color-interpolation-filters="sRGB">
<feFlood flood-opacity="0" result="BackgroundImageFix"/>
<feBlend mode="normal" in="SourceGraphic" in2="BackgroundImageFix" result="shape"/>
<feColorMatrix in="SourceAlpha" type="matrix" values="0 0 0 0 0 0 0 0 0 0 0 0 0 0 0 0 0 0 127 0" result="hardAlpha"/>
<feOffset dx="1" dy="1"/>
<feGaussianBlur stdDeviation="0.5"/>
<feComposite in2="hardAlpha" operator="arithmetic" k2="-1" k3="1"/>
<feColorMatrix type="matrix" values="0 0 0 0 0 0 0 0 0 0 0 0 0 0 0 0 0 0 0.25 0"/>
<feBlend mode="normal" in2="shape" result="effect1_innerShadow_1_8"/>
</filter>
<radialGradient id="paint0_radial_1_8" cx="0" cy="0" r="1" gradientUnits="userSpaceOnUse" gradientTransform="translate(197.062 782.501) rotate(57.0948) scale(34.1693)">
<stop stop-color="white"/>
<stop offset="0.85" stop-color="#EAEAEA"/>
</radialGradient>
<clipPath id="clip0_1_8">
<rect width="393" height="852" fill="white"/>
</clipPath>
<clipPath id="clip1_1_8">
<rect width="48" height="40" fill="white" transform="translate(16 776.813)"/>
</clipPath>
<clipPath id="clip2_1_8">
<rect width="48" height="40" fill="white" transform="translate(84 776.813)"/>
</clipPath>
<clipPath id="clip3_1_8">
<rect width="48" height="40" fill="white" transform="translate(261 776.813)"/>
</clipPath>
<clipPath id="clip4_1_8">
<rect width="48" height="40" fill="white" transform="translate(329 776.813)"/>
</clipPath>
<clipPath id="clip5_1_8">
<rect width="48" height="40" fill="white" transform="translate(172.5 760.813)"/>
</clipPath>
</defs>
</svg>
