<svg width="32" height="68" viewBox="0 0 32 68" fill="none" xmlns="http://www.w3.org/2000/svg">
<path fill-rule="evenodd" clip-rule="evenodd" d="M2 7.42857C2 6.63959 2.6268 6 3.4 6H28.6C29.3732 6 30 6.63959 30 7.42857V24.5714C30 25.3604 29.3732 26 28.6 26H3.4C2.6268 26 2 25.3604 2 24.5714V7.42857ZM3.4 8.85714H28.6V11.7143H3.4V8.85714ZM14.3231 16.7937C14.3231 17.3968 14.7773 17.7841 16.1898 18.1587C17.6022 18.5333 19.1142 19.1492 19.1142 20.9524C19.1142 22.254 18.1498 22.9714 16.9364 23.2064V23.619C16.9364 24.146 16.5196 24.5714 16.0031 24.5714C15.4867 24.5714 15.0698 24.146 15.0698 23.619V23.1937C14.1364 22.9905 13.3089 22.4698 12.9542 21.5873C12.7987 21.1937 13.0911 20.7619 13.508 20.7619H13.6822C13.9373 20.7619 14.1489 20.9397 14.2422 21.1873C14.4476 21.7206 14.9764 22.0952 16.0031 22.0952C17.3782 22.0952 17.6831 21.3968 17.6831 20.9587C17.6831 20.3683 17.372 19.8095 15.8164 19.4286C14.0804 19.0032 12.892 18.273 12.892 16.8063C12.892 15.581 13.8627 14.781 15.0698 14.5143V14.0952C15.0698 13.5683 15.4867 13.1429 16.0031 13.1429C16.5196 13.1429 16.9364 13.5683 16.9364 14.0952V14.5333C17.9071 14.7746 18.5169 15.3968 18.7782 16.146C18.9213 16.5397 18.6289 16.9524 18.2182 16.9524H18.0316C17.7702 16.9524 17.5649 16.7619 17.4902 16.5079C17.3284 15.9619 16.8867 15.619 16.0031 15.619C14.9516 15.619 14.3231 16.1016 14.3231 16.7937Z" fill="#999999"/>
<path fill-rule="evenodd" clip-rule="evenodd" d="M2 43.4286C2 42.6396 2.6268 42 3.4 42H28.6C29.3732 42 30 42.6396 30 43.4286V60.5714C30 61.3604 29.3732 62 28.6 62H3.4C2.6268 62 2 61.3604 2 60.5714V43.4286ZM3.4 44.8571H28.6V47.7143H3.4V44.8571ZM14.3231 52.7937C14.3231 53.3968 14.7773 53.7841 16.1898 54.1587C17.6022 54.5333 19.1142 55.1492 19.1142 56.9524C19.1142 58.254 18.1498 58.9714 16.9364 59.2064V59.619C16.9364 60.146 16.5196 60.5714 16.0031 60.5714C15.4867 60.5714 15.0698 60.146 15.0698 59.619V59.1937C14.1364 58.9905 13.3089 58.4698 12.9542 57.5873C12.7987 57.1937 13.0911 56.7619 13.508 56.7619H13.6822C13.9373 56.7619 14.1489 56.9397 14.2422 57.1873C14.4476 57.7206 14.9764 58.0952 16.0031 58.0952C17.3782 58.0952 17.6831 57.3968 17.6831 56.9587C17.6831 56.3683 17.372 55.8095 15.8164 55.4286C14.0804 55.0032 12.892 54.273 12.892 52.8063C12.892 51.581 13.8627 50.781 15.0698 50.5143V50.0952C15.0698 49.5683 15.4867 49.1429 16.0031 49.1429C16.5196 49.1429 16.9364 49.5683 16.9364 50.0952V50.5333C17.9071 50.7746 18.5169 51.3968 18.7782 52.146C18.9213 52.5397 18.6289 52.9524 18.2182 52.9524H18.0316C17.7702 52.9524 17.5649 52.7619 17.4902 52.5079C17.3284 51.9619 16.8867 51.619 16.0031 51.619C14.9516 51.619 14.3231 52.1016 14.3231 52.7937Z" fill="url(#paint0_linear_308_15484)"/>
<defs>
<linearGradient id="paint0_linear_308_15484" x1="11.8054" y1="42.5961" x2="29.2223" y2="51.2168" gradientUnits="userSpaceOnUse">
<stop stop-color="#389D37"/>
<stop offset="1" stop-color="#AEC35B"/>
</linearGradient>
</defs>
</svg>
