<svg width="24" height="24" viewBox="0 0 24 24" fill="none" xmlns="http://www.w3.org/2000/svg">
<path d="M7 12.5C7 12.2239 7.22386 12 7.5 12H8.5C8.77614 12 9 12.2239 9 12.5V16.5C9 16.7761 8.77614 17 8.5 17H7.5C7.22386 17 7 16.7761 7 16.5V12.5Z" fill="#389D37"/>
<path d="M11 10.5C11 10.2239 11.2239 10 11.5 10H12.5C12.7761 10 13 10.2239 13 10.5V16.5C13 16.7761 12.7761 17 12.5 17H11.5C11.2239 17 11 16.7761 11 16.5V10.5Z" fill="#389D37"/>
<path d="M15 7.5C15 7.22386 15.2239 7 15.5 7H16.5C16.7761 7 17 7.22386 17 7.5V16.5C17 16.7761 16.7761 17 16.5 17H15.5C15.2239 17 15 16.7761 15 16.5V7.5Z" fill="#389D37"/>
<path fill-rule="evenodd" clip-rule="evenodd" d="M6 3H18C19.6569 3 21 4.34315 21 6V18C21 19.6569 19.6569 21 18 21H6C4.34315 21 3 19.6569 3 18V6C3 4.34315 4.34315 3 6 3ZM6 5C5.44772 5 5 5.44772 5 6V18C5 18.5523 5.44772 19 6 19H18C18.5523 19 19 18.5523 19 18V6C19 5.44772 18.5523 5 18 5H6Z" fill="#389D37"/>
</svg>
