<svg width="24" height="24" viewBox="0 0 24 24" fill="none" xmlns="http://www.w3.org/2000/svg">
<path fill-rule="evenodd" clip-rule="evenodd" d="M2.94854 11.2987C3.53817 10.9343 4.27445 10.9012 4.89443 11.2111L11.5528 14.5403C11.8343 14.6811 12.1657 14.6811 12.4472 14.5403L19.1056 11.2111C19.7255 10.9012 20.4618 10.9343 21.0515 11.2987C21.6411 11.6631 22 12.3068 22 13V20C22 21.1046 21.1046 22 20 22H4C2.89543 22 2 21.1046 2 20V13C2 12.3068 2.3589 11.6631 2.94854 11.2987ZM20 13L12.8944 16.5528C12.3314 16.8343 11.6686 16.8343 11.1056 16.5528L4 13V20H20V13Z" fill="#389D37"/>
<path d="M7 2H17C18.6569 2 20 3.34315 20 5V10C19.6943 9.99999 19.3879 10.07 19.1056 10.2111L18 10.7639V5C18 4.44772 17.5523 4 17 4H7C6.44772 4 6 4.44772 6 5V10.7639L4.89443 10.2111C4.61212 10.07 4.30571 9.99999 4 10V5C4 3.34315 5.34315 2 7 2Z" fill="#389D37"/>
<path d="M12.135 8.51111C11.1135 8.24889 10.785 7.97778 10.785 7.55556C10.785 7.07111 11.2395 6.73333 12 6.73333C12.639 6.73333 12.9585 6.97333 13.0755 7.35556C13.1295 7.53333 13.278 7.66667 13.467 7.66667H13.602C13.899 7.66667 14.1105 7.37778 14.007 7.10222C13.818 6.57778 13.377 6.14222 12.675 5.97333V5.66667C12.675 5.29778 12.3735 5 12 5C11.6265 5 11.325 5.29778 11.325 5.66667V5.96C10.452 6.14667 9.75 6.70667 9.75 7.56444C9.75 8.59111 10.6095 9.10222 11.865 9.4C12.99 9.66667 13.215 10.0578 13.215 10.4711C13.215 10.7778 12.9945 11.2667 12 11.2667C11.2575 11.2667 10.875 11.0044 10.7265 10.6311C10.659 10.4578 10.506 10.3333 10.3215 10.3333H10.1955C9.894 10.3333 9.6825 10.6356 9.795 10.9111C10.0515 11.5289 10.65 11.8933 11.325 12.0356V12.3333C11.325 12.7022 11.6265 13 12 13C12.3735 13 12.675 12.7022 12.675 12.3333V12.0444C13.5525 11.88 14.25 11.3778 14.25 10.4667C14.25 9.20445 13.1565 8.77333 12.135 8.51111Z" fill="#389D37"/>
</svg>
