<svg width="24" height="24" viewBox="0 0 24 24" fill="none" xmlns="http://www.w3.org/2000/svg">
<path fill-rule="evenodd" clip-rule="evenodd" d="M6 4H18C20.2091 4 22 5.79086 22 8V16C22 16.0671 21.9983 16.1339 21.9951 16.2002C21.8233 15.2242 21.3605 14.2894 20.6066 13.5355C20.4153 13.3442 20.2123 13.1716 20 13.0178V10H4V16C4 17.1046 4.89543 18 6 18H12.1576C12.2908 18.7077 12.5775 19.3922 13.0178 20H6C3.79086 20 2 18.2091 2 16V8C2 5.79086 3.79086 4 6 4ZM6 6C4.89543 6 4 6.89543 4 8H20C20 6.89543 19.1046 6 18 6H6Z" fill="#389D37"/>
<path d="M6 12H9V14H6V12Z" fill="#389D37"/>
<path fill-rule="evenodd" clip-rule="evenodd" d="M20.4168 19.1033C21.3227 17.5694 21.1166 15.5605 19.7988 14.2426C18.2367 12.6806 15.704 12.6805 14.1419 14.2426C12.5798 15.8047 12.5798 18.3374 14.1419 19.8995C15.4598 21.2174 17.4686 21.4234 19.0026 20.5175L20.1523 21.6673C20.5428 22.0578 21.176 22.0578 21.5665 21.6673C21.957 21.2767 21.957 20.6435 21.5665 20.253L20.4168 19.1033ZM18.3845 15.6569C19.1656 16.4379 19.1656 17.7042 18.3845 18.4853C17.6035 19.2663 16.3372 19.2664 15.5561 18.4853C14.775 17.7042 14.7751 16.4379 15.5561 15.6569C16.3372 14.8758 17.6035 14.8758 18.3845 15.6569Z" fill="#389D37"/>
</svg>
