<svg width="24" height="24" viewBox="0 0 24 24" fill="none" xmlns="http://www.w3.org/2000/svg">
<path fill-rule="evenodd" clip-rule="evenodd" d="M8 2H16C17.6569 2 19 3.34315 19 5V19C19 20.6569 17.6569 22 16 22H8C6.34315 22 5 20.6569 5 19V5C5 3.34315 6.34315 2 8 2ZM8 4C7.44772 4 7 4.44772 7 5V19C7 19.5523 7.44772 20 8 20H16C16.5523 20 17 19.5523 17 19V5C17 4.44772 16.5523 4 16 4H8Z" fill="#389D37"/>
<path d="M12.215 12.3889C10.9665 12.0611 10.565 11.7222 10.565 11.1944C10.565 10.5889 11.1205 10.1667 12.05 10.1667C12.831 10.1667 13.2215 10.4667 13.3645 10.9444C13.4305 11.1667 13.612 11.3333 13.843 11.3333H14.008C14.371 11.3333 14.6295 10.9722 14.503 10.6278C14.272 9.97222 13.733 9.42778 12.875 9.21667V8.83333C12.875 8.37222 12.5065 8 12.05 8C11.5935 8 11.225 8.37222 11.225 8.83333V9.2C10.158 9.43333 9.3 10.1333 9.3 11.2056C9.3 12.4889 10.3505 13.1278 11.885 13.5C13.26 13.8333 13.535 14.3222 13.535 14.8389C13.535 15.2222 13.2655 15.8333 12.05 15.8333C11.1425 15.8333 10.675 15.5056 10.4935 15.0389C10.411 14.8222 10.224 14.6667 9.9985 14.6667H9.8445C9.476 14.6667 9.2175 15.0444 9.355 15.3889C9.6685 16.1611 10.4 16.6167 11.225 16.7944V17.1667C11.225 17.6278 11.5935 18 12.05 18C12.5065 18 12.875 17.6278 12.875 17.1667V16.8056C13.9475 16.6 14.8 15.9722 14.8 14.8333C14.8 13.2556 13.4635 12.7167 12.215 12.3889Z" fill="#389D37"/>
<path d="M10 5.5C10 5.22386 10.2239 5 10.5 5H13.5C13.7761 5 14 5.22386 14 5.5C14 5.77614 13.7761 6 13.5 6H10.5C10.2239 6 10 5.77614 10 5.5Z" fill="#389D37"/>
</svg>
