<svg width="24" height="24" viewBox="0 0 24 24" fill="none" xmlns="http://www.w3.org/2000/svg">
<path fill-rule="evenodd" clip-rule="evenodd" d="M20 6.58579C20 6.32057 19.8946 6.06622 19.7071 5.87868L16.1213 2.29289C15.9338 2.10536 15.6794 2 15.4142 2H7C5.34315 2 4 3.34315 4 5V19C4 20.6569 5.34314 22 7 22H17C18.6569 22 20 20.6569 20 19V6.58579ZM18 7V19C18 19.5523 17.5523 20 17 20H7C6.44772 20 6 19.5523 6 19V5C6 4.44772 6.44772 4 7 4H15V6C15 6.55228 15.4477 7 16 7H18Z" fill="#389D37"/>
<path fill-rule="evenodd" clip-rule="evenodd" d="M16.169 9.25671C16.5795 9.62616 16.6128 10.2585 16.2433 10.669L11.7433 15.669C11.5469 15.8872 11.2645 16.0081 10.971 15.9996C10.6775 15.9911 10.4026 15.854 10.2191 15.6247L8.21913 13.1247C7.87412 12.6934 7.94404 12.0641 8.37531 11.7191C8.80657 11.3741 9.43586 11.444 9.78087 11.8753L11.0449 13.4553L14.7567 9.33104C15.1262 8.92053 15.7585 8.88725 16.169 9.25671Z" fill="#389D37"/>
</svg>
