<svg width="24" height="24" viewBox="0 0 24 24" fill="none" xmlns="http://www.w3.org/2000/svg">
<path fill-rule="evenodd" clip-rule="evenodd" d="M4 3C3.44772 3 3 3.44772 3 4V10C3 10.5523 3.44772 11 4 11H10C10.5523 11 11 10.5523 11 10V4C11 3.44772 10.5523 3 10 3H4ZM5 9V5H9V9H5Z" fill="#389D37"/>
<path fill-rule="evenodd" clip-rule="evenodd" d="M14 3C13.4477 3 13 3.44772 13 4V10C13 10.5523 13.4477 11 14 11H20C20.5523 11 21 10.5523 21 10V4C21 3.44772 20.5523 3 20 3H14ZM15 9V5H19V9H15Z" fill="#389D37"/>
<path fill-rule="evenodd" clip-rule="evenodd" d="M3 14C3 13.4477 3.44772 13 4 13H10C10.5523 13 11 13.4477 11 14V20C11 20.5523 10.5523 21 10 21H4C3.44772 21 3 20.5523 3 20V14ZM5 15V19H9V15H5Z" fill="#389D37"/>
<path d="M13.5 13C13.2239 13 13 13.2239 13 13.5V15.5C13 15.7761 13.2239 16 13.5 16H14.9996C15.2842 15.6212 15.6212 15.2842 16 14.9996V13.5C16 13.2239 15.7761 13 15.5 13H13.5Z" fill="#389D37"/>
<path d="M21 14.416C20.3875 14.1484 19.7111 14 19 14V13.5C19 13.2239 19.2239 13 19.5 13H20.5C20.7761 13 21 13.2239 21 13.5V14.416Z" fill="#389D37"/>
<path d="M14 19C14 19.7111 14.1484 20.3875 14.416 21H13.5C13.2239 21 13 20.7761 13 20.5V19.5C13 19.2239 13.2239 19 13.5 19H14Z" fill="#389D37"/>
<path fill-rule="evenodd" clip-rule="evenodd" d="M19 23C21.2091 23 23 21.2091 23 19C23 16.7909 21.2091 15 19 15C16.7909 15 15 16.7909 15 19C15 21.2091 16.7909 23 19 23ZM21.3841 17.8201C21.5609 17.608 21.5322 17.2927 21.3201 17.1159C21.108 16.9391 20.7927 16.9678 20.6159 17.1799L18.4664 19.7593L17.3536 18.6465C17.1583 18.4512 16.8417 18.4512 16.6464 18.6465C16.4512 18.8417 16.4512 19.1583 16.6464 19.3536L18.1464 20.8536C18.2458 20.9529 18.3823 21.0059 18.5227 20.9995C18.663 20.9931 18.7942 20.928 18.8841 20.8201L21.3841 17.8201Z" fill="#389D37"/>
</svg>
