<svg width="24" height="24" viewBox="0 0 24 24" fill="none" xmlns="http://www.w3.org/2000/svg">
<path fill-rule="evenodd" clip-rule="evenodd" d="M20 6.58579C20 6.32057 19.8946 6.06622 19.7071 5.87868L16.1213 2.29289C15.9338 2.10536 15.6794 2 15.4142 2H7C5.34315 2 4 3.34315 4 5V19C4 20.6569 5.34314 22 7 22H17C18.6569 22 20 20.6569 20 19V6.58579ZM18 7V19C18 19.5523 17.5523 20 17 20H7C6.44772 20 6 19.5523 6 19V5C6 4.44772 6.44772 4 7 4H15V6C15 6.55228 15.4477 7 16 7H18Z" fill="#389D37"/>
<path d="M12.2033 11.2667C10.69 10.8733 10.2033 10.4667 10.2033 9.83333C10.2033 9.10667 10.8767 8.6 12.0033 8.6C12.95 8.6 13.4233 8.96 13.5967 9.53333C13.6767 9.8 13.8967 10 14.1767 10H14.3767C14.8167 10 15.13 9.56667 14.9767 9.15333C14.6967 8.36667 14.0433 7.71333 13.0033 7.46V7C13.0033 6.44667 12.5567 6 12.0033 6C11.45 6 11.0033 6.44667 11.0033 7V7.44C9.71 7.72 8.67 8.56 8.67 9.84667C8.67 11.3867 9.94333 12.1533 11.8033 12.6C13.47 13 13.8033 13.5867 13.8033 14.2067C13.8033 14.6667 13.4767 15.4 12.0033 15.4C10.9033 15.4 10.3367 15.0067 10.1167 14.4467C10.0167 14.1867 9.79 14 9.51667 14H9.33C8.88333 14 8.57 14.4533 8.73667 14.8667C9.11667 15.7933 10.0033 16.34 11.0033 16.5533V17C11.0033 17.5533 11.45 18 12.0033 18C12.5567 18 13.0033 17.5533 13.0033 17V16.5667C14.3033 16.32 15.3367 15.5667 15.3367 14.2C15.3367 12.3067 13.7167 11.66 12.2033 11.2667Z" fill="#389D37"/>
</svg>
