<svg width="24" height="24" viewBox="0 0 24 24" fill="none" xmlns="http://www.w3.org/2000/svg">
<path d="M9 12H6V14H9V12Z" fill="#389D37"/>
<path fill-rule="evenodd" clip-rule="evenodd" d="M2.35355 4.47492C2.15829 4.27966 2.15829 3.96308 2.35355 3.76781L3.06066 3.06071C3.25592 2.86544 3.5725 2.86544 3.76777 3.06071L21.0919 20.3848C21.2871 20.5801 21.2871 20.8967 21.0919 21.0919L20.3848 21.799C20.1895 21.9943 19.8729 21.9943 19.6777 21.799L17.8787 20H6C3.79086 20 2 18.2092 2 16V8.00003C2 6.92632 2.42305 5.95142 3.11155 5.23292L2.35355 4.47492ZM7.87866 10L15.8787 18H6C4.89543 18 4 17.1046 4 16V10H7.87866ZM4.52641 6.64778L5.87866 8.00003H4C4 7.47861 4.19953 7.0038 4.52641 6.64778Z" fill="#389D37"/>
<path d="M10.1213 8.00003H20C20 6.89546 19.1046 6.00003 18 6.00003H8.1213L6.1213 4.00003H18C20.2091 4.00003 22 5.79089 22 8.00003V16C22 17.0737 21.5769 18.0487 20.8884 18.7672L19.4736 17.3523C19.8005 16.9963 20 16.5215 20 16V10H12.1213L10.1213 8.00003Z" fill="#389D37"/>
</svg>
