<svg width="24" height="24" viewBox="0 0 24 24" fill="none" xmlns="http://www.w3.org/2000/svg">
<path d="M4 3C3.44772 3 3 3.44772 3 4V8.53513C3.58835 8.19479 4.27143 8 5 8V5H9V9H7.64582C8.23623 9.5211 8.67162 10.2138 8.87398 11H10C10.5523 11 11 10.5523 11 10V4C11 3.44772 10.5523 3 10 3H4Z" fill="#389D37"/>
<path d="M3 15.4649V20C3 20.5523 3.44772 21 4 21H10C10.5523 21 11 20.5523 11 20V14C11 13.4477 10.5523 13 10 13H8.87398C8.67162 13.7862 8.23623 14.4789 7.64582 15H9V19H5V16C4.27143 16 3.58835 15.8052 3 15.4649Z" fill="#389D37"/>
<path fill-rule="evenodd" clip-rule="evenodd" d="M14 3C13.4477 3 13 3.44772 13 4V10C13 10.5523 13.4477 11 14 11H20C20.5523 11 21 10.5523 21 10V4C21 3.44772 20.5523 3 20 3H14ZM15 9V5H19V9H15Z" fill="#389D37"/>
<path d="M13.5 13C13.2239 13 13 13.2239 13 13.5V15.5C13 15.7761 13.2239 16 13.5 16H15.5C15.7761 16 16 15.7761 16 15.5V13.5C16 13.2239 15.7761 13 15.5 13H13.5Z" fill="#389D37"/>
<path d="M16 16.5C16 16.2239 16.2239 16 16.5 16H17.5C17.7761 16 18 16.2239 18 16.5V17.5C18 17.7761 17.7761 18 17.5 18H16.5C16.2239 18 16 17.7761 16 17.5V16.5Z" fill="#389D37"/>
<path d="M13.5 19C13.2239 19 13 19.2239 13 19.5V20.5C13 20.7761 13.2239 21 13.5 21H14.5C14.7761 21 15 20.7761 15 20.5V19.5C15 19.2239 14.7761 19 14.5 19H13.5Z" fill="#389D37"/>
<path d="M19 13.5C19 13.2239 19.2239 13 19.5 13H20.5C20.7761 13 21 13.2239 21 13.5V14.5C21 14.7761 20.7761 15 20.5 15H19.5C19.2239 15 19 14.7761 19 14.5V13.5Z" fill="#389D37"/>
<path d="M18.5 18C18.2239 18 18 18.2239 18 18.5V20.5C18 20.7761 18.2239 21 18.5 21H20.5C20.7761 21 21 20.7761 21 20.5V18.5C21 18.2239 20.7761 18 20.5 18H18.5Z" fill="#389D37"/>
<path fill-rule="evenodd" clip-rule="evenodd" d="M5 15C6.65685 15 8 13.6569 8 12C8 10.3431 6.65685 9 5 9C3.34315 9 2 10.3431 2 12C2 13.6569 3.34315 15 5 15ZM6.85355 11.6464L5.35355 10.1464C5.15829 9.95118 4.84171 9.95118 4.64645 10.1464C4.45118 10.3417 4.45118 10.6583 4.64645 10.8536L5.29289 11.5H3.5C3.22386 11.5 3 11.7239 3 12C3 12.2761 3.22386 12.5 3.5 12.5H5.29289L4.64645 13.1464C4.45118 13.3417 4.45118 13.6583 4.64645 13.8536C4.84171 14.0488 5.15829 14.0488 5.35355 13.8536L6.85355 12.3536C7.04882 12.1583 7.04882 11.8417 6.85355 11.6464Z" fill="#389D37"/>
</svg>
