<svg width="24" height="24" viewBox="0 0 24 24" fill="none" xmlns="http://www.w3.org/2000/svg">
<path fill-rule="evenodd" clip-rule="evenodd" d="M12 17C13.6569 17 15 15.6569 15 14C15 12.3431 13.6569 11 12 11C10.3431 11 9 12.3431 9 14C9 15.6569 10.3431 17 12 17ZM11.4011 13.2778C11.4011 13.4889 11.5633 13.6244 12.0678 13.7556C12.5722 13.8867 13.1122 14.1022 13.1122 14.7333C13.1122 15.1889 12.7678 15.44 12.3345 15.5222V15.6667C12.3345 15.8511 12.1856 16 12.0011 16C11.8167 16 11.6678 15.8511 11.6678 15.6667V15.5178C11.3345 15.4467 11.0389 15.2644 10.9122 14.9556C10.8567 14.8178 10.9611 14.6667 11.11 14.6667H11.1722C11.2633 14.6667 11.3389 14.7289 11.3722 14.8156C11.4456 15.0022 11.6345 15.1333 12.0011 15.1333C12.4922 15.1333 12.6011 14.8889 12.6011 14.7356C12.6011 14.5289 12.49 14.3333 11.9345 14.2C11.3145 14.0511 10.89 13.7956 10.89 13.2822C10.89 12.8533 11.2367 12.5733 11.6678 12.48V12.3333C11.6678 12.1489 11.8167 12 12.0011 12C12.1856 12 12.3345 12.1489 12.3345 12.3333V12.4867C12.6811 12.5711 12.8989 12.7889 12.9922 13.0511C13.0433 13.1889 12.9389 13.3333 12.7922 13.3333H12.7256C12.6322 13.3333 12.5589 13.2667 12.5322 13.1778C12.4745 12.9867 12.3167 12.8667 12.0011 12.8667C11.6256 12.8667 11.4011 13.0356 11.4011 13.2778Z" fill="#389D37"/>
<path d="M12.7071 2.29289C12.3166 1.90237 11.6834 1.90237 11.2929 2.29289L8.79289 4.79289C8.40237 5.18342 8.40237 5.81658 8.79289 6.20711C9.18342 6.59763 9.81658 6.59763 10.2071 6.20711L11 5.41421V9C11 9.55228 11.4477 10 12 10C12.5523 10 13 9.55228 13 9V5.41421L13.7929 6.20711C14.1834 6.59763 14.8166 6.59763 15.2071 6.20711C15.5976 5.81658 15.5976 5.18342 15.2071 4.79289L12.7071 2.29289Z" fill="#389D37"/>
<path d="M5 7H8.17702C8.68832 7.45183 9.3754 7.59743 10 7.43682V9H7V10C7 11.1046 6.10457 12 5 12H4V16H5C6.10457 16 7 16.8954 7 18V19H17V18C17 16.8954 17.8954 16 19 16H20V12H19C17.8954 12 17 11.1046 17 10V9H14V7.43682C14.6246 7.59743 15.3117 7.45183 15.823 7H19C20.6569 7 22 8.34315 22 10V18C22 19.6569 20.6569 21 19 21H5C3.34315 21 2 19.6569 2 18V10C2 8.34315 3.34315 7 5 7Z" fill="#389D37"/>
</svg>
