<svg width="24" height="24" viewBox="0 0 24 24" fill="none" xmlns="http://www.w3.org/2000/svg">
<path d="M20 6.58579C20 6.32057 19.8946 6.06622 19.7071 5.87868L16.1213 2.29289C15.9338 2.10536 15.6794 2 15.4142 2H7C5.34315 2 4 3.34315 4 5V19C4 20.6569 5.34314 22 7 22H17C17.0104 22 17.0208 21.9999 17.0311 21.9998C15.7649 21.9898 14.5017 21.5017 13.5355 20.5355C13.3657 20.3657 13.2106 20.1866 13.0703 20H7C6.44771 20 6 19.5523 6 19V5C6 4.44772 6.44772 4 7 4H15V6C15 6.55228 15.4477 7 16 7H18V12.0866C18.7077 12.2197 19.3922 12.5064 20 12.9468V6.58579Z" fill="#389D37"/>
<path d="M14.07 13H9C8.44772 13 8 13.4477 8 14C8 14.5523 8.44772 15 9 15H12.487C12.73 14.4426 13.0795 13.9205 13.5355 13.4645C13.7051 13.2949 13.8838 13.1401 14.07 13Z" fill="#389D37"/>
<path d="M12.1715 16H9C8.44772 16 8 16.4477 8 17C8 17.5523 8.44772 18 9 18H12.1715C12.0376 17.3406 12.0376 16.6594 12.1715 16Z" fill="#389D37"/>
<path d="M8 7C8 6.44772 8.44772 6 9 6H12C12.5523 6 13 6.44772 13 7C13 7.55228 12.5523 8 12 8H9C8.44772 8 8 7.55228 8 7Z" fill="#389D37"/>
<path d="M9 10C8.44772 10 8 10.4477 8 11C8 11.5523 8.44772 12 9 12H15C15.5523 12 16 11.5523 16 11C16 10.4477 15.5523 10 15 10H9Z" fill="#389D37"/>
<path fill-rule="evenodd" clip-rule="evenodd" d="M20.4533 19.0322C21.3592 17.4983 21.1532 15.4895 19.8353 14.1716C18.2732 12.6095 15.7405 12.6095 14.1784 14.1716C12.6163 15.7337 12.6164 18.2664 14.1784 19.8284C15.4963 21.1463 17.5052 21.3523 19.0391 20.4465L20.1888 21.5962C20.5793 21.9867 21.2125 21.9867 21.603 21.5962C21.9936 21.2057 21.9935 20.5725 21.603 20.182L20.4533 19.0322ZM18.4211 15.5858C19.2021 16.3669 19.2021 17.6332 18.4211 18.4142C17.64 19.1953 16.3737 19.1953 15.5926 18.4142C14.8116 17.6331 14.8116 16.3668 15.5926 15.5858C16.3737 14.8047 17.64 14.8047 18.4211 15.5858Z" fill="#389D37"/>
</svg>
