<svg width="24" height="24" viewBox="0 0 24 24" fill="none" xmlns="http://www.w3.org/2000/svg">
<path fill-rule="evenodd" clip-rule="evenodd" d="M20 6.58579C20 6.32057 19.8946 6.06622 19.7071 5.87868L16.1213 2.29289C15.9338 2.10536 15.6794 2 15.4142 2H7C5.34315 2 4 3.34315 4 5V19C4 20.6569 5.34314 22 7 22H17C18.6569 22 20 20.6569 20 19V6.58579ZM18 7V19C18 19.5523 17.5523 20 17 20H7C6.44772 20 6 19.5523 6 19V5C6 4.44772 6.44772 4 7 4H15V6C15 6.55228 15.4477 7 16 7H18Z" fill="#389D37"/>
<path d="M8 7C8 6.44772 8.44772 6 9 6H12C12.5523 6 13 6.44772 13 7C13 7.55228 12.5523 8 12 8H9C8.44772 8 8 7.55228 8 7Z" fill="#389D37"/>
<path d="M8 11C8 10.4477 8.44772 10 9 10H15C15.5523 10 16 10.4477 16 11C16 11.5523 15.5523 12 15 12H9C8.44772 12 8 11.5523 8 11Z" fill="#389D37"/>
<path d="M8 14C8 13.4477 8.44772 13 9 13H15C15.5523 13 16 13.4477 16 14C16 14.5523 15.5523 15 15 15H9C8.44772 15 8 14.5523 8 14Z" fill="#389D37"/>
<path d="M8 17C8 16.4477 8.44772 16 9 16H15C15.5523 16 16 16.4477 16 17C16 17.5523 15.5523 18 15 18H9C8.44772 18 8 17.5523 8 17Z" fill="#389D37"/>
</svg>
