<svg width="32" height="68" viewBox="0 0 32 68" fill="none" xmlns="http://www.w3.org/2000/svg">
<path d="M11.8 2C13.7902 2 15.1308 2.8965 16 4.1284C16.8692 2.8965 18.2098 2 20.2 2C23.2928 2 25.8 4.1938 25.8 6.9C25.8 7.65152 25.6066 8.36352 25.2611 9H28.6C29.3732 9 30 9.6268 30 10.4V14.6C30 15.3732 29.3732 16 28.6 16H17.4V9H20.2C22.1093 9 23 7.72029 23 6.9C23 6.07971 22.1093 4.8 20.2 4.8C19.1458 4.8 18.589 5.23056 18.1612 5.93638C17.6468 6.78524 17.4 7.98906 17.4 9H14.6C14.6 7.98906 14.3532 6.78524 13.8388 5.93638C13.411 5.23056 12.8542 4.8 11.8 4.8C9.89071 4.8 9 6.07971 9 6.9C9 7.72029 9.89071 9 11.8 9H14.6V16H3.4C2.6268 16 2 15.3732 2 14.6V10.4C2 9.6268 2.6268 9 3.4 9H6.7389C6.39335 8.36352 6.2 7.65152 6.2 6.9C6.2 4.1938 8.70721 2 11.8 2Z" fill="#999999"/>
<path d="M4.8 18.8H14.6V30H6.2C5.4268 30 4.8 29.3732 4.8 28.6V18.8Z" fill="#999999"/>
<path d="M27.2 18.8H17.4V30H25.8C26.5732 30 27.2 29.3732 27.2 28.6V18.8Z" fill="#999999"/>
<path d="M11.8 38C13.7902 38 15.1308 38.8965 16 40.1284C16.8692 38.8965 18.2098 38 20.2 38C23.2928 38 25.8 40.1938 25.8 42.9C25.8 43.6515 25.6066 44.3635 25.2611 45H28.6C29.3732 45 30 45.6268 30 46.4V50.6C30 51.3732 29.3732 52 28.6 52H17.4V45H20.2C22.1093 45 23 43.7203 23 42.9C23 42.0797 22.1093 40.8 20.2 40.8C19.1458 40.8 18.589 41.2306 18.1612 41.9364C17.6468 42.7852 17.4 43.9891 17.4 45H14.6C14.6 43.9891 14.3532 42.7852 13.8388 41.9364C13.411 41.2306 12.8542 40.8 11.8 40.8C9.89071 40.8 9 42.0797 9 42.9C9 43.7203 9.89071 45 11.8 45H14.6V52H3.4C2.6268 52 2 51.3732 2 50.6V46.4C2 45.6268 2.6268 45 3.4 45H6.7389C6.39335 44.3635 6.2 43.6515 6.2 42.9C6.2 40.1938 8.70721 38 11.8 38Z" fill="url(#paint0_linear_308_15487)"/>
<path d="M4.8 54.8H14.6V66H6.2C5.4268 66 4.8 65.3732 4.8 64.6V54.8Z" fill="url(#paint1_linear_308_15487)"/>
<path d="M27.2 54.8H17.4V66H25.8C26.5732 66 27.2 65.3732 27.2 64.6V54.8Z" fill="url(#paint2_linear_308_15487)"/>
<defs>
<linearGradient id="paint0_linear_308_15487" x1="11.8054" y1="38.8345" x2="31.0801" y2="45.649" gradientUnits="userSpaceOnUse">
<stop stop-color="#389D37"/>
<stop offset="1" stop-color="#AEC35B"/>
</linearGradient>
<linearGradient id="paint1_linear_308_15487" x1="11.8054" y1="38.8345" x2="31.0801" y2="45.649" gradientUnits="userSpaceOnUse">
<stop stop-color="#389D37"/>
<stop offset="1" stop-color="#AEC35B"/>
</linearGradient>
<linearGradient id="paint2_linear_308_15487" x1="11.8054" y1="38.8345" x2="31.0801" y2="45.649" gradientUnits="userSpaceOnUse">
<stop stop-color="#389D37"/>
<stop offset="1" stop-color="#AEC35B"/>
</linearGradient>
</defs>
</svg>
