<svg width="24" height="24" viewBox="0 0 24 24" fill="none" xmlns="http://www.w3.org/2000/svg">
<path fill-rule="evenodd" clip-rule="evenodd" d="M19 2H5C3.34315 2 2 3.34315 2 5V19C2 20.6569 3.34315 22 5 22H19C20.6569 22 22 20.6569 22 19V5C22 3.34315 20.6569 2 19 2ZM4 5C4 4.44772 4.44772 4 5 4H19C19.5523 4 20 4.44772 20 5V19C20 19.5523 19.5523 20 19 20H5C4.44772 20 4 19.5523 4 19V14.7143H5.81077L7.26499 16.6089C7.46205 16.8656 7.77118 17.0111 8.09461 16.9993C8.41804 16.9876 8.71578 16.82 8.89366 16.5496L13.1452 10.0875L14.1602 12.4017C14.3196 12.7652 14.679 13 15.076 13H18C18.5523 13 19 12.5523 19 12C19 11.4477 18.5523 11 18 11H15.7293L14.2373 7.59834C14.0901 7.26265 13.771 7.03442 13.4057 7.00356C13.0405 6.9727 12.6876 7.14416 12.4861 7.45039L7.99553 14.2759L7.09709 13.1054C6.90783 12.8588 6.61466 12.7143 6.30383 12.7143H4V5Z" fill="#389D37"/>
</svg>
