<svg width="24" height="24" viewBox="0 0 24 24" fill="none" xmlns="http://www.w3.org/2000/svg">
<path fill-rule="evenodd" clip-rule="evenodd" d="M19 2H5C3.34315 2 2 3.34315 2 5V19C2 20.6569 3.34315 22 5 22H14.9995C14.3132 21.4844 13.7639 20.7963 13.416 20H5C4.44772 20 4 19.5523 4 19V14.7143H5.81077L7.26499 16.6089C7.46205 16.8656 7.77118 17.0111 8.09461 16.9993C8.41804 16.9876 8.71578 16.82 8.89366 16.5496L13.1452 10.0875L14.1602 12.4017C14.3196 12.7652 14.679 13 15.076 13H17.9892L12.1104 8.02149L12.1125 8.01828L18 13L18.0044 13C18.5547 12.9976 19 12.5508 19 12C19 11.4477 18.5523 11 18 11H15.7293L14.2373 7.59834C14.0901 7.26265 13.771 7.03442 13.4057 7.00356C13.0405 6.9727 12.6876 7.14416 12.4861 7.45039L12.1125 8.01828L7.36363 4H19C19.5523 4 20 4.44772 20 5V13.416C20.7963 13.7639 21.4844 14.3132 22 14.9995V5C22 3.34315 20.6569 2 19 2ZM7.36167 4L12.1104 8.02149L7.99553 14.2759L7.09709 13.1054C6.90783 12.8588 6.61466 12.7143 6.30383 12.7143H4V5C4 4.44772 4.44772 4 5 4H7.36167ZM7.36167 4L5 2L7.36363 4H7.36167Z" fill="#389D37"/>
<path fill-rule="evenodd" clip-rule="evenodd" d="M22 18C22 20.2091 20.2091 22 18 22C15.7909 22 14 20.2091 14 18C14 15.7909 15.7909 14 18 14C20.2091 14 22 15.7909 22 18ZM18.0967 17.6333C17.34 17.4367 17.0967 17.2333 17.0967 16.9167C17.0967 16.5533 17.4333 16.3 17.9967 16.3C18.47 16.3 18.7067 16.48 18.7933 16.7667C18.8333 16.9 18.9433 17 19.0833 17H19.1833C19.4033 17 19.56 16.7833 19.4833 16.5767C19.3433 16.1833 19.0167 15.8567 18.4967 15.73V15.5C18.4967 15.2233 18.2733 15 17.9967 15C17.72 15 17.4967 15.2233 17.4967 15.5V15.72C16.85 15.86 16.33 16.28 16.33 16.9233C16.33 17.6933 16.9667 18.0767 17.8967 18.3C18.73 18.5 18.8967 18.7933 18.8967 19.1033C18.8967 19.3333 18.7333 19.7 17.9967 19.7C17.4467 19.7 17.1633 19.5033 17.0533 19.2233C17.0033 19.0933 16.89 19 16.7533 19H16.66C16.4367 19 16.28 19.2267 16.3633 19.4333C16.5533 19.8967 16.9967 20.17 17.4967 20.2767V20.5C17.4967 20.7767 17.72 21 17.9967 21C18.2733 21 18.4967 20.7767 18.4967 20.5V20.2833C19.1467 20.16 19.6633 19.7833 19.6633 19.1C19.6633 18.1533 18.8533 17.83 18.0967 17.6333Z" fill="#389D37"/>
</svg>
