<svg width="24" height="24" viewBox="0 0 24 24" fill="none" xmlns="http://www.w3.org/2000/svg">
<path fill-rule="evenodd" clip-rule="evenodd" d="M6.4443 3.6853C8.08879 2.58649 10.0222 2 12 2C14.6512 2.00302 17.193 3.05756 19.0677 4.93227C20.9424 6.80698 21.997 9.34876 22 12C22 12.8799 21.8839 13.7509 21.6583 14.5917C20.7456 13.6124 19.4443 13 18 13C17.5002 13 17.0174 13.0733 16.562 13.2099L16.0407 12.9493C15.9045 12.8812 15.7936 12.7714 15.7242 12.6358C15.6548 12.5002 15.6306 12.346 15.655 12.1957L16.1714 9.00286C16.2038 8.84099 16.2912 8.69533 16.4188 8.59063C16.5464 8.48594 16.7064 8.42867 16.8714 8.42857H19.7814C19.3148 7.41519 18.6549 6.50264 17.8386 5.74214L17.2121 6.68214C17.1469 6.77994 17.0585 6.86012 16.9548 6.91557C16.8512 6.97101 16.7354 7.00002 16.6179 7H15.5714C15.382 7 15.2003 6.92474 15.0664 6.79079C14.9324 6.65683 14.8571 6.47515 14.8571 6.28571V3.92857C13.7492 3.53004 12.5704 3.36682 11.3959 3.44934C10.2214 3.53187 9.07701 3.85831 8.03572 4.40786L8.6623 5.3486C8.75502 5.4878 8.91119 5.57143 9.07845 5.57143H10.4792C10.6586 5.57143 10.8242 5.4753 10.9133 5.31953L11.1319 4.93693C11.2689 4.69719 11.5743 4.61391 11.8141 4.75091L12.1859 4.96337C12.4257 5.10037 12.509 5.40578 12.372 5.64554L9.92301 9.93186C9.87985 10.0074 9.85715 10.0929 9.85715 10.1799V11.5C9.85715 11.7761 9.63329 12 9.35715 12H8.92857C8.65243 12 8.42857 11.7761 8.42857 11.5V11.0714C8.42857 10.7953 8.20472 10.5714 7.92858 10.5714H7.50282C7.37022 10.5714 7.24304 10.6241 7.14927 10.7179L6.0662 11.8009C5.8977 11.9694 5.87153 12.2334 6.00366 12.4317L6.51944 13.2058C6.61216 13.345 6.76831 13.4286 6.93553 13.4286H10.1893C10.3069 13.4286 10.4226 13.4576 10.5263 13.513C10.6299 13.5684 10.7183 13.6486 10.7836 13.7464L11.7914 15.2586C11.8558 15.3549 11.8957 15.4655 11.9077 15.5807C11.9198 15.696 11.9037 15.8124 11.8607 15.92L10.5714 19.1429L10.1629 20.3679C10.7661 20.5017 11.3821 20.57 12 20.5714C12.5459 20.5709 13.0885 20.5182 13.6208 20.415C13.8776 20.8796 14.2062 21.2991 14.5917 21.6583C13.1146 22.0547 11.5604 22.1085 10.0491 21.8078C8.10929 21.422 6.32746 20.4696 4.92894 19.0711C3.53041 17.6725 2.578 15.8907 2.19215 13.9509C1.8063 12.0111 2.00433 10.0004 2.76121 8.17316C3.51809 6.3459 4.79981 4.78412 6.4443 3.6853ZM4.49374 12.7427C4.43206 12.6502 4.34131 12.5809 4.23583 12.5457L3.44286 12.2814C3.49153 13.7347 3.90913 15.1518 4.65637 16.3992C5.4036 17.6466 6.45591 18.6835 7.71429 19.4121V17.7143L5.78072 15.7807C5.64675 15.6468 5.57147 15.4651 5.57143 15.2757V14.5107C5.57143 14.412 5.54221 14.3155 5.48746 14.2333L4.49374 12.7427Z" fill="#389D37"/>
<path fill-rule="evenodd" clip-rule="evenodd" d="M18 22C20.2091 22 22 20.2091 22 18C22 15.7909 20.2091 14 18 14C15.7909 14 14 15.7909 14 18C14 20.2091 15.7909 22 18 22ZM17.0967 16.9167C17.0967 17.2333 17.34 17.4367 18.0967 17.6333C18.8533 17.83 19.6633 18.1533 19.6633 19.1C19.6633 19.7833 19.1467 20.16 18.4967 20.2833V20.5C18.4967 20.7767 18.2733 21 17.9967 21C17.72 21 17.4967 20.7767 17.4967 20.5V20.2767C16.9967 20.17 16.5533 19.8967 16.3633 19.4333C16.28 19.2267 16.4367 19 16.66 19H16.7533C16.89 19 17.0033 19.0933 17.0533 19.2233C17.1633 19.5033 17.4467 19.7 17.9967 19.7C18.7333 19.7 18.8967 19.3333 18.8967 19.1033C18.8967 18.7933 18.73 18.5 17.8967 18.3C16.9667 18.0767 16.33 17.6933 16.33 16.9233C16.33 16.28 16.85 15.86 17.4967 15.72V15.5C17.4967 15.2233 17.72 15 17.9967 15C18.2733 15 18.4967 15.2233 18.4967 15.5V15.73C19.0167 15.8567 19.3433 16.1833 19.4833 16.5767C19.56 16.7833 19.4033 17 19.1833 17H19.0833C18.9433 17 18.8333 16.9 18.7933 16.7667C18.7067 16.48 18.47 16.3 17.9967 16.3C17.4333 16.3 17.0967 16.5533 17.0967 16.9167Z" fill="#389D37"/>
</svg>
