<svg width="24" height="24" viewBox="0 0 24 24" fill="none" xmlns="http://www.w3.org/2000/svg">
<path d="M20 6.58579C20 6.32057 19.8946 6.06622 19.7071 5.87868L16.1213 2.29289C15.9338 2.10536 15.6794 2 15.4142 2H7C5.34315 2 4 3.34315 4 5V19C4 20.6569 5.34314 22 7 22H14.9995C14.3132 21.4844 13.7639 20.7963 13.416 20H7C6.44771 20 6 19.5523 6 19V5C6 4.44772 6.44772 4 7 4H15V6C15 6.55228 15.4477 7 16 7H18V13C18.7111 13 19.3875 13.1484 20 13.416V6.58579Z" fill="#389D37"/>
<path d="M15.8555 13.4819C15.6802 13.193 15.3626 13 15 13H9C8.44772 13 8 13.4477 8 14C8 14.5523 8.44772 15 9 15H13.9996C14.4838 14.3553 15.1203 13.8315 15.8555 13.4819Z" fill="#389D37"/>
<path d="M13.416 16H9C8.44772 16 8 16.4477 8 17C8 17.5523 8.44772 18 9 18H13C13 17.2889 13.1484 16.6125 13.416 16Z" fill="#389D37"/>
<path d="M8 7C8 6.44772 8.44772 6 9 6H12C12.5523 6 13 6.44772 13 7C13 7.55228 12.5523 8 12 8H9C8.44772 8 8 7.55228 8 7Z" fill="#389D37"/>
<path d="M9 10C8.44772 10 8 10.4477 8 11C8 11.5523 8.44772 12 9 12H15C15.5523 12 16 11.5523 16 11C16 10.4477 15.5523 10 15 10H9Z" fill="#389D37"/>
<path fill-rule="evenodd" clip-rule="evenodd" d="M18 22C20.2091 22 22 20.2091 22 18C22 15.7909 20.2091 14 18 14C15.7909 14 14 15.7909 14 18C14 20.2091 15.7909 22 18 22ZM17.0967 16.9167C17.0967 17.2333 17.34 17.4367 18.0967 17.6333C18.8533 17.83 19.6633 18.1533 19.6633 19.1C19.6633 19.7833 19.1467 20.16 18.4967 20.2833V20.5C18.4967 20.7767 18.2733 21 17.9967 21C17.72 21 17.4967 20.7767 17.4967 20.5V20.2767C16.9967 20.17 16.5533 19.8967 16.3633 19.4333C16.28 19.2267 16.4367 19 16.66 19H16.7533C16.89 19 17.0033 19.0933 17.0533 19.2233C17.1633 19.5033 17.4467 19.7 17.9967 19.7C18.7333 19.7 18.8967 19.3333 18.8967 19.1033C18.8967 18.7933 18.73 18.5 17.8967 18.3C16.9667 18.0767 16.33 17.6933 16.33 16.9233C16.33 16.28 16.85 15.86 17.4967 15.72V15.5C17.4967 15.2233 17.72 15 17.9967 15C18.2733 15 18.4967 15.2233 18.4967 15.5V15.73C19.0167 15.8567 19.3433 16.1833 19.4833 16.5767C19.56 16.7833 19.4033 17 19.1833 17H19.0833C18.9433 17 18.8333 16.9 18.7933 16.7667C18.7067 16.48 18.47 16.3 17.9967 16.3C17.4333 16.3 17.0967 16.5533 17.0967 16.9167Z" fill="#389D37"/>
</svg>
