<svg width="24" height="24" viewBox="0 0 24 24" fill="none" xmlns="http://www.w3.org/2000/svg">
<path fill-rule="evenodd" clip-rule="evenodd" d="M20 6.58579C20 6.32057 19.8946 6.06622 19.7071 5.87868L16.1213 2.29289C15.9338 2.10536 15.6794 2 15.4142 2H7C5.34315 2 4 3.34315 4 5V19C4 20.6569 5.34314 22 7 22H17C18.6569 22 20 20.6569 20 19V6.58579ZM18 7V19C18 19.5523 17.5523 20 17 20H7C6.44772 20 6 19.5523 6 19V5C6 4.44772 6.44772 4 7 4H15V6C15 6.55228 15.4477 7 16 7H18Z" fill="#389D37"/>
<path d="M12.165 11.3889C10.9165 11.0611 10.515 10.7222 10.515 10.1944C10.515 9.58889 11.0705 9.16667 12 9.16667C12.781 9.16667 13.1715 9.46667 13.3145 9.94444C13.3805 10.1667 13.562 10.3333 13.793 10.3333H13.958C14.321 10.3333 14.5795 9.97222 14.453 9.62778C14.222 8.97222 13.683 8.42778 12.825 8.21667V7.83333C12.825 7.37222 12.4565 7 12 7C11.5435 7 11.175 7.37222 11.175 7.83333V8.2C10.108 8.43333 9.25 9.13333 9.25 10.2056C9.25 11.4889 10.3005 12.1278 11.835 12.5C13.21 12.8333 13.485 13.3222 13.485 13.8389C13.485 14.2222 13.2155 14.8333 12 14.8333C11.0925 14.8333 10.625 14.5056 10.4435 14.0389C10.361 13.8222 10.174 13.6667 9.9485 13.6667H9.7945C9.426 13.6667 9.1675 14.0444 9.305 14.3889C9.6185 15.1611 10.35 15.6167 11.175 15.7944V16.1667C11.175 16.6278 11.5435 17 12 17C12.4565 17 12.825 16.6278 12.825 16.1667V15.8056C13.8975 15.6 14.75 14.9722 14.75 13.8333C14.75 12.2556 13.4135 11.7167 12.165 11.3889Z" fill="#389D37"/>
</svg>
