<svg width="24" height="24" viewBox="0 0 24 24" fill="none" xmlns="http://www.w3.org/2000/svg">
<path fill-rule="evenodd" clip-rule="evenodd" d="M19 2H5C3.34315 2 2 3.34315 2 5V19C2 20.6569 3.34315 22 5 22H14.9995C14.3132 21.4844 13.7639 20.7963 13.416 20H5C4.44772 20 4 19.5523 4 19V14.7143H5.81077L7.26499 16.6089C7.46205 16.8656 7.77118 17.0111 8.09461 16.9993C8.41804 16.9876 8.71578 16.82 8.89366 16.5496L13.1452 10.0875L14.1602 12.4017C14.3196 12.7652 14.679 13 15.076 13H17.9892L12.1104 8.02149L12.1125 8.01828L18 13L18.0044 13C18.5547 12.9976 19 12.5508 19 12C19 11.4477 18.5523 11 18 11H15.7293L14.2373 7.59834C14.0901 7.26265 13.771 7.03442 13.4057 7.00356C13.0405 6.9727 12.6876 7.14416 12.4861 7.45039L12.1125 8.01828L7.36363 4H19C19.5523 4 20 4.44772 20 5V13.416C20.7963 13.7639 21.4844 14.3132 22 14.9995V5C22 3.34315 20.6569 2 19 2ZM7.36167 4L12.1104 8.02149L7.99553 14.2759L7.09709 13.1054C6.90783 12.8588 6.61466 12.7143 6.30383 12.7143H4V5C4 4.44772 4.44772 4 5 4H7.36167ZM7.36167 4L5 2L7.36363 4H7.36167Z" fill="#389D37"/>
<path d="M16.5 17C16.7762 17 17 16.7761 17 16.5C17 16.2238 16.7762 16 16.5 16C16.2239 16 16 16.2238 16 16.5C16 16.7761 16.2239 17 16.5 17Z" fill="#389D37"/>
<path d="M20 19.5C20 19.7761 19.7762 20 19.5 20C19.2239 20 19 19.7761 19 19.5C19 19.2238 19.2239 19 19.5 19C19.7762 19 20 19.2238 20 19.5Z" fill="#389D37"/>
<path fill-rule="evenodd" clip-rule="evenodd" d="M22 18C22 20.2091 20.2091 22 18 22C15.7909 22 14 20.2091 14 18C14 15.7909 15.7909 14 18 14C20.2091 14 22 15.7909 22 18ZM17.8 16.5C17.8 17.2179 17.218 17.8 16.5 17.8C15.782 17.8 15.2 17.2179 15.2 16.5C15.2 15.782 15.782 15.2 16.5 15.2C17.218 15.2 17.8 15.782 17.8 16.5ZM20.3536 15.6464C20.5488 15.8417 20.5488 16.1583 20.3536 16.3536L16.3536 20.3536C16.1583 20.5488 15.8417 20.5488 15.6464 20.3536C15.4512 20.1583 15.4512 19.8417 15.6464 19.6464L19.6464 15.6464C19.8417 15.4512 20.1583 15.4512 20.3536 15.6464ZM19.5 20.8C20.218 20.8 20.8 20.2179 20.8 19.5C20.8 18.782 20.218 18.2 19.5 18.2C18.782 18.2 18.2 18.782 18.2 19.5C18.2 20.2179 18.782 20.8 19.5 20.8Z" fill="#389D37"/>
</svg>
