<svg width="24" height="24" viewBox="0 0 24 24" fill="none" xmlns="http://www.w3.org/2000/svg">
<path fill-rule="evenodd" clip-rule="evenodd" d="M19.4142 19.1075C20.3201 17.5735 20.114 15.5647 18.7962 14.2468C17.2341 12.6847 14.7014 12.6847 13.1393 14.2468C11.5772 15.8089 11.5772 18.3416 13.1393 19.9037C14.4572 21.2215 16.466 21.4276 18 20.5217L19.1497 21.6714C19.5402 22.0619 20.1734 22.062 20.5639 21.6714C20.9544 21.2809 20.9544 20.6477 20.5639 20.2572L19.4142 19.1075ZM17.3819 15.661C18.163 16.4421 18.163 17.7084 17.3819 18.4895C16.6009 19.2705 15.3346 19.2705 14.5535 18.4895C13.7724 17.7084 13.7725 16.4421 14.5535 15.661C15.3346 14.88 16.6009 14.8799 17.3819 15.661Z" fill="#389D37"/>
<path d="M10.9971 2.58997L20.0578 11.6506C20.2531 11.8459 20.2531 12.1625 20.0578 12.3577L19.3507 13.0648C19.304 13.1115 19.2504 13.1471 19.1931 13.1714C18.8443 12.8915 18.4666 12.6652 18.0712 12.4925L10.9971 5.41839L3.3507 13.0648C3.15544 13.2601 2.83885 13.2601 2.64359 13.0648L1.93649 12.3577C1.74122 12.1625 1.74122 11.8459 1.93649 11.6506L10.9971 2.58997Z" fill="#389D37"/>
<path d="M10.9971 13.0042C11.5881 13.0042 12.1392 13.175 12.6036 13.4701C12.5798 13.493 12.5562 13.5162 12.5327 13.5397C12.0645 14.0079 11.7086 14.5458 11.4649 15.1201C11.3253 15.0461 11.1661 15.0042 10.9971 15.0042C10.4449 15.0042 9.99715 15.4519 9.99715 16.0042V20.0042H11.9971V19.9793C12.1554 20.2007 12.334 20.412 12.5327 20.6107C13.2941 21.3721 14.24 21.8366 15.2264 22.0042H4.99715C4.44486 22.0042 3.99715 21.5565 3.99715 21.0042V13.8295C4.01777 13.811 4.03801 13.7919 4.05782 13.7721L5.99715 11.8327V20.0042H7.99715V16.0042C7.99715 14.3473 9.34029 13.0042 10.9971 13.0042Z" fill="#389D37"/>
</svg>
