<svg width="24" height="24" viewBox="0 0 24 24" fill="none" xmlns="http://www.w3.org/2000/svg">
<path fill-rule="evenodd" clip-rule="evenodd" d="M5 4H19C20.6569 4 22 5.34315 22 7V16.2286C21.8323 15.2424 21.3678 14.2967 20.6066 13.5355C20.4153 13.3442 20.2123 13.1716 20 13.0178V7.32873L13.317 13.1763C12.563 13.8361 11.4371 13.8361 10.683 13.1763L4 7.32871V17C4 17.5523 4.44772 18 5 18H12.1576C12.2908 18.7077 12.5775 19.3922 13.0178 20H5C3.34315 20 2 18.6569 2 17V7C2 5.34314 3.34315 4 5 4ZM12 11.6712L5.51866 6H18.4814L12 11.6712Z" fill="#389D37"/>
<path fill-rule="evenodd" clip-rule="evenodd" d="M20.417 19.1033C21.3229 17.5694 21.1169 15.5605 19.799 14.2426C18.2369 12.6805 15.7042 12.6805 14.1421 14.2426C12.5801 15.8047 12.5801 18.3374 14.1421 19.8995C15.46 21.2174 17.4689 21.4234 19.0028 20.5175L20.1526 21.6672C20.5431 22.0577 21.1763 22.0578 21.5668 21.6672C21.9573 21.2767 21.9573 20.6435 21.5668 20.253L20.417 19.1033ZM18.3848 15.6568C19.1659 16.4379 19.1658 17.7042 18.3848 18.4853C17.6037 19.2663 16.3374 19.2663 15.5564 18.4853C14.7753 17.7042 14.7753 16.4379 15.5564 15.6568C16.3374 14.8758 17.6037 14.8758 18.3848 15.6568Z" fill="#389D37"/>
</svg>
