<svg width="32" height="68" viewBox="0 0 32 68" fill="none" xmlns="http://www.w3.org/2000/svg">
<path d="M2 5.78571C2 5.35178 2.34822 5 2.77778 5H29.2222C29.6518 5 30 5.35178 30 5.78571V7.35714C30 7.79108 29.6518 8.14286 29.2222 8.14286H2.77778C2.34822 8.14286 2 7.79108 2 7.35714V5.78571Z" fill="#999999"/>
<path d="M2 15.2143C2 14.7803 2.34822 14.4286 2.77778 14.4286H29.2222C29.6518 14.4286 30 14.7803 30 15.2143V16.7857C30 17.2197 29.6518 17.5714 29.2222 17.5714H2.77778C2.34822 17.5714 2 17.2197 2 16.7857V15.2143Z" fill="#999999"/>
<path d="M2 24.6429C2 24.2089 2.34822 23.8571 2.77778 23.8571H29.2222C29.6518 23.8571 30 24.2089 30 24.6429V26.2143C30 26.6482 29.6518 27 29.2222 27H2.77778C2.34822 27 2 26.6482 2 26.2143V24.6429Z" fill="#999999"/>
<path d="M2 41.7857C2 41.3518 2.34822 41 2.77778 41H29.2222C29.6518 41 30 41.3518 30 41.7857V43.3571C30 43.7911 29.6518 44.1429 29.2222 44.1429H2.77778C2.34822 44.1429 2 43.7911 2 43.3571V41.7857Z" fill="url(#paint0_linear_308_15488)"/>
<path d="M2 51.2143C2 50.7803 2.34822 50.4286 2.77778 50.4286H29.2222C29.6518 50.4286 30 50.7803 30 51.2143V52.7857C30 53.2197 29.6518 53.5714 29.2222 53.5714H2.77778C2.34822 53.5714 2 53.2197 2 52.7857V51.2143Z" fill="url(#paint1_linear_308_15488)"/>
<path d="M2 60.6429C2 60.2089 2.34822 59.8571 2.77778 59.8571H29.2222C29.6518 59.8571 30 60.2089 30 60.6429V62.2143C30 62.6482 29.6518 63 29.2222 63H2.77778C2.34822 63 2 62.6482 2 62.2143V60.6429Z" fill="url(#paint2_linear_308_15488)"/>
<defs>
<linearGradient id="paint0_linear_308_15488" x1="11.8054" y1="41.6557" x2="29.8382" y2="49.7699" gradientUnits="userSpaceOnUse">
<stop stop-color="#389D37"/>
<stop offset="1" stop-color="#AEC35B"/>
</linearGradient>
<linearGradient id="paint1_linear_308_15488" x1="11.8054" y1="41.6557" x2="29.8382" y2="49.7699" gradientUnits="userSpaceOnUse">
<stop stop-color="#389D37"/>
<stop offset="1" stop-color="#AEC35B"/>
</linearGradient>
<linearGradient id="paint2_linear_308_15488" x1="11.8054" y1="41.6557" x2="29.8382" y2="49.7699" gradientUnits="userSpaceOnUse">
<stop stop-color="#389D37"/>
<stop offset="1" stop-color="#AEC35B"/>
</linearGradient>
</defs>
</svg>
