<svg width="24" height="24" viewBox="0 0 24 24" fill="none" xmlns="http://www.w3.org/2000/svg">
<path d="M2 7V17C2 18.6569 3.34315 20 5 20H12.9996C12.5629 19.4186 12.25 18.7389 12.1 18H5C4.44772 18 4 17.5523 4 17V7C4 6.44771 4.44772 6 5 6H19C19.5523 6 20 6.44772 20 7V12.9996C21.2144 13.9118 22 15.3642 22 17V7C22 5.34315 20.6569 4 19 4H5C3.34315 4 2 5.34315 2 7Z" fill="#389D37"/>
<path d="M19 12.416V8H17.6602L16 9.4359V10.9439L17.5757 9.58004H17.6558V12.0426C18.1277 12.1044 18.579 12.2321 19 12.416Z" fill="#389D37"/>
<path d="M15.2548 12.313C15.2579 12.2114 15.2594 12.1079 15.2594 12.0026V11.9921C15.2594 11.1694 15.1668 10.461 14.9816 9.86684C14.7964 9.26917 14.532 8.80861 14.1884 8.48517C13.8448 8.16172 13.4327 8 12.9523 8C12.4745 8 12.0624 8.16172 11.7161 8.48517C11.3725 8.80861 11.1081 9.26917 10.9229 9.86684C10.7377 10.461 10.6451 11.1694 10.6451 11.9921V12.0026C10.6451 12.8218 10.7377 13.5302 10.9229 14.1279C11.1081 14.7256 11.3725 15.1879 11.7161 15.5148C11.8483 15.6383 11.9901 15.7382 12.1414 15.8145C12.2427 15.3979 12.3962 15.0017 12.5945 14.6332C12.513 14.5798 12.4376 14.5063 12.3684 14.4127C12.21 14.1947 12.0879 13.8818 12.002 13.474C11.9188 13.0661 11.8772 12.5757 11.8772 12.0026V11.9921C11.8772 11.4155 11.9188 10.9251 12.002 10.5208C12.0879 10.1129 12.21 9.8018 12.3684 9.58734C12.5295 9.36937 12.7241 9.26038 12.9523 9.26038C13.1831 9.26038 13.3777 9.36937 13.5361 9.58734C13.6972 9.8018 13.8193 10.1129 13.9025 10.5208C13.9884 10.9251 14.0313 11.4155 14.0313 11.9921V12.0026C14.0313 12.3759 14.0131 12.7141 13.9767 13.0173C14.3627 12.7238 14.7926 12.4852 15.2548 12.313Z" fill="#389D37"/>
<path fill-rule="evenodd" clip-rule="evenodd" d="M6.07104 15.5148C6.41731 15.8383 6.82935 16 7.30716 16C7.78765 16 8.19969 15.8383 8.54328 15.5148C8.88688 15.1879 9.15128 14.7256 9.3365 14.1279C9.52171 13.5302 9.61432 12.8218 9.61432 12.0026V11.9921C9.61432 11.1694 9.52171 10.461 9.3365 9.86684C9.15128 9.26917 8.88688 8.80861 8.54328 8.48517C8.19969 8.16172 7.78765 8 7.30716 8C6.82935 8 6.41731 8.16172 6.07104 8.48517C5.72745 8.80861 5.46304 9.26917 5.27783 9.86684C5.09261 10.461 5 11.1694 5 11.9921V12.0026C5 12.8218 5.09261 13.5302 5.27783 14.1279C5.46304 14.7256 5.72745 15.1879 6.07104 15.5148ZM7.891 14.4127C7.73262 14.6306 7.53801 14.7396 7.30716 14.7396C7.079 14.7396 6.88438 14.6306 6.72332 14.4127C6.56495 14.1947 6.44281 13.8818 6.35692 13.474C6.2737 13.0661 6.2321 12.5757 6.2321 12.0026V11.9921C6.2321 11.4155 6.2737 10.9251 6.35692 10.5208C6.44281 10.1129 6.56495 9.8018 6.72332 9.58734C6.88438 9.36937 7.079 9.26038 7.30716 9.26038C7.53801 9.26038 7.73262 9.36937 7.891 9.58734C8.05206 9.8018 8.17419 10.1129 8.25741 10.5208C8.3433 10.9251 8.38625 11.4155 8.38625 11.9921V12.0026C8.38625 12.5757 8.3433 13.0661 8.25741 13.474C8.17419 13.8818 8.05206 14.1947 7.891 14.4127Z" fill="#389D37"/>
<path fill-rule="evenodd" clip-rule="evenodd" d="M20.346 19.0323C21.2519 17.4983 21.0458 15.4895 19.7279 14.1716C18.1659 12.6095 15.6332 12.6095 14.0711 14.1716C12.509 15.7337 12.509 18.2664 14.0711 19.8284C15.389 21.1463 17.3978 21.3524 18.9318 20.4465L20.0815 21.5962C20.472 21.9867 21.1052 21.9867 21.4957 21.5962C21.8862 21.2057 21.8862 20.5725 21.4957 20.182L20.346 19.0323ZM18.3137 15.5858C19.0948 16.3669 19.0948 17.6332 18.3137 18.4142C17.5327 19.1953 16.2664 19.1953 15.4853 18.4142C14.7042 17.6331 14.7042 16.3669 15.4853 15.5858C16.2664 14.8047 17.5326 14.8047 18.3137 15.5858Z" fill="#389D37"/>
</svg>
