<svg width="24" height="24" viewBox="0 0 24 24" fill="none" xmlns="http://www.w3.org/2000/svg">
<path fill-rule="evenodd" clip-rule="evenodd" d="M2 17V7C2 5.34315 3.34315 4 5 4H19C20.6569 4 22 5.34315 22 7V17C22 18.6569 20.6569 20 19 20H5C3.34315 20 2 18.6569 2 17ZM4 17C4 17.5523 4.44772 18 5 18H19C19.5523 18 20 17.5523 20 17V7C20 6.44772 19.5523 6 19 6H5C4.44772 6 4 6.44771 4 7V17Z" fill="#389D37"/>
<path d="M17.6558 16V9.58004H17.5757L16 10.9439V9.4359L17.6602 8H19V16H17.6558Z" fill="#389D37"/>
<path d="M12.9523 16C12.4745 16 12.0624 15.8383 11.7161 15.5148C11.3725 15.1879 11.1081 14.7256 10.9229 14.1279C10.7377 13.5302 10.6451 12.8218 10.6451 12.0026V11.9921C10.6451 11.1694 10.7377 10.461 10.9229 9.86684C11.1081 9.26917 11.3725 8.80861 11.7161 8.48517C12.0624 8.16172 12.4745 8 12.9523 8C13.4327 8 13.8448 8.16172 14.1884 8.48517C14.532 8.80861 14.7964 9.26917 14.9816 9.86684C15.1668 10.461 15.2594 11.1694 15.2594 11.9921V12.0026C15.2594 12.8218 15.1668 13.5302 14.9816 14.1279C14.7964 14.7256 14.532 15.1879 14.1884 15.5148C13.8448 15.8383 13.4327 16 12.9523 16ZM12.9523 14.7396C13.1831 14.7396 13.3777 14.6306 13.5361 14.4127C13.6972 14.1947 13.8193 13.8818 13.9025 13.474C13.9884 13.0661 14.0313 12.5757 14.0313 12.0026V11.9921C14.0313 11.4155 13.9884 10.9251 13.9025 10.5208C13.8193 10.1129 13.6972 9.8018 13.5361 9.58734C13.3777 9.36937 13.1831 9.26038 12.9523 9.26038C12.7241 9.26038 12.5295 9.36937 12.3684 9.58734C12.21 9.8018 12.0879 10.1129 12.002 10.5208C11.9188 10.9251 11.8772 11.4155 11.8772 11.9921V12.0026C11.8772 12.5757 11.9188 13.0661 12.002 13.474C12.0879 13.8818 12.21 14.1947 12.3684 14.4127C12.5295 14.6306 12.7241 14.7396 12.9523 14.7396Z" fill="#389D37"/>
<path d="M7.30716 16C6.82935 16 6.41731 15.8383 6.07104 15.5148C5.72745 15.1879 5.46304 14.7256 5.27783 14.1279C5.09261 13.5302 5 12.8218 5 12.0026V11.9921C5 11.1694 5.09261 10.461 5.27783 9.86684C5.46304 9.26917 5.72745 8.80861 6.07104 8.48517C6.41731 8.16172 6.82935 8 7.30716 8C7.78765 8 8.19969 8.16172 8.54328 8.48517C8.88688 8.80861 9.15128 9.26917 9.3365 9.86684C9.52171 10.461 9.61432 11.1694 9.61432 11.9921V12.0026C9.61432 12.8218 9.52171 13.5302 9.3365 14.1279C9.15128 14.7256 8.88688 15.1879 8.54328 15.5148C8.19969 15.8383 7.78765 16 7.30716 16ZM7.30716 14.7396C7.53801 14.7396 7.73262 14.6306 7.891 14.4127C8.05206 14.1947 8.17419 13.8818 8.25741 13.474C8.3433 13.0661 8.38625 12.5757 8.38625 12.0026V11.9921C8.38625 11.4155 8.3433 10.9251 8.25741 10.5208C8.17419 10.1129 8.05206 9.8018 7.891 9.58734C7.73262 9.36937 7.53801 9.26038 7.30716 9.26038C7.079 9.26038 6.88438 9.36937 6.72332 9.58734C6.56495 9.8018 6.44281 10.1129 6.35692 10.5208C6.2737 10.9251 6.2321 11.4155 6.2321 11.9921V12.0026C6.2321 12.5757 6.2737 13.0661 6.35692 13.474C6.44281 13.8818 6.56495 14.1947 6.72332 14.4127C6.88438 14.6306 7.079 14.7396 7.30716 14.7396Z" fill="#389D37"/>
</svg>
