<svg width="24" height="24" viewBox="0 0 24 24" fill="none" xmlns="http://www.w3.org/2000/svg">
<path fill-rule="evenodd" clip-rule="evenodd" d="M4 3C3.44772 3 3 3.44772 3 4V10C3 10.5523 3.44772 11 4 11H10C10.5523 11 11 10.5523 11 10V4C11 3.44772 10.5523 3 10 3H4ZM5 9V5H9V9H5Z" fill="#389D37"/>
<path d="M14 3C13.4477 3 13 3.44772 13 4V10C13 10.5523 13.4477 11 14 11H15.126C15.3284 10.2138 15.7638 9.5211 16.3542 9H15V5H19V8C19.7286 8 20.4117 8.19479 21 8.53513V4C21 3.44772 20.5523 3 20 3H14Z" fill="#389D37"/>
<path d="M15.126 13C15.2854 13.6194 15.5895 14.1807 16 14.6458V15.5C16 15.7761 15.7761 16 15.5 16H13.5C13.2239 16 13 15.7761 13 15.5V13.5C13 13.2239 13.2239 13 13.5 13H15.126Z" fill="#389D37"/>
<path fill-rule="evenodd" clip-rule="evenodd" d="M3 14C3 13.4477 3.44772 13 4 13H10C10.5523 13 11 13.4477 11 14V20C11 20.5523 10.5523 21 10 21H4C3.44772 21 3 20.5523 3 20V14ZM5 15V19H9V15H5Z" fill="#389D37"/>
<path d="M16 16.5C16 16.2239 16.2239 16 16.5 16H17.5C17.7761 16 18 16.2239 18 16.5V17.5C18 17.7761 17.7761 18 17.5 18H16.5C16.2239 18 16 17.7761 16 17.5V16.5Z" fill="#389D37"/>
<path d="M13.5 19C13.2239 19 13 19.2239 13 19.5V20.5C13 20.7761 13.2239 21 13.5 21H14.5C14.7761 21 15 20.7761 15 20.5V19.5C15 19.2239 14.7761 19 14.5 19H13.5Z" fill="#389D37"/>
<path d="M18.5 18C18.2239 18 18 18.2239 18 18.5V20.5C18 20.7761 18.2239 21 18.5 21H20.5C20.7761 21 21 20.7761 21 20.5V18.5C21 18.2239 20.7761 18 20.5 18H18.5Z" fill="#389D37"/>
<path fill-rule="evenodd" clip-rule="evenodd" d="M19 15C20.6569 15 22 13.6569 22 12C22 10.3431 20.6569 9 19 9C17.3431 9 16 10.3431 16 12C16 13.6569 17.3431 15 19 15ZM20.8536 11.6464L19.3536 10.1464C19.1583 9.95118 18.8417 9.95118 18.6464 10.1464C18.4512 10.3417 18.4512 10.6583 18.6464 10.8536L19.2929 11.5H17.5C17.2239 11.5 17 11.7239 17 12C17 12.2761 17.2239 12.5 17.5 12.5H19.2929L18.6464 13.1464C18.4512 13.3417 18.4512 13.6583 18.6464 13.8536C18.8417 14.0488 19.1583 14.0488 19.3536 13.8536L20.8536 12.3536C21.0488 12.1583 21.0488 11.8417 20.8536 11.6464Z" fill="#389D37"/>
</svg>
