<svg width="24" height="24" viewBox="0 0 24 24" fill="none" xmlns="http://www.w3.org/2000/svg">
<path d="M4.5 9C4.77614 9 5 8.77614 5 8.5V5H8.5C8.77614 5 9 4.77614 9 4.5V3.5C9 3.22386 8.77614 3 8.5 3H3.5C3.22386 3 3 3.22386 3 3.5V8.5C3 8.77614 3.22386 9 3.5 9H4.5Z" fill="#389D37"/>
<path d="M4.5 15C4.77614 15 5 15.2239 5 15.5V19H8.5C8.77614 19 9 19.2239 9 19.5V20.5C9 20.7761 8.77614 21 8.5 21H3.5C3.22386 21 3 20.7761 3 20.5V15.5C3 15.2239 3.22386 15 3.5 15H4.5Z" fill="#389D37"/>
<path d="M15.5 19C15.2239 19 15 19.2239 15 19.5V20.5C15 20.7761 15.2239 21 15.5 21H20.5C20.7761 21 21 20.7761 21 20.5V15.5C21 15.2239 20.7761 15 20.5 15H19.5C19.2239 15 19 15.2239 19 15.5V19H15.5Z" fill="#389D37"/>
<path d="M15 4.5C15 4.77614 15.2239 5 15.5 5H19V8.5C19 8.77614 19.2239 9 19.5 9H20.5C20.7761 9 21 8.77614 21 8.5V3.5C21 3.22386 20.7761 3 20.5 3H15.5C15.2239 3 15 3.22386 15 3.5V4.5Z" fill="#389D37"/>
<path d="M7 7H9V17H7V7Z" fill="#389D37"/>
<path d="M10 7H10.5V17H10V7Z" fill="#389D37"/>
<path d="M12 7H11.5V17H12V7Z" fill="#389D37"/>
<path d="M15.5 7H17V17H15.5V7Z" fill="#389D37"/>
<path d="M14.5 7H13V17H14.5V7Z" fill="#389D37"/>
</svg>
