<svg width="24" height="24" viewBox="0 0 24 24" fill="none" xmlns="http://www.w3.org/2000/svg">
<path fill-rule="evenodd" clip-rule="evenodd" d="M13 4C13 3.44772 13.4477 3 14 3H20C20.5523 3 21 3.44772 21 4V10C21 10.5523 20.5523 11 20 11H14C13.4477 11 13 10.5523 13 10V4ZM15 5V9H19V5H15Z" fill="#389D37"/>
<path fill-rule="evenodd" clip-rule="evenodd" d="M3 4C3 3.44772 3.44772 3 4 3H10C10.5523 3 11 3.44772 11 4V10C11 10.5523 10.5523 11 10 11H4C3.44772 11 3 10.5523 3 10V4ZM5 5V9H9V5H5Z" fill="#389D37"/>
<path fill-rule="evenodd" clip-rule="evenodd" d="M3 14C3 13.4477 3.44772 13 4 13H10C10.5523 13 11 13.4477 11 14V20C11 20.5523 10.5523 21 10 21H4C3.44772 21 3 20.5523 3 20V14ZM5 15V19H9V15H5Z" fill="#389D37"/>
<path d="M13 13.5C13 13.2239 13.2239 13 13.5 13H15.5C15.7761 13 16 13.2239 16 13.5V15.5C16 15.7761 15.7761 16 15.5 16H13.5C13.2239 16 13 15.7761 13 15.5V13.5Z" fill="#389D37"/>
<path d="M16 16.5C16 16.2239 16.2239 16 16.5 16H17.5C17.7761 16 18 16.2239 18 16.5V17.5C18 17.7761 17.7761 18 17.5 18H16.5C16.2239 18 16 17.7761 16 17.5V16.5Z" fill="#389D37"/>
<path d="M13 19.5C13 19.2239 13.2239 19 13.5 19H14.5C14.7761 19 15 19.2239 15 19.5V20.5C15 20.7761 14.7761 21 14.5 21H13.5C13.2239 21 13 20.7761 13 20.5V19.5Z" fill="#389D37"/>
<path d="M19 13.5C19 13.2239 19.2239 13 19.5 13H20.5C20.7761 13 21 13.2239 21 13.5V14.5C21 14.7761 20.7761 15 20.5 15H19.5C19.2239 15 19 14.7761 19 14.5V13.5Z" fill="#389D37"/>
<path d="M18 18.5C18 18.2239 18.2239 18 18.5 18H20.5C20.7761 18 21 18.2239 21 18.5V20.5C21 20.7761 20.7761 21 20.5 21H18.5C18.2239 21 18 20.7761 18 20.5V18.5Z" fill="#389D37"/>
</svg>
