<svg width="24" height="24" viewBox="0 0 24 24" fill="none" xmlns="http://www.w3.org/2000/svg">
<path fill-rule="evenodd" clip-rule="evenodd" d="M4 3C2.89543 3 2 3.89543 2 5V8C2 9.10457 2.89543 10 4 10V19C4 20.1046 4.89543 21 6 21H13.9996C13.3719 20.1643 13 19.1256 13 18C13 16.3642 13.7856 14.9118 15 13.9996C14.9998 12.8952 14.1044 12 13 12H11C9.89543 12 9 12.8954 9 14V19H6V10H18V13C18.7111 13 19.3875 13.1484 20 13.416V10C21.1046 10 22 9.10457 22 8V5C22 3.89543 21.1046 3 20 3H4ZM13 18V14H11V19H13V18ZM4 8H20V5H4V8Z" fill="#389D37"/>
<path fill-rule="evenodd" clip-rule="evenodd" d="M18 22C20.2091 22 22 20.2091 22 18C22 15.7909 20.2091 14 18 14C15.7909 14 14 15.7909 14 18C14 20.2091 15.7909 22 18 22ZM18.5 16C18.5 15.7239 18.2761 15.5 18 15.5C17.7239 15.5 17.5 15.7239 17.5 16V18.5C17.5 18.7761 17.7239 19 18 19H20C20.2761 19 20.5 18.7761 20.5 18.5C20.5 18.2239 20.2761 18 20 18H18.5V16Z" fill="#389D37"/>
</svg>
