<svg width="24" height="24" viewBox="0 0 24 24" fill="none" xmlns="http://www.w3.org/2000/svg">
<path fill-rule="evenodd" clip-rule="evenodd" d="M6 6.5C6 6.22386 6.22386 6 6.5 6H10.5C10.7761 6 11 6.22386 11 6.5V10.5C11 10.7761 10.7761 11 10.5 11H6.5C6.22386 11 6 10.7761 6 10.5V6.5ZM7 7V10H10V7H7Z" fill="#389D37"/>
<path fill-rule="evenodd" clip-rule="evenodd" d="M13 6.5C13 6.22386 13.2239 6 13.5 6H17.5C17.7761 6 18 6.22386 18 6.5V10.5C18 10.7761 17.7761 11 17.5 11H13.5C13.2239 11 13 10.7761 13 10.5V6.5ZM14 7V10H17V7H14Z" fill="#389D37"/>
<path fill-rule="evenodd" clip-rule="evenodd" d="M6 13.5C6 13.2239 6.22386 13 6.5 13H10.5C10.7761 13 11 13.2239 11 13.5V17.5C11 17.7761 10.7761 18 10.5 18H6.5C6.22386 18 6 17.7761 6 17.5V13.5ZM7 14V17H10V14H7Z" fill="#389D37"/>
<path d="M13 13.25C13 13.1119 13.1119 13 13.25 13H14.75C14.8881 13 15 13.1119 15 13.25V14.75C15 14.8881 14.8881 15 14.75 15H13.25C13.1119 15 13 14.8881 13 14.75V13.25Z" fill="#389D37"/>
<path d="M16 16.25C16 16.1119 16.1119 16 16.25 16H17.75C17.8881 16 18 16.1119 18 16.25V17.75C18 17.8881 17.8881 18 17.75 18H16.25C16.1119 18 16 17.8881 16 17.75V16.25Z" fill="#389D37"/>
<path d="M17.25 13C17.1119 13 17 13.1119 17 13.25V13.75C17 13.8881 17.1119 14 17.25 14H17.75C17.8881 14 18 13.8881 18 13.75V13.25C18 13.1119 17.8881 13 17.75 13H17.25Z" fill="#389D37"/>
<path d="M15 15.25C15 15.1119 15.1119 15 15.25 15H15.75C15.8881 15 16 15.1119 16 15.25V15.75C16 15.8881 15.8881 16 15.75 16H15.25C15.1119 16 15 15.8881 15 15.75V15.25Z" fill="#389D37"/>
<path d="M13.25 17C13.1119 17 13 17.1119 13 17.25V17.75C13 17.8881 13.1119 18 13.25 18H13.75C13.8881 18 14 17.8881 14 17.75V17.25C14 17.1119 13.8881 17 13.75 17H13.25Z" fill="#389D37"/>
<path d="M4.5 9C4.77614 9 5 8.77614 5 8.5V5H8.5C8.77614 5 9 4.77614 9 4.5V3.5C9 3.22386 8.77614 3 8.5 3H3.5C3.22386 3 3 3.22386 3 3.5V8.5C3 8.77614 3.22386 9 3.5 9H4.5Z" fill="#389D37"/>
<path d="M4.5 15C4.77614 15 5 15.2239 5 15.5V19H8.5C8.77614 19 9 19.2239 9 19.5V20.5C9 20.7761 8.77614 21 8.5 21H3.5C3.22386 21 3 20.7761 3 20.5V15.5C3 15.2239 3.22386 15 3.5 15H4.5Z" fill="#389D37"/>
<path d="M15.5 19C15.2239 19 15 19.2239 15 19.5V20.5C15 20.7761 15.2239 21 15.5 21H20.5C20.7761 21 21 20.7761 21 20.5V15.5C21 15.2239 20.7761 15 20.5 15H19.5C19.2239 15 19 15.2239 19 15.5V19H15.5Z" fill="#389D37"/>
<path d="M15 4.5C15 4.77614 15.2239 5 15.5 5H19V8.5C19 8.77614 19.2239 9 19.5 9H20.5C20.7761 9 21 8.77614 21 8.5V3.5C21 3.22386 20.7761 3 20.5 3H15.5C15.2239 3 15 3.22386 15 3.5V4.5Z" fill="#389D37"/>
</svg>
