<svg width="24" height="24" viewBox="0 0 24 24" fill="none" xmlns="http://www.w3.org/2000/svg">
<path d="M14.5185 3.51785C14.5084 3.23489 14.735 3 15.0182 3H16.9818C17.265 3 17.4916 3.23489 17.4815 3.51785L17.0172 16.5178C17.0076 16.7869 16.7867 17 16.5175 17H15.4825C15.2133 17 14.9924 16.7869 14.9828 16.5178L14.5185 3.51785Z" fill="#389D37"/>
<path d="M6 4H13.5357L13.6071 6H6C4.89543 6 4 6.89543 4 8H13.6786L13.75 10H4V16C4 17.1046 4.89543 18 6 18H14.4998C13.8927 18.4561 13.5 19.1822 13.5 20H6C3.79086 20 2 18.2091 2 16V8C2 5.79086 3.79086 4 6 4Z" fill="#389D37"/>
<path d="M17.5002 18C18.0997 18.4504 18.4901 19.1639 18.4998 19.9691C20.4731 19.7231 22 18.0399 22 16V8C22 5.94758 20.4542 4.25619 18.4633 4.02655L18.3915 6.0383C19.3086 6.2203 20 7.02941 20 8H18.3214L18.25 10H20V16C20 17.1046 19.1046 18 18 18H17.5002Z" fill="#389D37"/>
<path d="M9 12H6V14H9V12Z" fill="#389D37"/>
<path d="M16 21.5C16.8284 21.5 17.5 20.8284 17.5 20C17.5 19.1716 16.8284 18.5 16 18.5C15.1716 18.5 14.5 19.1716 14.5 20C14.5 20.8284 15.1716 21.5 16 21.5Z" fill="#389D37"/>
</svg>
