<svg width="24" height="24" viewBox="0 0 24 24" fill="none" xmlns="http://www.w3.org/2000/svg">
<path d="M4 11C4 7.13401 7.13401 4 11 4C14.866 4 18 7.13401 18 11C18 14.7617 15.0328 17.8304 11.3112 17.9932L10.9208 18.0983C9.98914 18.3492 9.1955 18.9228 8.66489 19.6941C9.40958 19.8936 10.1924 20 11 20C13.125 20 15.078 19.2635 16.6177 18.0319L20.2929 21.7071C20.6834 22.0976 21.3166 22.0976 21.7071 21.7071C22.0976 21.3166 22.0976 20.6834 21.7071 20.2929L18.0319 16.6177C19.2635 15.078 20 13.125 20 11C20 6.02944 15.9706 2 11 2C6.02944 2 2 6.02944 2 11C2 12.7667 2.50907 14.4146 3.38853 15.8048C4.03427 15.5736 4.60153 15.1831 5.04399 14.6796C4.38208 13.6105 4 12.3499 4 11Z" fill="#389D37"/>
<path d="M6.90344 13.3586C6.93 13.26 7.06999 13.26 7.09656 13.3586L7.24979 13.9277C7.62043 15.3043 8.6957 16.3796 10.0723 16.7502L10.6414 16.9034C10.74 16.93 10.74 17.07 10.6414 17.0966L10.0723 17.2498C8.6957 17.6204 7.62043 18.6957 7.24979 20.0723L7.09656 20.6414C7.07 20.74 6.93001 20.74 6.90344 20.6414L6.75021 20.0723C6.37957 18.6957 5.3043 17.6204 3.92772 17.2498L3.35863 17.0966C3.25996 17.07 3.25996 16.93 3.35863 16.9034L3.92772 16.7502C5.3043 16.3796 6.37957 15.3043 6.75021 13.9277L6.90344 13.3586Z" fill="#389D37"/>
</svg>
