<svg width="24" height="24" viewBox="0 0 24 24" fill="none" xmlns="http://www.w3.org/2000/svg">
<path d="M19.7071 5.87868C19.8946 6.06622 20 6.32057 20 6.58579V11.0025C19.7195 11.0208 19.4441 11.1371 19.2297 11.3515L18.0983 12.4828C18.0629 12.5183 18.0301 12.5554 18 12.594V7H16C15.4477 7 15 6.55228 15 6V4H7C6.44772 4 6 4.44772 6 5V19C6 19.5523 6.44771 20 7 20H10.6818C10.6618 20.0425 10.6443 20.0862 10.6293 20.131L10.0637 21.8281C10.0445 21.8856 10.0298 21.943 10.0194 22H7C5.34314 22 4 20.6569 4 19V5C4 3.34315 5.34315 2 7 2H15.4142C15.6794 2 15.9338 2.10536 16.1213 2.29289L19.7071 5.87868Z" fill="#389D37"/>
<path d="M20 19V16.233C19.98 16.2564 19.9589 16.2791 19.9368 16.3012L18 18.238V19C18 19.5523 17.5523 20 17 20H16.238L14.238 22H17C18.6569 22 20 20.6569 20 19Z" fill="#389D37"/>
<path d="M9 16H14.5812L12.5812 18H9C8.44772 18 8 17.5523 8 17C8 16.4477 8.44772 16 9 16Z" fill="#389D37"/>
<path d="M9 6C8.44772 6 8 6.44772 8 7C8 7.55228 8.44772 8 9 8H12C12.5523 8 13 7.55228 13 7C13 6.44772 12.5523 6 12 6H9Z" fill="#389D37"/>
<path d="M8 11C8 10.4477 8.44772 10 9 10H15C15.5523 10 16 10.4477 16 11C16 11.5523 15.5523 12 15 12H9C8.44772 12 8 11.5523 8 11Z" fill="#389D37"/>
<path d="M9 13C8.44772 13 8 13.4477 8 14C8 14.5523 8.44772 15 9 15H15C15.5523 15 16 14.5523 16 14C16 13.4477 15.5523 13 15 13H9Z" fill="#389D37"/>
<path d="M21.3509 13.1899C21.429 13.268 21.429 13.3946 21.3509 13.4727L20.2195 14.6041C20.1414 14.6822 20.0148 14.6822 19.9367 14.6041L18.8053 13.4727C18.7272 13.3946 18.7272 13.268 18.8053 13.1899L19.9367 12.0585C20.0148 11.9804 20.1414 11.9804 20.2195 12.0585L21.3509 13.1899Z" fill="#389D37"/>
<path d="M19.2296 15.3112C19.3077 15.3893 19.3078 15.516 19.2297 15.5941L13.0406 21.7833C13.0186 21.8052 12.9917 21.8217 12.9623 21.8315L11.2652 22.3972C11.1089 22.4493 10.9601 22.3006 11.0122 22.1442L11.5779 20.4472C11.5877 20.4177 11.6043 20.391 11.6262 20.369L17.8154 14.1799C17.8935 14.1018 18.0201 14.1018 18.0982 14.1799L19.2296 15.3112Z" fill="#389D37"/>
</svg>
