<svg width="32" height="68" viewBox="0 0 32 68" fill="none" xmlns="http://www.w3.org/2000/svg">
<path fill-rule="evenodd" clip-rule="evenodd" d="M23.41 2.41005C23.9568 1.86332 24.8432 1.86332 25.3899 2.41005L29.5899 6.61005C29.9903 7.01045 30.1101 7.61261 29.8934 8.13576C29.6767 8.6589 29.1662 9 28.6 9H17.4C16.6268 9 16 8.3732 16 7.6C16 6.8268 16.6268 6.2 17.4 6.2H25.2201L23.41 4.38995C22.8633 3.84322 22.8633 2.95678 23.41 2.41005Z" fill="#999999"/>
<path fill-rule="evenodd" clip-rule="evenodd" d="M4.80003 7.6H14.6C14.6 9.1464 15.8536 10.4 17.4 10.4H28.6L28.6 23C28.6 23.7732 27.9732 24.4 27.2 24.4H17.4C17.4 22.8536 16.1464 21.6 14.6 21.6H3.40003L3.40004 9C3.40004 8.2268 4.02684 7.6 4.80003 7.6ZM14.3231 13.9778C14.3231 14.5689 14.7773 14.9484 16.1898 15.3156C17.6022 15.6827 19.1142 16.2862 19.1142 18.0533C19.1142 19.3289 18.1498 20.032 16.9364 20.2622V20.6667C16.9364 21.1831 16.5196 21.6 16.0031 21.6C15.4867 21.6 15.0698 21.1831 15.0698 20.6667V20.2498C14.1364 20.0507 13.3089 19.5404 12.9542 18.6756C12.7987 18.2898 13.0911 17.8667 13.508 17.8667H13.6822C13.9373 17.8667 14.1489 18.0409 14.2422 18.2836C14.4476 18.8062 14.9764 19.1733 16.0031 19.1733C17.3782 19.1733 17.6831 18.4889 17.6831 18.0596C17.6831 17.4809 17.372 16.9333 15.8164 16.56C14.0804 16.1431 12.892 15.4276 12.892 13.9902C12.892 12.7893 13.8627 12.0053 15.0698 11.744V11.3333C15.0698 10.8169 15.4867 10.4 16.0031 10.4C16.5196 10.4 16.9364 10.8169 16.9364 11.3333V11.7627C17.9071 11.9991 18.5169 12.6089 18.7782 13.3431C18.9213 13.7289 18.6289 14.1333 18.2182 14.1333H18.0315C17.7702 14.1333 17.5649 13.9467 17.4902 13.6978C17.3284 13.1627 16.8867 12.8267 16.0031 12.8267C14.9516 12.8267 14.3231 13.2996 14.3231 13.9778Z" fill="#999999"/>
<path fill-rule="evenodd" clip-rule="evenodd" d="M8.58997 29.59C8.04324 30.1367 7.15681 30.1367 6.61008 29.59L2.41009 25.39C2.00969 24.9896 1.88992 24.3874 2.10661 23.8642C2.3233 23.3411 2.83379 23 3.40004 23H14.6C15.3732 23 16 23.6268 16 24.4C16 25.1732 15.3732 25.8 14.6 25.8H6.77993L8.58997 27.61C9.1367 28.1568 9.1367 29.0432 8.58997 29.59Z" fill="#999999"/>
<path fill-rule="evenodd" clip-rule="evenodd" d="M23.41 38.4101C23.9568 37.8633 24.8432 37.8633 25.3899 38.4101L29.5899 42.6101C29.9903 43.0104 30.1101 43.6126 29.8934 44.1358C29.6767 44.6589 29.1662 45 28.6 45H17.4C16.6268 45 16 44.3732 16 43.6C16 42.8268 16.6268 42.2 17.4 42.2H25.2201L23.41 40.3899C22.8633 39.8432 22.8633 38.9568 23.41 38.4101Z" fill="url(#paint0_linear_308_15485)"/>
<path fill-rule="evenodd" clip-rule="evenodd" d="M4.80003 43.6H14.6C14.6 45.1464 15.8536 46.4 17.4 46.4H28.6L28.6 59C28.6 59.7732 27.9732 60.4 27.2 60.4H17.4C17.4 58.8536 16.1464 57.6 14.6 57.6H3.40003L3.40004 45C3.40004 44.2268 4.02684 43.6 4.80003 43.6ZM14.3231 49.9778C14.3231 50.5689 14.7773 50.9484 16.1898 51.3156C17.6022 51.6827 19.1142 52.2862 19.1142 54.0533C19.1142 55.3289 18.1498 56.032 16.9364 56.2622V56.6667C16.9364 57.1831 16.5196 57.6 16.0031 57.6C15.4867 57.6 15.0698 57.1831 15.0698 56.6667V56.2498C14.1364 56.0507 13.3089 55.5404 12.9542 54.6756C12.7987 54.2898 13.0911 53.8667 13.508 53.8667H13.6822C13.9373 53.8667 14.1489 54.0409 14.2422 54.2836C14.4476 54.8062 14.9764 55.1733 16.0031 55.1733C17.3782 55.1733 17.6831 54.4889 17.6831 54.0596C17.6831 53.4809 17.372 52.9333 15.8164 52.56C14.0804 52.1431 12.892 51.4276 12.892 49.9902C12.892 48.7893 13.8627 48.0053 15.0698 47.744V47.3333C15.0698 46.8169 15.4867 46.4 16.0031 46.4C16.5196 46.4 16.9364 46.8169 16.9364 47.3333V47.7627C17.9071 47.9991 18.5169 48.6089 18.7782 49.3431C18.9213 49.7289 18.6289 50.1333 18.2182 50.1333H18.0315C17.7702 50.1333 17.5649 49.9467 17.4902 49.6978C17.3284 49.1627 16.8867 48.8267 16.0031 48.8267C14.9516 48.8267 14.3231 49.2996 14.3231 49.9778Z" fill="url(#paint1_linear_308_15485)"/>
<path fill-rule="evenodd" clip-rule="evenodd" d="M8.58997 65.59C8.04324 66.1367 7.15681 66.1367 6.61008 65.59L2.41009 61.39C2.00969 60.9896 1.88992 60.3874 2.10661 59.8642C2.3233 59.3411 2.83379 59 3.40004 59H14.6C15.3732 59 16 59.6268 16 60.4C16 61.1732 15.3732 61.8 14.6 61.8H6.77993L8.58997 63.61C9.1367 64.1568 9.1367 65.0432 8.58997 65.59Z" fill="url(#paint2_linear_308_15485)"/>
<defs>
<linearGradient id="paint0_linear_308_15485" x1="11.8054" y1="38.8345" x2="31.0801" y2="45.649" gradientUnits="userSpaceOnUse">
<stop stop-color="#389D37"/>
<stop offset="1" stop-color="#AEC35B"/>
</linearGradient>
<linearGradient id="paint1_linear_308_15485" x1="11.8054" y1="38.8345" x2="31.0801" y2="45.649" gradientUnits="userSpaceOnUse">
<stop stop-color="#389D37"/>
<stop offset="1" stop-color="#AEC35B"/>
</linearGradient>
<linearGradient id="paint2_linear_308_15485" x1="11.8054" y1="38.8345" x2="31.0801" y2="45.649" gradientUnits="userSpaceOnUse">
<stop stop-color="#389D37"/>
<stop offset="1" stop-color="#AEC35B"/>
</linearGradient>
</defs>
</svg>
