<svg width="32" height="68" viewBox="0 0 32 68" fill="none" xmlns="http://www.w3.org/2000/svg">
<path d="M4 4C2.89543 4 2 4.89543 2 6V26C2 27.1046 2.89543 28 4 28H26.5263C27.6309 28 28.5263 27.1046 28.5263 26V21.9999H18.7369C17.6323 21.9999 16.7369 21.1045 16.7369 19.9999V11.9999C16.7369 10.8953 17.6323 9.9999 18.7369 9.9999H28.5263V6C28.5263 4.89543 27.6309 4 26.5263 4H4Z" fill="#999999"/>
<path fill-rule="evenodd" clip-rule="evenodd" d="M18.2105 12.5C18.2105 11.9477 18.6582 11.5 19.2105 11.5H29C29.5523 11.5 30 11.9477 30 12.5V19.5C30 20.0523 29.5523 20.5 29 20.5H19.2105C18.6582 20.5 18.2105 20.0523 18.2105 19.5V12.5ZM22.6316 17.5001C23.4455 17.5001 24.1053 16.8285 24.1053 16.0001C24.1053 15.1716 23.4455 14.5001 22.6316 14.5001C21.8177 14.5001 21.158 15.1716 21.158 16.0001C21.158 16.8285 21.8177 17.5001 22.6316 17.5001Z" fill="#999999"/>
<path d="M4 40C2.89543 40 2 40.8954 2 42V62C2 63.1046 2.89543 64 4 64H26.5263C27.6309 64 28.5263 63.1046 28.5263 62V57.9999H18.7369C17.6323 57.9999 16.7369 57.1045 16.7369 55.9999V47.9999C16.7369 46.8954 17.6323 45.9999 18.7369 45.9999H28.5263V42C28.5263 40.8954 27.6309 40 26.5263 40H4Z" fill="url(#paint0_linear_308_15486)"/>
<path fill-rule="evenodd" clip-rule="evenodd" d="M18.2105 48.5C18.2105 47.9477 18.6582 47.5 19.2105 47.5H29C29.5523 47.5 30 47.9477 30 48.5V55.5C30 56.0523 29.5523 56.5 29 56.5H19.2105C18.6582 56.5 18.2105 56.0523 18.2105 55.5V48.5ZM22.6316 53.4999C23.4455 53.4999 24.1053 52.8284 24.1053 51.9999C24.1053 51.1715 23.4455 50.4999 22.6316 50.4999C21.8177 50.4999 21.1579 51.1715 21.1579 51.9999C21.1579 52.8284 21.8177 53.4999 22.6316 53.4999Z" fill="url(#paint1_linear_308_15486)"/>
<defs>
<linearGradient id="paint0_linear_308_15486" x1="11.8054" y1="40.7153" x2="30.3366" y2="48.3588" gradientUnits="userSpaceOnUse">
<stop stop-color="#389D37"/>
<stop offset="1" stop-color="#AEC35B"/>
</linearGradient>
<linearGradient id="paint1_linear_308_15486" x1="11.8054" y1="40.7153" x2="30.3366" y2="48.3588" gradientUnits="userSpaceOnUse">
<stop stop-color="#389D37"/>
<stop offset="1" stop-color="#AEC35B"/>
</linearGradient>
</defs>
</svg>
