<svg width="24" height="24" viewBox="0 0 24 24" fill="none" xmlns="http://www.w3.org/2000/svg">
<path d="M8 9.5C8 9.22386 8.22386 9 8.5 9H15.5C15.7761 9 16 9.22386 16 9.5V10.5C16 10.7761 15.7761 11 15.5 11H8.5C8.22386 11 8 10.7761 8 10.5V9.5Z" fill="#A70719"/>
<path d="M8.5 13C8.22386 13 8 13.2239 8 13.5V14.5C8 14.7761 8.22386 15 8.5 15H15.5C15.7761 15 16 14.7761 16 14.5V13.5C16 13.2239 15.7761 13 15.5 13H8.5Z" fill="#A70719"/>
<path fill-rule="evenodd" clip-rule="evenodd" d="M2 7C2 5.89543 2.89543 5 4 5H20C21.1046 5 22 5.89543 22 7V10C20.8954 10 20 10.8954 20 12C20 13.1046 20.8954 14 22 14V17C22 18.1046 21.1046 19 20 19H4C2.89543 19 2 18.1046 2 17V14C3.10457 14 4 13.1046 4 12C4 10.8954 3.10457 10 2 10V7ZM4 8.53513C5.1956 9.22675 6 10.5194 6 12C6 13.4806 5.1956 14.7733 4 15.4649V17H20V15.4649C18.8044 14.7733 18 13.4806 18 12C18 10.5194 18.8044 9.22675 20 8.53513V7H4V8.53513Z" fill="#A70719"/>
</svg>
