<svg width="24" height="24" viewBox="0 0 24 24" fill="none" xmlns="http://www.w3.org/2000/svg">
<path d="M4.02527 9.82509L19.9747 4.0253L14.1749 19.9747L11.275 12.725L4.02527 9.82509Z" fill="#A70719"/>
<path fill-rule="evenodd" clip-rule="evenodd" d="M20.6997 3.30032C20.9813 3.58199 21.0744 4.00132 20.9382 4.37568L15.1384 20.3251C14.9931 20.7247 14.6163 20.9931 14.1912 20.9999C13.7661 21.0066 13.3809 20.7503 13.223 20.3555L10.4863 13.5137L3.64449 10.777C3.24973 10.6191 2.99338 10.2339 3.00013 9.80882C3.00688 9.3837 3.27531 9.00685 3.67489 8.86155L19.6243 3.06176C19.9987 2.92563 20.418 3.01865 20.6997 3.30032ZM6.89993 9.87071L11.6558 11.7731C11.9163 11.8773 12.1227 12.0837 12.2269 12.3442L14.1293 17.1001L18.2604 5.73965L6.89993 9.87071Z" fill="#A70719"/>
</svg>
