<svg width="24" height="24" viewBox="0 0 24 24" fill="none" xmlns="http://www.w3.org/2000/svg">
<path d="M11.9999 18.2219C15.4362 18.2219 18.2219 15.4362 18.2219 11.9999C18.2219 11.5104 18.1654 11.0341 18.0585 10.5773L16.1156 12.5202C15.8596 14.5655 14.1145 16.1479 11.9999 16.1479C9.70901 16.1479 7.85188 14.2908 7.85188 11.9999C7.85188 9.70901 9.70901 7.85188 11.9999 7.85188C12.8306 7.85188 13.6042 8.09607 14.253 8.51658L15.3994 7.37024C15.5192 7.25043 15.65 7.14834 15.7886 7.06398C14.7393 6.25741 13.4256 5.77788 11.9999 5.77788C8.56357 5.77788 5.77788 8.56357 5.77788 11.9999C5.77788 15.4362 8.56357 18.2219 11.9999 18.2219Z" fill="#A70719"/>
<path d="M10.9954 10.3033C10.5904 9.89834 9.9338 9.89834 9.52883 10.3033C9.12385 10.7083 9.12385 11.3649 9.52883 11.7699L12.4619 14.7029L17.5948 9.57005C17.9998 9.16508 17.9998 8.50848 17.5948 8.10351C17.1898 7.69854 16.5332 7.69854 16.1283 8.10351L12.4619 11.7699L10.9954 10.3033Z" fill="#A70719"/>
<path fill-rule="evenodd" clip-rule="evenodd" d="M13.9453 2.34638C12.8243 1.39105 11.1755 1.39105 10.0545 2.34638L8.78327 3.42968C8.62314 3.56614 8.42405 3.64861 8.21432 3.66535L6.54945 3.7982C5.08124 3.91537 3.91537 5.08124 3.7982 6.54945L3.66535 8.21432C3.64861 8.42405 3.56614 8.62314 3.42968 8.78327L2.34638 10.0545C1.39105 11.1755 1.39105 12.8243 2.34638 13.9453L3.42968 15.2165C3.56614 15.3766 3.64861 15.5757 3.66535 15.7854L3.7982 17.4503C3.91537 18.9185 5.08124 20.0844 6.54945 20.2016L8.21432 20.3344C8.42404 20.3512 8.62314 20.4336 8.78327 20.5701L10.0545 21.6534C11.1755 22.6087 12.8243 22.6087 13.9453 21.6534L15.2165 20.5701C15.3766 20.4336 15.5757 20.3512 15.7854 20.3344L17.4503 20.2016C18.9185 20.0844 20.0844 18.9185 20.2016 17.4503L20.3344 15.7854C20.3512 15.5757 20.4336 15.3766 20.5701 15.2165L21.6534 13.9453C22.6087 12.8243 22.6087 11.1755 21.6534 10.0545L20.5701 8.78327C20.4336 8.62314 20.3512 8.42405 20.3344 8.21432L20.2016 6.54945C20.0844 5.08124 18.9185 3.91537 17.4503 3.7982L15.7854 3.66535C15.5757 3.64861 15.3766 3.56614 15.2165 3.42968L13.9453 2.34638ZM11.3514 3.86828C11.7251 3.54983 12.2747 3.54983 12.6484 3.86828L13.9195 4.95158C14.3999 5.36096 14.9972 5.60836 15.6264 5.65857L17.2913 5.79143C17.7807 5.83048 18.1693 6.21911 18.2083 6.70851L18.3412 8.37339C18.3914 9.00255 18.6388 9.59983 19.0482 10.0802L20.1315 11.3514C20.4499 11.7251 20.4499 12.2747 20.1315 12.6484L19.0482 13.9195C18.6388 14.3999 18.3914 14.9972 18.3412 15.6264L18.2083 17.2913C18.1693 17.7807 17.7807 18.1693 17.2913 18.2083L15.6264 18.3412C14.9972 18.3914 14.3999 18.6388 13.9195 19.0482L12.6484 20.1315C12.2747 20.4499 11.7251 20.4499 11.3514 20.1315L10.0802 19.0482C9.59983 18.6388 9.00255 18.3914 8.37339 18.3412L6.70851 18.2083C6.21911 18.1693 5.83048 17.7807 5.79143 17.2913L5.65857 15.6264C5.60836 14.9972 5.36096 14.3999 4.95158 13.9195L3.86828 12.6484C3.54983 12.2747 3.54983 11.7251 3.86828 11.3514L4.95158 10.0802C5.36096 9.59983 5.60836 9.00255 5.65857 8.37339L5.79143 6.70851C5.83048 6.21911 6.21911 5.83048 6.70851 5.79143L8.37339 5.65857C9.00255 5.60836 9.59983 5.36096 10.0802 4.95158L11.3514 3.86828Z" fill="#A70719"/>
</svg>
