<svg width="24" height="24" viewBox="0 0 24 24" fill="none" xmlns="http://www.w3.org/2000/svg">
<path fill-rule="evenodd" clip-rule="evenodd" d="M15 2H6C3.79086 2 2 3.79086 2 6V15C2 17.2091 3.79086 19 6 19H9.67363C9.37829 18.3783 9.1719 17.7061 9.07089 17H6C4.89543 17 4 16.1046 4 15V8H17V9.07089C17.7061 9.1719 18.3783 9.37829 19 9.67363V6C19 3.79086 17.2091 2 15 2ZM9.07089 15C9.1719 14.2939 9.37829 13.6217 9.67363 13H8V15H9.07089ZM11 11.101C11.4145 10.678 11.8823 10.3074 12.3924 10H11V11.101ZM4 6C4 4.89543 4.89543 4 6 4H15C16.1046 4 17 4.89543 17 6H4ZM7 10V12H5V10H7ZM7 15V13H5V15H7ZM10 10V12H8V10H10ZM22 16C22 19.3137 19.3137 22 16 22C12.6863 22 10 19.3137 10 16C10 12.6863 12.6863 10 16 10C19.3137 10 22 12.6863 22 16ZM16 20C18.2091 20 20 18.2091 20 16C20 13.7909 18.2091 12 16 12C13.7909 12 12 13.7909 12 16C12 18.2091 13.7909 20 16 20ZM15 14C15 13.4477 15.4477 13 16 13C16.5523 13 17 13.4477 17 14V15H18C18.5523 15 19 15.4477 19 16C19 16.5523 18.5523 17 18 17H15V14Z" fill="#A70719"/>
</svg>
