<svg width="24" height="24" viewBox="0 0 24 24" fill="none" xmlns="http://www.w3.org/2000/svg">
<path fill-rule="evenodd" clip-rule="evenodd" d="M15 2H6C3.79086 2 2 3.79086 2 6V15C2 17.2091 3.79086 19 6 19H9.67363C9.37829 18.3783 9.1719 17.7061 9.07089 17H6C4.89543 17 4 16.1046 4 15V8H17V9.07089C17.7061 9.1719 18.3783 9.37829 19 9.67363V6C19 3.79086 17.2091 2 15 2ZM4 6C4 4.89543 4.89543 4 6 4H15C16.1046 4 17 4.89543 17 6H4Z" fill="#A70719"/>
<path d="M9.07089 15C9.1719 14.2939 9.37829 13.6217 9.67363 13H8V15H9.07089Z" fill="#A70719"/>
<path d="M11 11.101C11.4145 10.678 11.8823 10.3074 12.3924 10H11V11.101Z" fill="#A70719"/>
<path d="M7 10V12H5V10H7Z" fill="#A70719"/>
<path d="M7 15V13H5V15H7Z" fill="#A70719"/>
<path d="M10 10V12H8V10H10Z" fill="#A70719"/>
<path d="M16 22C19.3137 22 22 19.3137 22 16C22 15.528 21.9455 15.0687 21.8424 14.6281L19.9688 16.5017C19.722 18.4741 18.0392 20 16 20C13.7909 20 12 18.2091 12 16C12 13.7909 13.7909 12 16 12C16.8011 12 17.5471 12.2355 18.1727 12.641L19.2782 11.5355C19.3937 11.42 19.5199 11.3216 19.6535 11.2402C18.6417 10.4624 17.3749 10 16 10C12.6863 10 10 12.6863 10 16C10 19.3137 12.6863 22 16 22Z" fill="#A70719"/>
<path d="M15.0313 14.364C14.6408 13.9734 14.0076 13.9734 13.6171 14.364C13.2266 14.7545 13.2266 15.3877 13.6171 15.7782L16.4455 18.6066L21.3953 13.6569C21.7858 13.2663 21.7858 12.6332 21.3953 12.2426C21.0048 11.8521 20.3716 11.8521 19.9811 12.2426L16.4455 15.7782L15.0313 14.364Z" fill="#A70719"/>
</svg>
