<svg width="24" height="24" viewBox="0 0 24 24" fill="none" xmlns="http://www.w3.org/2000/svg">
<path fill-rule="evenodd" clip-rule="evenodd" d="M10 21.9999H5C3.34315 21.9999 2 20.6567 2 18.9999V11.4536C2 10.5885 2.37344 9.76555 3.02449 9.19588L10.0245 3.07088C11.1556 2.08119 12.8444 2.08119 13.9755 3.07088L20.9755 9.19588C21.6266 9.76555 22 10.5885 22 11.4536V18.9999C22 20.6567 20.6569 21.9999 19 21.9999H14V15.9998C14 14.8953 13.1046 13.9998 12 13.9998C10.8954 13.9998 10 14.8953 10 15.9998V21.9999ZM4.3415 10.701C4.12448 10.8909 4 11.1653 4 11.4536V18.9999C4 19.5521 4.44772 19.9999 5 19.9999H8V15.9998C8 13.7907 9.79086 11.9998 12 11.9998C14.2091 11.9998 16 13.7907 16 15.9998V19.9999H19C19.5523 19.9999 20 19.5521 20 18.9999V11.4536C20 11.1653 19.8755 10.8909 19.6585 10.701L12.6585 4.57604C12.2815 4.24614 11.7185 4.24614 11.3415 4.57604L4.3415 10.701Z" fill="#A70719"/>
</svg>
