<svg width="2400" height="1400" viewBox="0 0 2400 1400" fill="none" xmlns="http://www.w3.org/2000/svg">
<rect width="2400" height="1400" fill="white"/>
<path d="M1371.76 1228.12H1587.76V1254.52H1371.76V1228.12ZM1379.2 1105.24H1581.76V1131.64H1379.2V1105.24ZM1431.04 1146.52H1528.24V1170.52H1431.04V1146.52ZM1431.04 1186.84H1528.24V1210.84H1431.04V1186.84ZM1412.8 1081.72H1441.36V1242.28H1412.8V1081.72ZM1517.2 1081.72H1546.48V1242.28H1517.2V1081.72ZM1492 1273.96L1512.64 1256.2C1540 1265.56 1570.96 1278.52 1589.2 1287.64L1561.36 1305.88C1546 1296.52 1518.4 1283.56 1492 1273.96ZM1443.52 1253.8L1467.52 1272.76C1445.68 1285.24 1413.04 1298.68 1387.6 1306.36C1383.28 1300.36 1374.88 1290.76 1368.88 1284.76C1394.08 1278.04 1426.72 1264.6 1443.52 1253.8ZM1745.68 1082.2H1772.56V1249.48H1745.68V1082.2ZM1664.56 1176.28L1807.12 1120.84L1817.92 1145.8L1675.6 1201.72L1664.56 1176.28ZM1693.84 1108.12H1722.4V1260.52C1722.4 1274.92 1724.8 1277.08 1740.64 1277.08C1747.84 1277.08 1780.72 1277.08 1789.12 1277.08C1803.04 1277.08 1805.68 1271.32 1807.84 1243.96C1814.32 1248.52 1825.84 1253.32 1834 1255.24C1830.16 1291.24 1821.52 1303 1791.28 1303C1783.12 1303 1745.68 1303 1738.24 1303C1703.44 1303 1693.84 1293.88 1693.84 1260.52V1108.12ZM1797.28 1125.64H1795.6L1800.64 1122.04L1805.68 1118.2L1825.36 1125.88L1824.16 1130.2C1823.92 1172.2 1823.68 1201.24 1822.24 1211.56C1821.04 1223.8 1816.72 1230.04 1808.56 1233.64C1801.36 1236.76 1790.08 1237.24 1781.44 1237C1780.96 1228.84 1778.32 1216.84 1775.2 1210.6C1780.24 1210.84 1787.2 1210.84 1789.84 1210.84C1793.2 1210.84 1794.88 1210.12 1796.08 1205.32C1797.04 1200.04 1797.28 1176.04 1797.28 1125.64ZM1657.84 1082.2L1684.48 1090.6C1669.12 1131.16 1644.16 1174.36 1618.24 1201.72C1615.6 1195 1607.92 1179.4 1603.12 1172.44C1624.96 1150.6 1645.6 1116.52 1657.84 1082.2ZM1633.6 1148.44L1661.92 1120.36V1120.6V1306.36H1633.6V1148.44ZM1958.08 1120.36H2073.28V1147.72H1944.64L1958.08 1120.36ZM1989.76 1173.16H2067.04V1199.32H1989.76V1173.16ZM1989.52 1226.2H2070.16V1253.08H1989.52V1226.2ZM1975.12 1129.48H2004.64V1306.6H1975.12V1129.48ZM1963.6 1083.4L1991.44 1090.84C1978 1129.72 1956.4 1169.56 1934.32 1194.52C1929.76 1189.24 1918.72 1178.92 1912.48 1174.36C1933.6 1152.76 1952.56 1118.2 1963.6 1083.4ZM1900.24 1082.2L1928.08 1091.08C1912.48 1131.88 1887.28 1175.8 1860.88 1203.16C1858.24 1195.96 1850.08 1179.64 1845.04 1172.44C1867.12 1150.6 1888 1116.52 1900.24 1082.2ZM1876 1148.44L1904.8 1119.4L1905.04 1119.64V1306.36H1876V1148.44ZM2157.52 1118.2V1150.6H2242V1118.2H2157.52ZM2129.68 1090.84H2271.52V1177.96H2129.68V1090.84ZM2096.8 1198.12H2188.48V1305.16H2159.68V1225.48H2123.92V1306.6H2096.8V1198.12ZM2208.88 1198.12H2303.92V1305.4H2274.88V1225.48H2236.48V1306.6H2208.88V1198.12ZM2108.8 1267H2171.68V1294.6H2108.8V1267ZM2222.08 1267H2289.28V1294.6H2222.08V1267Z" fill="black"/>
<rect width="1321.23" height="191.2" transform="translate(80 312.4)" fill="white"/>
<path d="M123.508 492.551V443.598H152.07C164.713 443.598 175.733 441.163 185.114 436.275L185.117 436.274C194.495 431.309 201.753 424.328 206.88 415.338C212.085 406.266 214.68 395.67 214.68 383.566V383.332C214.68 371.151 212.086 360.554 206.879 351.56C201.753 342.493 194.496 335.473 185.119 330.508C175.736 325.463 164.715 322.949 152.07 322.949H123.508H123.008H101.68H101.18H80H79.5V323.449V492.551V493.051H80H123.008H123.508V492.551ZM123.508 410.02V356.996H141.758C150.739 356.996 157.676 359.24 162.636 363.666L162.639 363.669C167.658 368.079 170.203 374.604 170.203 383.332V383.566C170.203 392.215 167.659 398.742 162.636 403.233L162.633 403.235C157.673 407.737 150.737 410.02 141.758 410.02H123.508Z" stroke="black"/>
<path d="M240.931 454.929L240.932 454.93C247.772 468.06 257.487 478.21 270.073 485.368C282.661 492.528 297.515 496.098 314.617 496.098C331.952 496.098 346.885 492.528 359.397 485.368C371.982 478.209 381.659 468.06 388.421 454.929C395.261 441.719 398.672 426.09 398.672 408.059V407.824C398.672 389.793 395.262 374.203 388.421 361.071C381.658 347.94 371.981 337.79 359.396 330.632C346.807 323.472 331.874 319.902 314.617 319.902C297.593 319.902 282.778 323.472 270.19 330.632C257.605 337.79 247.851 347.939 240.933 361.068L240.932 361.07C234.09 374.202 230.68 389.793 230.68 407.824V408.059C230.68 426.09 234.09 441.719 240.931 454.929ZM348.96 380.476L348.962 380.48C352.211 388.139 353.844 397.249 353.844 407.824V408.059C353.844 418.555 352.25 427.667 349.077 435.406C345.904 443.068 341.387 449.004 335.535 453.239C329.773 457.388 322.809 459.473 314.617 459.473C306.742 459.473 299.892 457.39 294.047 453.237C288.197 449.08 283.642 443.184 280.391 435.523C277.219 427.784 275.625 418.634 275.625 408.059V407.824C275.625 397.17 277.219 388.02 280.391 380.361C283.641 372.7 288.196 366.844 294.044 362.766L294.045 362.765C299.97 358.61 306.821 356.527 314.617 356.527C322.651 356.527 329.578 358.611 335.421 362.763C341.271 366.92 345.787 372.816 348.96 380.476Z" stroke="black"/>
<path d="M414.672 492.551V493.051H415.172H458.18H458.68V492.551V434.809H478.102H478.104H478.106H478.108H478.111H478.113H478.115H478.118H478.12H478.122H478.124H478.127H478.129H478.131H478.134H478.136H478.138H478.14H478.143H478.145H478.147H478.149H478.152H478.154H478.156H478.159H478.161H478.163H478.165H478.168H478.17H478.172H478.174H478.177H478.179H478.181H478.183H478.186H478.188H478.19H478.192H478.195H478.197H478.199H478.201H478.204H478.206H478.208H478.21H478.213H478.215H478.217H478.219H478.222H478.224H478.226H478.228H478.231H478.233H478.235H478.237H478.24H478.242H478.244H478.246H478.248H478.251H478.253H478.255H478.257H478.26H478.262H478.264H478.266H478.268H478.271H478.273H478.275H478.277H478.28H478.282H478.284H478.286H478.288H478.291H478.293H478.295H478.297H478.3H478.302H478.304H478.306H478.308H478.311H478.313H478.315H478.317H478.319H478.322H478.324H478.326H478.328H478.33H478.333H478.335H478.337H478.339H478.341H478.344H478.346H478.348H478.35H478.352H478.354H478.357H478.359H478.361H478.363H478.365H478.368H478.37H478.372H478.374H478.376H478.379H478.381H478.383H478.385H478.387H478.389H478.392H478.394H478.396H478.398H478.4H478.402H478.405H478.407H478.409H478.411H478.413H478.415H478.418H478.42H478.422H478.424H478.426H478.428H478.431H478.433H478.435H478.437H478.439H478.441H478.443H478.446H478.448H478.45H478.452H478.454H478.456H478.458H478.461H478.463H478.465H478.467H478.469H478.471H478.473H478.476H478.478H478.48H478.482H478.484H478.486H478.488H478.491H478.493H478.495H478.497H478.499H478.501H478.503H478.505H478.508H478.51H478.512H478.514H478.516H478.518H478.52H478.522H478.525H478.527H478.529H478.531H478.533H478.535H478.537H478.539H478.541H478.544H478.546H478.548H478.55H478.552H478.554H478.556H478.558H478.56H478.562H478.565H478.567H478.569H478.571H478.573H478.575H478.577H478.579H478.581H478.583H478.586H478.588H478.59H478.592H478.594H478.596H478.598H478.6H478.602H478.604H478.606H478.609H478.611H478.613H478.615H478.617H478.619H478.621H478.623H478.625H478.627H478.629H478.631H478.633H478.635H478.638H478.64H478.642H478.644H478.646H478.648H478.65H478.652H478.654H478.656H478.658H478.66H478.662H478.664H478.666H478.668H478.671H478.673H478.675H478.677H478.679H478.681H478.683H478.685H478.687H478.689H478.691H478.693H478.695H478.697H478.699H478.701H478.703H478.705H478.707H478.709H478.711H478.713H478.716H478.718H478.72H478.722H478.724H478.726H478.728H478.73H478.732H478.734H478.736H478.738H478.74H478.742H478.744H478.746H478.748H478.75H478.752H478.754H478.756H478.758H478.76H478.762H478.764H478.766H478.768H478.77H478.772H478.774H478.776H478.778H478.78H478.782H478.784H478.786H478.788H478.79H478.792H478.794H478.796H478.798H478.8H478.802H478.804H478.806H478.808H478.81H478.812H478.814H478.816H478.818H478.82H478.822H478.824H478.826H478.828H478.83H478.832H478.834H478.836H478.838H478.84H478.842H478.844H478.846H478.848H478.85H478.852H478.854H478.856H478.858H478.86H478.862H478.864H478.866H478.868H478.87H478.872H478.873H478.875H478.877H478.879H478.881H478.883H478.885H478.887H478.889H478.891H478.893H478.895H478.897H478.899H478.901H478.903H478.905H478.907H478.909H478.911H478.913H478.915H478.916H478.918H478.92H478.922H478.924H478.926H478.928H478.93H478.932H478.934H478.936H478.938H478.94H478.942H478.944H478.946H478.947H478.949H478.951H478.953H478.955H478.957H478.959H478.961H478.963H478.965H478.967H478.969H478.971H478.973H478.974H478.976H478.978H478.98H478.982H478.984H478.986H478.988H478.99H478.992H478.994H478.995H478.997H478.999H479.001H479.003H479.005H479.007H479.009H479.011H479.013H479.015H479.016H479.018H479.02H479.022H479.024H479.026H479.028H479.03H479.032H479.033H479.035H479.037H479.039H479.041H479.043H479.045H479.047H479.049H479.05H479.052H479.054H479.056H479.058H479.06H479.062H479.064H479.065H479.067H479.069H479.071H479.073H479.075H479.077H479.079H479.08H479.082H479.084H479.086H479.088H479.09H479.092H479.093H479.095H479.097H479.099H479.101H479.103H479.105H479.106H479.108H479.11H479.112H479.114H479.116H479.118H479.119H479.121H479.123H479.125H479.127H479.129H479.131H479.132H479.134H479.136H479.138H479.14H479.142H479.143H479.145H479.147H479.149H479.151H479.153H479.154H479.156H479.159H479.161H479.163H479.165H479.168H479.17H479.172H479.174H479.177H479.179H479.181H479.184H479.186H479.188H479.19H479.193H479.195H479.197H479.199H479.202H479.204H479.206H479.208H479.211H479.213H479.215H479.217H479.22H479.222H479.224H479.226H479.229H479.231H479.233H479.235H479.237H479.24H479.242H479.244H479.246H479.249H479.251H479.253H479.255H479.257H479.26H479.262H479.264H479.266H479.268H479.271H479.273H479.275H479.277H479.279H479.282H479.284H479.286H479.288H479.29H479.293H479.295H479.297H479.299H479.301H479.303H479.306H479.308H479.31H479.312H479.314H479.316H479.319H479.321H479.323H479.325H479.327H479.329H479.331H479.334H479.336H479.338H479.34H479.342H479.344H479.346H479.349H479.351H479.353H479.355H479.357H479.359H479.361H479.364H479.366H479.368H479.37H479.372H479.374H479.376H479.378H479.38H479.383H479.385H479.387H479.389H479.391H479.393H479.395H479.397H479.399H479.401H479.403H479.406H479.408H479.41H479.412H479.414H479.416H479.418H479.42H479.422H479.424H479.426H479.428H479.43H479.433H479.435H479.437H479.439H479.441H479.443H479.445H479.447H479.449H479.451H479.453H479.455H479.457H479.459H479.461H479.463H479.465H479.467H479.469H479.471H479.473H479.475H479.477H479.479H479.481H479.483H479.486H479.488H479.49H479.492H479.494H479.496H479.498H479.5H479.502H479.504H479.506H479.508H479.51H479.512H479.514H479.516H479.518H479.52H479.521H479.523H479.525H479.527H479.529H479.531H479.533H479.535H479.537H479.539H479.541H479.543H479.545H479.547H479.549H479.551H479.553H479.555H479.557H479.559H479.561H479.563H479.565H479.567H479.569H479.571H479.572H479.574H479.576H479.578H479.58H479.582H479.584H479.586H479.588H479.59H479.592H479.594H479.596H479.597H479.599H479.601H479.603H479.605H479.607H479.609H479.611H479.613H479.615H479.617H479.618H479.62H479.622H479.624H479.626H479.628H479.63H479.632H479.634H479.635H479.637H479.639H479.641H479.643H479.645H479.647H479.648H479.65H479.652H479.654H479.656H479.658H479.66H479.661H479.663H479.665H479.667H479.669H479.671H479.673H479.674H479.676H479.678H479.68H479.682H479.684H479.685H479.687H479.689H479.691H479.693H479.695H479.696H479.698H479.7H479.702H479.704H479.705H479.707H479.709H479.711H479.713H479.714H479.716H479.718H479.72H479.722H479.723H479.725H479.727H479.729H479.731H479.732H479.734H479.736H479.738H479.739H479.741H479.743H479.745H479.747H479.748H479.75H479.752H479.754H479.755H479.757H479.759H479.761H479.762H479.764H479.766H479.768H479.769H479.771H479.773H479.775H479.776H479.778H479.78H479.782H479.783H479.784L508.591 492.773L508.729 493.051H509.039H557.438H558.263L557.881 492.319L524.376 428.218C532.998 424.253 539.905 417.965 545.092 409.372C550.377 400.616 553.016 390.76 553.016 379.816V379.582C553.016 367.559 550.501 357.309 545.445 348.857C540.389 340.404 533.043 333.971 523.427 329.557C513.814 325.145 502.137 322.949 488.414 322.949H415.172H414.672V323.449V492.551ZM483.609 402.637H458.68V356.41H483.375C490.854 356.41 496.817 358.527 501.315 362.721C505.81 366.911 508.07 372.475 508.07 379.465V379.699C508.07 386.692 505.847 392.257 501.43 396.446C497.091 400.556 491.171 402.637 483.609 402.637Z" stroke="black"/>
<path d="M620.578 492.551V493.051H621.078H664.086H664.586V492.551V358.52H710.609H711.109V358.02V323.449V322.949H710.609H574.438H573.938V323.449V358.02V358.52H574.438H620.578V492.551Z" stroke="black"/>
<path d="M727.109 492.551V493.051H727.609H770.617H771.117V492.551V430.004H836.125H836.625V429.504V396.574V396.074H836.125H771.117V358.52H842.688H843.188V358.02V323.449V322.949H842.688H727.609H727.109V323.449V492.551Z" stroke="black"/>
<path d="M869.439 454.929L869.439 454.93C876.28 468.06 885.995 478.21 898.581 485.368C911.169 492.528 926.023 496.098 943.125 496.098C960.46 496.098 975.393 492.528 987.905 485.368C1000.49 478.209 1010.17 468.06 1016.93 454.929C1023.77 441.719 1027.18 426.09 1027.18 408.059V407.824C1027.18 389.793 1023.77 374.203 1016.93 361.071C1010.17 347.94 1000.49 337.79 987.903 330.632C975.315 323.472 960.382 319.902 943.125 319.902C926.101 319.902 911.286 323.472 898.698 330.632C886.113 337.79 876.359 347.939 869.44 361.068L869.439 361.07C862.598 374.202 859.188 389.793 859.188 407.824V408.059C859.188 426.09 862.598 441.719 869.439 454.929ZM977.468 380.476L977.469 380.48C980.718 388.139 982.352 397.249 982.352 407.824V408.059C982.352 418.555 980.758 427.667 977.585 435.406C974.412 443.068 969.895 449.004 964.043 453.239C958.281 457.388 951.317 459.473 943.125 459.473C935.25 459.473 928.4 457.39 922.555 453.237C916.705 449.08 912.15 443.184 908.899 435.523C905.727 427.784 904.133 418.634 904.133 408.059V407.824C904.133 397.17 905.727 388.02 908.899 380.361C912.149 372.7 916.704 366.844 922.552 362.766L922.553 362.765C928.478 358.61 935.329 356.527 943.125 356.527C951.159 356.527 958.086 358.611 963.929 362.763C969.779 366.92 974.295 372.816 977.468 380.476Z" stroke="black"/>
<path d="M1043.18 492.551V493.051H1043.68H1156.65H1157.15V492.551V457.98V457.48H1156.65H1087.19V323.449V322.949H1086.69H1043.68H1043.18V323.449V492.551Z" stroke="black"/>
<path d="M1173.15 492.551V493.051H1173.65H1216.66H1217.16V492.551V323.449V322.949H1216.66H1173.65H1173.15V323.449V492.551Z" stroke="black"/>
<path d="M1243.41 454.929L1243.41 454.93C1250.25 468.06 1259.96 478.21 1272.55 485.368C1285.14 492.528 1299.99 496.098 1317.09 496.098C1334.43 496.098 1349.36 492.528 1361.87 485.368C1374.46 478.209 1384.14 468.06 1390.9 454.929C1397.74 441.719 1401.15 426.09 1401.15 408.059V407.824C1401.15 389.793 1397.74 374.203 1390.9 361.071C1384.13 347.94 1374.46 337.79 1361.87 330.632C1349.28 323.472 1334.35 319.902 1317.09 319.902C1300.07 319.902 1285.25 323.472 1272.67 330.632C1260.08 337.79 1250.33 347.939 1243.41 361.068L1243.41 361.07C1236.57 374.202 1233.16 389.793 1233.16 407.824V408.059C1233.16 426.09 1236.57 441.719 1243.41 454.929ZM1351.44 380.476L1351.44 380.48C1354.69 388.139 1356.32 397.249 1356.32 407.824V408.059C1356.32 418.555 1354.73 427.667 1351.55 435.406C1348.38 443.068 1343.86 449.004 1338.01 453.239C1332.25 457.388 1325.29 459.473 1317.09 459.473C1309.22 459.473 1302.37 457.39 1296.52 453.237C1290.67 449.08 1286.12 443.184 1282.87 435.523C1279.7 427.784 1278.1 418.634 1278.1 408.059V407.824C1278.1 397.17 1279.7 388.02 1282.87 380.361C1286.12 372.7 1290.67 366.844 1296.52 362.766L1296.52 362.765C1302.45 358.61 1309.3 356.527 1317.09 356.527C1325.13 356.527 1332.05 358.611 1337.9 362.763C1343.75 366.92 1348.26 372.816 1351.44 380.476Z" stroke="black"/>
<rect width="1321.23" height="191.2" transform="translate(80 196.2)" fill="white"/>
<path d="M123.508 376.351V327.398H152.07C164.713 327.398 175.733 324.963 185.114 320.075L185.117 320.074C194.495 315.109 201.753 308.128 206.88 299.137C212.085 290.066 214.68 279.47 214.68 267.366V267.132C214.68 254.951 212.086 244.354 206.879 235.36C201.753 226.293 194.496 219.273 185.119 214.308C175.736 209.263 164.715 206.749 152.07 206.749H123.508H123.008H101.68H101.18H80H79.5V207.249V376.351V376.851H80H123.008H123.508V376.351ZM123.508 293.82V240.796H141.758C150.739 240.796 157.676 243.04 162.636 247.466L162.639 247.469C167.658 251.879 170.203 258.404 170.203 267.132V267.366C170.203 276.014 167.659 282.542 162.636 287.033L162.633 287.035C157.673 291.537 150.737 293.82 141.758 293.82H123.508Z" stroke="black"/>
<path d="M240.931 338.729L240.932 338.73C247.772 351.86 257.487 362.01 270.073 369.168C282.661 376.328 297.515 379.898 314.617 379.898C331.952 379.898 346.885 376.328 359.397 369.168C371.982 362.009 381.659 351.86 388.421 338.729C395.261 325.519 398.672 309.89 398.672 291.859V291.624C398.672 273.593 395.262 258.003 388.421 244.871C381.658 231.74 371.981 221.59 359.396 214.432C346.807 207.272 331.874 203.702 314.617 203.702C297.593 203.702 282.778 207.272 270.19 214.432C257.605 221.59 247.851 231.739 240.933 244.868L240.932 244.87C234.09 258.002 230.68 273.593 230.68 291.624V291.859C230.68 309.89 234.09 325.519 240.931 338.729ZM348.96 264.276L348.962 264.28C352.211 271.939 353.844 281.049 353.844 291.624V291.859C353.844 302.355 352.25 311.467 349.077 319.206C345.904 326.868 341.387 332.804 335.535 337.039C329.773 341.188 322.809 343.273 314.617 343.273C306.742 343.273 299.892 341.19 294.047 337.037C288.197 332.88 283.642 326.984 280.391 319.323C277.219 311.584 275.625 302.434 275.625 291.859V291.624C275.625 280.97 277.219 271.82 280.391 264.161C283.641 256.5 288.196 250.644 294.044 246.566L294.045 246.565C299.97 242.409 306.821 240.327 314.617 240.327C322.651 240.327 329.578 242.411 335.421 246.563C341.271 250.72 345.787 256.616 348.96 264.276Z" stroke="black"/>
<path d="M414.672 376.351V376.851H415.172H458.18H458.68V376.351V318.609H478.102H478.104H478.106H478.108H478.111H478.113H478.115H478.118H478.12H478.122H478.124H478.127H478.129H478.131H478.134H478.136H478.138H478.14H478.143H478.145H478.147H478.149H478.152H478.154H478.156H478.159H478.161H478.163H478.165H478.168H478.17H478.172H478.174H478.177H478.179H478.181H478.183H478.186H478.188H478.19H478.192H478.195H478.197H478.199H478.201H478.204H478.206H478.208H478.21H478.213H478.215H478.217H478.219H478.222H478.224H478.226H478.228H478.231H478.233H478.235H478.237H478.24H478.242H478.244H478.246H478.248H478.251H478.253H478.255H478.257H478.26H478.262H478.264H478.266H478.268H478.271H478.273H478.275H478.277H478.28H478.282H478.284H478.286H478.288H478.291H478.293H478.295H478.297H478.3H478.302H478.304H478.306H478.308H478.311H478.313H478.315H478.317H478.319H478.322H478.324H478.326H478.328H478.33H478.333H478.335H478.337H478.339H478.341H478.344H478.346H478.348H478.35H478.352H478.354H478.357H478.359H478.361H478.363H478.365H478.368H478.37H478.372H478.374H478.376H478.379H478.381H478.383H478.385H478.387H478.389H478.392H478.394H478.396H478.398H478.4H478.402H478.405H478.407H478.409H478.411H478.413H478.415H478.418H478.42H478.422H478.424H478.426H478.428H478.431H478.433H478.435H478.437H478.439H478.441H478.443H478.446H478.448H478.45H478.452H478.454H478.456H478.458H478.461H478.463H478.465H478.467H478.469H478.471H478.473H478.476H478.478H478.48H478.482H478.484H478.486H478.488H478.491H478.493H478.495H478.497H478.499H478.501H478.503H478.505H478.508H478.51H478.512H478.514H478.516H478.518H478.52H478.522H478.525H478.527H478.529H478.531H478.533H478.535H478.537H478.539H478.541H478.544H478.546H478.548H478.55H478.552H478.554H478.556H478.558H478.56H478.562H478.565H478.567H478.569H478.571H478.573H478.575H478.577H478.579H478.581H478.583H478.586H478.588H478.59H478.592H478.594H478.596H478.598H478.6H478.602H478.604H478.606H478.609H478.611H478.613H478.615H478.617H478.619H478.621H478.623H478.625H478.627H478.629H478.631H478.633H478.635H478.638H478.64H478.642H478.644H478.646H478.648H478.65H478.652H478.654H478.656H478.658H478.66H478.662H478.664H478.666H478.668H478.671H478.673H478.675H478.677H478.679H478.681H478.683H478.685H478.687H478.689H478.691H478.693H478.695H478.697H478.699H478.701H478.703H478.705H478.707H478.709H478.711H478.713H478.716H478.718H478.72H478.722H478.724H478.726H478.728H478.73H478.732H478.734H478.736H478.738H478.74H478.742H478.744H478.746H478.748H478.75H478.752H478.754H478.756H478.758H478.76H478.762H478.764H478.766H478.768H478.77H478.772H478.774H478.776H478.778H478.78H478.782H478.784H478.786H478.788H478.79H478.792H478.794H478.796H478.798H478.8H478.802H478.804H478.806H478.808H478.81H478.812H478.814H478.816H478.818H478.82H478.822H478.824H478.826H478.828H478.83H478.832H478.834H478.836H478.838H478.84H478.842H478.844H478.846H478.848H478.85H478.852H478.854H478.856H478.858H478.86H478.862H478.864H478.866H478.868H478.87H478.872H478.873H478.875H478.877H478.879H478.881H478.883H478.885H478.887H478.889H478.891H478.893H478.895H478.897H478.899H478.901H478.903H478.905H478.907H478.909H478.911H478.913H478.915H478.916H478.918H478.92H478.922H478.924H478.926H478.928H478.93H478.932H478.934H478.936H478.938H478.94H478.942H478.944H478.946H478.947H478.949H478.951H478.953H478.955H478.957H478.959H478.961H478.963H478.965H478.967H478.969H478.971H478.973H478.974H478.976H478.978H478.98H478.982H478.984H478.986H478.988H478.99H478.992H478.994H478.995H478.997H478.999H479.001H479.003H479.005H479.007H479.009H479.011H479.013H479.015H479.016H479.018H479.02H479.022H479.024H479.026H479.028H479.03H479.032H479.033H479.035H479.037H479.039H479.041H479.043H479.045H479.047H479.049H479.05H479.052H479.054H479.056H479.058H479.06H479.062H479.064H479.065H479.067H479.069H479.071H479.073H479.075H479.077H479.079H479.08H479.082H479.084H479.086H479.088H479.09H479.092H479.093H479.095H479.097H479.099H479.101H479.103H479.105H479.106H479.108H479.11H479.112H479.114H479.116H479.118H479.119H479.121H479.123H479.125H479.127H479.129H479.131H479.132H479.134H479.136H479.138H479.14H479.142H479.143H479.145H479.147H479.149H479.151H479.153H479.154H479.156H479.159H479.161H479.163H479.165H479.168H479.17H479.172H479.174H479.177H479.179H479.181H479.184H479.186H479.188H479.19H479.193H479.195H479.197H479.199H479.202H479.204H479.206H479.208H479.211H479.213H479.215H479.217H479.22H479.222H479.224H479.226H479.229H479.231H479.233H479.235H479.237H479.24H479.242H479.244H479.246H479.249H479.251H479.253H479.255H479.257H479.26H479.262H479.264H479.266H479.268H479.271H479.273H479.275H479.277H479.279H479.282H479.284H479.286H479.288H479.29H479.293H479.295H479.297H479.299H479.301H479.303H479.306H479.308H479.31H479.312H479.314H479.316H479.319H479.321H479.323H479.325H479.327H479.329H479.331H479.334H479.336H479.338H479.34H479.342H479.344H479.346H479.349H479.351H479.353H479.355H479.357H479.359H479.361H479.364H479.366H479.368H479.37H479.372H479.374H479.376H479.378H479.38H479.383H479.385H479.387H479.389H479.391H479.393H479.395H479.397H479.399H479.401H479.403H479.406H479.408H479.41H479.412H479.414H479.416H479.418H479.42H479.422H479.424H479.426H479.428H479.43H479.433H479.435H479.437H479.439H479.441H479.443H479.445H479.447H479.449H479.451H479.453H479.455H479.457H479.459H479.461H479.463H479.465H479.467H479.469H479.471H479.473H479.475H479.477H479.479H479.481H479.483H479.486H479.488H479.49H479.492H479.494H479.496H479.498H479.5H479.502H479.504H479.506H479.508H479.51H479.512H479.514H479.516H479.518H479.52H479.521H479.523H479.525H479.527H479.529H479.531H479.533H479.535H479.537H479.539H479.541H479.543H479.545H479.547H479.549H479.551H479.553H479.555H479.557H479.559H479.561H479.563H479.565H479.567H479.569H479.571H479.572H479.574H479.576H479.578H479.58H479.582H479.584H479.586H479.588H479.59H479.592H479.594H479.596H479.597H479.599H479.601H479.603H479.605H479.607H479.609H479.611H479.613H479.615H479.617H479.618H479.62H479.622H479.624H479.626H479.628H479.63H479.632H479.634H479.635H479.637H479.639H479.641H479.643H479.645H479.647H479.648H479.65H479.652H479.654H479.656H479.658H479.66H479.661H479.663H479.665H479.667H479.669H479.671H479.673H479.674H479.676H479.678H479.68H479.682H479.684H479.685H479.687H479.689H479.691H479.693H479.695H479.696H479.698H479.7H479.702H479.704H479.705H479.707H479.709H479.711H479.713H479.714H479.716H479.718H479.72H479.722H479.723H479.725H479.727H479.729H479.731H479.732H479.734H479.736H479.738H479.739H479.741H479.743H479.745H479.747H479.748H479.75H479.752H479.754H479.755H479.757H479.759H479.761H479.762H479.764H479.766H479.768H479.769H479.771H479.773H479.775H479.776H479.778H479.78H479.782H479.783H479.784L508.591 376.573L508.729 376.851H509.039H557.438H558.263L557.881 376.119L524.376 312.018C532.998 308.053 539.905 301.765 545.092 293.172C550.377 284.416 553.016 274.56 553.016 263.616V263.382C553.016 251.359 550.501 241.109 545.445 232.657C540.389 224.204 533.043 217.771 523.427 213.357C513.814 208.945 502.137 206.749 488.414 206.749H415.172H414.672V207.249V376.351ZM483.609 286.437H458.68V240.21H483.375C490.854 240.21 496.817 242.327 501.315 246.521C505.81 250.711 508.07 256.275 508.07 263.265V263.499C508.07 270.492 505.847 276.057 501.43 280.246C497.091 284.356 491.171 286.437 483.609 286.437Z" stroke="black"/>
<path d="M620.578 376.351V376.851H621.078H664.086H664.586V376.351V242.32H710.609H711.109V241.82V207.249V206.749H710.609H574.438H573.938V207.249V241.82V242.32H574.438H620.578V376.351Z" stroke="black"/>
<path d="M727.109 376.351V376.851H727.609H770.617H771.117V376.351V313.804H836.125H836.625V313.304V280.374V279.874H836.125H771.117V242.32H842.688H843.188V241.82V207.249V206.749H842.688H727.609H727.109V207.249V376.351Z" stroke="black"/>
<path d="M869.439 338.729L869.439 338.73C876.28 351.86 885.995 362.01 898.581 369.168C911.169 376.328 926.023 379.898 943.125 379.898C960.46 379.898 975.393 376.328 987.905 369.168C1000.49 362.009 1010.17 351.86 1016.93 338.729C1023.77 325.519 1027.18 309.89 1027.18 291.859V291.624C1027.18 273.593 1023.77 258.003 1016.93 244.871C1010.17 231.74 1000.49 221.59 987.903 214.432C975.315 207.272 960.382 203.702 943.125 203.702C926.101 203.702 911.286 207.272 898.698 214.432C886.113 221.59 876.359 231.739 869.44 244.868L869.439 244.87C862.598 258.002 859.188 273.593 859.188 291.624V291.859C859.188 309.89 862.598 325.519 869.439 338.729ZM977.468 264.276L977.469 264.28C980.718 271.939 982.352 281.049 982.352 291.624V291.859C982.352 302.355 980.758 311.467 977.585 319.206C974.412 326.868 969.895 332.804 964.043 337.039C958.281 341.188 951.317 343.273 943.125 343.273C935.25 343.273 928.4 341.19 922.555 337.037C916.705 332.88 912.15 326.984 908.899 319.323C905.727 311.584 904.133 302.434 904.133 291.859V291.624C904.133 280.97 905.727 271.82 908.899 264.161C912.149 256.5 916.704 250.644 922.552 246.566L922.553 246.565C928.478 242.409 935.329 240.327 943.125 240.327C951.159 240.327 958.086 242.411 963.929 246.563C969.779 250.72 974.295 256.616 977.468 264.276Z" stroke="black"/>
<path d="M1043.18 376.351V376.851H1043.68H1156.65H1157.15V376.351V341.78V341.28H1156.65H1087.19V207.249V206.749H1086.69H1043.68H1043.18V207.249V376.351Z" stroke="black"/>
<path d="M1173.15 376.351V376.851H1173.65H1216.66H1217.16V376.351V207.249V206.749H1216.66H1173.65H1173.15V207.249V376.351Z" stroke="black"/>
<path d="M1243.41 338.729L1243.41 338.73C1250.25 351.86 1259.96 362.01 1272.55 369.168C1285.14 376.328 1299.99 379.898 1317.09 379.898C1334.43 379.898 1349.36 376.328 1361.87 369.168C1374.46 362.009 1384.14 351.86 1390.9 338.729C1397.74 325.519 1401.15 309.89 1401.15 291.859V291.624C1401.15 273.593 1397.74 258.003 1390.9 244.871C1384.13 231.74 1374.46 221.59 1361.87 214.432C1349.28 207.272 1334.35 203.702 1317.09 203.702C1300.07 203.702 1285.25 207.272 1272.67 214.432C1260.08 221.59 1250.33 231.739 1243.41 244.868L1243.41 244.87C1236.57 258.002 1233.16 273.593 1233.16 291.624V291.859C1233.16 309.89 1236.57 325.519 1243.41 338.729ZM1351.44 264.276L1351.44 264.28C1354.69 271.939 1356.32 281.049 1356.32 291.624V291.859C1356.32 302.355 1354.73 311.467 1351.55 319.206C1348.38 326.868 1343.86 332.804 1338.01 337.039C1332.25 341.188 1325.29 343.273 1317.09 343.273C1309.22 343.273 1302.37 341.19 1296.52 337.037C1290.67 332.88 1286.12 326.984 1282.87 319.323C1279.7 311.584 1278.1 302.434 1278.1 291.859V291.624C1278.1 280.97 1279.7 271.82 1282.87 264.161C1286.12 256.5 1290.67 250.644 1296.52 246.566L1296.52 246.565C1302.45 242.409 1309.3 240.327 1317.09 240.327C1325.13 240.327 1332.05 242.411 1337.9 246.563C1343.75 250.72 1348.26 256.616 1351.44 264.276Z" stroke="black"/>
<rect width="1321.23" height="191.2" transform="translate(80 80)" fill="white"/>
<path d="M101.812 202.674V170.116H142.135C151.253 170.116 158.367 167.812 163.476 163.206C168.664 158.599 171.258 151.923 171.258 143.179V142.945C171.258 134.122 168.664 127.446 163.476 122.917C158.367 118.389 151.253 116.125 142.135 116.125H101.812V83.0977H152.511C165.166 83.0977 176.17 85.5962 185.524 90.5932C194.878 95.5121 202.109 102.461 207.218 111.44C212.406 120.341 215 130.842 215 142.945V143.179C215 155.203 212.406 165.704 207.218 174.683C202.109 183.584 194.878 190.494 185.524 195.413C176.17 200.254 165.166 202.674 152.511 202.674H101.812ZM80 252.098V83.0977H123.271V252.098H80Z" fill="black"/>
<path d="M315.004 255.195C297.973 255.195 283.207 251.641 270.707 244.531C258.207 237.422 248.559 227.344 241.762 214.297C234.965 201.172 231.566 185.625 231.566 167.656V167.422C231.566 149.453 234.965 133.945 241.762 120.898C248.637 107.852 258.324 97.7734 270.824 90.6641C283.324 83.5547 298.051 80 315.004 80C332.191 80 347.035 83.5547 359.535 90.6641C372.035 97.7734 381.645 107.852 388.363 120.898C395.16 133.945 398.559 149.453 398.559 167.422V167.656C398.559 185.625 395.16 201.172 388.363 214.297C381.645 227.344 372.035 237.422 359.535 244.531C347.113 251.641 332.27 255.195 315.004 255.195ZM315.004 219.57C323.285 219.57 330.355 217.461 336.215 213.242C342.152 208.945 346.723 202.93 349.926 195.195C353.129 187.383 354.73 178.203 354.73 167.656V167.422C354.73 156.797 353.09 147.617 349.809 139.883C346.605 132.148 342.035 126.172 336.098 121.953C330.16 117.734 323.129 115.625 315.004 115.625C307.113 115.625 300.16 117.734 294.145 121.953C288.207 126.094 283.598 132.031 280.316 139.766C277.113 147.5 275.512 156.719 275.512 167.422V167.656C275.512 178.281 277.113 187.5 280.316 195.312C283.598 203.047 288.207 209.023 294.145 213.242C300.082 217.461 307.035 219.57 315.004 219.57Z" fill="black"/>
<path d="M415.125 252.148V83.0469H488.367C502.039 83.0469 513.641 85.2344 523.172 89.6094C532.703 93.9844 539.969 100.352 544.969 108.711C549.969 117.07 552.469 127.227 552.469 139.18V139.414C552.469 150.273 549.852 160.039 544.617 168.711C539.383 177.383 532.391 183.672 523.641 187.578L557.391 252.148H508.992L480.047 193.906C479.812 193.906 479.5 193.906 479.109 193.906C478.797 193.906 478.445 193.906 478.055 193.906H458.133V252.148H415.125ZM458.133 162.734H483.562C491.219 162.734 497.273 160.625 501.727 156.406C506.258 152.109 508.523 146.406 508.523 139.297V139.062C508.523 131.953 506.219 126.25 501.609 121.953C497 117.656 490.906 115.508 483.328 115.508H458.133V162.734Z" fill="black"/>
<path d="M620.598 252.148V117.617H573.957V83.0469H710.129V117.617H663.605V252.148H620.598Z" fill="black"/>
<path d="M727 252V83H843V117.55H770.352V156.081H836.385V188.991H770.352V252H727Z" fill="black"/>
<path d="M941.777 255.195C924.746 255.195 909.98 251.641 897.48 244.531C884.98 237.422 875.332 227.344 868.535 214.297C861.738 201.172 858.34 185.625 858.34 167.656V167.422C858.34 149.453 861.738 133.945 868.535 120.898C875.41 107.852 885.098 97.7734 897.598 90.6641C910.098 83.5547 924.824 80 941.777 80C958.965 80 973.809 83.5547 986.309 90.6641C998.809 97.7734 1008.42 107.852 1015.14 120.898C1021.93 133.945 1025.33 149.453 1025.33 167.422V167.656C1025.33 185.625 1021.93 201.172 1015.14 214.297C1008.42 227.344 998.809 237.422 986.309 244.531C973.887 251.641 959.043 255.195 941.777 255.195ZM941.777 219.57C950.059 219.57 957.129 217.461 962.988 213.242C968.926 208.945 973.496 202.93 976.699 195.195C979.902 187.383 981.504 178.203 981.504 167.656V167.422C981.504 156.797 979.863 147.617 976.582 139.883C973.379 132.148 968.809 126.172 962.871 121.953C956.934 117.734 949.902 115.625 941.777 115.625C933.887 115.625 926.934 117.734 920.918 121.953C914.98 126.094 910.371 132.031 907.09 139.766C903.887 147.5 902.285 156.719 902.285 167.422V167.656C902.285 178.281 903.887 187.5 907.09 195.312C910.371 203.047 914.98 209.023 920.918 213.242C926.855 217.461 933.809 219.57 941.777 219.57Z" fill="black"/>
<path d="M1043 252V83H1086.4V217.45H1157V252H1043Z" fill="black"/>
<path d="M1172.43 252.098V83.0977H1217.43V252.098H1172.43Z" fill="black"/>
<path d="M1316.94 255.098C1299.81 255.098 1284.95 251.547 1272.38 244.445C1259.8 237.344 1250.09 227.277 1243.26 214.245C1236.42 201.134 1233 185.605 1233 167.656V167.422C1233 149.473 1236.42 133.983 1243.26 120.95C1250.17 107.918 1259.92 97.8513 1272.49 90.7498C1285.07 83.6484 1299.89 80.0977 1316.94 80.0977C1334.23 80.0977 1349.17 83.6484 1361.74 90.7498C1374.32 97.8513 1383.98 107.918 1390.74 120.95C1397.58 133.983 1401 149.473 1401 167.422V167.656C1401 185.605 1397.58 201.134 1390.74 214.245C1383.98 227.277 1374.32 237.344 1361.74 244.445C1349.24 251.547 1334.31 255.098 1316.94 255.098ZM1316.94 219.512C1325.27 219.512 1332.39 217.405 1338.28 213.191C1344.25 208.899 1348.85 202.89 1352.07 195.165C1355.3 187.361 1356.91 178.191 1356.91 167.656V167.422C1356.91 156.809 1355.26 147.639 1351.96 139.914C1348.73 132.188 1344.14 126.218 1338.16 122.004C1332.19 117.79 1325.12 115.683 1316.94 115.683C1309 115.683 1302.01 117.79 1295.96 122.004C1289.98 126.14 1285.35 132.071 1282.04 139.797C1278.82 147.522 1277.21 156.731 1277.21 167.422V167.656C1277.21 178.269 1278.82 187.478 1282.04 195.282C1285.35 203.007 1289.98 208.977 1295.96 213.191C1301.93 217.405 1308.92 219.512 1316.94 219.512Z" fill="black"/>
</svg>
