<svg width="2400" height="1400" viewBox="0 0 2400 1400" fill="none" xmlns="http://www.w3.org/2000/svg">
<rect width="2400" height="1400" fill="white"/>
<path d="M1371.76 1228.12H1587.76V1254.52H1371.76V1228.12ZM1379.2 1105.24H1581.76V1131.64H1379.2V1105.24ZM1431.04 1146.52H1528.24V1170.52H1431.04V1146.52ZM1431.04 1186.84H1528.24V1210.84H1431.04V1186.84ZM1412.8 1081.72H1441.36V1242.28H1412.8V1081.72ZM1517.2 1081.72H1546.48V1242.28H1517.2V1081.72ZM1492 1273.96L1512.64 1256.2C1540 1265.56 1570.96 1278.52 1589.2 1287.64L1561.36 1305.88C1546 1296.52 1518.4 1283.56 1492 1273.96ZM1443.52 1253.8L1467.52 1272.76C1445.68 1285.24 1413.04 1298.68 1387.6 1306.36C1383.28 1300.36 1374.88 1290.76 1368.88 1284.76C1394.08 1278.04 1426.72 1264.6 1443.52 1253.8ZM1745.68 1082.2H1772.56V1249.48H1745.68V1082.2ZM1664.56 1176.28L1807.12 1120.84L1817.92 1145.8L1675.6 1201.72L1664.56 1176.28ZM1693.84 1108.12H1722.4V1260.52C1722.4 1274.92 1724.8 1277.08 1740.64 1277.08C1747.84 1277.08 1780.72 1277.08 1789.12 1277.08C1803.04 1277.08 1805.68 1271.32 1807.84 1243.96C1814.32 1248.52 1825.84 1253.32 1834 1255.24C1830.16 1291.24 1821.52 1303 1791.28 1303C1783.12 1303 1745.68 1303 1738.24 1303C1703.44 1303 1693.84 1293.88 1693.84 1260.52V1108.12ZM1797.28 1125.64H1795.6L1800.64 1122.04L1805.68 1118.2L1825.36 1125.88L1824.16 1130.2C1823.92 1172.2 1823.68 1201.24 1822.24 1211.56C1821.04 1223.8 1816.72 1230.04 1808.56 1233.64C1801.36 1236.76 1790.08 1237.24 1781.44 1237C1780.96 1228.84 1778.32 1216.84 1775.2 1210.6C1780.24 1210.84 1787.2 1210.84 1789.84 1210.84C1793.2 1210.84 1794.88 1210.12 1796.08 1205.32C1797.04 1200.04 1797.28 1176.04 1797.28 1125.64ZM1657.84 1082.2L1684.48 1090.6C1669.12 1131.16 1644.16 1174.36 1618.24 1201.72C1615.6 1195 1607.92 1179.4 1603.12 1172.44C1624.96 1150.6 1645.6 1116.52 1657.84 1082.2ZM1633.6 1148.44L1661.92 1120.36V1120.6V1306.36H1633.6V1148.44ZM1958.08 1120.36H2073.28V1147.72H1944.64L1958.08 1120.36ZM1989.76 1173.16H2067.04V1199.32H1989.76V1173.16ZM1989.52 1226.2H2070.16V1253.08H1989.52V1226.2ZM1975.12 1129.48H2004.64V1306.6H1975.12V1129.48ZM1963.6 1083.4L1991.44 1090.84C1978 1129.72 1956.4 1169.56 1934.32 1194.52C1929.76 1189.24 1918.72 1178.92 1912.48 1174.36C1933.6 1152.76 1952.56 1118.2 1963.6 1083.4ZM1900.24 1082.2L1928.08 1091.08C1912.48 1131.88 1887.28 1175.8 1860.88 1203.16C1858.24 1195.96 1850.08 1179.64 1845.04 1172.44C1867.12 1150.6 1888 1116.52 1900.24 1082.2ZM1876 1148.44L1904.8 1119.4L1905.04 1119.64V1306.36H1876V1148.44ZM2157.52 1118.2V1150.6H2242V1118.2H2157.52ZM2129.68 1090.84H2271.52V1177.96H2129.68V1090.84ZM2096.8 1198.12H2188.48V1305.16H2159.68V1225.48H2123.92V1306.6H2096.8V1198.12ZM2208.88 1198.12H2303.92V1305.4H2274.88V1225.48H2236.48V1306.6H2208.88V1198.12ZM2108.8 1267H2171.68V1294.6H2108.8V1267ZM2222.08 1267H2289.28V1294.6H2222.08V1267Z" fill="black"/>
<rect width="1352" height="195" transform="translate(100 394)" fill="white"/>
<path fill-rule="evenodd" clip-rule="evenodd" d="M1307.83 542.895C1321.67 557.116 1341.83 565.195 1367.15 565.195C1392.59 565.195 1412.81 557.086 1426.67 542.85C1440.55 528.602 1448.46 507.8 1448.46 481.656V481.422C1448.46 455.343 1440.52 434.57 1426.63 420.334C1412.75 406.109 1392.53 398 1367.15 398C1341.95 398 1321.78 406.078 1307.92 420.29C1294.04 434.512 1286.07 455.286 1286.07 481.422V481.656C1286.07 507.86 1293.99 528.663 1307.83 542.895ZM1395.76 518.333C1389.01 527.502 1379.14 532.648 1367.15 532.648C1355.44 532.648 1345.64 527.588 1338.89 518.477C1332.22 509.484 1328.7 496.811 1328.7 481.656V481.422C1328.7 466.26 1332.25 453.613 1338.94 444.65C1345.71 435.573 1355.51 430.547 1367.15 430.547C1378.95 430.547 1388.82 435.594 1395.61 444.693C1402.31 453.674 1405.84 466.323 1405.84 481.422V481.656C1405.84 496.622 1402.41 509.294 1395.76 518.333ZM1282.07 481.656C1282.07 535.68 1314.77 569.195 1367.15 569.195C1419.77 569.195 1452.46 535.562 1452.46 481.656V481.422C1452.46 427.633 1419.65 394 1367.15 394C1315 394 1282.07 427.516 1282.07 481.422V481.656ZM1401.84 481.656C1401.84 510.484 1388.59 528.648 1367.15 528.648C1346.29 528.648 1332.7 510.836 1332.7 481.656V481.422C1332.7 452.242 1346.41 434.547 1367.15 434.547C1388.24 434.547 1401.84 452.359 1401.84 481.422V481.656Z" fill="black"/>
<path fill-rule="evenodd" clip-rule="evenodd" d="M1217.05 401.047V562.148H1258.73V401.047H1217.05ZM1213.05 566.148H1262.73V397.047H1213.05V566.148Z" fill="black"/>
<path fill-rule="evenodd" clip-rule="evenodd" d="M1127.97 526.773V397.047H1078.28V566.148H1194.3V526.773H1127.97ZM1190.3 530.773H1123.97V401.047H1082.28V562.148H1190.3V530.773Z" fill="black"/>
<path fill-rule="evenodd" clip-rule="evenodd" d="M914.317 542.895C928.152 557.116 948.313 565.195 973.633 565.195C999.071 565.195 1019.29 557.086 1033.15 542.85C1047.03 528.602 1054.95 507.8 1054.95 481.656V481.422C1054.95 455.343 1047.01 434.57 1033.11 420.334C1019.23 406.109 999.01 398 973.633 398C948.434 398 928.269 406.078 914.401 420.29C900.523 434.512 892.555 455.286 892.555 481.422V481.656C892.555 507.86 900.47 528.663 914.317 542.895ZM1002.24 518.333C995.496 527.502 985.628 532.648 973.633 532.648C961.928 532.648 952.126 527.588 945.371 518.477C938.703 509.484 935.18 496.811 935.18 481.656V481.422C935.18 466.26 938.736 453.613 945.422 444.65C952.193 435.573 961.991 430.547 973.633 430.547C985.439 430.547 995.3 435.594 1002.09 444.693C1008.8 453.674 1012.32 466.323 1012.32 481.422V481.656C1012.32 496.622 1008.89 509.294 1002.24 518.333ZM888.555 481.656C888.555 535.68 921.25 569.195 973.633 569.195C1026.25 569.195 1058.95 535.562 1058.95 481.656V481.422C1058.95 427.633 1026.13 394 973.633 394C921.484 394 888.555 427.516 888.555 481.422V481.656ZM1008.32 481.656C1008.32 510.484 995.078 528.648 973.633 528.648C952.773 528.648 939.18 510.836 939.18 481.656V481.422C939.18 452.242 952.891 434.547 973.633 434.547C994.727 434.547 1008.32 452.359 1008.32 481.422V481.656Z" fill="black"/>
<path fill-rule="evenodd" clip-rule="evenodd" d="M805.938 506.266H868.516V469H805.938V436.422H875.078V397.047H756.25V566.148H805.938V506.266ZM801.938 562.148V502.266H864.516V473H801.938V432.422H871.078V401.047H760.25V562.148H801.938Z" fill="black"/>
<path fill-rule="evenodd" clip-rule="evenodd" d="M694.727 436.422H739.258V397.047H600.508V436.422H645.039V566.148H694.727V436.422ZM690.727 562.148V432.422H735.258V401.047H604.508V432.422H649.039V562.148H690.727Z" fill="black"/>
<path fill-rule="evenodd" clip-rule="evenodd" d="M560.911 502.495C576.517 494.143 586.68 475.652 586.68 455.172V454.938C586.68 417.438 563.008 397.047 519.531 397.047H443.359V566.148H493.047V510.602H509.336L536.055 566.148H591.602L559.492 503.219C559.97 502.987 560.443 502.745 560.911 502.495ZM585.07 562.148L554.075 501.403L557.745 499.621C572.533 492.438 582.68 475.02 582.68 455.172V454.938C582.68 437.066 577.073 423.817 566.798 414.96C556.425 406.019 540.709 401.047 519.531 401.047H447.359V562.148H489.047V506.602H511.851L538.569 562.148H585.07ZM489.047 479.562V429.727H513.789C521.226 429.727 527.814 432.161 532.578 436.622C537.361 441.102 540.055 447.398 540.055 454.586V454.82C540.055 462.031 537.444 468.314 532.659 472.775C527.899 477.213 521.299 479.562 513.789 479.562H489.047ZM513.789 475.562C527.148 475.562 536.055 467.242 536.055 454.82V454.586C536.055 442.281 526.914 433.727 513.789 433.727H493.047V475.562H513.789Z" fill="black"/>
<path fill-rule="evenodd" clip-rule="evenodd" d="M279.395 542.895C293.23 557.116 313.391 565.195 338.711 565.195C364.149 565.195 384.369 557.086 398.233 542.85C412.109 528.602 420.023 507.8 420.023 481.656V481.422C420.023 455.343 412.083 434.57 398.192 420.334C384.311 406.109 364.088 398 338.711 398C313.512 398 293.347 406.078 279.479 420.29C265.601 434.512 257.633 455.286 257.633 481.422V481.656C257.633 507.86 265.549 528.663 279.395 542.895ZM367.319 518.333C360.574 527.502 350.706 532.648 338.711 532.648C327.006 532.648 317.204 527.588 310.449 518.477C303.782 509.484 300.258 496.811 300.258 481.656V481.422C300.258 466.26 303.814 453.613 310.5 444.65C317.271 435.573 327.069 430.547 338.711 430.547C350.517 430.547 360.379 435.594 367.17 444.693C373.873 453.674 377.398 466.323 377.398 481.422V481.656C377.398 496.622 373.968 509.294 367.319 518.333ZM253.633 481.656C253.633 535.68 286.328 569.195 338.711 569.195C391.328 569.195 424.023 535.562 424.023 481.656V481.422C424.023 427.633 391.211 394 338.711 394C286.562 394 253.633 427.516 253.633 481.422V481.656ZM373.398 481.656C373.398 510.484 360.156 528.648 338.711 528.648C317.852 528.648 304.258 510.836 304.258 481.656V481.422C304.258 452.242 317.969 434.547 338.711 434.547C359.805 434.547 373.398 452.359 373.398 481.422V481.656Z" fill="black"/>
<path fill-rule="evenodd" clip-rule="evenodd" d="M149.688 519.977H175.586C215.195 519.977 240.156 496.422 240.156 458.922V458.688C240.156 421.188 215.195 397.047 175.586 397.047H100V566.148H149.688V519.977ZM145.688 562.148V515.977H175.586C194.604 515.977 209.683 510.333 219.977 500.605C230.246 490.9 236.156 476.753 236.156 458.922V458.688C236.156 440.853 230.243 426.548 219.957 416.693C209.654 406.821 194.577 401.047 175.586 401.047H104V562.148H145.688ZM145.688 430.43H163.75C172.555 430.43 180.209 432.598 185.697 437.515C191.257 442.498 194 449.768 194 458.688V458.922C194 467.841 191.258 475.133 185.707 480.143C180.224 485.093 172.569 487.297 163.75 487.297H145.688V430.43ZM149.688 434.43H163.75C180.156 434.43 190 442.516 190 458.688V458.922C190 475.094 180.156 483.297 163.75 483.297H149.688V434.43Z" fill="black"/>
<rect width="1352" height="195" transform="translate(100 247)" fill="white"/>
<path fill-rule="evenodd" clip-rule="evenodd" d="M1307.83 395.895C1321.67 410.116 1341.83 418.195 1367.15 418.195C1392.59 418.195 1412.81 410.086 1426.67 395.85C1440.55 381.602 1448.46 360.8 1448.46 334.656V334.422C1448.46 308.343 1440.52 287.57 1426.63 273.334C1412.75 259.109 1392.53 251 1367.15 251C1341.95 251 1321.78 259.078 1307.92 273.29C1294.04 287.512 1286.07 308.286 1286.07 334.422V334.656C1286.07 360.86 1293.99 381.663 1307.83 395.895ZM1395.76 371.333C1389.01 380.502 1379.14 385.648 1367.15 385.648C1355.44 385.648 1345.64 380.588 1338.89 371.477C1332.22 362.484 1328.7 349.811 1328.7 334.656V334.422C1328.7 319.26 1332.25 306.613 1338.94 297.65C1345.71 288.573 1355.51 283.547 1367.15 283.547C1378.95 283.547 1388.82 288.594 1395.61 297.693C1402.31 306.674 1405.84 319.323 1405.84 334.422V334.656C1405.84 349.622 1402.41 362.294 1395.76 371.333ZM1282.07 334.656C1282.07 388.68 1314.77 422.195 1367.15 422.195C1419.77 422.195 1452.46 388.562 1452.46 334.656V334.422C1452.46 280.633 1419.65 247 1367.15 247C1315 247 1282.07 280.516 1282.07 334.422V334.656ZM1401.84 334.656C1401.84 363.484 1388.59 381.648 1367.15 381.648C1346.29 381.648 1332.7 363.836 1332.7 334.656V334.422C1332.7 305.242 1346.41 287.547 1367.15 287.547C1388.24 287.547 1401.84 305.359 1401.84 334.422V334.656Z" fill="black"/>
<path fill-rule="evenodd" clip-rule="evenodd" d="M1217.05 254.047V415.148H1258.73V254.047H1217.05ZM1213.05 419.148H1262.73V250.047H1213.05V419.148Z" fill="black"/>
<path fill-rule="evenodd" clip-rule="evenodd" d="M1127.97 379.773V250.047H1078.28V419.148H1194.3V379.773H1127.97ZM1190.3 383.773H1123.97V254.047H1082.28V415.148H1190.3V383.773Z" fill="black"/>
<path fill-rule="evenodd" clip-rule="evenodd" d="M914.317 395.895C928.152 410.116 948.313 418.195 973.633 418.195C999.071 418.195 1019.29 410.086 1033.15 395.85C1047.03 381.602 1054.95 360.8 1054.95 334.656V334.422C1054.95 308.343 1047.01 287.57 1033.11 273.334C1019.23 259.109 999.01 251 973.633 251C948.434 251 928.269 259.078 914.401 273.29C900.523 287.512 892.555 308.286 892.555 334.422V334.656C892.555 360.86 900.47 381.663 914.317 395.895ZM1002.24 371.333C995.496 380.502 985.628 385.648 973.633 385.648C961.928 385.648 952.126 380.588 945.371 371.477C938.703 362.484 935.18 349.811 935.18 334.656V334.422C935.18 319.26 938.736 306.613 945.422 297.65C952.193 288.573 961.991 283.547 973.633 283.547C985.439 283.547 995.3 288.594 1002.09 297.693C1008.8 306.674 1012.32 319.323 1012.32 334.422V334.656C1012.32 349.622 1008.89 362.294 1002.24 371.333ZM888.555 334.656C888.555 388.68 921.25 422.195 973.633 422.195C1026.25 422.195 1058.95 388.562 1058.95 334.656V334.422C1058.95 280.633 1026.13 247 973.633 247C921.484 247 888.555 280.516 888.555 334.422V334.656ZM1008.32 334.656C1008.32 363.484 995.078 381.648 973.633 381.648C952.773 381.648 939.18 363.836 939.18 334.656V334.422C939.18 305.242 952.891 287.547 973.633 287.547C994.727 287.547 1008.32 305.359 1008.32 334.422V334.656Z" fill="black"/>
<path fill-rule="evenodd" clip-rule="evenodd" d="M805.938 359.266H868.516V322H805.938V289.422H875.078V250.047H756.25V419.148H805.938V359.266ZM801.938 415.148V355.266H864.516V326H801.938V285.422H871.078V254.047H760.25V415.148H801.938Z" fill="black"/>
<path fill-rule="evenodd" clip-rule="evenodd" d="M694.727 289.422H739.258V250.047H600.508V289.422H645.039V419.148H694.727V289.422ZM690.727 415.148V285.422H735.258V254.047H604.508V285.422H649.039V415.148H690.727Z" fill="black"/>
<path fill-rule="evenodd" clip-rule="evenodd" d="M560.911 355.495C576.517 347.143 586.68 328.652 586.68 308.172V307.938C586.68 270.438 563.008 250.047 519.531 250.047H443.359V419.148H493.047V363.602H509.336L536.055 419.148H591.602L559.492 356.219C559.97 355.987 560.443 355.745 560.911 355.495ZM585.07 415.148L554.075 354.403L557.745 352.621C572.533 345.438 582.68 328.02 582.68 308.172V307.938C582.68 290.066 577.073 276.817 566.798 267.96C556.425 259.019 540.709 254.047 519.531 254.047H447.359V415.148H489.047V359.602H511.851L538.569 415.148H585.07ZM489.047 332.562V282.727H513.789C521.226 282.727 527.814 285.161 532.578 289.622C537.361 294.102 540.055 300.398 540.055 307.586V307.82C540.055 315.031 537.444 321.314 532.659 325.775C527.899 330.213 521.299 332.562 513.789 332.562H489.047ZM513.789 328.562C527.148 328.562 536.055 320.242 536.055 307.82V307.586C536.055 295.281 526.914 286.727 513.789 286.727H493.047V328.562H513.789Z" fill="black"/>
<path fill-rule="evenodd" clip-rule="evenodd" d="M279.395 395.895C293.23 410.116 313.391 418.195 338.711 418.195C364.149 418.195 384.369 410.086 398.233 395.85C412.109 381.602 420.023 360.8 420.023 334.656V334.422C420.023 308.343 412.083 287.57 398.192 273.334C384.311 259.109 364.088 251 338.711 251C313.512 251 293.347 259.078 279.479 273.29C265.601 287.512 257.633 308.286 257.633 334.422V334.656C257.633 360.86 265.549 381.663 279.395 395.895ZM367.319 371.333C360.574 380.502 350.706 385.648 338.711 385.648C327.006 385.648 317.204 380.588 310.449 371.477C303.782 362.484 300.258 349.811 300.258 334.656V334.422C300.258 319.26 303.814 306.613 310.5 297.65C317.271 288.573 327.069 283.547 338.711 283.547C350.517 283.547 360.379 288.594 367.17 297.693C373.873 306.674 377.398 319.323 377.398 334.422V334.656C377.398 349.622 373.968 362.294 367.319 371.333ZM253.633 334.656C253.633 388.68 286.328 422.195 338.711 422.195C391.328 422.195 424.023 388.562 424.023 334.656V334.422C424.023 280.633 391.211 247 338.711 247C286.562 247 253.633 280.516 253.633 334.422V334.656ZM373.398 334.656C373.398 363.484 360.156 381.648 338.711 381.648C317.852 381.648 304.258 363.836 304.258 334.656V334.422C304.258 305.242 317.969 287.547 338.711 287.547C359.805 287.547 373.398 305.359 373.398 334.422V334.656Z" fill="black"/>
<path fill-rule="evenodd" clip-rule="evenodd" d="M149.688 372.977H175.586C215.195 372.977 240.156 349.422 240.156 311.922V311.688C240.156 274.188 215.195 250.047 175.586 250.047H100V419.148H149.688V372.977ZM145.688 415.148V368.977H175.586C194.604 368.977 209.683 363.333 219.977 353.605C230.246 343.9 236.156 329.753 236.156 311.922V311.688C236.156 293.853 230.243 279.548 219.957 269.693C209.654 259.821 194.577 254.047 175.586 254.047H104V415.148H145.688ZM145.688 283.43H163.75C172.555 283.43 180.209 285.598 185.697 290.515C191.257 295.498 194 302.768 194 311.688V311.922C194 320.841 191.258 328.133 185.707 333.143C180.224 338.093 172.569 340.297 163.75 340.297H145.688V283.43ZM149.688 287.43H163.75C180.156 287.43 190 295.516 190 311.688V311.922C190 328.094 180.156 336.297 163.75 336.297H149.688V287.43Z" fill="black"/>
<rect width="1352" height="195" transform="translate(100 100)" fill="white"/>
<path d="M1367.15 275.195C1314.77 275.195 1282.07 241.68 1282.07 187.656V187.422C1282.07 133.516 1315 100 1367.15 100C1419.65 100 1452.46 133.633 1452.46 187.422V187.656C1452.46 241.562 1419.77 275.195 1367.15 275.195ZM1367.15 234.648C1388.59 234.648 1401.84 216.484 1401.84 187.656V187.422C1401.84 158.359 1388.24 140.547 1367.15 140.547C1346.41 140.547 1332.7 158.242 1332.7 187.422V187.656C1332.7 216.836 1346.29 234.648 1367.15 234.648Z" fill="black"/>
<path d="M1213.05 272.148V103.047H1262.73V272.148H1213.05Z" fill="black"/>
<path d="M1078.28 272.148V103.047H1127.97V232.773H1194.3V272.148H1078.28Z" fill="black"/>
<path d="M973.633 275.195C921.25 275.195 888.555 241.68 888.555 187.656V187.422C888.555 133.516 921.484 100 973.633 100C1026.13 100 1058.95 133.633 1058.95 187.422V187.656C1058.95 241.562 1026.25 275.195 973.633 275.195ZM973.633 234.648C995.078 234.648 1008.32 216.484 1008.32 187.656V187.422C1008.32 158.359 994.727 140.547 973.633 140.547C952.891 140.547 939.18 158.242 939.18 187.422V187.656C939.18 216.836 952.773 234.648 973.633 234.648Z" fill="black"/>
<path d="M756.25 272.148V103.047H875.078V142.422H805.938V175H868.516V212.266H805.938V272.148H756.25Z" fill="black"/>
<path d="M645.039 272.148V142.422H600.508V103.047H739.258V142.422H694.727V272.148H645.039Z" fill="black"/>
<path d="M443.359 272.148V103.047H519.531C563.008 103.047 586.68 123.438 586.68 160.938V161.172C586.68 182.266 575.898 201.25 559.492 209.219L591.602 272.148H536.055L509.336 216.602H493.047V272.148H443.359ZM493.047 181.562H513.789C527.148 181.562 536.055 173.242 536.055 160.82V160.586C536.055 148.281 526.914 139.727 513.789 139.727H493.047V181.562Z" fill="black"/>
<path d="M338.711 275.195C286.328 275.195 253.633 241.68 253.633 187.656V187.422C253.633 133.516 286.562 100 338.711 100C391.211 100 424.023 133.633 424.023 187.422V187.656C424.023 241.562 391.328 275.195 338.711 275.195ZM338.711 234.648C360.156 234.648 373.398 216.484 373.398 187.656V187.422C373.398 158.359 359.805 140.547 338.711 140.547C317.969 140.547 304.258 158.242 304.258 187.422V187.656C304.258 216.836 317.852 234.648 338.711 234.648Z" fill="black"/>
<path d="M100 272.148V103.047H175.586C215.195 103.047 240.156 127.188 240.156 164.688V164.922C240.156 202.422 215.195 225.977 175.586 225.977H149.688V272.148H100ZM163.75 140.43H149.688V189.297H163.75C180.156 189.297 190 181.094 190 164.922V164.688C190 148.516 180.156 140.43 163.75 140.43Z" fill="black"/>
</svg>
