<svg width="93" height="27" viewBox="0 0 93 27" fill="none" xmlns="http://www.w3.org/2000/svg">
<g clip-path="url(#clip0_437_3141)">
<path d="M1.36719 3.52344H6.53125C7.55208 3.52344 8.375 3.8125 9 4.39062C9.625 4.96354 9.9375 5.77083 9.9375 6.8125C9.9375 7.70833 9.65885 8.48958 9.10156 9.15625C8.54427 9.81771 7.6875 10.1484 6.53125 10.1484H2.92188V15H1.36719V3.52344ZM8.36719 6.82031C8.36719 5.97656 8.05469 5.40365 7.42969 5.10156C7.08594 4.9401 6.61458 4.85938 6.01562 4.85938H2.92188V8.83594H6.01562C6.71354 8.83594 7.27865 8.6875 7.71094 8.39062C8.14844 8.09375 8.36719 7.57031 8.36719 6.82031ZM16.8438 3.21094C18.8698 3.21094 20.3698 3.86198 21.3438 5.16406C22.1042 6.17969 22.4844 7.47917 22.4844 9.0625C22.4844 10.776 22.0495 12.2005 21.1797 13.3359C20.1589 14.6693 18.7031 15.3359 16.8125 15.3359C15.0469 15.3359 13.6589 14.7526 12.6484 13.5859C11.7474 12.4609 11.2969 11.0391 11.2969 9.32031C11.2969 7.76823 11.6823 6.4401 12.4531 5.33594C13.4427 3.91927 14.9062 3.21094 16.8438 3.21094ZM17 13.9453C18.3698 13.9453 19.3594 13.4557 19.9688 12.4766C20.5833 11.4922 20.8906 10.362 20.8906 9.08594C20.8906 7.73698 20.5365 6.65104 19.8281 5.82812C19.125 5.00521 18.1615 4.59375 16.9375 4.59375C15.75 4.59375 14.7812 5.0026 14.0312 5.82031C13.2812 6.63281 12.9062 7.83333 12.9062 9.42188C12.9062 10.6927 13.2266 11.7656 13.8672 12.6406C14.513 13.5104 15.5573 13.9453 17 13.9453ZM29.6797 8.78125C30.4089 8.78125 30.9844 8.63542 31.4062 8.34375C31.8333 8.05208 32.0469 7.52604 32.0469 6.76562C32.0469 5.94792 31.75 5.39062 31.1562 5.09375C30.8385 4.9375 30.4141 4.85938 29.8828 4.85938H26.0859V8.78125H29.6797ZM24.5312 3.52344H29.8438C30.7188 3.52344 31.4401 3.65104 32.0078 3.90625C33.0859 4.39583 33.625 5.29948 33.625 6.61719C33.625 7.30469 33.4818 7.86719 33.1953 8.30469C32.9141 8.74219 32.5182 9.09375 32.0078 9.35938C32.4557 9.54167 32.7917 9.78125 33.0156 10.0781C33.2448 10.375 33.3724 10.8568 33.3984 11.5234L33.4531 13.0625C33.4688 13.5 33.5052 13.8255 33.5625 14.0391C33.6562 14.4036 33.8229 14.638 34.0625 14.7422V15H32.1562C32.1042 14.901 32.0625 14.7734 32.0312 14.6172C32 14.4609 31.974 14.1589 31.9531 13.7109L31.8594 11.7969C31.8229 11.0469 31.5443 10.5443 31.0234 10.2891C30.7266 10.1484 30.2604 10.0781 29.625 10.0781H26.0859V15H24.5312V3.52344ZM43.9766 3.52344V4.89062H40.1094V15H38.5312V4.89062H34.6641V3.52344H43.9766ZM45.5547 3.52344H53.5156V4.92969H47.1094V8.41406H52.7422V9.78125H47.1094V15H45.5547V3.52344ZM60.1406 3.21094C62.1667 3.21094 63.6667 3.86198 64.6406 5.16406C65.401 6.17969 65.7812 7.47917 65.7812 9.0625C65.7812 10.776 65.3464 12.2005 64.4766 13.3359C63.4557 14.6693 62 15.3359 60.1094 15.3359C58.3438 15.3359 56.9557 14.7526 55.9453 13.5859C55.0443 12.4609 54.5938 11.0391 54.5938 9.32031C54.5938 7.76823 54.9792 6.4401 55.75 5.33594C56.7396 3.91927 58.2031 3.21094 60.1406 3.21094ZM60.2969 13.9453C61.6667 13.9453 62.6562 13.4557 63.2656 12.4766C63.8802 11.4922 64.1875 10.362 64.1875 9.08594C64.1875 7.73698 63.8333 6.65104 63.125 5.82812C62.4219 5.00521 61.4583 4.59375 60.2344 4.59375C59.0469 4.59375 58.0781 5.0026 57.3281 5.82031C56.5781 6.63281 56.2031 7.83333 56.2031 9.42188C56.2031 10.6927 56.5234 11.7656 57.1641 12.6406C57.8099 13.5104 58.8542 13.9453 60.2969 13.9453ZM67.6406 3.52344H69.1953V13.6328H75.0078V15H67.6406V3.52344ZM76.8984 3.52344H78.4688V15H76.8984V3.52344ZM85.9531 3.21094C87.9792 3.21094 89.4792 3.86198 90.4531 5.16406C91.2135 6.17969 91.5938 7.47917 91.5938 9.0625C91.5938 10.776 91.1589 12.2005 90.2891 13.3359C89.2682 14.6693 87.8125 15.3359 85.9219 15.3359C84.1562 15.3359 82.7682 14.7526 81.7578 13.5859C80.8568 12.4609 80.4062 11.0391 80.4062 9.32031C80.4062 7.76823 80.7917 6.4401 81.5625 5.33594C82.5521 3.91927 84.0156 3.21094 85.9531 3.21094ZM86.1094 13.9453C87.4792 13.9453 88.4688 13.4557 89.0781 12.4766C89.6927 11.4922 90 10.362 90 9.08594C90 7.73698 89.6458 6.65104 88.9375 5.82812C88.2344 5.00521 87.2708 4.59375 86.0469 4.59375C84.8594 4.59375 83.8906 5.0026 83.1406 5.82031C82.3906 6.63281 82.0156 7.83333 82.0156 9.42188C82.0156 10.6927 82.3359 11.7656 82.9766 12.6406C83.6224 13.5104 84.6667 13.9453 86.1094 13.9453Z" fill="black"/>
<path d="M2.912 19.12H7.552V19.64H2.912V19.12ZM4.904 18.288H5.496V25.64H4.904V18.288ZM5.736 22.736C5.88 23.0027 6.05867 23.2693 6.272 23.536C6.48533 23.7973 6.72 24.0347 6.976 24.248C7.23733 24.456 7.49867 24.624 7.76 24.752C7.71733 24.7893 7.66933 24.8373 7.616 24.896C7.56267 24.9493 7.512 25.0053 7.464 25.064C7.42133 25.1227 7.384 25.1787 7.352 25.232C7.08533 25.072 6.82133 24.8693 6.56 24.624C6.304 24.3733 6.06667 24.0987 5.848 23.8C5.63467 23.5013 5.45333 23.1947 5.304 22.88L5.736 22.736ZM3.784 21.88V22.6H6.656V21.88H3.784ZM3.784 20.752V21.456H6.656V20.752H3.784ZM3.248 20.296H7.216V23.048H3.248V20.296ZM4.64 22.736L5.112 22.912C4.94667 23.232 4.74133 23.544 4.496 23.848C4.25067 24.1467 3.984 24.4187 3.696 24.664C3.41333 24.9093 3.128 25.1093 2.84 25.264C2.808 25.216 2.768 25.1627 2.72 25.104C2.672 25.0507 2.62133 24.9973 2.568 24.944C2.52 24.8853 2.47467 24.8373 2.432 24.8C2.71467 24.6667 2.99467 24.4933 3.272 24.28C3.55467 24.0613 3.81333 23.8187 4.048 23.552C4.288 23.2853 4.48533 23.0133 4.64 22.736ZM0.648 18.624H2.528V19.168H1.184V25.64H0.648V18.624ZM2.352 18.624H2.456L2.544 18.6L2.936 18.832C2.856 19.0507 2.77067 19.2853 2.68 19.536C2.59467 19.7813 2.504 20.0267 2.408 20.272C2.31733 20.512 2.22667 20.7387 2.136 20.952C2.42933 21.2827 2.62133 21.592 2.712 21.88C2.808 22.1627 2.856 22.4293 2.856 22.68C2.856 22.8933 2.82933 23.08 2.776 23.24C2.728 23.4 2.648 23.52 2.536 23.6C2.48267 23.6373 2.41867 23.6693 2.344 23.696C2.27467 23.7173 2.2 23.7333 2.12 23.744C1.95467 23.76 1.776 23.7653 1.584 23.76C1.57867 23.6853 1.56267 23.5973 1.536 23.496C1.51467 23.3947 1.48 23.3067 1.432 23.232C1.52267 23.2373 1.608 23.24 1.688 23.24C1.768 23.24 1.83733 23.24 1.896 23.24C2.00267 23.2347 2.088 23.2107 2.152 23.168C2.216 23.12 2.25867 23.048 2.28 22.952C2.30667 22.8507 2.32 22.7413 2.32 22.624C2.32 22.4 2.26933 22.1573 2.168 21.896C2.072 21.6293 1.88 21.3387 1.592 21.024C1.66667 20.8427 1.73867 20.6507 1.808 20.448C1.88267 20.24 1.952 20.0373 2.016 19.84C2.08533 19.6373 2.14667 19.4453 2.2 19.264C2.25867 19.0827 2.30933 18.9253 2.352 18.792V18.624ZM10.488 21.496H15.688V22.088H10.488V21.496ZM14.84 18.552L15.32 19.032C15.0373 19.1333 14.72 19.2293 14.368 19.32C14.0213 19.4107 13.6533 19.4933 13.264 19.568C12.88 19.6373 12.4907 19.7013 12.096 19.76C11.7013 19.8187 11.3147 19.8693 10.936 19.912C10.9253 19.8427 10.9013 19.76 10.864 19.664C10.8267 19.5627 10.792 19.4773 10.76 19.408C11.1173 19.36 11.488 19.3067 11.872 19.248C12.256 19.1893 12.6293 19.1227 12.992 19.048C13.3547 18.9733 13.6933 18.896 14.008 18.816C14.328 18.7307 14.6053 18.6427 14.84 18.552ZM12.816 19.28H13.416V25.64H12.816V19.28ZM10.128 18.312L10.704 18.48C10.528 18.9333 10.3227 19.3813 10.088 19.824C9.85333 20.2613 9.6 20.6747 9.328 21.064C9.056 21.4533 8.776 21.7973 8.488 22.096C8.46667 22.048 8.43467 21.9867 8.392 21.912C8.35467 21.8373 8.312 21.7627 8.264 21.688C8.22133 21.608 8.18133 21.5467 8.144 21.504C8.41067 21.2427 8.66667 20.9413 8.912 20.6C9.15733 20.2587 9.384 19.8933 9.592 19.504C9.80533 19.1093 9.984 18.712 10.128 18.312ZM9.28 20.368L9.856 19.792L9.872 19.8V25.624H9.28V20.368ZM17.88 18.28H18.464V19.272H17.88V18.28ZM16.48 18.976H19.88V19.496H16.48V18.976ZM16.336 20.632H20.024V21.152H16.336V20.632ZM17.016 22.68H19.352V23.104H17.016V22.68ZM17.016 23.688H19.352V24.112H17.016V23.688ZM16.968 19.616L17.456 19.504C17.5253 19.664 17.5893 19.84 17.648 20.032C17.712 20.224 17.7547 20.3867 17.776 20.52L17.272 20.656C17.2507 20.5173 17.2107 20.352 17.152 20.16C17.0987 19.9627 17.0373 19.7813 16.968 19.616ZM18.92 19.48L19.464 19.624C19.3893 19.8053 19.3147 19.9893 19.24 20.176C19.1653 20.3573 19.096 20.5173 19.032 20.656L18.568 20.52C18.632 20.376 18.6987 20.2053 18.768 20.008C18.8373 19.8053 18.888 19.6293 18.92 19.48ZM16.776 21.672H19.376V22.12H17.344V25.624H16.776V21.672ZM19.064 21.672H19.648V24.984C19.648 25.128 19.6293 25.2427 19.592 25.328C19.56 25.4187 19.4933 25.488 19.392 25.536C19.2853 25.584 19.1493 25.6107 18.984 25.616C18.824 25.6267 18.632 25.632 18.408 25.632C18.392 25.552 18.3627 25.4587 18.32 25.352C18.2827 25.2507 18.2453 25.1627 18.208 25.088C18.3787 25.0933 18.5307 25.096 18.664 25.096C18.7973 25.1013 18.888 25.1013 18.936 25.096C18.984 25.096 19.016 25.088 19.032 25.072C19.0533 25.056 19.064 25.024 19.064 24.976V21.672ZM20.664 18.912H23.584V19.416H20.664V18.912ZM20.664 22.232H23.264V22.632H20.664V22.232ZM20.688 23.12H23.224V23.52H20.688V23.12ZM20.64 24.032H23.304V24.424H20.64V24.032ZM20.424 18.28H21.008V20.36H20.424V18.28ZM20.424 20.064H23.272V21.736H20.424V21.264H22.688V20.544H20.424V20.064ZM20.424 21.528H21.008V24.768C21.008 24.9013 21.0347 24.9867 21.088 25.024C21.1413 25.0667 21.2667 25.088 21.464 25.088C21.5067 25.088 21.5893 25.088 21.712 25.088C21.84 25.088 21.9787 25.088 22.128 25.088C22.2773 25.088 22.4187 25.088 22.552 25.088C22.6853 25.088 22.7813 25.088 22.84 25.088C22.9307 25.088 23 25.0693 23.048 25.032C23.1013 25 23.1387 24.9387 23.16 24.848C23.1813 24.752 23.1973 24.6133 23.208 24.432C23.272 24.4747 23.3547 24.5173 23.456 24.56C23.5627 24.5973 23.656 24.6267 23.736 24.648C23.7147 24.888 23.6747 25.0773 23.616 25.216C23.5627 25.3547 23.4773 25.4507 23.36 25.504C23.248 25.5627 23.088 25.592 22.88 25.592C22.848 25.592 22.7813 25.592 22.68 25.592C22.5787 25.592 22.464 25.592 22.336 25.592C22.208 25.592 22.0773 25.592 21.944 25.592C21.816 25.592 21.7013 25.592 21.6 25.592C21.504 25.592 21.4373 25.592 21.4 25.592C21.1493 25.592 20.952 25.568 20.808 25.52C20.6693 25.4773 20.5707 25.3973 20.512 25.28C20.4533 25.1627 20.424 24.992 20.424 24.768V21.528ZM25.048 19.568H27.48V24.8H25.048V24.256H26.928V20.104H25.048V19.568ZM24.696 19.568H25.248V25.432H24.696V19.568ZM25.008 21.792H27.216V22.32H25.008V21.792ZM25.92 18.264L26.568 18.376C26.488 18.6267 26.4 18.88 26.304 19.136C26.2133 19.392 26.128 19.6107 26.048 19.792L25.56 19.672C25.608 19.5387 25.6533 19.3893 25.696 19.224C25.744 19.0587 25.7867 18.8907 25.824 18.72C25.8667 18.5493 25.8987 18.3973 25.92 18.264ZM28.624 19.544H31.08V20.096H28.624V19.544ZM30.864 19.544H31.432C31.432 19.544 31.432 19.5627 31.432 19.6C31.432 19.6373 31.432 19.6827 31.432 19.736C31.432 19.784 31.4293 19.8213 31.424 19.848C31.392 20.7653 31.36 21.5413 31.328 22.176C31.3013 22.8107 31.2667 23.3307 31.224 23.736C31.1813 24.136 31.1307 24.448 31.072 24.672C31.0187 24.896 30.952 25.056 30.872 25.152C30.7813 25.2693 30.6853 25.3493 30.584 25.392C30.488 25.44 30.368 25.472 30.224 25.488C30.0907 25.4987 29.9147 25.5013 29.696 25.496C29.4827 25.496 29.2613 25.488 29.032 25.472C29.0267 25.3867 29.0053 25.288 28.968 25.176C28.936 25.064 28.8907 24.9707 28.832 24.896C29.0987 24.9173 29.3387 24.9307 29.552 24.936C29.7707 24.9413 29.928 24.944 30.024 24.944C30.104 24.944 30.168 24.936 30.216 24.92C30.2693 24.8987 30.32 24.8613 30.368 24.808C30.432 24.7387 30.488 24.5973 30.536 24.384C30.5893 24.1653 30.6347 23.856 30.672 23.456C30.7093 23.056 30.744 22.5467 30.776 21.928C30.808 21.304 30.8373 20.552 30.864 19.672V19.544ZM28.784 18.248L29.36 18.376C29.264 18.776 29.1467 19.168 29.008 19.552C28.8747 19.9307 28.7253 20.288 28.56 20.624C28.4 20.96 28.2293 21.256 28.048 21.512C28.0107 21.48 27.96 21.4427 27.896 21.4C27.8373 21.352 27.776 21.3093 27.712 21.272C27.648 21.2293 27.592 21.1947 27.544 21.168C27.7307 20.928 27.9013 20.6533 28.056 20.344C28.2107 20.0293 28.3493 19.6933 28.472 19.336C28.5947 18.9787 28.6987 18.616 28.784 18.248ZM28.416 21.616L28.888 21.352C29.0373 21.5387 29.192 21.744 29.352 21.968C29.5173 22.192 29.6693 22.408 29.808 22.616C29.952 22.824 30.0667 23.008 30.152 23.168L29.64 23.488C29.56 23.3227 29.4507 23.1333 29.312 22.92C29.1787 22.7013 29.032 22.48 28.872 22.256C28.7173 22.0267 28.5653 21.8133 28.416 21.616ZM35.896 19.616H39.696V20.192H35.616L35.896 19.616ZM36.896 21.352H39.512V21.904H36.896V21.352ZM36.896 23.12H39.616V23.688H36.896V23.12ZM36.6 19.808H37.208V25.632H36.6V19.808ZM36.208 18.376L36.784 18.528C36.6347 18.9493 36.4587 19.3653 36.256 19.776C36.0587 20.1813 35.8453 20.5627 35.616 20.92C35.3867 21.2773 35.1493 21.5947 34.904 21.872C34.872 21.84 34.8267 21.7973 34.768 21.744C34.7147 21.6907 34.656 21.6373 34.592 21.584C34.5333 21.5307 34.4827 21.4907 34.44 21.464C34.68 21.2133 34.9093 20.9227 35.128 20.592C35.3467 20.2613 35.5467 19.9067 35.728 19.528C35.9147 19.1493 36.0747 18.7653 36.208 18.376ZM34.28 18.312L34.856 18.488C34.6853 18.936 34.4827 19.384 34.248 19.832C34.0133 20.2747 33.76 20.6907 33.488 21.08C33.216 21.464 32.9333 21.808 32.64 22.112C32.6187 22.064 32.5867 22.0027 32.544 21.928C32.5013 21.848 32.456 21.768 32.408 21.688C32.3653 21.608 32.3253 21.5467 32.288 21.504C32.5547 21.2427 32.8107 20.9413 33.056 20.6C33.3013 20.2587 33.528 19.8933 33.736 19.504C33.9493 19.1093 34.1307 18.712 34.28 18.312ZM33.432 20.368L34.024 19.768L34.032 19.784V25.624H33.432V20.368ZM42.416 19.192V20.712H45.608V19.192H42.416ZM41.832 18.624H46.224V21.288H41.832V18.624ZM40.664 22.144H43.512V25.568H42.912V22.712H41.24V25.64H40.664V22.144ZM44.392 22.144H47.4V25.592H46.792V22.712H44.968V25.64H44.392V22.144ZM40.928 24.624H43.16V25.208H40.928V24.624ZM44.68 24.624H47.056V25.208H44.68V24.624ZM48.432 23.176H55.576V23.68H48.432V23.176ZM49.776 20.248H54.72V20.68H49.776V20.248ZM49.776 21.216H54.744V21.648H49.776V21.216ZM49.68 19.224H55.048V19.72H49.68V19.224ZM51.84 19.512H52.416V22.376H51.84V19.512ZM51.68 22.536H52.28V25.632H51.68V22.536ZM51.552 23.36L52.024 23.592C51.8213 23.8 51.5867 24.0027 51.32 24.2C51.0587 24.392 50.776 24.576 50.472 24.752C50.168 24.9227 49.8587 25.0747 49.544 25.208C49.2293 25.3467 48.9253 25.4613 48.632 25.552C48.584 25.4773 48.5227 25.3893 48.448 25.288C48.3733 25.1867 48.3013 25.1067 48.232 25.048C48.5307 24.968 48.8373 24.872 49.152 24.76C49.4667 24.6427 49.7707 24.5093 50.064 24.36C50.3627 24.2053 50.64 24.0453 50.896 23.88C51.152 23.7093 51.3707 23.536 51.552 23.36ZM52.424 23.352C52.6053 23.528 52.8213 23.7013 53.072 23.872C53.328 24.0373 53.6053 24.192 53.904 24.336C54.2027 24.4747 54.5093 24.6027 54.824 24.72C55.1387 24.832 55.4453 24.9227 55.744 24.992C55.7013 25.0347 55.656 25.0853 55.608 25.144C55.56 25.2027 55.5147 25.2613 55.472 25.32C55.4293 25.3787 55.392 25.4347 55.36 25.488C55.0613 25.4027 54.752 25.2933 54.432 25.16C54.1173 25.032 53.808 24.8853 53.504 24.72C53.2 24.5547 52.9147 24.3787 52.648 24.192C52.3813 24 52.1493 23.8 51.952 23.592L52.424 23.352ZM52.208 18.28L52.88 18.368C52.7733 18.5813 52.6587 18.7947 52.536 19.008C52.4187 19.216 52.3067 19.3947 52.2 19.544L51.672 19.432C51.768 19.272 51.8667 19.0827 51.968 18.864C52.0747 18.6453 52.1547 18.4507 52.208 18.28ZM50.12 18.264L50.744 18.384C50.5893 18.6773 50.4107 18.9787 50.208 19.288C50.0053 19.592 49.7733 19.8933 49.512 20.192C49.256 20.4907 48.968 20.7707 48.648 21.032C48.616 20.9893 48.5733 20.9413 48.52 20.888C48.472 20.8347 48.4213 20.7867 48.368 20.744C48.3147 20.696 48.264 20.6587 48.216 20.632C48.5147 20.3973 48.784 20.144 49.024 19.872C49.2693 19.6 49.4827 19.3253 49.664 19.048C49.8507 18.7707 50.0027 18.5093 50.12 18.264ZM49.392 19.56H49.968V22.2H55.36V22.68H49.392V19.56ZM61.08 21.152H61.6V22.168H61.08V21.152ZM62.032 19.44L62.52 19.6C62.4293 19.792 62.336 19.9947 62.24 20.208C62.1493 20.4213 62.0613 20.6027 61.976 20.752L61.608 20.616C61.6613 20.504 61.7147 20.3787 61.768 20.24C61.8213 20.1013 61.872 19.9627 61.92 19.824C61.968 19.68 62.0053 19.552 62.032 19.44ZM60.248 19.632L60.632 19.496C60.728 19.6613 60.8107 19.8507 60.88 20.064C60.9493 20.272 60.9973 20.448 61.024 20.592L60.6 20.744C60.584 20.5947 60.5413 20.416 60.472 20.208C60.408 19.9947 60.3333 19.8027 60.248 19.632ZM59.312 18.664H63.144V19.192H59.856V25.656H59.312V18.664ZM62.92 18.664H63.464V24.96C63.464 25.1253 63.4453 25.2507 63.408 25.336C63.3707 25.4267 63.2987 25.496 63.192 25.544C63.0853 25.5867 62.944 25.6133 62.768 25.624C62.592 25.64 62.376 25.6453 62.12 25.64C62.1093 25.5707 62.0853 25.4827 62.048 25.376C62.016 25.2693 61.9813 25.1787 61.944 25.104C62.1307 25.1093 62.3013 25.112 62.456 25.112C62.616 25.1173 62.7227 25.12 62.776 25.12C62.8293 25.1147 62.8667 25.0987 62.888 25.072C62.9093 25.0507 62.92 25.0133 62.92 24.96V18.664ZM60.152 20.728H62.6V21.2H60.152V20.728ZM60.088 22.032H62.648V22.512H60.088V22.032ZM60.432 22.296H60.952V23.648C60.952 23.7493 60.96 23.8213 60.976 23.864C60.9973 23.9013 61.048 23.92 61.128 23.92C61.16 23.92 61.2187 23.92 61.304 23.92C61.3947 23.92 61.4907 23.92 61.592 23.92C61.6933 23.92 61.7867 23.92 61.872 23.92C61.9573 23.92 62.0187 23.92 62.056 23.92C62.1147 23.92 62.1893 23.9173 62.28 23.912C62.3707 23.9013 62.4427 23.8907 62.496 23.88C62.5013 23.9493 62.5067 24.0347 62.512 24.136C62.5227 24.232 62.5333 24.3093 62.544 24.368C62.4907 24.384 62.4213 24.3947 62.336 24.4C62.2507 24.4053 62.16 24.408 62.064 24.408C62.0267 24.408 61.9627 24.408 61.872 24.408C61.7813 24.408 61.6827 24.408 61.576 24.408C61.4693 24.408 61.3733 24.408 61.288 24.408C61.2027 24.408 61.1493 24.408 61.128 24.408C60.936 24.408 60.7893 24.384 60.688 24.336C60.592 24.288 60.5253 24.208 60.488 24.096C60.4507 23.9787 60.432 23.8267 60.432 23.64V22.296ZM57.568 18.28L58.096 18.48C58 18.6773 57.8933 18.8827 57.776 19.096C57.664 19.3093 57.5493 19.5173 57.432 19.72C57.32 19.9173 57.2133 20.0907 57.112 20.24L56.696 20.056C56.7973 19.9013 56.9013 19.72 57.008 19.512C57.12 19.304 57.224 19.0907 57.32 18.872C57.4213 18.6533 57.504 18.456 57.568 18.28ZM58.464 19.192L58.968 19.432C58.7867 19.7253 58.584 20.04 58.36 20.376C58.136 20.7067 57.9093 21.0267 57.68 21.336C57.456 21.6453 57.2427 21.9147 57.04 22.144L56.672 21.936C56.8213 21.76 56.9787 21.56 57.144 21.336C57.3093 21.1067 57.472 20.8693 57.632 20.624C57.792 20.3733 57.944 20.1253 58.088 19.88C58.232 19.6347 58.3573 19.4053 58.464 19.192ZM56.296 19.952L56.608 19.568C56.752 19.696 56.896 19.8373 57.04 19.992C57.1893 20.1467 57.3253 20.2987 57.448 20.448C57.5707 20.5973 57.6667 20.7333 57.736 20.856L57.4 21.304C57.3307 21.176 57.2347 21.032 57.112 20.872C56.9947 20.712 56.864 20.552 56.72 20.392C56.576 20.232 56.4347 20.0853 56.296 19.952ZM58.152 21.024L58.592 20.848C58.704 21.0187 58.8107 21.2053 58.912 21.408C59.0133 21.6107 59.104 21.808 59.184 22C59.2693 22.1867 59.3307 22.352 59.368 22.496L58.888 22.72C58.856 22.5653 58.8 22.392 58.72 22.2C58.6453 22.0027 58.56 21.8027 58.464 21.6C58.368 21.392 58.264 21.2 58.152 21.024ZM56.224 21.816C56.5707 21.8 56.9813 21.7813 57.456 21.76C57.936 21.7333 58.4267 21.7067 58.928 21.68V22.184C58.4587 22.216 57.992 22.248 57.528 22.28C57.0693 22.3067 56.6587 22.3307 56.296 22.352L56.224 21.816ZM58.368 22.96L58.808 22.832C58.9093 23.0613 59 23.312 59.08 23.584C59.16 23.8507 59.2133 24.0827 59.24 24.28L58.768 24.432C58.752 24.2293 58.704 23.992 58.624 23.72C58.5493 23.4427 58.464 23.1893 58.368 22.96ZM56.712 22.856L57.216 22.936C57.1627 23.3147 57.088 23.688 56.992 24.056C56.9013 24.4187 56.7947 24.728 56.672 24.984C56.64 24.9627 56.5947 24.9387 56.536 24.912C56.4773 24.88 56.4187 24.8507 56.36 24.824C56.3013 24.7973 56.2507 24.776 56.208 24.76C56.3413 24.5147 56.448 24.224 56.528 23.888C56.608 23.5467 56.6693 23.2027 56.712 22.856ZM57.56 22.056H58.088V25.64H57.56V22.056ZM64.456 19.864H67.544V20.432H64.456V19.864ZM65.728 18.384H66.296V20.152H65.728V18.384ZM69.384 19.936H71.68V20.512H69.384V19.936ZM68.008 24.688H71.032V25.248H68.008V24.688ZM69.08 18.272H69.696V22.352H69.08V18.272ZM67.736 22.104H71.344V25.6H70.736V22.672H68.32V25.632H67.736V22.104ZM64.304 24.136C64.5813 24.0827 64.8987 24.0187 65.256 23.944C65.6133 23.864 65.9947 23.7787 66.4 23.688C66.8053 23.5973 67.208 23.5067 67.608 23.416L67.664 23.976C67.2853 24.0613 66.904 24.152 66.52 24.248C66.136 24.3387 65.7653 24.4267 65.408 24.512C65.056 24.592 64.7333 24.6667 64.44 24.736L64.304 24.136ZM64.768 20.848L65.256 20.76C65.3253 21.0533 65.384 21.368 65.432 21.704C65.4853 22.04 65.528 22.3707 65.56 22.696C65.592 23.016 65.608 23.304 65.608 23.56L65.088 23.656C65.088 23.4 65.072 23.112 65.04 22.792C65.0133 22.4667 64.976 22.136 64.928 21.8C64.88 21.464 64.8267 21.1467 64.768 20.848ZM66.632 20.672L67.216 20.784C67.1733 21.12 67.12 21.4773 67.056 21.856C66.9973 22.2293 66.9333 22.592 66.864 22.944C66.8 23.296 66.736 23.6027 66.672 23.864L66.168 23.752C66.216 23.5493 66.2613 23.32 66.304 23.064C66.352 22.808 66.3947 22.5413 66.432 22.264C66.4747 21.9813 66.512 21.704 66.544 21.432C66.5813 21.16 66.6107 20.9067 66.632 20.672Z" fill="black"/>
</g>
<defs>
<clipPath id="clip0_437_3141">
<rect width="93" height="27" fill="white"/>
</clipPath>
</defs>
</svg>
