<svg width="40" height="40" viewBox="0 0 40 40" fill="none" xmlns="http://www.w3.org/2000/svg">
<rect width="40" height="40" rx="12" fill="white"/>
<rect x="0.165" y="0.165" width="39.67" height="39.67" rx="11.835" stroke="black" stroke-opacity="0.15" stroke-width="0.33"/>
<path d="M11.128 12.152H12.792V12.624H11.128V12.152ZM9.224 14.896H14.92V15.48H9.224V14.896ZM10 17.44H14.032V17.832H10V17.44ZM10 18.072H14.032V18.544H10V18.072ZM8.368 15.904H15.656V16.52H8.368V15.904ZM8.24 13.44C8.51733 13.424 8.83733 13.4027 9.2 13.376C9.568 13.344 9.952 13.312 10.352 13.28L10.368 13.848C10.016 13.896 9.66667 13.9413 9.32 13.984C8.97867 14.0267 8.66133 14.0667 8.368 14.104L8.24 13.44ZM10.52 13.968C10.8293 13.9413 11.1947 13.9067 11.616 13.864C12.0427 13.8213 12.4773 13.7787 12.92 13.736L12.944 14.304C12.544 14.3627 12.1493 14.4213 11.76 14.48C11.3707 14.5333 11.0133 14.584 10.688 14.632L10.52 13.968ZM10.224 12.968L10.936 13.072C10.824 13.4347 10.6613 13.7547 10.448 14.032C10.2347 14.3093 9.98133 14.5493 9.688 14.752C9.39467 14.9547 9.06933 15.1253 8.712 15.264C8.68533 15.2107 8.64533 15.1493 8.592 15.08C8.53867 15.0053 8.48533 14.9307 8.432 14.856C8.37867 14.7813 8.328 14.7253 8.28 14.688C8.76533 14.5333 9.17867 14.3173 9.52 14.04C9.86667 13.7573 10.1013 13.4 10.224 12.968ZM14.92 11.416H15.048L15.16 11.384L15.72 11.64C15.6347 11.8427 15.544 12.0427 15.448 12.24C15.352 12.4373 15.256 12.6293 15.16 12.816C15.3627 12.9867 15.5067 13.152 15.592 13.312C15.6773 13.472 15.7227 13.616 15.728 13.744C15.728 13.8987 15.7013 14.0293 15.648 14.136C15.5947 14.2373 15.5147 14.3227 15.408 14.392C15.3547 14.424 15.2907 14.4533 15.216 14.48C15.1467 14.5013 15.0773 14.5173 15.008 14.528C14.9333 14.5333 14.8453 14.5387 14.744 14.544C14.6427 14.544 14.5413 14.5413 14.44 14.536C14.4347 14.4347 14.4133 14.3253 14.376 14.208C14.3387 14.0853 14.2907 13.9787 14.232 13.888C14.3227 13.8987 14.4053 13.904 14.48 13.904C14.5547 13.904 14.6187 13.904 14.672 13.904C14.7093 13.8987 14.744 13.8933 14.776 13.888C14.8133 13.8827 14.8427 13.8747 14.864 13.864C14.944 13.8213 14.984 13.7467 14.984 13.64C14.984 13.5547 14.9387 13.456 14.848 13.344C14.7627 13.2267 14.6187 13.0907 14.416 12.936C14.5227 12.68 14.6187 12.4293 14.704 12.184C14.7947 11.9333 14.8667 11.712 14.92 11.52V11.416ZM8.328 12.392L8.704 11.856C8.832 11.9253 8.968 12.008 9.112 12.104C9.256 12.1947 9.38933 12.288 9.512 12.384C9.64 12.4747 9.744 12.56 9.824 12.64L9.424 13.248C9.34933 13.168 9.248 13.0773 9.12 12.976C8.99733 12.8747 8.86667 12.7733 8.728 12.672C8.58933 12.5707 8.456 12.4773 8.328 12.392ZM9.32 11.192L9.984 11.432C9.85067 11.6293 9.712 11.8267 9.568 12.024C9.42933 12.2213 9.29867 12.3893 9.176 12.528L8.672 12.32C8.74133 12.2133 8.816 12.0933 8.896 11.96C8.98133 11.8267 9.06133 11.6933 9.136 11.56C9.21067 11.4267 9.272 11.304 9.32 11.192ZM10.048 11.808L10.704 12.08C10.5547 12.2773 10.3947 12.4827 10.224 12.696C10.0533 12.904 9.88267 13.104 9.712 13.296C9.54667 13.488 9.38667 13.6587 9.232 13.808L8.728 13.552C8.87733 13.3973 9.03467 13.2213 9.2 13.024C9.36533 12.8213 9.52267 12.6133 9.672 12.4C9.82133 12.1867 9.94667 11.9893 10.048 11.808ZM13.416 11.416H15.136V12.064H14.176V14.768H13.416V11.416ZM10.864 11.432H11.592V14.192H10.864V11.432ZM11.152 11.432H13.144V13.352H11.152V12.872H12.416V11.904H11.152V11.432ZM11.504 14.544H12.408V15.256H11.504V14.544ZM9.488 16.744H14.664V18.72H13.752V17.208H10.368V18.728H9.488V16.744ZM10.208 15.544L10.976 15.344C11.0453 15.4187 11.1093 15.504 11.168 15.6C11.232 15.696 11.272 15.784 11.288 15.864L10.48 16.072C10.464 15.9973 10.4293 15.9093 10.376 15.808C10.3227 15.7067 10.2667 15.6187 10.208 15.544ZM12.08 13.552L12.616 13.272C12.792 13.4213 12.9627 13.5973 13.128 13.8C13.2933 13.9973 13.4133 14.176 13.488 14.336L12.92 14.648C12.8507 14.488 12.736 14.3067 12.576 14.104C12.416 13.896 12.2507 13.712 12.08 13.552ZM13.096 15.248L13.96 15.472C13.8533 15.6 13.752 15.7173 13.656 15.824C13.5653 15.9307 13.48 16.024 13.4 16.104L12.72 15.896C12.784 15.7947 12.8507 15.6827 12.92 15.56C12.9947 15.4373 13.0533 15.3333 13.096 15.248ZM20.216 14.032H23.24V14.496H20.216V14.032ZM20.216 14.8H23.24V15.264H20.216V14.8ZM19.88 15.584H23.552V16.16H19.88V15.584ZM21.744 12.528L22.616 12.736C22.5147 12.8853 22.4187 13.0267 22.328 13.16C22.2373 13.2933 22.1547 13.4107 22.08 13.512L21.408 13.312C21.4667 13.1947 21.528 13.064 21.592 12.92C21.6613 12.776 21.712 12.6453 21.744 12.528ZM18.816 12.48L19.592 12.72C19.3947 13.12 19.1493 13.512 18.856 13.896C18.5627 14.2747 18.2667 14.592 17.968 14.848C17.9307 14.8 17.8773 14.7387 17.808 14.664C17.7387 14.584 17.6667 14.5067 17.592 14.432C17.5173 14.352 17.4507 14.288 17.392 14.24C17.6693 14.0267 17.936 13.7627 18.192 13.448C18.448 13.1333 18.656 12.8107 18.816 12.48ZM20.312 12.456L21.096 12.68C20.9307 13.0587 20.7253 13.432 20.48 13.8C20.2347 14.168 19.984 14.4773 19.728 14.728C19.6853 14.68 19.6267 14.6213 19.552 14.552C19.4773 14.4827 19.3973 14.416 19.312 14.352C19.232 14.288 19.16 14.2347 19.096 14.192C19.3467 13.9787 19.5787 13.7173 19.792 13.408C20.0053 13.0933 20.1787 12.776 20.312 12.456ZM21.36 13.432H22.16V15.784H21.36V13.432ZM19.296 16.832H20.16V17.696C20.16 17.792 20.1787 17.8533 20.216 17.88C20.2533 17.9067 20.3413 17.92 20.48 17.92C20.512 17.92 20.5627 17.92 20.632 17.92C20.7067 17.92 20.7867 17.92 20.872 17.92C20.9573 17.92 21.0373 17.92 21.112 17.92C21.192 17.92 21.2507 17.92 21.288 17.92C21.3627 17.92 21.4187 17.9067 21.456 17.88C21.4987 17.8533 21.528 17.7973 21.544 17.712C21.56 17.6267 21.5733 17.4987 21.584 17.328C21.6693 17.3867 21.7893 17.4453 21.944 17.504C22.0987 17.5627 22.232 17.6053 22.344 17.632C22.3173 17.9093 22.2667 18.1227 22.192 18.272C22.1227 18.4267 22.0213 18.5307 21.888 18.584C21.76 18.6427 21.592 18.672 21.384 18.672C21.3467 18.672 21.2933 18.672 21.224 18.672C21.16 18.672 21.0827 18.672 20.992 18.672C20.9067 18.672 20.8213 18.672 20.736 18.672C20.656 18.672 20.5813 18.672 20.512 18.672C20.4427 18.672 20.392 18.672 20.36 18.672C20.072 18.672 19.8507 18.6427 19.696 18.584C19.5413 18.5253 19.4347 18.424 19.376 18.28C19.3227 18.1413 19.296 17.952 19.296 17.712V16.832ZM19.728 16.528L20.272 16.024C20.4267 16.088 20.5893 16.168 20.76 16.264C20.9307 16.36 21.0907 16.4587 21.24 16.56C21.3947 16.656 21.52 16.752 21.616 16.848L21.032 17.4C20.9413 17.3093 20.824 17.2107 20.68 17.104C20.536 16.9973 20.3787 16.8933 20.208 16.792C20.0427 16.6907 19.8827 16.6027 19.728 16.528ZM21.92 16.984L22.672 16.624C22.816 16.784 22.96 16.9573 23.104 17.144C23.248 17.3307 23.3787 17.5173 23.496 17.704C23.6187 17.8907 23.712 18.0613 23.776 18.216L22.968 18.616C22.9147 18.4613 22.832 18.288 22.72 18.096C22.6133 17.9093 22.488 17.7173 22.344 17.52C22.2053 17.3227 22.064 17.144 21.92 16.984ZM18.24 16.736L19.016 17.008C18.936 17.3013 18.8293 17.5893 18.696 17.872C18.5627 18.1547 18.384 18.392 18.16 18.584L17.432 18.12C17.6293 17.9547 17.7973 17.7493 17.936 17.504C18.0747 17.2533 18.176 16.9973 18.24 16.736ZM20.368 13.184H23.456V13.752H19.968L20.368 13.184ZM19.88 13.848L20.672 13.208V15.96H19.88V13.848ZM19.752 11.2H20.752V12.224H19.752V11.2ZM17.312 11.768H23.664V12.544H17.312V11.768ZM16.792 11.768H17.664V14.12C17.664 14.4507 17.6533 14.816 17.632 15.216C17.616 15.6107 17.5787 16.0187 17.52 16.44C17.4667 16.856 17.3893 17.2613 17.288 17.656C17.1867 18.0507 17.0533 18.408 16.888 18.728C16.84 18.6693 16.7707 18.6027 16.68 18.528C16.5893 18.4533 16.496 18.3813 16.4 18.312C16.304 18.248 16.2213 18.2 16.152 18.168C16.3013 17.88 16.4187 17.5653 16.504 17.224C16.5893 16.8773 16.6507 16.5227 16.688 16.16C16.7307 15.792 16.7573 15.4347 16.768 15.088C16.784 14.7413 16.792 14.4187 16.792 14.12V11.768ZM18.336 13.816L19.128 13.024L19.136 13.04V16.304H18.336V13.816ZM29.712 11.728L30.344 11.2C30.4667 11.28 30.5947 11.3733 30.728 11.48C30.8667 11.5867 30.9947 11.6933 31.112 11.8C31.2347 11.9067 31.3333 12.0027 31.408 12.088L30.728 12.672C30.664 12.576 30.5733 12.4747 30.456 12.368C30.344 12.256 30.2213 12.144 30.088 12.032C29.96 11.92 29.8347 11.8187 29.712 11.728ZM24.408 12.568H31.608V13.504H24.408V12.568ZM24.712 14.416H28.176V15.344H24.712V14.416ZM25.92 14.944H26.88V17.656H25.92V14.944ZM24.408 17.528C24.728 17.4747 25.104 17.4133 25.536 17.344C25.9733 17.2693 26.4347 17.1893 26.92 17.104C27.4107 17.0187 27.8987 16.9307 28.384 16.84L28.448 17.696C28.0107 17.792 27.568 17.888 27.12 17.984C26.672 18.0747 26.24 18.1627 25.824 18.248C25.408 18.3387 25.024 18.4213 24.672 18.496L24.408 17.528ZM28.344 11.232H29.376C29.36 11.8933 29.368 12.5387 29.4 13.168C29.4373 13.7973 29.496 14.3867 29.576 14.936C29.656 15.4853 29.752 15.968 29.864 16.384C29.976 16.8 30.0987 17.1253 30.232 17.36C30.3707 17.5947 30.5173 17.712 30.672 17.712C30.7627 17.712 30.8293 17.5973 30.872 17.368C30.92 17.1387 30.9547 16.7707 30.976 16.264C31.088 16.376 31.2213 16.4853 31.376 16.592C31.536 16.6987 31.6827 16.776 31.816 16.824C31.7733 17.3307 31.7013 17.7227 31.6 18C31.504 18.272 31.3733 18.4587 31.208 18.56C31.048 18.6667 30.84 18.72 30.584 18.72C30.296 18.72 30.04 18.6213 29.816 18.424C29.592 18.2267 29.3973 17.9547 29.232 17.608C29.0667 17.256 28.928 16.8427 28.816 16.368C28.704 15.8933 28.6133 15.3787 28.544 14.824C28.4747 14.264 28.424 13.68 28.392 13.072C28.36 12.464 28.344 11.8507 28.344 11.232ZM8.976 24.424H9.784V25.304H8.976V24.424ZM9.816 22.528L10.544 22.736C10.4533 22.928 10.3653 23.1227 10.28 23.32C10.1947 23.512 10.12 23.6773 10.056 23.816L9.504 23.624C9.54667 23.5227 9.58667 23.408 9.624 23.28C9.66667 23.1467 9.704 23.016 9.736 22.888C9.77333 22.7547 9.8 22.6347 9.816 22.528ZM8.328 22.768L8.896 22.576C8.976 22.7307 9.04267 22.904 9.096 23.096C9.15467 23.288 9.19467 23.4533 9.216 23.592L8.608 23.816C8.59733 23.672 8.56267 23.5013 8.504 23.304C8.45067 23.1067 8.392 22.928 8.328 22.768ZM7.248 21.552H10.976V22.384H8.104V28.736H7.248V21.552ZM10.688 21.552H11.56V27.768C11.56 27.9867 11.536 28.1573 11.488 28.28C11.44 28.4027 11.3467 28.4987 11.208 28.568C11.08 28.6373 10.9147 28.68 10.712 28.696C10.5147 28.7173 10.2773 28.7253 10 28.72C9.984 28.608 9.94933 28.472 9.896 28.312C9.848 28.152 9.79733 28.0187 9.744 27.912C9.904 27.9173 10.0613 27.9227 10.216 27.928C10.376 27.928 10.4827 27.928 10.536 27.928C10.5947 27.9227 10.6347 27.9093 10.656 27.888C10.6773 27.8613 10.688 27.8213 10.688 27.768V21.552ZM8.304 23.736H10.48V24.456H8.304V23.736ZM8.28 25.08H10.496V25.8H8.28V25.08ZM8.536 25.464H9.344V26.512C9.344 26.608 9.34933 26.6747 9.36 26.712C9.376 26.7493 9.408 26.768 9.456 26.768C9.48267 26.768 9.52 26.768 9.568 26.768C9.616 26.768 9.66667 26.768 9.72 26.768C9.77867 26.768 9.832 26.768 9.88 26.768C9.93333 26.768 9.97067 26.768 9.992 26.768C10.0507 26.768 10.12 26.7653 10.2 26.76C10.28 26.7547 10.3467 26.744 10.4 26.728C10.4107 26.824 10.4213 26.9493 10.432 27.104C10.4427 27.2533 10.4533 27.376 10.464 27.472C10.4053 27.4933 10.336 27.5093 10.256 27.52C10.176 27.5253 10.0907 27.528 10 27.528C9.97333 27.528 9.936 27.528 9.888 27.528C9.84 27.528 9.78667 27.528 9.728 27.528C9.66933 27.528 9.616 27.528 9.568 27.528C9.52 27.528 9.48533 27.528 9.464 27.528C9.21333 27.528 9.02133 27.496 8.888 27.432C8.75467 27.3627 8.66133 27.2533 8.608 27.104C8.56 26.9547 8.536 26.7547 8.536 26.504V25.464ZM5.432 21.208L6.264 21.504C6.15733 21.712 6.04533 21.9253 5.928 22.144C5.81067 22.3573 5.696 22.5653 5.584 22.768C5.472 22.9653 5.36533 23.1387 5.264 23.288L4.624 23.024C4.72 22.8587 4.81867 22.672 4.92 22.464C5.02133 22.256 5.11733 22.04 5.208 21.816C5.304 21.592 5.37867 21.3893 5.432 21.208ZM6.336 22.16L7.12 22.512C6.92267 22.8107 6.70933 23.1253 6.48 23.456C6.25067 23.7867 6.02133 24.104 5.792 24.408C5.56267 24.712 5.344 24.9787 5.136 25.208L4.584 24.904C4.73333 24.7227 4.888 24.52 5.048 24.296C5.21333 24.0667 5.37333 23.8293 5.528 23.584C5.688 23.3333 5.83733 23.0853 5.976 22.84C6.11467 22.5947 6.23467 22.368 6.336 22.16ZM4.2 23.08L4.672 22.432C4.80533 22.56 4.944 22.6987 5.088 22.848C5.232 22.9973 5.36533 23.1467 5.488 23.296C5.61067 23.4453 5.70133 23.584 5.76 23.712L5.248 24.44C5.18933 24.312 5.10133 24.168 4.984 24.008C4.872 23.848 4.74667 23.688 4.608 23.528C4.46933 23.3627 4.33333 23.2133 4.2 23.08ZM6.064 24.072L6.736 23.8C6.84267 23.976 6.944 24.168 7.04 24.376C7.136 24.584 7.22133 24.7867 7.296 24.984C7.37067 25.176 7.424 25.3493 7.456 25.504L6.728 25.824C6.70667 25.6693 6.66133 25.4907 6.592 25.288C6.52267 25.0853 6.44267 24.88 6.352 24.672C6.26133 24.4587 6.16533 24.2587 6.064 24.072ZM4.176 24.712C4.53333 24.696 4.95467 24.6747 5.44 24.648C5.92533 24.616 6.41867 24.584 6.92 24.552L6.936 25.336C6.46667 25.3733 5.99733 25.4107 5.528 25.448C5.064 25.48 4.64533 25.512 4.272 25.544L4.176 24.712ZM6.288 26.08L6.952 25.88C7.048 26.0987 7.13333 26.3413 7.208 26.608C7.288 26.8747 7.33867 27.1013 7.36 27.288L6.648 27.52C6.632 27.328 6.58933 27.0987 6.52 26.832C6.456 26.56 6.37867 26.3093 6.288 26.08ZM4.52 25.904L5.288 26.04C5.24533 26.424 5.18133 26.8027 5.096 27.176C5.016 27.544 4.92 27.856 4.808 28.112C4.75467 28.0747 4.68533 28.0347 4.6 27.992C4.51467 27.9493 4.42667 27.9093 4.336 27.872C4.24533 27.8293 4.168 27.7973 4.104 27.776C4.22133 27.536 4.312 27.248 4.376 26.912C4.44 26.576 4.488 26.24 4.52 25.904ZM5.392 25.144H6.224V28.72H5.392V25.144ZM14.304 24.784V25.232H17.72V24.784H14.304ZM14.304 25.92V26.36H17.72V25.92H14.304ZM14.304 23.664V24.104H17.72V23.664H14.304ZM13.304 22.928H18.768V27.096H13.304V22.928ZM16.392 27.672L17.104 27.048C17.408 27.1493 17.72 27.2613 18.04 27.384C18.36 27.5067 18.6613 27.6293 18.944 27.752C19.232 27.8747 19.4773 27.984 19.68 28.08L18.72 28.72C18.5493 28.6187 18.336 28.5067 18.08 28.384C17.8293 28.2613 17.5573 28.1387 17.264 28.016C16.976 27.8933 16.6853 27.7787 16.392 27.672ZM12.616 21.576H19.336V22.448H12.616V21.576ZM15.488 21.992L16.656 22.12C16.5813 22.3707 16.504 22.608 16.424 22.832C16.344 23.056 16.2693 23.2507 16.2 23.416L15.272 23.256C15.32 23.0747 15.3653 22.8667 15.408 22.632C15.4507 22.3973 15.4773 22.184 15.488 21.992ZM14.792 26.992L15.624 27.656C15.384 27.784 15.1093 27.9147 14.8 28.048C14.496 28.1813 14.184 28.304 13.864 28.416C13.5493 28.5333 13.2533 28.632 12.976 28.712C12.896 28.6053 12.792 28.48 12.664 28.336C12.5413 28.192 12.424 28.0693 12.312 27.968C12.5947 27.8987 12.8907 27.8107 13.2 27.704C13.5147 27.592 13.8107 27.4747 14.088 27.352C14.3707 27.224 14.6053 27.104 14.792 26.992ZM23.88 21.432H24.784V22.408C24.784 22.6587 24.7573 22.9227 24.704 23.2C24.656 23.472 24.56 23.736 24.416 23.992C24.272 24.248 24.0613 24.4747 23.784 24.672C23.736 24.6133 23.6667 24.544 23.576 24.464C23.4907 24.3787 23.4 24.2987 23.304 24.224C23.208 24.1493 23.128 24.0933 23.064 24.056C23.3093 23.8907 23.488 23.7147 23.6 23.528C23.7173 23.3413 23.792 23.1493 23.824 22.952C23.8613 22.7547 23.88 22.568 23.88 22.392V21.432ZM25.672 21.432H26.576V23.232C26.576 23.3387 26.5813 23.4053 26.592 23.432C26.608 23.4587 26.6373 23.472 26.68 23.472C26.6907 23.472 26.7093 23.472 26.736 23.472C26.7627 23.472 26.7893 23.472 26.816 23.472C26.848 23.472 26.8693 23.472 26.88 23.472C26.912 23.472 26.9387 23.456 26.96 23.424C26.9813 23.3867 26.9973 23.312 27.008 23.2C27.0187 23.0827 27.0267 22.9067 27.032 22.672C27.1173 22.7467 27.2373 22.816 27.392 22.88C27.552 22.9387 27.6907 22.984 27.808 23.016C27.7813 23.3467 27.736 23.6053 27.672 23.792C27.608 23.9787 27.52 24.1093 27.408 24.184C27.3013 24.2533 27.16 24.288 26.984 24.288C26.9413 24.288 26.8907 24.288 26.832 24.288C26.7733 24.288 26.7147 24.288 26.656 24.288C26.6027 24.288 26.5547 24.288 26.512 24.288C26.2987 24.288 26.1307 24.256 26.008 24.192C25.8853 24.128 25.7973 24.0213 25.744 23.872C25.696 23.7173 25.672 23.5067 25.672 23.24V21.432ZM24.64 25.512C24.912 26.0827 25.3227 26.576 25.872 26.992C26.4213 27.4027 27.072 27.6987 27.824 27.88C27.7547 27.944 27.68 28.024 27.6 28.12C27.52 28.2213 27.4453 28.3227 27.376 28.424C27.3067 28.5307 27.248 28.6267 27.2 28.712C26.4053 28.472 25.7227 28.104 25.152 27.608C24.5867 27.1067 24.1333 26.4987 23.792 25.784L24.64 25.512ZM26.424 24.656H26.608L26.776 24.616L27.4 24.848C27.2613 25.3867 27.072 25.864 26.832 26.28C26.5973 26.6907 26.3173 27.0533 25.992 27.368C25.6667 27.6827 25.3013 27.9493 24.896 28.168C24.4907 28.3867 24.056 28.568 23.592 28.712C23.56 28.6267 23.5147 28.5307 23.456 28.424C23.3973 28.3227 23.3333 28.2213 23.264 28.12C23.2 28.0187 23.1387 27.9333 23.08 27.864C23.4907 27.7627 23.8773 27.624 24.24 27.448C24.6027 27.2667 24.928 27.048 25.216 26.792C25.5093 26.536 25.7573 26.24 25.96 25.904C26.168 25.568 26.3227 25.2 26.424 24.8V24.656ZM23.488 24.656H26.8V25.512H23.488V24.656ZM24.24 21.432H26.168V22.272H24.24V21.432ZM20.624 23.656H23.104V24.384H20.624V23.656ZM20.656 21.456H23.088V22.176H20.656V21.456ZM20.624 24.752H23.104V25.472H20.624V24.752ZM20.24 22.528H23.384V23.288H20.24V22.528ZM21.064 25.856H23.088V28.296H21.064V27.536H22.264V26.616H21.064V25.856ZM20.6 25.856H21.416V28.608H20.6V25.856ZM31.496 23.896H35.832V24.848H31.496V23.896ZM33.184 21.24H34.152V28.72H33.184V21.24ZM28.632 23.656H31.216V24.384H28.632V23.656ZM28.68 21.456H31.224V22.176H28.68V21.456ZM28.632 24.752H31.216V25.472H28.632V24.752ZM28.24 22.528H31.528V23.288H28.24V22.528ZM29.072 25.856H31.192V28.296H29.072V27.536H30.344V26.616H29.072V25.856ZM28.608 25.856H29.44V28.608H28.608V25.856Z" fill="black"/>
</svg>
