<svg width="2400" height="1400" viewBox="0 0 2400 1400" fill="none" xmlns="http://www.w3.org/2000/svg">
<rect width="2400" height="1400" fill="white"/>
<path d="M114.453 235.547V202.969H154.531C163.594 202.969 170.664 200.664 175.742 196.055C180.898 191.445 183.477 184.766 183.477 176.016V175.781C183.477 166.953 180.898 160.273 175.742 155.742C170.664 151.211 163.594 148.945 154.531 148.945H114.453V115.898H164.844C177.422 115.898 188.359 118.398 197.656 123.398C206.953 128.32 214.141 135.273 219.219 144.258C224.375 153.164 226.953 163.672 226.953 175.781V176.016C226.953 188.047 224.375 198.555 219.219 207.539C214.141 216.445 206.953 223.359 197.656 228.281C188.359 233.125 177.422 235.547 164.844 235.547H114.453ZM92.7734 285V115.898H135.781V285H92.7734ZM324.805 288.047C307.773 288.047 293.008 284.492 280.508 277.383C268.008 270.273 258.359 260.195 251.562 247.148C244.766 234.023 241.367 218.477 241.367 200.508V200.273C241.367 182.305 244.766 166.797 251.562 153.75C258.438 140.703 268.125 130.625 280.625 123.516C293.125 116.406 307.852 112.852 324.805 112.852C341.992 112.852 356.836 116.406 369.336 123.516C381.836 130.625 391.445 140.703 398.164 153.75C404.961 166.797 408.359 182.305 408.359 200.273V200.508C408.359 218.477 404.961 234.023 398.164 247.148C391.445 260.195 381.836 270.273 369.336 277.383C356.914 284.492 342.07 288.047 324.805 288.047ZM324.805 252.422C333.086 252.422 340.156 250.312 346.016 246.094C351.953 241.797 356.523 235.781 359.727 228.047C362.93 220.234 364.531 211.055 364.531 200.508V200.273C364.531 189.648 362.891 180.469 359.609 172.734C356.406 165 351.836 159.023 345.898 154.805C339.961 150.586 332.93 148.477 324.805 148.477C316.914 148.477 309.961 150.586 303.945 154.805C298.008 158.945 293.398 164.883 290.117 172.617C286.914 180.352 285.312 189.57 285.312 200.273V200.508C285.312 211.133 286.914 220.352 290.117 228.164C293.398 235.898 298.008 241.875 303.945 246.094C309.883 250.312 316.836 252.422 324.805 252.422ZM429.336 285V115.898H502.578C516.25 115.898 527.852 118.086 537.383 122.461C546.914 126.836 554.18 133.203 559.18 141.562C564.18 149.922 566.68 160.078 566.68 172.031V172.266C566.68 183.125 564.062 192.891 558.828 201.562C553.594 210.234 546.602 216.523 537.852 220.43L571.602 285H523.203L494.258 226.758C494.023 226.758 493.711 226.758 493.32 226.758C493.008 226.758 492.656 226.758 492.266 226.758H472.344V285H429.336ZM472.344 195.586H497.773C505.43 195.586 511.484 193.477 515.938 189.258C520.469 184.961 522.734 179.258 522.734 172.148V171.914C522.734 164.805 520.43 159.102 515.82 154.805C511.211 150.508 505.117 148.359 497.539 148.359H472.344V195.586ZM627.5 285V150.469H580.859V115.898H717.031V150.469H670.508V285H627.5ZM735.195 285V115.898H850.273V150.469H778.203V189.023H843.711V221.953H778.203V285H735.195ZM948.242 288.047C931.211 288.047 916.445 284.492 903.945 277.383C891.445 270.273 881.797 260.195 875 247.148C868.203 234.023 864.805 218.477 864.805 200.508V200.273C864.805 182.305 868.203 166.797 875 153.75C881.875 140.703 891.562 130.625 904.062 123.516C916.562 116.406 931.289 112.852 948.242 112.852C965.43 112.852 980.273 116.406 992.773 123.516C1005.27 130.625 1014.88 140.703 1021.6 153.75C1028.4 166.797 1031.8 182.305 1031.8 200.273V200.508C1031.8 218.477 1028.4 234.023 1021.6 247.148C1014.88 260.195 1005.27 270.273 992.773 277.383C980.352 284.492 965.508 288.047 948.242 288.047ZM948.242 252.422C956.523 252.422 963.594 250.312 969.453 246.094C975.391 241.797 979.961 235.781 983.164 228.047C986.367 220.234 987.969 211.055 987.969 200.508V200.273C987.969 189.648 986.328 180.469 983.047 172.734C979.844 165 975.273 159.023 969.336 154.805C963.398 150.586 956.367 148.477 948.242 148.477C940.352 148.477 933.398 150.586 927.383 154.805C921.445 158.945 916.836 164.883 913.555 172.617C910.352 180.352 908.75 189.57 908.75 200.273V200.508C908.75 211.133 910.352 220.352 913.555 228.164C916.836 235.898 921.445 241.875 927.383 246.094C933.32 250.312 940.273 252.422 948.242 252.422ZM1052.77 285V115.898H1095.78V250.43H1165.74V285H1052.77ZM1185.43 285V115.898H1228.44V285H1185.43ZM1332.85 288.047C1315.82 288.047 1301.05 284.492 1288.55 277.383C1276.05 270.273 1266.41 260.195 1259.61 247.148C1252.81 234.023 1249.41 218.477 1249.41 200.508V200.273C1249.41 182.305 1252.81 166.797 1259.61 153.75C1266.48 140.703 1276.17 130.625 1288.67 123.516C1301.17 116.406 1315.9 112.852 1332.85 112.852C1350.04 112.852 1364.88 116.406 1377.38 123.516C1389.88 130.625 1399.49 140.703 1406.21 153.75C1413.01 166.797 1416.41 182.305 1416.41 200.273V200.508C1416.41 218.477 1413.01 234.023 1406.21 247.148C1399.49 260.195 1389.88 270.273 1377.38 277.383C1364.96 284.492 1350.12 288.047 1332.85 288.047ZM1332.85 252.422C1341.13 252.422 1348.2 250.312 1354.06 246.094C1360 241.797 1364.57 235.781 1367.77 228.047C1370.98 220.234 1372.58 211.055 1372.58 200.508V200.273C1372.58 189.648 1370.94 180.469 1367.66 172.734C1364.45 165 1359.88 159.023 1353.95 154.805C1348.01 150.586 1340.98 148.477 1332.85 148.477C1324.96 148.477 1318.01 150.586 1311.99 154.805C1306.05 158.945 1301.45 164.883 1298.16 172.617C1294.96 180.352 1293.36 189.57 1293.36 200.273V200.508C1293.36 211.133 1294.96 220.352 1298.16 228.164C1301.45 235.898 1306.05 241.875 1311.99 246.094C1317.93 250.312 1324.88 252.422 1332.85 252.422Z" fill="black"/>
<path d="M1195.36 847.48H1339.6V1058.44H1312.24V872.44H1221.52V1060.36H1195.36V847.48ZM1227.76 901.96H1306.72V922.84H1227.76V901.96ZM1208.8 1021.24H1325.44V1046.44H1208.8V1021.24ZM1255.36 877.48H1277.68V954.52H1255.36V877.48ZM1254.64 963.64V988.6H1279.12V963.64H1254.64ZM1234 943.72H1300.96V1008.52H1234V943.72ZM1165.6 835.96L1192 843.88C1178.08 885.4 1155.04 929.8 1130.08 958.12C1127.92 951.16 1120.72 934.36 1116.16 926.92C1136.32 904.84 1154.8 870.28 1165.6 835.96ZM1145.92 901.72L1173.04 874.6L1173.28 874.84V1060.84H1145.92V901.72ZM1453.84 841H1486.72C1484.56 881.32 1481.44 998.44 1383.28 1058.68C1378.24 1051.24 1368.88 1042.36 1359.04 1035.64C1455.52 982.12 1452.16 872.44 1453.84 841ZM1485.76 847.24C1486.48 868.12 1491.52 987.88 1589.92 1033.96C1580.8 1040.92 1572.16 1050.52 1567.84 1058.44C1464.4 1007.08 1459.84 874.84 1457.92 850.12L1485.76 847.24ZM1712.08 874.36H1827.28V901.72H1698.64L1712.08 874.36ZM1743.76 927.16H1821.04V953.32H1743.76V927.16ZM1743.52 980.2H1824.16V1007.08H1743.52V980.2ZM1729.12 883.48H1758.64V1060.6H1729.12V883.48ZM1717.6 837.4L1745.44 844.84C1732 883.72 1710.4 923.56 1688.32 948.52C1683.76 943.24 1672.72 932.92 1666.48 928.36C1687.6 906.76 1706.56 872.2 1717.6 837.4ZM1654.24 836.2L1682.08 845.08C1666.48 885.88 1641.28 929.8 1614.88 957.16C1612.24 949.96 1604.08 933.64 1599.04 926.44C1621.12 904.6 1642 870.52 1654.24 836.2ZM1630 902.44L1658.8 873.4L1659.04 873.64V1060.36H1630V902.44ZM1911.52 872.2V904.6H1996V872.2H1911.52ZM1883.68 844.84H2025.52V931.96H1883.68V844.84ZM1850.8 952.12H1942.48V1059.16H1913.68V979.48H1877.92V1060.6H1850.8V952.12ZM1962.88 952.12H2057.92V1059.4H2028.88V979.48H1990.48V1060.6H1962.88V952.12ZM1862.8 1021H1925.68V1048.6H1862.8V1021ZM1976.08 1021H2043.28V1048.6H1976.08V1021ZM2085.52 982.84H2302.48V1005.88H2085.52V982.84ZM2131.6 893.56H2277.04V912.28H2131.6V893.56ZM2131.6 922.36H2277.28V941.08H2131.6V922.36ZM2125.84 861.16H2289.04V883.72H2125.84V861.16ZM2185.6 875.32H2213.2V959.56H2185.6V875.32ZM2178.88 967.48H2207.68V1060.36H2178.88V967.48ZM2176.72 992.44L2198.32 1003C2173.6 1027.48 2132.32 1048.6 2095.84 1059.16C2091.76 1051.96 2083.6 1041.4 2077.36 1035.4C2113.84 1027.72 2155.36 1010.92 2176.72 992.44ZM2210.8 991.72C2231.44 1009.96 2272 1026.76 2308 1034.68C2302 1040.44 2294.08 1051 2290 1057.96C2253.76 1047.64 2213.44 1026.52 2188.96 1002.52L2210.8 991.72ZM2197.6 835.24L2230 839.08C2222.32 853.48 2213.68 866.92 2206.96 876.28L2181.52 871.24C2187.52 860.92 2194.24 846.04 2197.6 835.24ZM2136.16 834.76L2165.68 840.52C2149.6 868.6 2128.48 896.2 2098.96 919.96C2094.4 913.48 2085.04 904.6 2078.56 900.52C2105.44 881.08 2125.12 855.88 2136.16 834.76ZM2112.88 875.8H2140.24V951.4H2296V973.24H2112.88V875.8ZM1983.28 1171.96H2007.52V1198.12H1983.28V1171.96ZM2008.24 1114.84L2030.08 1121.32C2024.56 1132.6 2019.52 1145.32 2015.44 1153.48L1999.12 1147.96C2002.48 1138.6 2006.56 1124.68 2008.24 1114.84ZM1963.6 1122.28L1980.64 1116.28C1985.44 1125.88 1989.28 1138.6 1990.48 1146.76L1972 1153.48C1971.28 1145.08 1967.68 1131.88 1963.6 1122.28ZM1931.2 1085.56H2043.28V1110.52H1956.88V1301.08H1931.2V1085.56ZM2034.64 1085.56H2060.56V1272.28C2060.56 1285.24 2058.16 1291.96 2050.24 1296.28C2042.08 1300.12 2030.56 1300.84 2013.76 1300.84C2013.04 1294.12 2009.44 1283.08 2006.08 1276.36C2015.92 1276.84 2026.72 1276.84 2030.08 1276.84C2033.44 1276.6 2034.64 1275.4 2034.64 1272.04V1085.56ZM1962.88 1151.32H2028.16V1172.68H1962.88V1151.32ZM1962.16 1191.64H2028.64V1213.24H1962.16V1191.64ZM1970.08 1202.92H1994.08V1234.6C1994.08 1240.36 1994.56 1242.28 1997.68 1242.28C2000.56 1242.28 2010.88 1242.28 2013.76 1242.28C2017.12 1242.28 2022.88 1241.8 2026 1240.84C2026.48 1247.08 2027.2 1257.64 2027.92 1263.16C2024.32 1264.6 2019.28 1264.84 2014 1264.84C2010.88 1264.84 2000.56 1264.84 1997.92 1264.84C1974.88 1264.84 1970.08 1256.92 1970.08 1234.36V1202.92ZM1876.96 1075.48L1901.92 1084.12C1892.08 1102.84 1881.04 1124.2 1871.92 1137.64L1852.72 1129.72C1861.12 1115.32 1871.44 1092.04 1876.96 1075.48ZM1904.08 1103.8L1927.36 1114.6C1909.84 1141.48 1886.56 1174.84 1868.08 1195.48L1851.52 1186.12C1869.52 1164.52 1891.36 1129.48 1904.08 1103.8ZM1839.76 1131.4L1853.92 1112.2C1866.4 1123.48 1881.04 1139.08 1886.8 1150.36L1871.2 1172.44C1865.92 1160.68 1851.76 1143.64 1839.76 1131.4ZM1895.92 1161.4L1915.84 1153C1925.44 1169.32 1934.56 1190.44 1937.44 1204.12L1915.84 1213.96C1913.2 1200.04 1904.8 1177.96 1895.92 1161.4ZM1839.04 1180.6C1860.64 1179.4 1891.6 1177.72 1921.6 1175.8L1921.84 1199.32C1893.76 1201.48 1864.48 1203.64 1842.16 1205.32L1839.04 1180.6ZM1902.4 1221.64L1922.56 1215.4C1928.32 1228.84 1933.12 1246.36 1934.8 1257.88L1913.44 1264.84C1912.24 1253.08 1907.68 1235.32 1902.4 1221.64ZM1849.36 1216.36L1872.4 1220.2C1870 1243.24 1864.96 1267 1858 1282.36C1853.2 1279.24 1842.64 1274.68 1837.12 1272.28C1843.84 1258.12 1847.44 1236.52 1849.36 1216.36ZM1875.76 1193.32H1900.48V1300.6H1875.76V1193.32ZM2086.72 1119.88H2179.84V1146.76H2086.72V1119.88ZM2120.8 1078.6H2147.68V1133.08H2120.8V1078.6ZM2236.48 1119.4H2306.32V1146.76H2236.48V1119.4ZM2196.4 1262.2H2282.32V1289.08H2196.4V1262.2ZM2222.08 1075H2251.84V1200.04H2222.08V1075ZM2183.68 1188.28H2297.92V1299.4H2268.64V1215.16H2211.52V1300.36H2183.68V1188.28ZM2081.44 1250.68C2106.4 1246.36 2144.32 1238.68 2179.6 1230.76L2182.48 1257.4C2149.6 1265.32 2114.08 1273.48 2087.2 1279.48L2081.44 1250.68ZM2092.96 1158.04L2115.76 1153.72C2121.76 1179.64 2125.6 1212.04 2126.08 1234.36L2101.36 1239.16C2101.84 1217.32 2098 1183.72 2092.96 1158.04ZM2146.48 1151.32L2174.56 1156.12C2170.72 1186.6 2164.96 1221.88 2159.92 1244.2L2135.92 1239.4C2140.72 1216.12 2145.28 1178.68 2146.48 1151.32Z" fill="black"/>
</svg>
